<svg version="1.1" id="Layer_1" xmlns="http://www.w3.org/2000/svg" xmlns:xlink="http://www.w3.org/1999/xlink" x="0px" y="0px"
	 width="100%" viewBox="0 0 400 400" enable-background="new 0 0 400 400" xml:space="preserve" fill="#3B82F6">
<path fill="#483FAC" opacity="1.000000" stroke="none" 
	d="
M223.000000,401.000000 
	C209.979111,401.000000 196.958206,401.000000 183.451721,400.589294 
	C181.746735,399.455658 180.600677,398.306793 179.295502,398.082062 
	C172.996796,396.997375 166.494568,396.756348 160.365753,395.100922 
	C150.660263,392.479431 141.231186,388.850128 131.604874,385.910095 
	C128.747528,385.037445 125.620872,385.046539 122.538483,384.645081 
	C122.459351,384.638580 122.302528,384.613525 122.477417,384.247253 
	C117.182541,378.624512 110.102112,376.853699 103.085396,374.518433 
	C102.516968,373.016418 102.305832,371.352753 101.403397,370.781860 
	C98.192230,368.750488 94.887833,366.706482 91.348442,365.398895 
	C87.805084,364.089874 86.362404,362.151581 87.262665,359.547089 
	C84.428543,358.557220 82.023537,357.726593 79.625412,356.876587 
	C77.787224,356.225098 75.957672,355.549255 74.041786,354.549561 
	C70.977394,351.468842 67.995491,348.722778 64.955917,345.638641 
	C63.949066,344.844238 62.999893,344.387878 61.931870,343.728455 
	C61.618111,343.270264 61.374615,343.075958 61.024448,342.598938 
	C59.543118,340.245697 58.383648,337.959930 56.635803,336.290009 
	C53.908154,333.683960 50.781609,331.495392 47.867561,329.107483 
	C47.911030,329.085052 47.900272,329.182312 47.826607,328.919708 
	C47.462696,328.454193 47.172451,328.251282 46.925179,328.041199 
	C46.968155,328.034088 46.924915,328.109711 46.947426,327.729736 
	C45.355961,322.439484 43.220764,317.953918 37.878712,316.078583 
	C37.933197,316.031311 37.868908,316.160461 37.912495,315.717987 
	C37.947155,311.587250 38.896374,307.136963 32.564468,308.441681 
	C32.573662,308.398499 32.488483,308.375183 32.659058,308.036011 
	C32.510735,304.248688 32.191845,300.800568 31.866688,297.284698 
	C29.696859,296.860657 27.445288,296.420624 25.066765,295.809570 
	C24.939812,295.638550 24.906778,295.213867 24.939053,294.791748 
	C24.505985,292.298584 24.229326,290.162506 23.541943,288.167969 
	C20.868505,280.410522 16.059202,273.552032 14.395423,265.295135 
	C13.761153,262.147400 12.178251,259.458282 14.769059,256.568054 
	C15.058042,256.245667 14.561495,255.219116 14.387526,254.298340 
	C13.091148,255.415253 12.121699,256.250488 9.938238,258.131653 
	C7.808540,245.085175 6.000022,233.383911 3.931320,221.728821 
	C3.343456,218.416794 1.998020,215.239227 1.000001,212.000000 
	C1.000000,211.555557 1.000000,211.111099 1.258385,210.121399 
	C1.344513,208.384079 1.172256,207.192047 1.000000,206.000000 
	C1.000000,196.979111 1.000000,187.958206 1.392792,178.408844 
	C2.089162,177.131546 2.583732,176.403564 2.668143,175.630798 
	C4.384392,159.918518 8.199655,144.684753 14.017795,130.045700 
	C17.893463,120.294121 22.743555,110.929817 27.419373,101.183563 
	C28.419214,99.633286 29.157209,98.291611 30.133442,96.690872 
	C32.968365,92.601166 35.447708,88.684631 38.179543,84.952934 
	C72.251762,38.410202 117.766121,10.883773 174.933212,2.709349 
	C176.014832,2.554688 176.980316,1.587878 178.000000,0.999997 
	C188.354233,1.000000 198.708450,1.000000 209.620865,1.388367 
	C213.960266,2.510692 217.721588,3.740549 221.526123,3.893112 
	C238.363174,4.568288 253.974258,9.961672 269.517273,15.755466 
	C271.971375,16.670256 274.652130,17.049707 277.002411,18.156088 
	C282.909210,20.936707 288.705444,23.955658 294.507904,26.952854 
	C297.134003,28.309336 299.701935,29.786997 302.238525,31.306061 
	C306.014679,33.567421 311.088898,35.082085 313.153473,38.429909 
	C315.888428,42.864758 319.042908,43.080189 323.050598,42.965931 
	C323.017639,42.994797 323.046204,42.911957 323.142181,43.155491 
	C323.524567,43.585739 323.810944,43.772449 324.057343,43.966537 
	C324.017334,43.973911 324.057404,43.903091 324.074951,44.270500 
	C325.420074,45.418159 326.747589,46.198418 328.308838,47.033436 
	C328.840942,47.267067 329.005981,47.529724 329.030212,48.253048 
	C331.119568,52.914303 334.256927,55.943611 339.034088,56.976059 
	C339.002014,56.995876 339.043976,56.933250 339.033905,57.322517 
	C339.175781,60.947289 340.791565,62.440903 344.035828,61.970982 
	C343.999908,61.988010 344.047363,61.924210 344.033936,62.294449 
	C347.335785,66.129005 350.651031,69.593330 354.079498,73.264030 
	C354.384247,73.729164 354.626648,73.924973 354.942963,74.456543 
	C355.410461,77.442139 355.046997,80.846657 359.555420,79.443382 
	C359.590088,79.530945 359.579987,79.719048 359.395874,80.082108 
	C359.483002,83.505699 360.374756,86.003517 364.089478,85.925812 
	C364.030914,85.963844 364.113281,85.851021 364.074951,86.296936 
	C363.993317,94.011932 364.041870,94.072914 369.430908,93.572906 
	C369.420898,93.614151 369.497864,93.649925 369.335541,93.968826 
	C370.462158,97.690483 371.484344,101.225754 373.095337,104.468483 
	C376.481628,111.284660 380.762695,117.710556 383.600403,124.731575 
	C387.318481,133.930862 390.472382,143.425903 392.983398,153.025375 
	C395.272827,161.777710 396.281494,170.858932 398.058655,179.754471 
	C398.752380,183.226913 400.003021,186.588120 401.000000,190.000000 
	C401.000000,201.354233 401.000000,212.708450 400.597748,224.502106 
	C399.894897,225.493591 399.444336,226.012985 399.315826,226.602554 
	C396.877716,237.790329 395.038208,249.143875 391.947235,260.146362 
	C386.344452,280.089691 377.368286,298.656677 364.959381,315.202942 
	C356.945526,325.888794 347.385498,335.417511 338.486084,345.436127 
	C325.595642,359.947693 309.475311,370.536224 292.589172,379.193268 
	C271.897522,389.801270 249.674316,396.992218 226.227173,399.380554 
	C225.108078,399.494598 224.073792,400.441162 223.000000,401.000000 
M150.216507,302.924011 
	C150.464890,302.906860 150.696136,302.834808 151.192505,302.306946 
	C151.192505,302.306946 151.636932,302.099884 152.206390,301.790741 
	C151.874466,299.857880 151.542557,297.925018 151.066040,296.034393 
	C151.066040,296.034393 151.024277,295.889648 151.007721,295.174225 
	C149.988388,294.343842 148.768234,292.635864 147.980225,292.816223 
	C137.940765,295.113647 127.059845,288.935608 124.491669,278.827698 
	C122.238487,269.959534 124.463219,261.185883 126.432999,252.607620 
	C128.114609,245.284332 130.818405,238.195755 133.597931,230.575531 
	C134.066437,229.060349 134.534943,227.545166 135.038025,225.998978 
	C135.038025,225.998978 135.077759,225.975403 135.487717,225.761780 
	C135.738419,225.561264 135.903381,225.305435 135.999649,224.332855 
	C136.009918,223.892487 136.020187,223.452133 136.633179,222.689865 
	C139.213608,217.679977 143.100159,216.600906 148.764099,216.800308 
	C165.036148,217.373199 181.341522,217.030685 197.633545,216.973846 
	C200.531784,216.963745 202.837906,217.101135 203.189148,220.895630 
	C203.748322,226.936325 206.162857,232.307922 210.016876,237.787109 
	C210.346680,238.854355 210.786133,239.901352 210.987518,240.992310 
	C211.919556,246.041245 218.446091,250.492798 213.523819,254.928009 
	C215.350739,257.721344 216.850998,259.854218 218.182434,262.087769 
	C220.302353,265.644043 222.309784,269.267365 224.766891,273.289703 
	C224.855438,273.864044 224.943985,274.438385 224.495865,275.492279 
	C225.516617,281.933868 226.368591,288.319519 218.507416,292.548523 
	C215.755737,293.041748 213.022461,293.756927 210.248947,293.986847 
	C201.720245,294.693909 201.709976,294.622498 203.349457,303.354370 
	C203.403046,303.639801 203.737625,303.872437 204.138382,304.378784 
	C213.364563,303.929504 222.770081,303.056763 232.172134,303.092651 
	C258.674103,303.193817 285.174316,303.718018 311.676422,303.912537 
	C314.104797,303.930389 316.541718,302.781281 318.971527,301.300995 
	C318.971527,299.665985 318.971527,298.030975 318.971527,296.362701 
	C312.257080,295.214813 307.659821,291.620636 304.568909,286.179993 
	C302.444489,282.440491 300.458252,278.582458 298.841614,274.602264 
	C294.532867,263.993958 290.408295,253.309738 286.300323,242.621185 
	C280.174255,226.681717 274.125244,210.712616 268.035309,193.940445 
	C267.860413,192.308182 268.000549,190.562210 267.459167,189.062225 
	C264.079529,179.698181 260.514954,170.401108 257.081665,161.056122 
	C255.661362,157.190308 253.768372,153.339066 253.283859,149.336716 
	C252.863388,145.863358 248.453445,136.004990 245.106079,134.263016 
	C244.989136,134.202179 244.785675,134.307571 244.654510,134.305786 
	C244.654510,134.305786 244.664780,134.263397 244.866730,133.520004 
	C244.856934,130.924271 245.610580,128.005768 244.678085,125.800148 
	C242.751541,121.243347 239.510254,117.243423 237.573761,112.689568 
	C234.994705,106.624649 233.143417,100.250252 231.647781,93.642059 
	C232.127213,91.369987 232.606628,89.097923 233.086060,86.825851 
	C232.668365,86.787773 232.250671,86.749695 231.832977,86.711617 
	C230.886826,88.145973 229.940659,89.580338 228.520172,90.940941 
	C228.520172,90.940941 228.060516,90.802589 228.028961,89.985046 
	C228.312653,88.233315 228.781967,86.484879 228.813049,84.728676 
	C228.832932,83.606514 228.210617,81.496513 227.866287,81.494461 
	C224.157959,81.472313 224.398788,78.638176 224.023071,76.354759 
	C223.622986,73.923355 223.128723,71.771782 219.991104,71.996170 
	C219.991104,71.996170 219.967896,72.043182 219.926651,71.349930 
	C219.601730,69.961197 219.276794,68.572464 218.740494,66.280273 
	C217.218430,67.318672 216.125366,68.255562 214.874023,68.870193 
	C213.273941,69.656113 211.514648,70.796860 209.879028,70.712845 
	C203.142242,70.366776 196.433228,69.455093 189.696152,69.162865 
	C188.516602,69.111694 187.251358,71.035927 186.022110,71.992569 
	C186.022110,71.992569 186.055618,72.036896 185.333038,72.084900 
	C184.567810,72.847633 183.465317,73.473686 183.091858,74.395187 
	C180.601791,80.539490 178.088135,86.685585 175.944046,92.954857 
	C174.459305,97.296204 173.553894,101.835678 172.450287,106.209579 
	C172.450287,106.209579 172.443359,106.307411 171.684204,106.349518 
	C169.022415,111.543938 165.839813,116.545296 163.825363,121.979683 
	C161.055954,129.450699 159.170731,137.249481 156.222580,145.097275 
	C151.074020,153.009567 147.338821,161.422516 146.997009,171.005417 
	C146.997009,171.005417 147.051331,171.012161 146.523880,171.352921 
	C146.359299,171.942230 146.194717,172.531555 145.978302,173.560074 
	C145.978302,173.560074 145.838272,173.979568 145.251175,174.360092 
	C144.521927,176.602478 143.792664,178.844864 143.015579,181.008530 
	C143.015579,181.008530 143.095673,181.054031 142.368103,181.127121 
	C139.346802,187.883331 133.126221,193.511337 135.001831,202.001663 
	C135.001831,202.001663 135.004700,202.011032 134.203568,202.011902 
	C133.135162,202.008484 132.066772,202.005066 130.989319,201.413315 
	C130.898010,200.912552 130.806686,200.411774 130.715378,199.911011 
	C130.486115,199.995743 130.256836,200.080460 130.027573,200.165192 
	C130.352234,200.776459 130.676895,201.387741 130.942596,202.681107 
	C130.770523,206.578751 130.598450,210.476410 130.304214,214.313644 
	C130.304214,214.313644 130.430923,214.263443 129.727280,214.407593 
	C126.131508,219.737183 121.957100,224.843155 122.254745,232.099731 
	C121.172501,234.039398 119.801270,235.877258 119.073952,237.941956 
	C117.907104,241.254410 117.196541,244.725494 116.237572,248.113815 
	C115.202812,251.769928 114.104202,255.407944 112.993889,259.012451 
	C112.993889,259.012451 113.049400,259.026062 112.336174,258.940643 
	C110.836670,258.320129 109.337166,257.699615 108.219894,257.237244 
	C108.469902,260.397919 109.677071,263.529663 108.699699,265.658447 
	C106.134628,271.245392 102.563148,276.364227 99.505112,281.733673 
	C98.187668,284.046875 97.147881,286.518219 95.990623,288.988251 
	C95.990623,288.988251 95.919792,288.982574 95.297928,289.057831 
	C94.960945,289.508087 94.623955,289.958313 94.222221,290.191284 
	C94.222221,290.191284 94.353630,290.376007 93.533867,290.154083 
	C89.550430,290.154938 86.559158,291.716431 84.326805,295.883362 
	C83.717896,297.267456 82.248924,299.140961 82.694939,299.924744 
	C83.424744,301.207336 85.400635,301.780792 87.335419,303.341858 
	C90.903252,303.229004 94.470818,303.029907 98.038956,303.019043 
	C110.021820,302.982513 122.004883,303.013153 134.850464,303.022247 
	C138.895889,303.337128 142.941299,303.652008 147.398529,304.489319 
	C148.237518,303.940948 149.076492,303.392548 149.909119,302.959137 
	C149.909119,302.959137 149.853317,302.858429 150.216507,302.924011 
z"/>
<path fill="#FDFDFD" opacity="1.000000" stroke="none" 
	d="
M223.468658,401.000000 
	C224.073792,400.441162 225.108078,399.494598 226.227173,399.380554 
	C249.674316,396.992218 271.897522,389.801270 292.589172,379.193268 
	C309.475311,370.536224 325.595642,359.947693 338.486084,345.436127 
	C347.385498,335.417511 356.945526,325.888794 364.959381,315.202942 
	C377.368286,298.656677 386.344452,280.089691 391.947235,260.146362 
	C395.038208,249.143875 396.877716,237.790329 399.315826,226.602554 
	C399.444336,226.012985 399.894897,225.493591 400.597748,224.970764 
	C401.000000,283.594086 401.000000,342.188202 401.000000,401.000000 
	C341.979279,401.000000 282.958313,401.000000 223.468658,401.000000 
M374.530792,312.889435 
	C378.034882,310.616699 377.158905,307.541138 376.421814,304.237823 
	C373.229431,306.028687 372.079193,310.304077 374.530792,312.889435 
z"/>
<path fill="#FDFDFE" opacity="1.000000" stroke="none" 
	d="
M177.531342,0.999997 
	C176.980316,1.587878 176.014832,2.554688 174.933212,2.709349 
	C117.766121,10.883773 72.251762,38.410202 38.179543,84.952934 
	C35.447708,88.684631 32.968365,92.601166 29.839027,96.532959 
	C28.787670,94.247398 28.268970,91.860695 27.750269,89.473984 
	C23.653034,93.778442 25.006613,97.605461 27.157524,101.392174 
	C22.743555,110.929817 17.893463,120.294121 14.017795,130.045700 
	C8.199655,144.684753 4.384392,159.918518 2.668143,175.630798 
	C2.583732,176.403564 2.089162,177.131546 1.392792,177.940186 
	C1.000000,119.072975 1.000000,60.145954 1.000000,1.000000 
	C59.687378,1.000000 118.375031,1.000000 177.531342,0.999997 
M89.120857,30.712021 
	C90.029350,30.684816 91.181854,31.003178 91.800911,30.566059 
	C93.711540,29.216970 95.418625,27.579609 97.237427,26.026323 
	C91.564690,24.012667 89.579071,24.984865 89.120857,30.712021 
z"/>
<path fill="#FEFEFE" opacity="1.000000" stroke="none" 
	d="
M329.037689,47.876167 
	C329.005981,47.529724 328.840942,47.267067 328.156799,46.717377 
	C326.533142,45.532066 325.295258,44.717575 324.057404,43.903088 
	C324.057404,43.903091 324.017334,43.973911 323.973083,43.709091 
	C323.634613,43.266838 323.340393,43.089397 323.046204,42.911957 
	C323.046204,42.911957 323.017639,42.994797 322.898804,42.665691 
	C309.649841,31.956951 295.098969,23.965363 279.964722,16.547955 
	C279.766113,14.358371 279.607056,12.508763 279.341125,9.416574 
	C276.018738,7.674612 272.287170,9.354036 268.497437,12.464323 
	C267.777222,12.241590 267.379944,12.067265 266.797852,11.660786 
	C266.047241,11.296988 265.481445,11.165346 264.666931,11.026179 
	C264.418182,11.018655 263.973328,10.795493 263.787415,10.590855 
	C263.246460,10.307038 262.891357,10.227859 262.262543,10.168087 
	C261.647888,10.061194 261.306976,9.934896 260.768768,9.589989 
	C260.001190,9.291622 259.430908,9.211862 258.927948,9.118992 
	C258.995270,9.105884 258.878540,9.177937 258.877075,8.835262 
	C258.404358,7.539324 257.933105,6.586061 256.722229,4.136611 
	C261.126434,6.095077 264.218872,7.470231 267.311310,8.845385 
	C267.610168,8.436007 267.909027,8.026628 268.207886,7.617250 
	C267.086456,6.551510 265.979797,5.469665 264.839661,4.424333 
	C263.575745,3.265495 262.281189,2.140014 261.000000,1.000001 
	C266.354919,1.000000 271.709869,1.000000 277.582947,1.333654 
	C279.067383,1.444872 280.033691,1.222437 281.000000,1.000001 
	C320.941010,1.000000 360.881989,1.000000 401.000000,1.000000 
	C401.000000,59.687443 401.000000,118.375061 400.591827,177.483826 
	C399.103363,172.106003 398.134705,166.283569 396.923279,160.512115 
	C391.892487,136.545166 383.225952,114.055977 369.497864,93.649925 
	C369.497864,93.649925 369.420898,93.614151 369.339600,93.256958 
	C367.543304,90.550179 365.828308,88.200592 364.113281,85.851013 
	C364.113281,85.851021 364.030914,85.963844 363.952545,85.616310 
	C362.442780,83.418869 361.011383,81.568962 359.579987,79.719055 
	C359.579987,79.719048 359.590088,79.530945 359.473022,79.207123 
	C359.247192,78.566422 359.138367,78.249557 359.183899,77.636955 
	C359.338226,74.643898 359.338226,71.946564 359.338226,69.119087 
	C356.155945,69.505157 354.255066,69.735764 352.124939,69.774490 
	C351.574982,69.093338 351.254364,68.604057 351.126068,67.848038 
	C352.159210,66.979347 353.000031,66.377411 354.897705,65.018852 
	C351.591156,65.018852 349.774689,65.018852 347.655762,64.906693 
	C346.251343,63.837753 345.149353,62.880985 344.047363,61.924213 
	C344.047363,61.924210 343.999908,61.988010 343.924194,61.662270 
	C342.246979,59.868767 340.645477,58.401009 339.043976,56.933250 
	C339.043976,56.933250 339.002014,56.995876 338.903870,56.660606 
	C335.549713,53.508945 332.293701,50.692554 329.037689,47.876167 
z"/>
<path fill="#FEFEFE" opacity="1.000000" stroke="none" 
	d="
M178.000000,401.000000 
	C119.072975,401.000000 60.145954,401.000000 1.000000,401.000000 
	C1.000000,342.312622 1.000000,283.624969 1.400247,224.590759 
	C1.936343,226.226181 1.808833,228.268768 2.248727,230.180817 
	C6.707649,249.562027 11.481327,268.852234 19.968838,287.313263 
	C17.288836,292.064392 20.065409,295.864624 21.356777,299.775391 
	C22.408394,302.960144 23.646111,306.106628 25.101704,309.125214 
	C25.853973,310.685303 27.259495,311.930359 28.571215,313.569336 
	C30.690815,310.289093 25.865347,307.494690 30.533989,306.039368 
	C31.340292,306.929688 31.914392,307.652435 32.488487,308.375183 
	C32.488483,308.375183 32.573662,308.398499 32.659817,308.754822 
	C34.453621,311.460907 36.161266,313.810699 37.868912,316.160461 
	C37.868908,316.160461 37.933197,316.031311 37.956764,316.414856 
	C40.961864,320.568848 43.943390,324.339294 46.924915,328.109711 
	C46.924915,328.109711 46.968155,328.034088 46.991901,328.308655 
	C47.310524,328.782928 47.605396,328.982635 47.900269,329.182312 
	C47.900272,329.182312 47.911030,329.085052 47.965927,329.431152 
	C51.851967,334.101776 55.683113,338.426239 59.150047,342.912354 
	C55.701157,346.035400 57.014523,347.724335 60.386143,349.027924 
	C61.600517,349.497375 62.993484,350.201019 63.674252,351.219391 
	C65.459602,353.890167 66.736168,353.750183 68.331825,351.039856 
	C69.781288,352.385925 70.913513,353.637726 72.030701,355.244629 
	C71.298111,356.818390 70.580566,358.037109 69.732101,359.478180 
	C71.554474,360.655396 73.306870,361.787415 74.745049,362.716461 
	C76.500114,362.005585 77.842445,361.461884 79.490555,360.903198 
	C80.210281,361.227692 80.624237,361.567139 80.981949,362.254456 
	C80.206299,364.204224 79.486877,365.806183 78.767464,367.408112 
	C80.841568,367.769989 82.920784,368.415161 84.987686,368.377869 
	C86.070374,368.358307 87.131439,367.141144 88.525658,366.608826 
	C90.540962,368.396759 92.232864,370.040649 93.588699,371.980865 
	C91.912819,372.443024 90.573006,372.608826 89.195274,372.779327 
	C90.548203,378.272278 98.635643,379.903900 103.487457,375.981506 
	C109.986198,378.903870 116.144363,381.758698 122.302528,384.613525 
	C122.302528,384.613525 122.459351,384.638580 122.764481,384.876282 
	C138.768204,392.276947 155.327332,396.382416 172.297272,399.085480 
	C174.250275,399.396576 176.101562,400.346344 178.000000,401.000000 
M55.495922,351.024658 
	C54.814339,351.340790 54.132751,351.656921 53.451168,351.973053 
	C53.552647,352.327148 53.654125,352.681274 53.755604,353.035400 
	C54.979710,352.744324 56.203812,352.453247 57.427917,352.162201 
	C57.020603,351.792328 56.613293,351.422485 55.495922,351.024658 
z"/>
<path fill="#534C9C" opacity="1.000000" stroke="none" 
	d="
M263.973328,10.795494 
	C263.973328,10.795493 264.418182,11.018655 264.843323,11.268754 
	C265.839874,11.643548 266.411285,11.768242 266.982666,11.892939 
	C267.379944,12.067265 267.777222,12.241590 268.760651,12.682152 
	C272.899292,14.261569 276.451752,15.574751 280.004242,16.887932 
	C295.098969,23.965363 309.649841,31.956951 322.931763,42.636826 
	C319.042908,43.080189 315.888428,42.864758 313.153473,38.429909 
	C311.088898,35.082085 306.014679,33.567421 302.238525,31.306061 
	C299.701935,29.786997 297.134003,28.309336 294.507904,26.952854 
	C288.705444,23.955658 282.909210,20.936707 277.002411,18.156088 
	C274.652130,17.049707 271.971375,16.670256 269.517273,15.755466 
	C253.974258,9.961672 238.363174,4.568288 221.526123,3.893112 
	C217.721588,3.740549 213.960266,2.510692 210.089523,1.388367 
	C212.370560,1.000000 214.741104,1.000000 217.774719,1.350335 
	C221.244308,1.924050 224.050842,2.147429 227.143066,2.531702 
	C228.295334,2.719421 229.161896,2.746247 230.259491,2.874824 
	C230.655716,2.944669 230.820938,2.912762 231.281784,3.003482 
	C232.210098,3.136315 232.842773,3.146520 233.732056,3.375633 
	C234.646103,3.659269 235.303543,3.723998 236.313995,3.894796 
	C237.395615,4.108486 238.124222,4.216105 239.164810,4.551083 
	C245.944031,6.244939 252.411285,7.711438 258.878540,9.177937 
	C258.878540,9.177937 258.995270,9.105884 259.104858,9.362284 
	C259.798309,9.681987 260.382202,9.745290 260.966064,9.808595 
	C261.306976,9.934896 261.647888,10.061194 262.442078,10.387253 
	C263.254669,10.656507 263.613983,10.726001 263.973328,10.795494 
z"/>
<path fill="#50499B" opacity="1.000000" stroke="none" 
	d="
M369.335541,93.968826 
	C383.225952,114.055977 391.892487,136.545166 396.923279,160.512115 
	C398.134705,166.283569 399.103363,172.106003 400.591827,177.952484 
	C401.000000,181.692902 401.000000,185.385818 401.000000,189.539368 
	C400.003021,186.588120 398.752380,183.226913 398.058655,179.754471 
	C396.281494,170.858932 395.272827,161.777710 392.983398,153.025375 
	C390.472382,143.425903 387.318481,133.930862 383.600403,124.731575 
	C380.762695,117.710556 376.481628,111.284660 373.095337,104.468483 
	C371.484344,101.225754 370.462158,97.690483 369.335541,93.968826 
z"/>
<path fill="#534B9B" opacity="1.000000" stroke="none" 
	d="
M20.017517,286.959930 
	C11.481327,268.852234 6.707649,249.562027 2.248727,230.180817 
	C1.808833,228.268768 1.936343,226.226181 1.400247,224.122101 
	C1.000000,220.307098 1.000000,216.614182 1.000001,212.460632 
	C1.998020,215.239227 3.343456,218.416794 3.931320,221.728821 
	C6.000022,233.383911 7.808540,245.085175 9.938238,258.131653 
	C12.121699,256.250488 13.091148,255.415253 14.387526,254.298340 
	C14.561495,255.219116 15.058042,256.245667 14.769059,256.568054 
	C12.178251,259.458282 13.761153,262.147400 14.395423,265.295135 
	C16.059202,273.552032 20.868505,280.410522 23.541943,288.167969 
	C24.229326,290.162506 24.505985,292.298584 24.667667,294.571350 
	C22.915174,292.168640 21.466345,289.564301 20.017517,286.959930 
z"/>
<path fill="#564E9C" opacity="1.000000" stroke="none" 
	d="
M178.416656,401.000000 
	C176.101562,400.346344 174.250275,399.396576 172.297272,399.085480 
	C155.327332,396.382416 138.768204,392.276947 122.843613,384.882782 
	C125.620872,385.046539 128.747528,385.037445 131.604874,385.910095 
	C141.231186,388.850128 150.660263,392.479431 160.365753,395.100922 
	C166.494568,396.756348 172.996796,396.997375 179.295502,398.082062 
	C180.600677,398.306793 181.746735,399.455658 182.983063,400.589294 
	C181.611115,401.000000 180.222214,401.000000 178.416656,401.000000 
z"/>
<path fill="#F7F7FA" opacity="1.000000" stroke="none" 
	d="
M258.877075,8.835262 
	C252.411285,7.711438 245.944031,6.244939 239.386856,4.224283 
	C243.753845,3.568083 248.219238,3.582630 252.660110,3.259913 
	C253.490433,3.199573 254.222565,1.788000 255.000000,1.000000 
	C255.444443,1.000000 255.888901,1.000000 256.705139,1.298707 
	C257.484558,1.916508 257.892181,2.235602 258.299774,2.554697 
	C258.533173,2.036465 258.766602,1.518233 259.000000,1.000000 
	C259.444458,1.000000 259.888885,1.000000 260.666687,1.000001 
	C262.281189,2.140014 263.575745,3.265495 264.839661,4.424333 
	C265.979797,5.469665 267.086456,6.551510 268.207886,7.617250 
	C267.909027,8.026628 267.610168,8.436007 267.311310,8.845385 
	C264.218872,7.470231 261.126434,6.095077 256.722229,4.136611 
	C257.933105,6.586061 258.404358,7.539324 258.877075,8.835262 
z"/>
<path fill="#FEFEFE" opacity="1.000000" stroke="none" 
	d="
M254.531342,1.000000 
	C254.222565,1.788000 253.490433,3.199573 252.660110,3.259913 
	C248.219238,3.582630 243.753845,3.568083 239.074890,3.996926 
	C238.124222,4.216105 237.395615,4.108486 236.068024,3.666098 
	C234.804520,3.273127 234.139984,3.214925 233.475464,3.156724 
	C232.842773,3.146520 232.210098,3.136315 231.203812,2.852454 
	C230.562973,2.643556 230.295715,2.708315 230.028473,2.773073 
	C229.161896,2.746247 228.295334,2.719421 227.188416,2.189830 
	C226.965393,1.458043 226.982697,1.229021 227.000000,1.000000 
	C236.020889,1.000000 245.041794,1.000000 254.531342,1.000000 
z"/>
<path fill="#F7F7FA" opacity="1.000000" stroke="none" 
	d="
M226.550018,1.000000 
	C226.982697,1.229021 226.965393,1.458043 226.902740,2.028936 
	C224.050842,2.147429 221.244308,1.924050 218.218872,1.350335 
	C220.700012,1.000000 223.400024,1.000000 226.550018,1.000000 
z"/>
<path fill="#F7F7FA" opacity="1.000000" stroke="none" 
	d="
M280.625000,1.000001 
	C280.033691,1.222437 279.067383,1.444872 278.050537,1.333654 
	C278.750000,1.000000 279.500000,1.000000 280.625000,1.000001 
z"/>
<path fill="#534B9B" opacity="1.000000" stroke="none" 
	d="
M1.000000,206.399994 
	C1.172256,207.192047 1.344513,208.384079 1.258385,209.788055 
	C1.000000,208.933334 1.000000,207.866653 1.000000,206.399994 
z"/>
<path fill="#FEFEFE" opacity="1.000000" stroke="none" 
	d="
M258.666687,1.000000 
	C258.766602,1.518233 258.533173,2.036465 258.299774,2.554697 
	C257.892181,2.235602 257.484558,1.916508 257.038483,1.298707 
	C257.444458,1.000000 257.888885,1.000000 258.666687,1.000000 
z"/>
<path fill="#FDFDFD" opacity="1.000000" stroke="none" 
	d="
M268.043427,194.756134 
	C274.125244,210.712616 280.174255,226.681717 286.300323,242.621185 
	C290.408295,253.309738 294.532867,263.993958 298.841614,274.602264 
	C300.458252,278.582458 302.444489,282.440491 304.568909,286.179993 
	C307.659821,291.620636 312.257080,295.214813 318.971527,296.362701 
	C318.971527,298.030975 318.971527,299.665985 318.520721,301.853699 
	C307.102417,302.222870 296.132965,301.809479 285.167816,301.902252 
	C259.950653,302.115570 234.735138,302.548340 209.519989,302.956635 
	C204.246445,303.042053 203.649216,302.373688 204.561539,296.918182 
	C210.475098,295.508026 216.204315,294.141815 222.270065,292.706726 
	C227.957642,288.332367 228.626160,283.475494 225.032532,275.012726 
	C224.943985,274.438385 224.855438,273.864044 224.532745,272.685028 
	C222.520187,266.746704 220.741776,261.413055 219.018005,255.770935 
	C220.281754,255.569061 221.490845,255.675674 222.979187,255.806915 
	C222.979187,254.457779 223.109619,252.834320 222.954895,251.238495 
	C222.478607,246.326416 217.484909,241.286423 213.732239,241.748978 
	C212.901688,239.938034 212.262405,238.388901 211.485931,236.477509 
	C210.546829,233.463409 209.744949,230.811569 208.905548,227.940308 
	C208.764435,227.428391 208.579132,227.203156 208.175629,226.782166 
	C207.984390,226.130600 207.929642,225.742035 207.858276,225.097778 
	C207.642517,224.574402 207.443359,224.306717 207.111389,223.798248 
	C206.939651,223.197800 206.900681,222.838104 206.850342,222.200775 
	C206.633820,221.626892 206.428680,221.330627 206.073868,220.736298 
	C205.842499,220.002594 205.760803,219.566971 205.958038,218.985413 
	C206.157578,217.892792 206.078186,216.946091 206.220062,215.729797 
	C207.248596,214.756989 208.055862,214.053772 208.863129,213.350555 
	C207.483444,212.187378 206.103745,211.024216 204.934982,210.038879 
	C205.508972,208.874496 206.153564,207.566833 206.798172,206.259186 
	C205.355667,206.082993 203.916168,205.870651 202.468979,205.750992 
	C201.989441,205.711349 201.490158,205.910202 200.899109,205.909058 
	C200.798325,205.818115 200.870590,205.556412 200.781097,205.178436 
	C200.299179,204.479645 199.906769,204.158829 199.478729,203.552155 
	C199.454803,202.882767 199.466522,202.499222 199.903992,202.082642 
	C201.158157,201.165680 201.986526,200.281784 202.814896,199.397888 
	C201.251984,198.930252 199.689087,198.462631 197.911682,197.692581 
	C193.836349,187.227219 189.975510,177.064285 186.078568,166.521637 
	C181.842407,154.503967 177.674011,142.854233 173.357666,131.259552 
	C173.118256,130.616455 171.653336,130.429581 170.562988,130.198273 
	C170.288223,130.695084 170.209305,131.023972 170.132919,131.646759 
	C169.996704,132.303619 169.857941,132.666595 169.536102,133.179718 
	C169.145950,133.591415 169.056763,133.888367 169.080673,134.489136 
	C168.729080,135.359100 168.382294,135.960648 167.549393,136.428452 
	C165.390274,136.185715 163.717239,136.076736 162.026810,135.699554 
	C161.991287,135.252792 161.973160,135.074265 161.964935,134.617615 
	C162.211731,133.850876 162.448624,133.362244 163.036499,132.877609 
	C163.567001,131.911911 163.746552,130.942215 163.941437,129.707031 
	C164.038147,129.283997 164.119537,129.126465 164.418472,128.781464 
	C164.748627,128.041809 164.861221,127.489609 164.982910,126.683990 
	C165.069260,126.280182 165.146515,126.129807 165.415863,125.828064 
	C165.829254,125.412918 165.929886,125.109138 165.922638,124.391968 
	C168.104752,118.114845 170.274048,112.211128 172.443359,106.307411 
	C172.443359,106.307411 172.450287,106.209579 172.681000,106.022476 
	C177.293015,94.569214 181.674316,83.303055 186.055618,72.036896 
	C186.055618,72.036896 186.022110,71.992569 186.447845,72.032715 
	C197.905014,72.062965 208.936462,72.053078 219.967896,72.043182 
	C219.967896,72.043182 219.991104,71.996170 220.161041,72.325333 
	C222.833267,78.752747 225.335571,84.850990 227.810211,91.237457 
	C228.135178,92.194359 228.487823,92.863022 228.790985,93.660797 
	C228.741501,93.789917 228.921387,93.999962 228.930954,94.379166 
	C229.598358,96.450562 230.243286,98.147896 230.916092,99.834106 
	C235.495712,111.311844 240.081192,122.787247 244.664780,134.263397 
	C244.664780,134.263397 244.654510,134.305786 244.694275,134.690552 
	C246.012650,138.485458 247.246597,141.913132 248.577454,145.302750 
	C255.051880,161.792786 261.552246,178.272659 268.043427,194.756134 
M227.033585,118.042801 
	C227.899521,121.603264 224.836044,126.327133 230.905228,129.732330 
	C230.905228,125.231041 231.153580,121.848228 230.812637,118.525894 
	C230.606201,116.514313 229.278641,115.190491 227.033585,118.042801 
M189.263168,83.583839 
	C189.624069,82.192245 190.283432,80.796341 190.263412,79.410248 
	C190.242661,77.974518 189.563187,76.548302 189.171844,75.117912 
	C188.127457,76.349564 186.243347,77.581573 186.243866,78.812782 
	C186.244583,80.482941 187.688538,82.152489 189.263168,83.583839 
z"/>
<path fill="#FAF9FB" opacity="1.000000" stroke="none" 
	d="
M86.850922,302.653381 
	C85.400635,301.780792 83.424744,301.207336 82.694939,299.924744 
	C82.248924,299.140961 83.717896,297.267456 85.016907,295.778198 
	C88.589218,293.907349 91.471428,292.141693 94.353638,290.376007 
	C94.353630,290.376007 94.222221,290.191284 94.538040,290.233917 
	C95.209167,289.845215 95.564484,289.413910 95.919792,288.982574 
	C95.919792,288.982574 95.990623,288.988251 96.297913,288.838287 
	C104.566948,280.175964 109.258652,269.850739 113.049400,259.026062 
	C113.049400,259.026062 112.993889,259.012451 113.264954,258.785797 
	C116.699699,250.061951 119.863388,241.564758 123.292572,232.872681 
	C125.733711,228.119370 127.909363,223.560944 130.431396,219.069641 
	C130.960968,220.242432 131.001373,221.397659 131.363724,222.441101 
	C131.809555,223.724976 132.523880,224.915604 133.106415,226.508270 
	C132.780731,228.260590 132.470795,229.651184 131.799042,231.156448 
	C129.304947,236.505310 126.611206,241.592300 125.190079,247.012924 
	C123.602425,253.068665 123.232277,259.437347 122.221687,265.651825 
	C119.817009,280.439056 124.508636,290.243958 136.307602,293.676880 
	C141.028152,295.050354 146.107986,295.188965 151.024277,295.889648 
	C151.024277,295.889648 151.066040,296.034393 151.206696,296.445496 
	C151.443878,298.604340 151.540405,300.352112 151.636932,302.099884 
	C151.636932,302.099884 151.192505,302.306946 150.870468,302.428467 
	C150.254639,302.512604 150.022934,302.615417 149.853317,302.858429 
	C149.853317,302.858429 149.909119,302.959137 149.571045,302.793335 
	C148.521835,302.661987 147.810699,302.696442 146.722473,302.568726 
	C142.227829,302.332916 138.110291,302.259216 133.530762,302.104736 
	C129.583588,301.962585 126.096428,301.794708 122.613564,301.859222 
	C110.691872,302.079926 98.771683,302.382202 86.850922,302.653381 
z"/>
<path fill="#FAF9FB" opacity="1.000000" stroke="none" 
	d="
M162.044220,135.967758 
	C163.717239,136.076736 165.390274,136.185715 167.513153,136.819748 
	C167.529968,138.579529 167.096909,139.814255 166.498779,141.183533 
	C166.145172,141.546143 166.045334,141.808044 166.014252,142.456528 
	C165.544403,143.890610 165.094528,144.971924 164.481812,146.193146 
	C164.136292,146.569595 164.046326,146.837311 164.032852,147.501038 
	C163.228455,149.926575 162.440262,151.987274 161.489075,154.184204 
	C161.140701,154.550095 161.044235,154.812424 161.006943,155.469360 
	C160.598236,157.226089 160.219315,158.620956 159.780701,160.100403 
	C159.721008,160.185013 159.779068,160.383789 159.510193,160.650696 
	C152.853516,176.892883 146.465729,192.868179 140.010727,209.200699 
	C136.829651,212.083160 133.715820,214.608383 130.363937,216.924957 
	C130.227570,215.898682 130.329254,215.081055 130.430939,214.263443 
	C130.430923,214.263443 130.304214,214.313644 130.685394,214.195435 
	C132.379272,210.055176 133.691986,206.033096 135.004700,202.011032 
	C135.004700,202.011032 135.001831,202.001663 135.281342,201.772247 
	C138.072449,194.713226 140.584061,187.883636 143.095673,181.054031 
	C143.095673,181.054031 143.015579,181.008530 143.343292,180.863068 
	C144.393433,178.471603 145.115860,176.225586 145.838272,173.979568 
	C145.838272,173.979568 145.978302,173.560074 146.279510,173.183868 
	C146.737579,172.209152 146.894455,171.610657 147.051331,171.012161 
	C147.051331,171.012161 146.997009,171.005417 147.294785,170.838150 
	C148.417511,169.299896 149.471756,168.015503 150.027878,166.542984 
	C152.480301,160.049194 154.789185,153.501175 157.371902,146.792175 
	C157.723938,146.065674 157.854141,145.519791 157.994232,144.983978 
	C158.004105,144.994049 157.977173,144.992554 158.236633,144.808105 
	C158.639328,144.020462 158.782547,143.417267 158.943024,142.472961 
	C159.380966,141.077423 159.801636,140.022980 160.419586,138.796875 
	C160.701920,138.292252 160.786957,137.959335 160.870102,137.342239 
	C161.009995,136.710526 161.151764,136.362976 161.481598,136.009476 
	C161.669647,136.003510 162.044220,135.967758 162.044220,135.967758 
z"/>
<path fill="#534E8F" opacity="1.000000" stroke="none" 
	d="
M221.933533,292.775604 
	C216.204315,294.141815 210.475098,295.508026 204.561539,296.918182 
	C203.649216,302.373688 204.246445,303.042053 209.519989,302.956635 
	C234.735138,302.548340 259.950653,302.115570 285.167816,301.902252 
	C296.132965,301.809479 307.102417,302.222870 318.522278,302.290222 
	C316.541718,302.781281 314.104797,303.930389 311.676422,303.912537 
	C285.174316,303.718018 258.674103,303.193817 232.172134,303.092651 
	C222.770081,303.056763 213.364563,303.929504 204.138382,304.378784 
	C203.737625,303.872437 203.403046,303.639801 203.349457,303.354370 
	C201.709976,294.622498 201.720245,294.693909 210.248947,293.986847 
	C213.022461,293.756927 215.755737,293.041748 219.083618,292.271729 
	C220.417709,292.255188 221.175629,292.515381 221.933533,292.775604 
z"/>
<path fill="#524C95" opacity="1.000000" stroke="none" 
	d="
M206.861725,222.478409 
	C206.900681,222.838104 206.939651,223.197800 207.092743,224.064697 
	C207.429550,224.832428 207.652222,225.092957 207.874893,225.353470 
	C207.929642,225.742035 207.984390,226.130600 208.169403,227.017120 
	C208.402664,227.841202 208.617142,228.056091 208.943085,228.159729 
	C209.744949,230.811569 210.546829,233.463409 211.086319,236.521973 
	C210.557419,236.954971 210.290909,236.981232 210.024399,237.007477 
	C206.162857,232.307922 203.748322,226.936325 203.189148,220.895630 
	C202.837906,217.101135 200.531784,216.963745 197.633545,216.973846 
	C181.341522,217.030685 165.036148,217.373199 148.764099,216.800308 
	C143.100159,216.600906 139.213608,217.679977 136.321213,222.520294 
	C136.009476,221.911087 136.009705,221.471466 136.032806,220.643265 
	C136.518524,218.550385 136.981384,216.846054 137.584549,215.200699 
	C137.724869,215.259659 137.973297,215.083755 138.438019,215.170380 
	C159.601608,215.160141 180.300461,215.063263 201.337616,215.047180 
	C202.526962,215.417999 203.378021,215.708038 204.271423,216.289963 
	C204.768875,217.431686 205.223999,218.281509 205.679108,219.131348 
	C205.760803,219.566971 205.842499,220.002594 206.065094,221.018326 
	C206.424576,221.891754 206.643158,222.185074 206.861725,222.478409 
z"/>
<path fill="#5B5499" opacity="1.000000" stroke="none" 
	d="
M151.015991,295.531921 
	C146.107986,295.188965 141.028152,295.050354 136.307602,293.676880 
	C124.508636,290.243958 119.817009,280.439056 122.221687,265.651825 
	C123.232277,259.437347 123.602425,253.068665 125.190079,247.012924 
	C126.611206,241.592300 129.304947,236.505310 132.025757,231.134491 
	C132.614288,230.997879 133.070023,231.003357 133.070023,231.003357 
	C130.818405,238.195755 128.114609,245.284332 126.432999,252.607620 
	C124.463219,261.185883 122.238487,269.959534 124.491669,278.827698 
	C127.059845,288.935608 137.940765,295.113647 147.980225,292.816223 
	C148.768234,292.635864 149.988388,294.343842 151.015991,295.531921 
z"/>
<path fill="#57509B" opacity="1.000000" stroke="none" 
	d="
M268.039368,194.348297 
	C261.552246,178.272659 255.051880,161.792786 248.577454,145.302750 
	C247.246597,141.913132 246.012650,138.485458 244.678284,134.705414 
	C244.785675,134.307571 244.989136,134.202179 245.106079,134.263016 
	C248.453445,136.004990 252.863388,145.863358 253.283859,149.336716 
	C253.768372,153.339066 255.661362,157.190308 257.081665,161.056122 
	C260.514954,170.401108 264.079529,179.698181 267.459167,189.062225 
	C268.000549,190.562210 267.860413,192.308182 268.039368,194.348297 
z"/>
<path fill="#524A9F" opacity="1.000000" stroke="none" 
	d="
M219.947266,71.696556 
	C208.936462,72.053078 197.905014,72.062965 186.449646,72.060349 
	C187.251358,71.035927 188.516602,69.111694 189.696152,69.162865 
	C196.433228,69.455093 203.142242,70.366776 209.879028,70.712845 
	C211.514648,70.796860 213.273941,69.656113 214.874023,68.870193 
	C216.125366,68.255562 217.218430,67.318672 218.740494,66.280273 
	C219.276794,68.572464 219.601730,69.961197 219.947266,71.696556 
z"/>
<path fill="#F4F4F4" opacity="1.000000" stroke="none" 
	d="
M19.968836,287.313263 
	C21.466345,289.564301 22.915174,292.168640 24.635391,294.993439 
	C24.906778,295.213867 24.939812,295.638550 25.118279,296.148651 
	C26.965090,299.729736 28.633434,302.800751 30.301781,305.871735 
	C25.865347,307.494690 30.690815,310.289093 28.571215,313.569336 
	C27.259495,311.930359 25.853973,310.685303 25.101704,309.125214 
	C23.646111,306.106628 22.408394,302.960144 21.356777,299.775391 
	C20.065409,295.864624 17.288836,292.064392 19.968836,287.313263 
z"/>
<path fill="#564E9C" opacity="1.000000" stroke="none" 
	d="
M81.038193,361.906586 
	C80.624237,361.567139 80.210281,361.227692 79.427826,360.566956 
	C77.345032,358.529755 75.630753,356.813751 73.967575,355.043579 
	C74.018677,354.989380 74.124268,354.884247 74.124268,354.884216 
	C75.957672,355.549255 77.787224,356.225098 79.625412,356.876587 
	C82.023537,357.726593 84.428543,358.557220 87.262665,359.547089 
	C86.362404,362.151581 87.805084,364.089874 91.348442,365.398895 
	C94.887833,366.706482 98.192230,368.750488 101.403397,370.781860 
	C102.305832,371.352753 102.516968,373.016418 103.034706,374.575439 
	C103.024223,374.972076 102.921364,375.081177 102.623611,375.023804 
	C101.394096,374.590149 100.462349,374.213867 99.288811,373.548859 
	C97.352226,372.738586 95.657433,372.217010 93.950630,371.692963 
	C93.938622,371.690491 93.924782,371.684540 93.924774,371.684540 
	C92.232864,370.040649 90.540962,368.396759 88.326874,366.361938 
	C85.549194,364.616211 83.293694,363.261414 81.038193,361.906586 
z"/>
<path fill="#544C9A" opacity="1.000000" stroke="none" 
	d="
M112.692787,258.983337 
	C109.258652,269.850739 104.566948,280.175964 96.293579,288.803040 
	C97.147881,286.518219 98.187668,284.046875 99.505112,281.733673 
	C102.563148,276.364227 106.134628,271.245392 108.699699,265.658447 
	C109.677071,263.529663 108.469902,260.397919 108.219894,257.237244 
	C109.337166,257.699615 110.836670,258.320129 112.692787,258.983337 
z"/>
<path fill="#564F9B" opacity="1.000000" stroke="none" 
	d="
M161.293549,136.015442 
	C161.151764,136.362976 161.009995,136.710526 160.656006,137.504562 
	C160.369965,138.290222 160.296127,138.629379 160.222290,138.968552 
	C159.801636,140.022980 159.380966,141.077423 158.708160,142.676895 
	C158.296417,143.812149 158.136795,144.402344 157.977173,144.992554 
	C157.977173,144.992554 158.004105,144.994049 157.813812,145.054810 
	C157.623505,145.115570 157.255463,145.237396 157.168091,145.155212 
	C157.080704,145.073013 156.906693,144.907822 156.906693,144.907822 
	C159.170731,137.249481 161.055954,129.450699 163.825363,121.979683 
	C165.839813,116.545296 169.022415,111.543938 172.063782,106.328461 
	C170.274048,112.211128 168.104752,118.114845 165.705505,124.524467 
	C165.391632,125.346718 165.307709,125.663071 165.223785,125.979424 
	C165.146515,126.129807 165.069260,126.280182 164.758514,126.868294 
	C164.416992,127.860336 164.308945,128.414642 164.200912,128.968948 
	C164.119537,129.126465 164.038147,129.283997 163.691635,129.916199 
	C163.179504,131.218475 162.932526,132.046051 162.685516,132.873627 
	C162.448624,133.362244 162.211731,133.850876 161.766174,134.745117 
	C161.298431,135.386734 161.210449,135.674988 161.293549,136.015442 
z"/>
<path fill="#565199" opacity="1.000000" stroke="none" 
	d="
M210.020630,237.397293 
	C210.290909,236.981232 210.557419,236.954971 211.223541,236.884247 
	C212.262405,238.388901 212.901688,239.938034 213.720612,242.132111 
	C215.587952,247.211182 217.275665,251.645294 218.963379,256.079407 
	C220.741776,261.413055 222.520187,266.746704 224.331696,272.471313 
	C222.309784,269.267365 220.302353,265.644043 218.182434,262.087769 
	C216.850998,259.854218 215.350739,257.721344 213.523819,254.928009 
	C218.446091,250.492798 211.919556,246.041245 210.987518,240.992310 
	C210.786133,239.901352 210.346680,238.854355 210.020630,237.397293 
z"/>
<path fill="#564F9B" opacity="1.000000" stroke="none" 
	d="
M185.694336,72.060898 
	C181.674316,83.303055 177.293015,94.569214 172.650665,106.060997 
	C173.553894,101.835678 174.459305,97.296204 175.944046,92.954857 
	C178.088135,86.685585 180.601791,80.539490 183.091858,74.395187 
	C183.465317,73.473686 184.567810,72.847633 185.694336,72.060898 
z"/>
<path fill="#57509B" opacity="1.000000" stroke="none" 
	d="
M244.765747,133.891693 
	C240.081192,122.787247 235.495712,111.311844 230.916092,99.834106 
	C230.243286,98.147896 229.598358,96.450562 229.274139,94.380264 
	C230.065018,94.004372 230.522247,94.006592 230.979492,94.008804 
	C233.143417,100.250252 234.994705,106.624649 237.573761,112.689568 
	C239.510254,117.243423 242.751541,121.243347 244.678085,125.800148 
	C245.610580,128.005768 244.856934,130.924271 244.765747,133.891693 
z"/>
<path fill="#564F9B" opacity="1.000000" stroke="none" 
	d="
M157.150055,146.972809 
	C154.789185,153.501175 152.480301,160.049194 150.027878,166.542984 
	C149.471756,168.015503 148.417511,169.299896 147.311279,170.860016 
	C147.338821,161.422516 151.074020,153.009567 156.564636,145.002548 
	C156.906693,144.907822 157.080704,145.073013 157.148285,145.445526 
	C157.193909,146.202972 157.171982,146.587891 157.150055,146.972809 
z"/>
<path fill="#544C9A" opacity="1.000000" stroke="none" 
	d="
M123.027069,233.067566 
	C119.863388,241.564758 116.699699,250.061951 113.284729,258.806519 
	C114.104202,255.407944 115.202812,251.769928 116.237572,248.113815 
	C117.196541,244.725494 117.907104,241.254410 119.073952,237.941956 
	C119.801270,235.877258 121.172501,234.039398 122.623276,232.303406 
	C123.003563,232.693909 123.015320,232.880737 123.027069,233.067566 
z"/>
<path fill="#564F9B" opacity="1.000000" stroke="none" 
	d="
M142.731888,181.090576 
	C140.584061,187.883636 138.072449,194.713226 135.284698,201.769806 
	C133.126221,193.511337 139.346802,187.883331 142.731888,181.090576 
z"/>
<path fill="#514C8A" opacity="1.000000" stroke="none" 
	d="
M87.093170,302.997620 
	C98.771683,302.382202 110.691872,302.079926 122.613564,301.859222 
	C126.096428,301.794708 129.583588,301.962585 133.528580,302.312866 
	C133.988373,302.601807 133.987869,303.018066 133.987869,303.018066 
	C122.004883,303.013153 110.021820,302.982513 98.038956,303.019043 
	C94.470818,303.029907 90.903252,303.229004 87.093170,302.997620 
z"/>
<path fill="#564E9C" opacity="1.000000" stroke="none" 
	d="
M122.477417,384.247253 
	C116.144363,381.758698 109.986198,378.903870 103.430573,375.773499 
	C103.033104,375.497986 102.921364,375.081177 102.921364,375.081177 
	C102.921364,375.081177 103.024223,374.972076 103.074913,374.915039 
	C110.102112,376.853699 117.182541,378.624512 122.477417,384.247253 
z"/>
<path fill="#524A9F" opacity="1.000000" stroke="none" 
	d="
M227.837875,90.949234 
	C225.335571,84.850990 222.833267,78.752747 220.143295,72.346153 
	C223.128723,71.771782 223.622986,73.923355 224.023071,76.354759 
	C224.398788,78.638176 224.157959,81.472313 227.866287,81.494461 
	C228.210617,81.496513 228.832932,83.606514 228.813049,84.728676 
	C228.781967,86.484879 228.312653,88.233315 227.992706,90.437050 
	C227.956467,90.889053 227.837875,90.949234 227.837875,90.949234 
z"/>
<path fill="#57509C" opacity="1.000000" stroke="none" 
	d="
M123.292572,232.872681 
	C123.015320,232.880737 123.003563,232.693909 122.970428,232.226456 
	C121.957100,224.843155 126.131508,219.737183 130.079102,214.335510 
	C130.329254,215.081055 130.227570,215.898682 130.301880,217.167175 
	C130.346909,218.079544 130.215958,218.541016 130.085007,219.002502 
	C127.909363,223.560944 125.733711,228.119370 123.292572,232.872681 
z"/>
<path fill="#534B9B" opacity="1.000000" stroke="none" 
	d="
M30.533985,306.039368 
	C28.633434,302.800751 26.965090,299.729736 25.245232,296.319672 
	C27.445288,296.420624 29.696859,296.860657 31.866688,297.284698 
	C32.191845,300.800568 32.510735,304.248688 32.659058,308.036011 
	C31.914392,307.652435 31.340292,306.929688 30.533985,306.039368 
M30.482716,299.589935 
	C30.482716,299.589935 30.414116,299.476227 30.482716,299.589935 
z"/>
<path fill="#565199" opacity="1.000000" stroke="none" 
	d="
M222.270065,292.706726 
	C221.175629,292.515381 220.417709,292.255188 219.344086,291.992615 
	C226.368591,288.319519 225.516617,281.933868 224.764206,275.252502 
	C228.626160,283.475494 227.957642,288.332367 222.270065,292.706726 
z"/>
<path fill="#534B9B" opacity="1.000000" stroke="none" 
	d="
M59.514259,342.750732 
	C55.683113,338.426239 51.851967,334.101776 47.922455,329.453613 
	C50.781609,331.495392 53.908154,333.683960 56.635803,336.290009 
	C58.383648,337.959930 59.543118,340.245697 60.959682,342.657837 
	C60.953014,343.060272 60.829342,343.184204 60.604721,343.125305 
	C60.115753,342.894653 59.827141,342.789429 59.514259,342.750732 
z"/>
<path fill="#F6F7F1" opacity="1.000000" stroke="none" 
	d="
M27.419373,101.183563 
	C25.006613,97.605461 23.653034,93.778442 27.750269,89.473984 
	C28.268970,91.860695 28.787670,94.247398 29.600788,96.792023 
	C29.157209,98.291611 28.419214,99.633286 27.419373,101.183563 
z"/>
<path fill="#57509C" opacity="1.000000" stroke="none" 
	d="
M134.604126,202.011475 
	C133.691986,206.033096 132.379272,210.055176 130.746475,214.225647 
	C130.598450,210.476410 130.770523,206.578751 130.971298,202.340546 
	C131.000000,202.000000 130.998367,202.001648 130.998367,202.001648 
	C132.066772,202.005066 133.135162,202.008484 134.604126,202.011475 
z"/>
<path fill="#534B9B" opacity="1.000000" stroke="none" 
	d="
M46.947426,327.729736 
	C43.943390,324.339294 40.961864,320.568848 37.902283,316.462158 
	C43.220764,317.953918 45.355961,322.439484 46.947426,327.729736 
z"/>
<path fill="#50499B" opacity="1.000000" stroke="none" 
	d="
M344.033936,62.294453 
	C345.149353,62.880985 346.251343,63.837753 347.779907,65.194534 
	C349.115570,66.434616 350.024628,67.274696 350.933716,68.114777 
	C351.254364,68.604057 351.574982,69.093338 352.201752,70.050598 
	C353.049133,71.302055 353.590393,72.085541 354.088928,72.914978 
	C354.046204,72.960945 353.966278,73.057655 353.966278,73.057648 
	C350.651031,69.593330 347.335785,66.129005 344.033936,62.294453 
z"/>
<path fill="#50499B" opacity="1.000000" stroke="none" 
	d="
M329.030212,48.253044 
	C332.293701,50.692554 335.549713,53.508945 338.935913,56.640789 
	C334.256927,55.943611 331.119568,52.914303 329.030212,48.253044 
z"/>
<path fill="#564E9C" opacity="1.000000" stroke="none" 
	d="
M72.045731,354.889587 
	C70.913513,353.637726 69.781288,352.385925 68.215805,350.760559 
	C66.802170,349.406647 65.821800,348.426300 64.887329,347.078979 
	C64.960014,346.466888 64.986809,346.221771 65.013596,345.976685 
	C67.995491,348.722778 70.977394,351.468842 74.041779,354.549561 
	C74.124268,354.884247 74.018677,354.989380 73.654938,355.015259 
	C72.876045,354.990601 72.460884,354.940094 72.045731,354.889587 
z"/>
<path fill="#50499B" opacity="1.000000" stroke="none" 
	d="
M364.074951,86.296936 
	C365.828308,88.200592 367.543304,90.550179 369.349609,93.215714 
	C364.041870,94.072914 363.993317,94.011932 364.074951,86.296936 
z"/>
<path fill="#544C9A" opacity="1.000000" stroke="none" 
	d="
M93.943756,290.265045 
	C91.471428,292.141693 88.589218,293.907349 85.364609,295.619202 
	C86.559158,291.716431 89.550430,290.154938 93.943756,290.265045 
z"/>
<path fill="#534B9B" opacity="1.000000" stroke="none" 
	d="
M37.912498,315.717987 
	C36.161266,313.810699 34.453621,311.460907 32.650620,308.798004 
	C38.896374,307.136963 37.947155,311.587250 37.912498,315.717987 
z"/>
<path fill="#524A9F" opacity="1.000000" stroke="none" 
	d="
M231.313629,93.825432 
	C230.522247,94.006592 230.065018,94.004372 229.264587,94.001060 
	C228.921387,93.999962 228.741501,93.789917 228.835968,93.240730 
	C228.951797,92.132599 228.973160,91.573647 228.994507,91.014702 
	C229.940659,89.580338 230.886826,88.145973 231.832977,86.711617 
	C232.250671,86.749695 232.668365,86.787773 233.086060,86.825851 
	C232.606628,89.097923 232.127213,91.369987 231.313629,93.825432 
z"/>
<path fill="#5B5499" opacity="1.000000" stroke="none" 
	d="
M134.419159,303.020142 
	C133.987869,303.018066 133.988373,302.601807 133.990570,302.393677 
	C138.110291,302.259216 142.227829,302.332916 146.691910,302.877594 
	C147.021210,303.554688 147.003967,303.760803 146.986725,303.966888 
	C142.941299,303.652008 138.895889,303.337128 134.419159,303.020142 
z"/>
<path fill="#50499B" opacity="1.000000" stroke="none" 
	d="
M359.395874,80.082108 
	C361.011383,81.568962 362.442780,83.418869 364.011108,85.578278 
	C360.374756,86.003517 359.483002,83.505699 359.395874,80.082108 
z"/>
<path fill="#50499B" opacity="1.000000" stroke="none" 
	d="
M359.029572,77.932678 
	C359.138367,78.249557 359.247192,78.566422 359.438354,79.119553 
	C355.046997,80.846657 355.410461,77.442139 354.983093,74.425247 
	C355.000183,73.995262 355.076996,73.928421 355.359680,74.075264 
	C356.771454,75.458961 357.900513,76.695816 359.029572,77.932678 
z"/>
<path fill="#50499B" opacity="1.000000" stroke="none" 
	d="
M339.033905,57.322517 
	C340.645477,58.401009 342.246979,59.868767 343.960144,61.645241 
	C340.791565,62.440903 339.175781,60.947289 339.033905,57.322517 
z"/>
<path fill="#5B5499" opacity="1.000000" stroke="none" 
	d="
M151.921661,301.945312 
	C151.540405,300.352112 151.443878,298.604340 151.278992,296.424377 
	C151.542557,297.925018 151.874466,299.857880 151.921661,301.945312 
z"/>
<path fill="#564F9B" opacity="1.000000" stroke="none" 
	d="
M145.544724,174.169830 
	C145.115860,176.225586 144.393433,178.471603 143.367218,180.902435 
	C143.792664,178.844864 144.521927,176.602478 145.544724,174.169830 
z"/>
<path fill="#524C95" opacity="1.000000" stroke="none" 
	d="
M133.333984,230.789444 
	C133.070023,231.003357 132.614288,230.997879 132.387573,231.019836 
	C132.470795,229.651184 132.780731,228.260590 133.082352,226.486374 
	C133.074036,226.102753 133.081329,226.166107 133.351074,226.118973 
	C133.803223,226.063828 133.985626,226.055801 134.376648,226.033005 
	C134.585281,226.018219 135.003433,226.029984 135.003433,226.029984 
	C134.534943,227.545166 134.066437,229.060349 133.333984,230.789444 
z"/>
<path fill="#534C9C" opacity="1.000000" stroke="none" 
	d="
M324.074951,44.270493 
	C325.295258,44.717575 326.533142,45.532066 327.923065,46.662617 
	C326.747589,46.198418 325.420074,45.418159 324.074951,44.270493 
z"/>
<path fill="#5B5499" opacity="1.000000" stroke="none" 
	d="
M135.020721,226.014481 
	C135.003433,226.029984 134.585281,226.018219 134.391327,225.763580 
	C134.144547,225.336960 134.091736,225.164993 134.104156,224.651184 
	C134.537933,223.257278 134.906479,222.205246 135.459808,221.129303 
	C135.644608,221.105377 136.009933,221.031830 136.009933,221.031830 
	C136.009705,221.471466 136.009476,221.911087 136.019867,222.681244 
	C136.020187,223.452133 136.009918,223.892487 135.784271,224.769470 
	C135.311111,225.402466 135.147415,225.658905 135.077759,225.975403 
	C135.077759,225.975403 135.038025,225.998978 135.020721,226.014481 
z"/>
<path fill="#534B9B" opacity="1.000000" stroke="none" 
	d="
M64.955917,345.638641 
	C64.986809,346.221771 64.960014,346.466888 64.626663,346.889282 
	C63.472622,346.119659 62.625141,345.172729 61.846893,344.153076 
	C61.916126,344.080414 62.050724,343.931488 62.050720,343.931488 
	C62.999893,344.387878 63.949066,344.844238 64.955917,345.638641 
z"/>
<path fill="#514C8A" opacity="1.000000" stroke="none" 
	d="
M147.192627,304.228088 
	C147.003967,303.760803 147.021210,303.554688 147.069000,303.039734 
	C147.810699,302.696442 148.521835,302.661987 149.574219,302.735840 
	C149.076492,303.392548 148.237518,303.940948 147.192627,304.228088 
z"/>
<path fill="#57509B" opacity="1.000000" stroke="none" 
	d="
M228.757355,90.977821 
	C228.973160,91.573647 228.951797,92.132599 228.885468,93.111618 
	C228.487823,92.863022 228.135178,92.194359 227.810211,91.237457 
	C227.837875,90.949234 227.956467,90.889053 228.008484,90.845825 
	C228.060516,90.802589 228.520172,90.940941 228.757355,90.977821 
z"/>
<path fill="#57509C" opacity="1.000000" stroke="none" 
	d="
M131.000778,201.999512 
	C130.676895,201.387741 130.352234,200.776459 130.027573,200.165192 
	C130.256836,200.080460 130.486115,199.995743 130.715378,199.911011 
	C130.806686,200.411774 130.898010,200.912552 130.993835,201.707489 
	C130.998367,202.001648 131.000000,202.000000 131.000778,201.999512 
z"/>
<path fill="#564F9B" opacity="1.000000" stroke="none" 
	d="
M146.787598,171.182541 
	C146.894455,171.610657 146.737579,172.209152 146.305420,172.964264 
	C146.194717,172.531555 146.359299,171.942230 146.787598,171.182541 
z"/>
<path fill="#544C9A" opacity="1.000000" stroke="none" 
	d="
M95.608856,289.020203 
	C95.564484,289.413910 95.209167,289.845215 94.570412,290.342529 
	C94.623955,289.958313 94.960945,289.508087 95.608856,289.020203 
z"/>
<path fill="#534B9B" opacity="1.000000" stroke="none" 
	d="
M47.826607,328.919708 
	C47.605396,328.982635 47.310524,328.782928 46.948929,328.315796 
	C47.172451,328.251282 47.462696,328.454193 47.826607,328.919708 
z"/>
<path fill="#50499B" opacity="1.000000" stroke="none" 
	d="
M354.960022,74.026550 
	C354.626648,73.924973 354.384247,73.729164 354.079498,73.264038 
	C353.966278,73.057655 354.046204,72.960945 354.326660,73.007942 
	C354.763763,73.346100 354.920380,73.637260 355.076996,73.928421 
	C355.076996,73.928421 355.000183,73.995262 354.960022,74.026550 
z"/>
<path fill="#524C95" opacity="1.000000" stroke="none" 
	d="
M135.282745,225.868591 
	C135.147415,225.658905 135.311111,225.402466 135.775742,225.100189 
	C135.903381,225.305435 135.738419,225.561264 135.282745,225.868591 
z"/>
<path fill="#534B9B" opacity="1.000000" stroke="none" 
	d="
M61.017780,343.001404 
	C61.374615,343.075958 61.618111,343.270264 61.931877,343.728455 
	C62.050724,343.931488 61.916126,344.080414 61.617126,344.055542 
	C61.037392,343.816559 60.874462,343.534393 60.829342,343.184204 
	C60.829342,343.184204 60.953014,343.060272 61.017780,343.001404 
z"/>
<path fill="#5B5499" opacity="1.000000" stroke="none" 
	d="
M150.034912,302.891235 
	C150.022934,302.615417 150.254639,302.512604 150.729355,302.628906 
	C150.696136,302.834808 150.464890,302.906860 150.034912,302.891235 
z"/>
<path fill="#534C9C" opacity="1.000000" stroke="none" 
	d="
M323.142181,43.155491 
	C323.340393,43.089397 323.634613,43.266838 324.013062,43.701721 
	C323.810944,43.772449 323.524567,43.585739 323.142181,43.155491 
z"/>
<path fill="#F7F7F3" opacity="1.000000" stroke="none" 
	d="
M374.161957,312.912109 
	C372.079193,310.304077 373.229431,306.028687 376.421814,304.237823 
	C377.158905,307.541138 378.034882,310.616699 374.161957,312.912109 
z"/>
<path fill="#FBFDF0" opacity="1.000000" stroke="none" 
	d="
M89.072479,30.340202 
	C89.579071,24.984865 91.564690,24.012667 97.237427,26.026323 
	C95.418625,27.579609 93.711540,29.216970 91.800911,30.566059 
	C91.181854,31.003178 90.029350,30.684816 89.072479,30.340202 
z"/>
<path fill="#F7F7FA" opacity="1.000000" stroke="none" 
	d="
M279.964722,16.547955 
	C276.451752,15.574751 272.899292,14.261569 269.083557,12.730560 
	C272.287170,9.354036 276.018738,7.674612 279.341125,9.416574 
	C279.607056,12.508763 279.766113,14.358371 279.964722,16.547955 
z"/>
<path fill="#F1F1F3" opacity="1.000000" stroke="none" 
	d="
M355.359680,74.075264 
	C354.920380,73.637260 354.763763,73.346100 354.369385,72.961975 
	C353.590393,72.085541 353.049133,71.302055 352.431030,70.242470 
	C354.255066,69.735764 356.155945,69.505157 359.338226,69.119087 
	C359.338226,71.946564 359.338226,74.643898 359.183899,77.636948 
	C357.900513,76.695816 356.771454,75.458961 355.359680,74.075264 
z"/>
<path fill="#F1F1F3" opacity="1.000000" stroke="none" 
	d="
M351.126068,67.848038 
	C350.024628,67.274696 349.115570,66.434616 348.082336,65.306694 
	C349.774689,65.018852 351.591156,65.018852 354.897705,65.018852 
	C353.000031,66.377411 352.159210,66.979347 351.126068,67.848038 
z"/>
<path fill="#F7F7FA" opacity="1.000000" stroke="none" 
	d="
M260.768768,9.589989 
	C260.382202,9.745290 259.798309,9.681987 259.037537,9.375392 
	C259.430908,9.211862 260.001190,9.291622 260.768768,9.589989 
z"/>
<path fill="#F7F7FA" opacity="1.000000" stroke="none" 
	d="
M266.797852,11.660784 
	C266.411285,11.768242 265.839874,11.643548 265.092072,11.276278 
	C265.481445,11.165346 266.047241,11.296988 266.797852,11.660784 
z"/>
<path fill="#F7F7FA" opacity="1.000000" stroke="none" 
	d="
M263.787415,10.590855 
	C263.613983,10.726001 263.254669,10.656507 262.715820,10.367847 
	C262.891357,10.227859 263.246460,10.307038 263.787415,10.590855 
z"/>
<path fill="#F4F4F6" opacity="1.000000" stroke="none" 
	d="
M60.604721,343.125305 
	C60.874462,343.534393 61.037392,343.816559 61.547890,344.128235 
	C62.625141,345.172729 63.472622,346.119659 64.580765,347.256287 
	C65.821800,348.426300 66.802170,349.406647 67.898560,350.666321 
	C66.736168,353.750183 65.459602,353.890167 63.674252,351.219391 
	C62.993484,350.201019 61.600517,349.497375 60.386143,349.027924 
	C57.014523,347.724335 55.701157,346.035400 59.150047,342.912354 
	C59.827141,342.789429 60.115753,342.894653 60.604721,343.125305 
z"/>
<path fill="#F7F7F3" opacity="1.000000" stroke="none" 
	d="
M102.623611,375.023804 
	C102.921364,375.081177 103.033104,375.497986 103.089989,375.705994 
	C98.635643,379.903900 90.548203,378.272278 89.195274,372.779327 
	C90.573006,372.608826 91.912819,372.443024 93.588707,371.980865 
	C93.924782,371.684540 93.938622,371.690491 93.950195,372.155579 
	C95.818054,373.026276 97.674332,373.431915 99.530609,373.837524 
	C100.462349,374.213867 101.394096,374.590149 102.623611,375.023804 
z"/>
<path fill="#F6F5F7" opacity="1.000000" stroke="none" 
	d="
M80.981956,362.254456 
	C83.293694,363.261414 85.549194,364.616211 88.003479,366.217957 
	C87.131439,367.141144 86.070374,368.358307 84.987686,368.377869 
	C82.920784,368.415161 80.841568,367.769989 78.767464,367.408112 
	C79.486877,365.806183 80.206299,364.204224 80.981956,362.254456 
z"/>
<path fill="#F3F5F2" opacity="1.000000" stroke="none" 
	d="
M72.030693,355.244629 
	C72.460884,354.940094 72.876045,354.990601 73.603836,355.069458 
	C75.630753,356.813751 77.345032,358.529755 79.122040,360.581970 
	C77.842445,361.461884 76.500114,362.005585 74.745049,362.716461 
	C73.306870,361.787415 71.554474,360.655396 69.732101,359.478180 
	C70.580566,358.037109 71.298111,356.818390 72.030693,355.244629 
z"/>
<path fill="#F4F4F6" opacity="1.000000" stroke="none" 
	d="
M55.850952,351.038635 
	C56.613293,351.422485 57.020603,351.792328 57.427917,352.162201 
	C56.203812,352.453247 54.979710,352.744324 53.755604,353.035400 
	C53.654125,352.681274 53.552647,352.327148 53.451168,351.973053 
	C54.132751,351.656921 54.814339,351.340790 55.850952,351.038635 
z"/>
<path fill="#F7F7FA" opacity="1.000000" stroke="none" 
	d="
M233.732056,3.375632 
	C234.139984,3.214925 234.804520,3.273127 235.715027,3.560027 
	C235.303543,3.723998 234.646103,3.659269 233.732056,3.375632 
z"/>
<path fill="#F7F7FA" opacity="1.000000" stroke="none" 
	d="
M230.259491,2.874824 
	C230.295715,2.708315 230.562973,2.643556 230.908188,2.729827 
	C230.820938,2.912762 230.655716,2.944669 230.259491,2.874824 
z"/>
<path fill="#59529D" opacity="1.000000" stroke="none" 
	d="
M186.114670,166.901337 
	C189.975510,177.064285 193.836349,187.227219 197.900452,198.012665 
	C198.561905,199.795334 199.020065,200.955505 199.478226,202.115692 
	C199.466522,202.499222 199.454803,202.882767 199.350708,203.803955 
	C199.795746,204.746552 200.333176,205.151489 200.870590,205.556412 
	C200.870590,205.556412 200.798325,205.818115 200.905914,206.189880 
	C201.099945,206.727768 201.186371,206.893890 201.273209,207.335815 
	C201.482391,207.905533 201.691177,208.199402 201.657501,208.562057 
	C200.942749,208.804993 200.470474,208.979156 199.534119,209.084427 
	C181.056091,208.946487 163.042145,208.877426 145.332611,208.560608 
	C148.095505,208.204346 150.553986,208.095825 153.409348,207.988159 
	C154.864532,207.987366 155.922852,207.985703 157.362122,207.950653 
	C158.380554,207.730118 159.020828,207.371140 159.655136,207.381393 
	C170.443237,207.555542 181.230576,207.775513 192.408630,207.980148 
	C197.028885,207.741150 197.658569,205.052155 196.733185,201.739670 
	C195.334427,196.732712 193.746582,191.773041 192.066452,186.852203 
	C190.941360,183.557053 189.517090,180.364044 188.226685,177.125336 
	C187.670135,177.202988 187.113571,177.280655 186.557022,177.358307 
	C186.423950,179.750443 186.290863,182.142593 186.158875,184.515396 
	C182.939972,184.114929 182.145477,181.093018 183.595139,176.984039 
	C184.712418,173.817169 185.129303,170.403198 185.922302,167.050186 
	C185.986969,167.001282 186.114670,166.901337 186.114670,166.901337 
z"/>
<path fill="#59529D" opacity="1.000000" stroke="none" 
	d="
M159.840378,160.015808 
	C160.219315,158.620956 160.598236,157.226089 161.186676,155.343475 
	C161.624069,154.631622 161.709366,154.362366 161.652069,154.047958 
	C162.440262,151.987274 163.228455,149.926575 164.211578,147.370865 
	C164.623474,146.641449 164.702850,146.367249 164.644653,146.053238 
	C165.094528,144.971924 165.544403,143.890610 166.195221,142.330994 
	C166.634491,141.634430 166.723724,141.366531 166.663849,141.048981 
	C167.096909,139.814255 167.529968,138.579529 167.999268,136.953506 
	C168.382294,135.960648 168.729080,135.359100 169.283340,134.352707 
	C169.720779,133.680008 169.796906,133.373901 169.719177,133.029556 
	C169.857941,132.666595 169.996704,132.303619 170.342194,131.485901 
	C170.618896,130.697571 170.688858,130.363953 170.758835,130.030350 
	C171.653336,130.429581 173.118256,130.616455 173.357666,131.259552 
	C177.674011,142.854233 181.842407,154.503967 186.078568,166.521637 
	C186.114670,166.901337 185.986969,167.001282 185.639496,166.847000 
	C183.181961,162.307678 180.826813,158.020767 179.022049,153.513474 
	C176.611404,147.493027 174.627914,141.301544 172.460968,135.183533 
	C171.976974,135.260025 171.492966,135.336517 171.008957,135.413010 
	C169.338287,139.816849 167.870712,144.312347 165.937164,148.597580 
	C164.166550,152.521713 161.892563,156.218719 159.840378,160.015808 
z"/>
<path fill="#F5F6F4" opacity="1.000000" stroke="none" 
	d="
M219.018021,255.770935 
	C217.275665,251.645294 215.587952,247.211182 213.911896,242.393951 
	C217.484909,241.286423 222.478607,246.326416 222.954895,251.238495 
	C223.109619,252.834320 222.979187,254.457779 222.979187,255.806915 
	C221.490845,255.675674 220.281754,255.569061 219.018021,255.770935 
z"/>
<path fill="#F9F9FA" opacity="1.000000" stroke="none" 
	d="
M201.272812,207.059998 
	C201.186371,206.893890 201.099945,206.727768 201.006714,206.280823 
	C201.490158,205.910202 201.989441,205.711349 202.468979,205.750992 
	C203.916168,205.870651 205.355667,206.082993 206.798172,206.259186 
	C206.153564,207.566833 205.508972,208.874496 204.934982,210.038879 
	C206.103745,211.024216 207.483444,212.187378 208.863129,213.350555 
	C208.055862,214.053772 207.248596,214.756989 205.925110,215.729935 
	C205.015610,215.999130 204.622345,215.998596 204.229080,215.998077 
	C203.378021,215.708038 202.526962,215.417999 201.290497,214.725845 
	C200.602798,212.600266 200.300507,210.876785 199.998215,209.153320 
	C200.470474,208.979156 200.942749,208.804993 201.630554,208.289886 
	C201.654999,207.652618 201.463898,207.356308 201.272812,207.059998 
z"/>
<path fill="#FEFFF2" opacity="1.000000" stroke="none" 
	d="
M227.104340,117.625946 
	C229.278641,115.190491 230.606201,116.514313 230.812637,118.525894 
	C231.153580,121.848228 230.905228,125.231041 230.905228,129.732330 
	C224.836044,126.327133 227.899521,121.603264 227.104340,117.625946 
z"/>
<path fill="#FCFDF0" opacity="1.000000" stroke="none" 
	d="
M188.888306,83.703064 
	C187.688538,82.152489 186.244583,80.482941 186.243866,78.812782 
	C186.243347,77.581573 188.127457,76.349564 189.171844,75.117920 
	C189.563187,76.548302 190.242661,77.974518 190.263412,79.410248 
	C190.283432,80.796341 189.624069,82.192245 188.888306,83.703064 
z"/>
<path fill="#F9F9FA" opacity="1.000000" stroke="none" 
	d="
M199.903992,202.082642 
	C199.020065,200.955505 198.561905,199.795334 198.114960,198.315063 
	C199.689087,198.462631 201.251984,198.930252 202.814896,199.397888 
	C201.986526,200.281784 201.158157,201.165680 199.903992,202.082642 
z"/>
<path fill="#FAF9FB" opacity="1.000000" stroke="none" 
	d="
M204.271423,216.289948 
	C204.622345,215.998596 205.015610,215.999130 205.703827,215.999527 
	C206.078186,216.946091 206.157578,217.892792 205.958054,218.985413 
	C205.223999,218.281509 204.768875,217.431686 204.271423,216.289948 
z"/>
<path fill="#F4F2FA" opacity="1.000000" stroke="none" 
	d="
M163.036499,132.877609 
	C162.932526,132.046051 163.179504,131.218475 163.676300,130.181717 
	C163.746552,130.942215 163.567001,131.911911 163.036499,132.877609 
z"/>
<path fill="#F4F2FA" opacity="1.000000" stroke="none" 
	d="
M164.418472,128.781464 
	C164.308945,128.414642 164.416992,127.860336 164.749420,127.121719 
	C164.861221,127.489609 164.748627,128.041809 164.418472,128.781464 
z"/>
<path fill="#F9F9FA" opacity="1.000000" stroke="none" 
	d="
M200.781097,205.178436 
	C200.333176,205.151489 199.795746,204.746552 199.386337,204.089813 
	C199.906769,204.158829 200.299179,204.479645 200.781097,205.178436 
z"/>
<path fill="#F4F2FA" opacity="1.000000" stroke="none" 
	d="
M165.415863,125.828064 
	C165.307709,125.663071 165.391632,125.346718 165.692688,124.897865 
	C165.929886,125.109138 165.829254,125.412918 165.415863,125.828064 
z"/>
<path fill="#FAF9FB" opacity="1.000000" stroke="none" 
	d="
M206.850342,222.200775 
	C206.643158,222.185074 206.424576,221.891754 206.214767,221.316406 
	C206.428680,221.330627 206.633820,221.626892 206.850342,222.200775 
z"/>
<path fill="#FAF9FB" opacity="1.000000" stroke="none" 
	d="
M207.858276,225.097778 
	C207.652222,225.092957 207.429550,224.832428 207.225525,224.305450 
	C207.443359,224.306717 207.642517,224.574402 207.858276,225.097778 
z"/>
<path fill="#F4F2FA" opacity="1.000000" stroke="none" 
	d="
M170.562988,130.198273 
	C170.688858,130.363953 170.618896,130.697571 170.339661,131.192017 
	C170.209305,131.023972 170.288223,130.695084 170.562988,130.198273 
z"/>
<path fill="#F4F2FA" opacity="1.000000" stroke="none" 
	d="
M169.536102,133.179718 
	C169.796906,133.373901 169.720779,133.680008 169.288147,134.084320 
	C169.056763,133.888367 169.145950,133.591415 169.536102,133.179718 
z"/>
<path fill="#F4F2FA" opacity="1.000000" stroke="none" 
	d="
M161.481598,136.009476 
	C161.210449,135.674988 161.298431,135.386734 161.756271,135.023224 
	C161.973160,135.074265 161.991287,135.252792 162.026810,135.699554 
	C162.044220,135.967758 161.669647,136.003510 161.481598,136.009476 
z"/>
<path fill="#FAF9FB" opacity="1.000000" stroke="none" 
	d="
M208.905548,227.940308 
	C208.617142,228.056091 208.402664,227.841202 208.305862,227.280121 
	C208.579132,227.203156 208.764435,227.428391 208.905548,227.940308 
z"/>
<path fill="#F9F9FA" opacity="1.000000" stroke="none" 
	d="
M135.275024,221.153214 
	C134.906479,222.205246 134.537933,223.257278 133.871445,224.778763 
	C133.409439,225.554184 133.245392,225.860138 133.081329,226.166107 
	C133.081329,226.166107 133.074036,226.102753 133.098083,226.124649 
	C132.523880,224.915604 131.809555,223.724976 131.363724,222.441101 
	C131.001373,221.397659 130.960968,220.242432 130.431396,219.069641 
	C130.215958,218.541016 130.346909,218.079544 130.539917,217.375824 
	C133.715820,214.608383 136.829651,212.083160 140.332886,209.245361 
	C141.149277,208.999268 141.576263,209.065750 142.081299,209.482147 
	C143.632568,210.526611 145.105789,211.221176 147.749374,212.467529 
	C143.718933,213.546127 140.846115,214.314941 137.973297,215.083755 
	C137.973297,215.083755 137.724869,215.259659 137.195297,215.197556 
	C133.984024,216.628769 132.861771,218.482468 135.275024,221.153214 
z"/>
<path fill="#483FAC" opacity="1.000000" stroke="none" 
	d="
M159.780701,160.100403 
	C161.892563,156.218719 164.166550,152.521713 165.937164,148.597580 
	C167.870712,144.312347 169.338287,139.816849 171.008957,135.413010 
	C171.492966,135.336517 171.976974,135.260025 172.460968,135.183533 
	C174.627914,141.301544 176.611404,147.493027 179.022049,153.513474 
	C180.826813,158.020767 183.181961,162.307678 185.574829,166.895905 
	C185.129303,170.403198 184.712418,173.817169 183.595139,176.984039 
	C182.145477,181.093018 182.939972,184.114929 186.158875,184.515396 
	C186.290863,182.142593 186.423950,179.750443 186.557022,177.358307 
	C187.113571,177.280655 187.670135,177.202988 188.226685,177.125336 
	C189.517090,180.364044 190.941360,183.557053 192.066452,186.852203 
	C193.746582,191.773041 195.334427,196.732712 196.733185,201.739670 
	C197.658569,205.052155 197.028885,207.741150 192.309601,207.586533 
	C190.825470,206.800186 189.844193,206.095840 188.834244,206.051987 
	C179.467484,205.645370 170.096695,205.238892 160.724411,205.163467 
	C159.484314,205.153473 158.229279,206.998245 156.981171,207.984039 
	C155.922852,207.985703 154.864532,207.987366 153.351776,207.646759 
	C149.927551,206.530991 146.957764,205.757492 143.991394,204.611694 
	C144.018692,203.495285 144.042572,202.751144 144.272552,201.891296 
	C144.733398,201.571182 144.907364,201.312454 145.333374,200.846893 
	C146.753601,199.575516 148.926468,198.255005 148.761826,197.368744 
	C146.966965,187.707031 157.781876,181.996613 156.374817,172.556625 
	C156.320175,172.190048 156.790436,171.647461 157.145416,171.332748 
	C160.580078,168.287582 160.241852,164.354263 159.779068,160.383789 
	C159.779068,160.383789 159.721008,160.185013 159.780701,160.100403 
z"/>
<path fill="#59529D" opacity="1.000000" stroke="none" 
	d="
M159.510193,160.650696 
	C160.241852,164.354263 160.580078,168.287582 157.145416,171.332748 
	C156.790436,171.647461 156.320175,172.190048 156.374817,172.556625 
	C157.781876,181.996613 146.966965,187.707031 148.761826,197.368744 
	C148.926468,198.255005 146.753601,199.575516 145.118378,200.953583 
	C144.300079,201.412476 144.132034,201.677216 144.066452,202.007004 
	C144.042572,202.751144 144.018692,203.495285 143.729355,204.832550 
	C143.314209,206.550476 143.164505,207.675293 142.762741,208.885651 
	C142.341553,209.024857 142.172409,209.078537 142.003250,209.132233 
	C141.576263,209.065750 141.149277,208.999268 140.400116,208.888123 
	C146.465729,192.868179 152.853516,176.892883 159.510193,160.650696 
z"/>
<path fill="#F4F2FA" opacity="1.000000" stroke="none" 
	d="
M157.371902,146.792175 
	C157.171982,146.587891 157.193909,146.202972 157.235657,145.527725 
	C157.255463,145.237396 157.623505,145.115570 157.803925,145.044739 
	C157.854141,145.519791 157.723938,146.065674 157.371902,146.792175 
z"/>
<path fill="#F4F2FA" opacity="1.000000" stroke="none" 
	d="
M158.236633,144.808105 
	C158.136795,144.402344 158.296417,143.812149 158.690887,143.018005 
	C158.782547,143.417267 158.639328,144.020462 158.236633,144.808105 
z"/>
<path fill="#F4F2FA" opacity="1.000000" stroke="none" 
	d="
M160.419586,138.796875 
	C160.296127,138.629379 160.369965,138.290222 160.657898,137.788727 
	C160.786957,137.959335 160.701920,138.292252 160.419586,138.796875 
z"/>
<path fill="#F4F2FA" opacity="1.000000" stroke="none" 
	d="
M166.498779,141.183533 
	C166.723724,141.366531 166.634491,141.634430 166.215179,141.978210 
	C166.045334,141.808044 166.145172,141.546143 166.498779,141.183533 
z"/>
<path fill="#F4F2FA" opacity="1.000000" stroke="none" 
	d="
M164.481812,146.193146 
	C164.702850,146.367249 164.623474,146.641449 164.227783,147.006012 
	C164.046326,146.837311 164.136292,146.569595 164.481812,146.193146 
z"/>
<path fill="#F4F2FA" opacity="1.000000" stroke="none" 
	d="
M161.489075,154.184204 
	C161.709366,154.362366 161.624069,154.631622 161.216461,154.981583 
	C161.044235,154.812424 161.140701,154.550095 161.489075,154.184204 
z"/>
<path fill="#FAF9FB" opacity="1.000000" stroke="none" 
	d="
M142.081299,209.482147 
	C142.172409,209.078537 142.341553,209.024857 143.095581,208.955597 
	C144.129715,208.896118 144.578964,208.852249 145.028198,208.808380 
	C163.042145,208.877426 181.056091,208.946487 199.534119,209.084442 
	C200.300507,210.876785 200.602798,212.600266 200.952209,214.645065 
	C180.300461,215.063263 159.601608,215.160141 138.438019,215.170380 
	C140.846115,214.314941 143.718933,213.546127 147.749374,212.467529 
	C145.105789,211.221176 143.632568,210.526611 142.081299,209.482147 
M194.347046,211.005478 
	C193.398056,211.236603 192.449066,211.467728 191.500092,211.698853 
	C191.549744,211.984344 191.599411,212.269852 191.649078,212.555344 
	C193.465164,212.555344 195.281235,212.555344 197.097321,212.555344 
	C197.132141,212.307999 197.166946,212.060654 197.201767,211.813293 
	C196.496231,211.549500 195.790680,211.285706 194.347046,211.005478 
z"/>
<path fill="#FAF9FB" opacity="1.000000" stroke="none" 
	d="
M135.459808,221.129303 
	C132.861771,218.482468 133.984024,216.628769 137.054977,215.138596 
	C136.981384,216.846054 136.518524,218.550385 136.032806,220.643265 
	C136.009933,221.031830 135.644608,221.105377 135.459808,221.129303 
z"/>
<path fill="#FEFEFE" opacity="1.000000" stroke="none" 
	d="
M99.288818,373.548828 
	C97.674332,373.431915 95.818054,373.026276 93.962204,372.158020 
	C95.657433,372.217010 97.352226,372.738586 99.288818,373.548828 
z"/>
<path fill="#483FAC" opacity="1.000000" stroke="none" 
	d="
M30.448416,299.533081 
	C30.414116,299.476227 30.482716,299.589935 30.448416,299.533081 
z"/>
<path fill="#FAF9FB" opacity="1.000000" stroke="none" 
	d="
M133.351074,226.118973 
	C133.245392,225.860138 133.409439,225.554184 133.806213,225.120636 
	C134.091736,225.164993 134.144547,225.336960 134.182693,225.778351 
	C133.985626,226.055801 133.803223,226.063828 133.351074,226.118973 
z"/>
<path fill="#4E489C" opacity="1.000000" stroke="none" 
	d="
M157.362122,207.950653 
	C158.229279,206.998245 159.484314,205.153473 160.724411,205.163467 
	C170.096695,205.238892 179.467484,205.645370 188.834244,206.051987 
	C189.844193,206.095840 190.825470,206.800186 191.919067,207.591751 
	C181.230576,207.775513 170.443237,207.555542 159.655136,207.381393 
	C159.020828,207.371140 158.380554,207.730118 157.362122,207.950653 
z"/>
<path fill="#4E489C" opacity="1.000000" stroke="none" 
	d="
M145.332611,208.560608 
	C144.578964,208.852249 144.129715,208.896118 143.347641,208.870056 
	C143.164505,207.675293 143.314209,206.550476 143.725952,205.204819 
	C146.957764,205.757492 149.927551,206.530991 152.954910,207.645905 
	C150.553986,208.095825 148.095505,208.204346 145.332611,208.560608 
z"/>
<path fill="#FDFDFD" opacity="1.000000" stroke="none" 
	d="
M201.273209,207.335815 
	C201.463898,207.356308 201.654999,207.652618 201.873016,208.221100 
	C201.691177,208.199402 201.482391,207.905533 201.273209,207.335815 
z"/>
<path fill="#4E489C" opacity="1.000000" stroke="none" 
	d="
M144.272552,201.891296 
	C144.132034,201.677216 144.300079,201.412476 144.785583,201.106079 
	C144.907364,201.312454 144.733398,201.571182 144.272552,201.891296 
z"/>
<path fill="#F9F9FA" opacity="1.000000" stroke="none" 
	d="
M194.716095,211.013702 
	C195.790680,211.285706 196.496231,211.549500 197.201767,211.813293 
	C197.166946,212.060654 197.132141,212.307999 197.097321,212.555344 
	C195.281235,212.555344 193.465164,212.555344 191.649078,212.555344 
	C191.599411,212.269852 191.549744,211.984344 191.500092,211.698853 
	C192.449066,211.467728 193.398056,211.236603 194.716095,211.013702 
z"/>
</svg>