<?xml version="1.0" encoding="UTF-8"?>
<svg version="1.1" xmlns="http://www.w3.org/2000/svg" width="280" height="280" fill="#3B82F6">
<path d="M0 0 C1.04269043 -0.00478363 2.08538086 -0.00956726 3.15966797 -0.01449585 C5.35841383 -0.01788974 7.55721051 -0.00872328 9.75585938 0.01220703 C13.11442976 0.03897824 16.46965812 0.0124401 19.828125 -0.01953125 C21.96875735 -0.01622706 24.10938763 -0.00982065 26.25 0 C27.75022705 -0.01518173 27.75022705 -0.01518173 29.28076172 -0.03067017 C33.80008535 0.04500974 37.08701456 0.12796746 40.6875 3.04150391 C46.125 8.89182692 46.125 8.89182692 46.125 13.6640625 C46.785 13.6640625 47.445 13.6640625 48.125 13.6640625 C49.115 16.6340625 49.115 16.6340625 50.125 19.6640625 C50.785 19.6640625 51.445 19.6640625 52.125 19.6640625 C52.42792969 20.2209375 52.73085937 20.7778125 53.04296875 21.3515625 C53.46191406 22.1146875 53.88085938 22.8778125 54.3125 23.6640625 C54.76367188 24.4890625 55.21484375 25.3140625 55.6796875 26.1640625 C56.99241628 28.43472849 58.42700987 30.5234822 59.9375 32.6640625 C62.63771547 36.99297936 63.16670998 40.67074196 62.125 45.6640625 C60.8424478 48.92874081 59.04314912 51.73589491 57.125 54.6640625 C56.41214844 55.77394531 55.69929687 56.88382813 54.96484375 58.02734375 C53.79536804 59.84759597 52.62364113 61.66615136 51.44384766 63.47973633 C48.45069141 68.09308187 45.68767455 72.79626863 43.125 77.6640625 C42.465 77.6640625 41.805 77.6640625 41.125 77.6640625 C40.98384766 78.46070313 40.98384766 78.46070313 40.83984375 79.2734375 C39.89054381 82.44814551 38.35051277 85.05132949 36.6875 87.9140625 C36.07003906 88.99171875 35.45257813 90.069375 34.81640625 91.1796875 C34.25824219 91.99953125 33.70007813 92.819375 33.125 93.6640625 C32.465 93.6640625 31.805 93.6640625 31.125 93.6640625 C30.80595703 94.86482422 30.80595703 94.86482422 30.48046875 96.08984375 C28.70827144 100.76292886 26.15210879 104.67339307 23.4375 108.8515625 C22.89730225 109.69509277 22.35710449 110.53862305 21.80053711 111.40771484 C20.24800777 113.83041465 18.68781657 116.24799004 17.125 118.6640625 C12.89758367 125.21939026 8.81076642 131.78509752 5.125 138.6640625 C4.465 138.6640625 3.805 138.6640625 3.125 138.6640625 C2.8465625 139.8396875 2.8465625 139.8396875 2.5625 141.0390625 C0.15308858 147.11496955 -3.87345716 153.35606693 -8.875 157.6640625 C-11.69839154 158.60519301 -13.45012209 158.79536413 -16.37475586 158.80932617 C-17.7364817 158.81889595 -17.7364817 158.81889595 -19.12571716 158.82865906 C-20.10387894 158.82977188 -21.08204071 158.8308847 -22.08984375 158.83203125 C-23.09713028 158.83535965 -24.10441681 158.83868805 -25.14222717 158.84211731 C-27.2731175 158.84718116 -29.40401577 158.8495258 -31.53491211 158.84936523 C-34.79619393 158.85155157 -38.05713743 158.86971271 -41.31835938 158.88867188 C-43.38801968 158.89160592 -45.45768158 158.89359064 -47.52734375 158.89453125 C-48.50348129 158.90171677 -49.47961884 158.90890228 -50.4853363 158.91630554 C-51.85179039 158.9116906 -51.85179039 158.9116906 -53.24584961 158.90698242 C-54.44473061 158.90911995 -54.44473061 158.90911995 -55.66783142 158.91130066 C-58.11872895 158.63676096 -59.750753 157.88696681 -61.875 156.6640625 C-61.875 156.0040625 -61.875 155.3440625 -61.875 154.6640625 C-62.535 154.6640625 -63.195 154.6640625 -63.875 154.6640625 C-64.65423828 153.26994141 -64.65423828 153.26994141 -65.44921875 151.84765625 C-69.82705718 143.95026444 -69.82705718 143.95026444 -74.875 136.4765625 C-76.875 133.6640625 -76.875 133.6640625 -76.875 130.6640625 C-77.535 130.6640625 -78.195 130.6640625 -78.875 130.6640625 C-84.99183849 119.80667418 -84.99183849 119.80667418 -83.875 113.6640625 C-81.30586436 107.64300452 -77.35616826 102.43256329 -73.56640625 97.13671875 C-71.53168743 94.162176 -69.83413619 91.07724746 -68.13671875 87.90234375 C-66.3167532 84.67373613 -64.2240423 81.65057178 -62.109375 78.609375 C-60.71404604 76.58332372 -60.71404604 76.58332372 -59.875 73.6640625 C-59.215 73.6640625 -58.555 73.6640625 -57.875 73.6640625 C-57.648125 72.8390625 -57.42125 72.0140625 -57.1875 71.1640625 C-55.82793822 67.53856441 -54.10239661 64.62351843 -51.99609375 61.3984375 C-50.8266167 59.65893532 -50.8266167 59.65893532 -49.875 57.6640625 C-49.215 57.6640625 -48.555 57.6640625 -47.875 57.6640625 C-47.64683594 56.83390625 -47.41867188 56.00375 -47.18359375 55.1484375 C-45.61081898 50.96063126 -43.42542461 47.60801848 -40.9375 43.9140625 C-36.88015362 37.77405296 -32.94086112 31.58210777 -29.125 25.2890625 C-28.20967183 23.78773822 -27.29430832 22.28643547 -26.37890625 20.78515625 C-24.85565004 18.2831147 -23.34357759 15.77563847 -21.83984375 13.26171875 C-21.25332031 12.30136719 -20.66679688 11.34101562 -20.0625 10.3515625 C-19.58167969 9.55105469 -19.10085937 8.75054687 -18.60546875 7.92578125 C-13.06331742 0.68220198 -8.82451939 -0.08930081 0 0 Z M35.125 11.6640625 C34.465 13.6440625 33.805 15.6240625 33.125 17.6640625 C32.465 17.6640625 31.805 17.6640625 31.125 17.6640625 C30.62871094 18.55867188 30.13242188 19.45328125 29.62109375 20.375 C25.96150815 26.90945589 22.17736403 33.1519322 17.78125 39.2265625 C15.41590819 42.70763159 13.50470916 46.39234375 11.546875 50.11328125 C10.24756032 52.44419468 8.84815174 54.53169712 7.25 56.6640625 C4.83599133 59.45934803 4.83599133 59.45934803 5.125 62.6640625 C4.465 62.6640625 3.805 62.6640625 3.125 62.6640625 C2.62871094 63.55867188 2.13242188 64.45328125 1.62109375 65.375 C-1.50725103 70.96132996 -4.61473901 76.4709076 -8.375 81.6640625 C-11.58657005 86.10466164 -14.28472965 90.77241377 -16.95605469 95.54711914 C-18.89196018 98.99161439 -20.90894979 102.33051609 -23.125 105.6015625 C-23.59421875 106.29765625 -24.0634375 106.99375 -24.546875 107.7109375 C-25.42262917 108.99881128 -26.3078826 110.28028361 -27.203125 111.5546875 C-28.55857743 113.53349357 -28.55857743 113.53349357 -29.875 116.6640625 C-28.69947812 122.15782804 -25.64018423 126.44501592 -22.5625 131.0390625 C-21.60745838 132.483969 -20.65302856 133.92928007 -19.69921875 135.375 C-19.23306152 136.07850586 -18.7669043 136.78201172 -18.28662109 137.50683594 C-16.09377397 140.85792504 -13.97974322 144.25714955 -11.875 147.6640625 C-7.84751899 146.32156883 -7.32536673 144.53932941 -5.1875 140.9140625 C-4.48610552 139.73542202 -3.78426894 138.55704453 -3.08203125 137.37890625 C-2.72189941 136.76901855 -2.36176758 136.15913086 -1.99072266 135.53076172 C-0.8755027 133.66490356 0.26864568 131.82058454 1.42578125 129.98046875 C1.97842651 129.0992334 1.97842651 129.0992334 2.54223633 128.20019531 C3.57978402 126.54854104 4.61800178 124.89730775 5.65625 123.24609375 C7.28981287 120.8694151 7.28981287 120.8694151 7.125 118.6640625 C7.785 118.6640625 8.445 118.6640625 9.125 118.6640625 C9.39965088 118.15286865 9.67430176 117.6416748 9.95727539 117.11499023 C13.57249507 110.48843271 17.53425466 104.10829913 21.5625 97.7265625 C25.26653806 91.84542685 28.9695057 85.96351378 32.59765625 80.03515625 C33.0862915 79.23907959 33.57492676 78.44300293 34.07836914 77.62280273 C35.28209283 75.74020652 35.28209283 75.74020652 35.125 73.6640625 C35.785 73.6640625 36.445 73.6640625 37.125 73.6640625 C38.46358524 71.37532077 39.79601014 69.08336594 41.125 66.7890625 C41.69734375 65.81259766 41.69734375 65.81259766 42.28125 64.81640625 C44.40051156 61.46056049 44.40051156 61.46056049 45.125 57.6640625 C45.785 57.6640625 46.445 57.6640625 47.125 57.6640625 C48.115 54.6940625 48.115 54.6940625 49.125 51.6640625 C49.785 51.6640625 50.445 51.6640625 51.125 51.6640625 C51.8354474 50.49014726 52.51726744 49.29889321 53.1875 48.1015625 C53.57035156 47.44027344 53.95320313 46.77898437 54.34765625 46.09765625 C55.66754251 41.96555003 55.06355614 38.49031706 53.08422852 34.63891602 C51.7421967 32.45394672 50.33047282 30.33756812 48.875 28.2265625 C47.91086863 26.79076039 46.94732433 25.35456389 45.984375 23.91796875 C45.50806641 23.22074707 45.03175781 22.52352539 44.54101562 21.80517578 C42.67255973 18.97994161 40.98059932 16.05874303 39.30957031 13.11303711 C38.91866211 12.63487549 38.52775391 12.15671387 38.125 11.6640625 C37.135 11.6640625 36.145 11.6640625 35.125 11.6640625 Z " fill="#242528" transform="translate(126.875,60.3359375)"/>
<path d="M0 0 C3.45831484 -0.02949232 6.91659654 -0.0469616 10.375 -0.0625 C11.34050781 -0.07087891 12.30601562 -0.07925781 13.30078125 -0.08789062 C30.38065116 -0.14520562 30.38065116 -0.14520562 36 3 C36 3.66 36 4.32 36 5 C36.66 5 37.32 5 38 5 C38.51949219 5.9178125 39.03898437 6.835625 39.57421875 7.78125 C40.27824291 9.02106222 40.98269838 10.26062958 41.6875 11.5 C42.05037109 12.1384082 42.41324219 12.77681641 42.78710938 13.43457031 C44.78192481 16.92638313 46.82536639 20.36584395 49 23.75 C51 27 51 27 51 29 C51.66 29 52.32 29 53 29 C56.16499766 33.90064153 58.28369017 38.05432696 58 44 C56.36273765 49.29702525 53.48015565 53.46604718 50.3046875 57.984375 C48.84015582 60.06280985 48.84015582 60.06280985 48 63 C47.34 63 46.68 63 46 63 C45.7215625 64.175625 45.7215625 64.175625 45.4375 65.375 C43.02808858 71.45090705 39.00154284 77.69200443 34 82 C31.17660846 82.94113051 29.42487791 83.13130163 26.50024414 83.14526367 C25.59242691 83.15164352 24.68460968 83.15802338 23.74928284 83.16459656 C22.77112106 83.16570938 21.79295929 83.1668222 20.78515625 83.16796875 C19.77786972 83.17129715 18.77058319 83.17462555 17.73277283 83.17805481 C15.6018825 83.18311866 13.47098423 83.1854633 11.34008789 83.18530273 C8.07880607 83.18748907 4.81786257 83.20565021 1.55664062 83.22460938 C-0.51301968 83.22754342 -2.58268158 83.22952814 -4.65234375 83.23046875 C-5.62848129 83.23765427 -6.60461884 83.24483978 -7.6103363 83.25224304 C-8.52130569 83.24916641 -9.43227509 83.24608978 -10.37084961 83.24291992 C-11.56973061 83.24505745 -11.56973061 83.24505745 -12.79283142 83.24723816 C-15.31139539 82.96511874 -16.86302582 82.35362966 -19 81 C-20.58267999 78.83316722 -21.99346203 76.72479271 -23.375 74.4375 C-24.16035325 73.16598345 -24.94681365 71.89515006 -25.734375 70.625 C-26.11658203 70.00496094 -26.49878906 69.38492188 -26.89257812 68.74609375 C-28.81414165 65.71632693 -30.95236425 62.83612712 -33.1015625 59.96484375 C-34.40333158 57.11793136 -34.02877346 55.97386337 -33 53 C-31.45241564 50.05571315 -29.71002399 47.25074501 -27.9375 44.4375 C-27.19367065 43.23758423 -27.19367065 43.23758423 -26.43481445 42.01342773 C-22.99854193 36.49997643 -19.41341451 31.10576834 -15.765625 25.73046875 C-13.45667543 22.15977019 -11.50058872 18.44084651 -9.515625 14.68359375 C-7.39918553 10.93618675 -4.94160818 7.47793623 -2.41796875 3.99609375 C-0.96667193 2.06117501 -0.96667193 2.06117501 0 0 Z M31 12 C29.5481185 13.99211647 28.23185302 15.97028088 26.9375 18.0625 C26.54844482 18.68576172 26.15938965 19.30902344 25.75854492 19.95117188 C24.93156062 21.27964475 24.10751443 22.60995029 23.28613281 23.94189453 C21.99902669 26.00155752 20.67225255 28.03059104 19.3359375 30.05859375 C18.49388883 31.37181736 17.65271657 32.68560343 16.8125 34 C16.40185303 34.60980713 15.99120605 35.21961426 15.56811523 35.84790039 C13.74202729 38.76859786 12.92059159 40.46146662 13.4296875 43.9140625 C15.47021903 47.92406227 17.80999243 51.63951725 20.3125 55.375 C21.26754162 56.8199065 22.22197144 58.26521757 23.17578125 59.7109375 C23.64193848 60.41444336 24.1080957 61.11794922 24.58837891 61.84277344 C26.78122603 65.19386254 28.89525678 68.59308705 31 72 C32.485 71.505 32.485 71.505 34 71 C34.73323796 68.98491642 34.73323796 68.98491642 35 67 C35.66 67 36.32 67 37 67 C37.268125 66.50113281 37.53625 66.00226563 37.8125 65.48828125 C39.8133733 61.82220747 41.85038481 58.23230455 44.11328125 54.71875 C44.47615234 54.15502686 44.83902344 53.59130371 45.21289062 53.01049805 C46.2741283 51.37175293 47.3497015 49.7423188 48.42578125 48.11328125 C50.20071924 44.60304409 50.57195369 42.87323025 50 39 C48.59652884 35.71359688 48.59652884 35.71359688 46.5625 32.4375 C46.20849121 31.84050293 45.85448242 31.24350586 45.48974609 30.62841797 C41.65241717 24.25185262 37.65300041 17.81142374 33 12 C32.34 12 31.68 12 31 12 Z " fill="#252629" transform="translate(179,136)"/>
</svg>
