<?xml version="1.0" encoding="UTF-8"?>
<svg version="1.1" xmlns="http://www.w3.org/2000/svg" width="1001" height="1001" fill="#3B82F6">
<path d="M0 0 C1.65 0 3.3 0 5 0 C5 0.66 5 1.32 5 2 C5.99 2 6.98 2 8 2 C8 4.97 8 7.94 8 11 C9.175625 11.4640625 9.175625 11.4640625 10.375 11.9375 C13 13 13 13 15 14 C15.12246094 14.76054687 15.24492188 15.52109375 15.37109375 16.3046875 C16.1613893 19.69166841 17.50271731 20.82254996 20.0625 23.125 C22.28515625 25.1328125 22.28515625 25.1328125 24 27 C24 27.99 24 28.98 24 30 C24.66 30 25.32 30 26 30 C27.97377209 33.87948307 29.91861929 37.71899464 31.5625 41.75 C32.80469997 44.5584521 34.03830264 46.664646 36 49 C36.66 48.67 37.32 48.34 38 48 C38.25394531 48.66386719 38.50789063 49.32773437 38.76953125 50.01171875 C39.11371094 50.89472656 39.45789063 51.77773438 39.8125 52.6875 C40.14894531 53.55761719 40.48539063 54.42773438 40.83203125 55.32421875 C42.02333103 58.05345069 43.43848687 60.4669661 45 63 C46.51658882 65.78436228 48.00956989 68.58046846 49.5 71.37890625 C50.91018778 73.98559792 50.91018778 73.98559792 52.625 76.08984375 C54.09899984 78.13753103 54.41231101 79.57635238 55 82 C55.97222045 83.77746676 56.99689597 85.52689561 58.0625 87.25 C58.88427734 88.58804688 58.88427734 88.58804688 59.72265625 89.953125 C60.14417969 90.62859375 60.56570313 91.3040625 61 92 C61.33 90.68 61.66 89.36 62 88 C64.64 88 67.28 88 70 88 C70 88.66 70 89.32 70 90 C70.66 90 71.32 90 72 90 C71.91878906 91.16015625 71.83757812 92.3203125 71.75390625 93.515625 C71.2963954 102.99626656 71.62548248 109.46596576 77.2734375 117.51953125 C78.98199271 119.97412979 79.99155548 122.19725103 81 125 C82.53188978 129.78163171 82.53188978 129.78163171 86 133 C86 134.65 86 136.3 86 138 C86.66 138 87.32 138 88 138 C88.26554688 138.55429687 88.53109375 139.10859375 88.8046875 139.6796875 C89.15789063 140.40414062 89.51109375 141.12859375 89.875 141.875 C90.22304688 142.59429687 90.57109375 143.31359375 90.9296875 144.0546875 C91.96557543 146.15135019 91.96557543 146.15135019 94 148 C94.309375 148.845625 94.61875 149.69125 94.9375 150.5625 C95.288125 151.366875 95.63875 152.17125 96 153 C96.99 153.33 97.98 153.66 99 154 C100.1875 157.5625 100.1875 157.5625 101 161 C101.66 161 102.32 161 103 161 C103.24234375 161.50789062 103.4846875 162.01578125 103.734375 162.5390625 C105.39560188 165.95096694 107.05984911 169.20717891 109.25 172.3125 C111 175 111 175 111 178 C111.33 178.99 111.66 179.98 112 181 C112.99 181.33 113.98 181.66 115 182 C116.64040346 185.34642307 117.86534522 188.57920383 119 192.125 C120.01428724 195.04107581 121.39618301 197.3755722 123 200 C123 200.66 123 201.32 123 202 C123.99 202.33 124.98 202.66 126 203 C126.95638905 204.81030785 127.89834374 206.62972739 128.765625 208.484375 C131.21729732 213.48082111 134.17478494 218.20827794 137 223 C138.34226178 225.3284133 139.67229779 227.6632441 141 230 C141.33 228.68 141.66 227.36 142 226 C144.64 226 147.28 226 150 226 C149.98952637 226.65597168 149.97905273 227.31194336 149.96826172 227.98779297 C149.92677497 230.95015658 149.90069738 233.91245916 149.875 236.875 C149.85824219 237.90753906 149.84148438 238.94007813 149.82421875 240.00390625 C149.81777344 240.99003906 149.81132813 241.97617187 149.8046875 242.9921875 C149.79421387 243.90339355 149.78374023 244.81459961 149.77294922 245.75341797 C149.78129007 248.20290436 149.78129007 248.20290436 152 250 C154.86382064 252.86382064 154.86475816 255.01036579 155 259 C153.34961782 261.59345771 151.57630976 263.445856 149.375 265.5625 C147.25865228 267.77504534 146 269.91236356 146 273 C147.32 273.33 148.64 273.66 150 274 C150 276.64 150 279.28 150 282 C155.28 282 160.56 282 166 282 C166 287.28 166 292.56 166 298 C160.72 298 155.44 298 150 298 C150 298.66 150 299.32 150 300 C145.38 300 140.76 300 136 300 C136 299.34 136 298.68 136 298 C134.68 298 133.36 298 132 298 C131.525625 298.94875 131.05125 299.8975 130.5625 300.875 C129.70833333 302.58333333 128.85416667 304.29166667 128 306 C129.98 306 131.96 306 134 306 C134 313.92 134 321.84 134 330 C129.38 330 124.76 330 120 330 C119.67 331.65 119.34 333.3 119 335 C118.67 334.01 118.34 333.02 118 332 C117.21625 332.04125 116.4325 332.0825 115.625 332.125 C113 332 113 332 111 330 C109.84058962 333.47823115 110.29179116 335.45895578 111 339 C110.01 339.33 109.02 339.66 108 340 C107.34 341.98 106.68 343.96 106 346 C115.24 346 124.48 346 134 346 C134 351.28 134 356.56 134 362 C129.76424794 362.16565817 125.52863258 362.32809193 121.29248047 362.48217773 C119.85100177 362.5355959 118.40959259 362.59092518 116.96826172 362.64819336 C114.89826447 362.73010997 112.82811573 362.80518359 110.7578125 362.87890625 C109.5114502 362.9260376 108.26508789 362.97316895 106.98095703 363.02172852 C104 363 104 363 102 362 C102 383.12 102 404.24 102 426 C91.44 426 80.88 426 70 426 C70 426.66 70 427.32 70 428 C68.22950311 428.05410687 66.45853151 428.09284119 64.6875 428.125 C63.70136719 428.14820313 62.71523438 428.17140625 61.69921875 428.1953125 C59 428 59 428 56 426 C55.34 426 54.68 426 54 426 C54.144375 427.258125 54.28875 428.51625 54.4375 429.8125 C54.51871094 430.52019531 54.59992188 431.22789062 54.68359375 431.95703125 C54.97170735 434.19396393 54.97170735 434.19396393 56 437 C56.08143855 438.62719482 56.1075302 440.25751719 56.09765625 441.88671875 C56.09443359 442.82451172 56.09121094 443.76230469 56.08789062 444.72851562 C56.07951172 445.70498047 56.07113281 446.68144531 56.0625 447.6875 C56.05798828 448.67556641 56.05347656 449.66363281 56.04882812 450.68164062 C56.03704303 453.12115474 56.02059011 455.56054689 56 458 C55.01 458 54.02 458 53 458 C53 458.66 53 459.32 53 460 C48.83861737 460.08159574 45.0527516 459.98248524 41 459 C39.86134615 462.41596155 39.97475837 464.82462209 40.12109375 468.41796875 C40.19360352 470.29838867 40.19360352 470.29838867 40.26757812 472.21679688 C40.32365234 473.52712891 40.37972656 474.83746094 40.4375 476.1875 C40.49074235 477.5227663 40.5434826 478.85805272 40.59570312 480.19335938 C40.72552346 483.46247144 40.86049536 486.73128919 41 490 C40.34 490 39.68 490 39 490 C38.67 490.99 38.34 491.98 38 493 C33.38 493 28.76 493 24 493 C24 497.29 24 501.58 24 506 C23.01 506 22.02 506 21 506 C21 506.66 21 507.32 21 508 C16.05 508 11.1 508 6 508 C6 507.34 6 506.68 6 506 C4.68047679 506.00791911 3.36095358 506.01583822 2.00144482 506.02399731 C-29.34606171 506.21144614 -60.69361109 506.38309441 -92.04130711 506.53537826 C-95.90262002 506.55414987 -99.76393228 506.57305437 -103.62524414 506.59204102 C-104.39393734 506.59581856 -105.16263053 506.59959611 -105.95461746 506.60348812 C-118.38883891 506.66490956 -130.82297571 506.73708681 -143.25711451 506.8132638 C-156.02287119 506.89123206 -168.78865045 506.9575842 -181.55452412 507.01323253 C-189.42695476 507.04791335 -197.29922917 507.09157211 -205.17154261 507.14684484 C-211.21575116 507.18830974 -217.25991878 507.21358499 -223.30424309 507.2329216 C-225.77815154 507.24334586 -228.25204455 507.25896552 -230.72588348 507.28024101 C-234.11154198 507.30857067 -237.49676039 507.31795724 -240.88252258 507.32279968 C-241.85434599 507.33542916 -242.82616939 507.34805863 -243.82744199 507.36107081 C-255.63647485 507.32913406 -265.61050857 503.22960978 -276 498 C-275.67 497.01 -275.34 496.02 -275 495 C-275.721875 494.7525 -276.44375 494.505 -277.1875 494.25 C-280.24713266 492.89016326 -282.4673738 491.17082246 -285 489 C-285.66 489.495 -286.32 489.99 -287 490.5 C-290.96633241 492.48316621 -293.60303262 492.22357461 -298 492 C-298 491.34 -298 490.68 -298 490 C-303.28 490 -308.56 490 -314 490 C-314 479.44 -314 468.88 -314 458 C-312.02 458 -310.04 458 -308 458 C-308 457.34 -308 456.68 -308 456 C-308.99 455.67 -309.98 455.34 -311 455 C-311 454.01 -311 453.02 -311 452 C-310.01 452 -309.02 452 -308 452 C-308.66 451.34 -309.32 450.68 -310 450 C-310 448.68 -310 447.36 -310 446 C-216.61 446 -123.22 446 -27 446 C-27 444.68 -27 443.36 -27 442 C-27.66 442.33 -28.32 442.66 -29 443 C-29.33 442.01 -29.66 441.02 -30 440 C-29.67 439.67 -29.34 439.34 -29 439 C-29.45117188 438.5875 -29.90234375 438.175 -30.3671875 437.75 C-32.07949204 435.91480279 -33.04046418 434.25446817 -34.125 432 C-34.45757813 431.319375 -34.79015625 430.63875 -35.1328125 429.9375 C-36 428 -36 428 -37 425 C-37.66 424.67 -38.32 424.34 -39 424 C-39.4021875 422.88625 -39.4021875 422.88625 -39.8125 421.75 C-41.2792462 418.35332458 -43.36232477 416.57487344 -46 414 C-47.36011609 412.01811655 -48.69791204 410.02048131 -50 408 C-50.66 407.34 -51.32 406.68 -52 406 C-51.01 405.34 -50.02 404.68 -49 404 C-49.721875 404 -50.44375 404 -51.1875 404 C-54 403 -54 403 -54.97341108 401.18679029 C-55.30346159 400.46473313 -55.63351211 399.74267597 -55.97356415 398.99873829 C-57.56329439 396.37363522 -58.34331162 395.21371744 -61.29367161 394.25353086 C-64.29881752 393.9802772 -67.21818258 393.95998042 -70.23547363 394.02018738 C-71.38369614 394.01138512 -72.53191865 394.00258287 -73.71493578 393.99351388 C-76.89874422 393.97708492 -80.08002226 393.99646909 -83.26361299 394.03090918 C-86.69792392 394.05930452 -90.13202845 394.04145797 -93.56639099 394.02911377 C-99.5164572 394.01392484 -105.46589233 394.02764025 -111.4158783 394.06065941 C-120.02390086 394.1081234 -128.63143174 394.10861428 -137.23955423 394.09709219 C-151.21270137 394.07938542 -165.18559422 394.09514566 -179.15869141 394.1340332 C-192.71956439 394.17166151 -206.28038753 394.20106692 -219.84130859 394.21411133 C-221.09411628 394.21532783 -221.09411628 394.21532783 -222.37223321 394.21656891 C-231.48949675 394.2250425 -240.60675441 394.22954497 -249.72402191 394.22865009 C-250.92583255 394.22853894 -250.92583255 394.22853894 -252.1519222 394.22842554 C-255.35476348 394.22805818 -258.55760461 394.22762065 -261.76044577 394.22664431 C-271.13938737 394.22384526 -280.51811423 394.23353949 -289.89700401 394.26582602 C-295.7792618 394.28570835 -301.66147963 394.29581614 -307.54377043 394.29822876 C-310.93885645 394.30010068 -314.3337427 394.30711918 -317.72877312 394.32732582 C-321.40748737 394.34682963 -325.08577237 394.34810565 -328.76452637 394.34489441 C-329.83990803 394.35519894 -330.9152897 394.36550348 -332.02325869 394.37612027 C-341.32699822 394.3334297 -341.32699822 394.3334297 -345 391 C-345.8125 387.8125 -345.8125 387.8125 -346 385 C-347.65 384.67 -349.3 384.34 -351 384 C-351.59732819 381.23735711 -352 378.83967231 -352 376 C-352.99 374.515 -352.99 374.515 -354 373 C-354 372.01 -354 371.02 -354 370 C-355.65 370.33 -357.3 370.66 -359 371 C-359.37511719 370.27554687 -359.75023437 369.55109375 -360.13671875 368.8046875 C-363.40899337 362.44733874 -363.40899337 362.44733874 -367.8125 356.875 C-370.42021291 353.44772017 -370.62374315 351.25540623 -370.76171875 347.05078125 C-370.87848491 344.68939592 -370.87848491 344.68939592 -373 342 C-373.125 339.3125 -373.125 339.3125 -373 337 C-372.40655169 336.99826375 -371.81310337 336.9965275 -371.20167178 336.99473864 C-336.05442182 336.89178303 -300.90719135 336.78368626 -265.75997804 336.66888306 C-261.54286634 336.65511295 -257.3257545 336.64138593 -253.10864258 336.62768555 C-252.26906676 336.62495724 -251.42949094 336.62222894 -250.56447343 336.61941796 C-236.95770282 336.57530395 -223.3509239 336.53468375 -209.74413874 336.49534739 C-195.78958837 336.45492816 -181.83505346 336.41077141 -167.88052589 336.36312145 C-159.26500041 336.33382088 -150.64947612 336.30746003 -142.03393052 336.28482103 C-136.13153797 336.26903251 -130.22916434 336.24962428 -124.3267928 336.22733159 C-120.91789855 336.2145646 -117.5090189 336.20342997 -114.10010719 336.19658089 C-110.40957549 336.1883365 -106.71911594 336.17406445 -103.02861023 336.15821838 C-101.40168331 336.15675122 -101.40168331 336.15675122 -99.74188918 336.15525442 C-98.75708188 336.14977998 -97.77227457 336.14430554 -96.75762463 336.1386652 C-95.90515248 336.13600716 -95.05268034 336.13334911 -94.17437571 336.13061053 C-91.81832067 336.08320454 -91.81832067 336.08320454 -89 335 C-89.33 333.35 -89.66 331.7 -90 330 C-91.65 330.66 -93.3 331.32 -95 332 C-95.45375 330.865625 -95.9075 329.73125 -96.375 328.5625 C-97.57095806 324.95278308 -97.57095806 324.95278308 -100 324 C-100.33992263 322.33466475 -100.67219028 320.66776188 -101 319 C-102.20850239 316.65035436 -103.56295791 314.43675153 -104.94140625 312.18359375 C-106 310 -106 310 -106 306 C-107.65 306 -109.3 306 -111 306 C-114 300.25 -114 300.25 -114 298 C-216.96 298 -319.92 298 -426 298 C-426 292.72 -426 287.44 -426 282 C-424.02 282 -422.04 282 -420 282 C-420 279.36 -420 276.72 -420 274 C-419.34 274 -418.68 274 -418 274 C-418 273.34 -418 272.68 -418 272 C-417.01 272 -416.02 272 -415 272 C-415.78605876 270.20586589 -416.57903863 268.41476285 -417.375 266.625 C-417.81585938 265.62726563 -418.25671875 264.62953125 -418.7109375 263.6015625 C-419.86712444 260.91977521 -419.86712444 260.91977521 -422 259 C-422.39764263 257.01178687 -422.73775349 255.01055661 -423 253 C-422.01 252.67 -421.02 252.34 -420 252 C-420 251.34 -420 250.68 -420 250 C-419.34 250 -418.68 250 -418 250 C-417.690625 249.05125 -417.38125 248.1025 -417.0625 247.125 C-416 244 -416 244 -415 242 C-414.95977609 239.6670134 -414.95679753 237.33293334 -415 235 C-413.02 234.01 -413.02 234.01 -411 233 C-411 232.34 -411 231.68 -411 231 C-410.34 231 -409.68 231 -409 231 C-407.39446555 229.07335866 -406.12183498 227.24366996 -405 225 C-404.09338818 225.00056958 -404.09338818 225.00056958 -403.16846097 225.00115067 C-367.3783092 225.02350921 -331.58815864 225.04067667 -295.79800136 225.05106533 C-291.50449438 225.0523161 -287.21098742 225.05361041 -282.91748047 225.05493164 C-282.06268926 225.05519395 -281.20789806 225.05545626 -280.32720409 225.05572652 C-266.47078683 225.0600826 -252.61437371 225.06796981 -238.7579589 225.0771528 C-224.54917358 225.08649105 -210.34039043 225.09205598 -196.13160217 225.09408849 C-187.35790864 225.09546336 -178.58422678 225.09981202 -169.81053685 225.10791647 C-163.80117074 225.11318604 -157.79181071 225.11480381 -151.78244247 225.11350138 C-148.31087988 225.11285833 -144.83933776 225.11387178 -141.36777878 225.11920547 C-137.61122755 225.12414103 -133.85472732 225.12299877 -130.09817505 225.12025452 C-128.99118952 225.12316736 -127.88420399 225.1260802 -126.74367344 225.12908131 C-125.74344021 225.12709026 -124.74320698 225.12509921 -123.71266365 225.12304783 C-122.84462298 225.12342755 -121.9765823 225.12380727 -121.08223736 225.1241985 C-118.93893647 225.13328709 -118.93893647 225.13328709 -117 224 C-116.64270064 222.67288808 -116.31674575 221.33737094 -116 220 C-115.05751254 217.63871422 -114.02873939 215.32584557 -113 213 C-112.34 213 -111.68 213 -111 213 C-110.67 211.68 -110.34 210.36 -110 209 C-109.34 209 -108.68 209 -108 209 C-107.814375 208.21625 -107.62875 207.4325 -107.4375 206.625 C-106.12220602 203.30817171 -104.76092781 201.10772442 -102.6875 198.25 C-97.94716582 191.69253771 -94.25803692 184.80049118 -92 177 C-91.34 177 -90.68 177 -90 177 C-90 176.34 -90 175.68 -90 175 C-90.59268887 174.99902319 -91.18537774 174.99804638 -91.79602689 174.99703997 C-126.91002943 174.93878997 -162.02396581 174.86500993 -197.1378913 174.77101372 C-201.35242529 174.75974532 -205.5669596 174.74860691 -209.78149414 174.73754883 C-210.62054534 174.73534514 -211.45959654 174.73314146 -212.32407353 174.730871 C-225.91655793 174.69548182 -239.50904226 174.67062684 -253.10155567 174.64965298 C-267.04483975 174.62790383 -280.98806396 174.59486186 -294.93129712 174.55129844 C-303.53762218 174.52476642 -312.14387261 174.50708248 -320.75023655 174.50065396 C-326.64894062 174.49540481 -332.54755071 174.4792038 -338.44620445 174.45433434 C-341.85134277 174.44030303 -345.25631281 174.43115456 -348.66148186 174.43499184 C-352.35147999 174.43663548 -356.04095424 174.42002223 -359.73088074 174.39872742 C-360.809673 174.40357499 -361.88846527 174.40842257 -362.9999482 174.41341704 C-372.2687937 174.32477206 -372.2687937 174.32477206 -376 171 C-376 170.34 -376 169.68 -376 169 C-374.68 168.67 -373.36 168.34 -372 168 C-371.67 165.69 -371.34 163.38 -371 161 C-371.66 161 -372.32 161 -373 161 C-373.1875 158.625 -373.1875 158.625 -373 156 C-369.91111478 153.94074319 -369.29064073 153.7609626 -365.8125 153.875 C-364.554375 153.91625 -363.29625 153.9575 -362 154 C-362.0825 153.0925 -362.165 152.185 -362.25 151.25 C-361.94651946 147.30475293 -360.89074879 146.52940519 -358 144 C-358 143.34 -358 142.68 -358 142 C-357.34 142 -356.68 142 -356 142 C-354.80161791 139.67145537 -354.80161791 139.67145537 -354 137 C-354.66 136.01 -355.32 135.02 -356 134 C-355.34 134 -354.68 134 -354 134 C-353.67 133.34 -353.34 132.68 -353 132 C-352.34 132 -351.68 132 -351 132 C-350.01 130.02 -349.02 128.04 -348 126 C-347.34 126 -346.68 126 -346 126 C-345.896875 125.278125 -345.79375 124.55625 -345.6875 123.8125 C-344.84617087 120.370699 -344.41455839 118.65887672 -342 116 C-338.34499789 115.20659116 -334.70035129 115.33285544 -330.97380066 115.3742218 C-329.82390901 115.36727726 -328.67401737 115.36033271 -327.48928052 115.35317773 C-324.29206785 115.33886893 -321.09580313 115.34700962 -317.89863431 115.364447 C-314.45268887 115.37779738 -311.00686161 115.36234835 -307.56092834 115.35028076 C-301.58753106 115.33323554 -295.61435546 115.33426955 -289.64095116 115.34728432 C-280.997867 115.36591434 -272.35501304 115.35515478 -263.71193735 115.33680775 C-249.68123429 115.30763915 -235.65060238 115.29930859 -221.61987305 115.30541992 C-208.00365386 115.3112794 -194.38745859 115.31235947 -180.77124023 115.3034668 C-179.93308807 115.30292423 -179.09493591 115.30238165 -178.23138519 115.30182264 C-169.08054668 115.2956558 -159.92971419 115.2869199 -150.77888203 115.27447033 C-149.57228839 115.2728316 -149.57228839 115.2728316 -148.34131912 115.27115976 C-145.12548608 115.26674036 -141.9096532 115.26226645 -138.69382075 115.25743415 C-129.27803099 115.24331097 -119.86232176 115.23728881 -110.446524 115.24597003 C-104.53853584 115.25115329 -98.63057434 115.24978202 -92.72258755 115.24326698 C-89.31326959 115.23981946 -85.90403458 115.23976874 -82.49472427 115.2484951 C-78.79879674 115.25635654 -75.10307445 115.25207644 -71.40715027 115.24482727 C-70.32942626 115.2501726 -69.25170225 115.25551794 -68.14131993 115.26102525 C-63.07986346 115.23867641 -58.67732928 115.18992964 -54 113 C-52.24020762 110.8864211 -52.24020762 110.8864211 -51.125 108.375 C-50.51011719 107.14910156 -50.51011719 107.14910156 -49.8828125 105.8984375 C-49.44582031 104.95871094 -49.44582031 104.95871094 -49 104 C-48.34 104 -47.68 104 -47 104 C-46.88011719 103.42636719 -46.76023437 102.85273438 -46.63671875 102.26171875 C-45.02522249 96.53744674 -41.33473619 91.42242562 -38 86.5625 C-34.84563366 81.92850821 -32.40805875 77.05168846 -30 72 C-29.33606324 70.6653052 -28.67032045 69.33150017 -28 68 C-27.34 68 -26.68 68 -26 68 C-26 66.68 -26 65.36 -26 64 C-118.73 63.67 -211.46 63.34 -307 63 C-307.33 63.66 -307.66 64.32 -308 65 C-308 64.34 -308 63.68 -308 63 C-308.66 62.67 -309.32 62.34 -310 62 C-310 61.34 -310 60.68 -310 60 C-309.34 60 -308.68 60 -308 60 C-307.34 56.7 -306.68 53.4 -306 50 C-305.01 50 -304.02 50 -303 50 C-303 49.34 -303 48.68 -303 48 C-302.34 48 -301.68 48 -301 48 C-301.33 47.01 -301.66 46.02 -302 45 C-301.34 45 -300.68 45 -300 45 C-300 44.01 -300 43.02 -300 42 C-299.34 42 -298.68 42 -298 42 C-298 39.69 -298 37.38 -298 35 C-297.360625 34.773125 -296.72125 34.54625 -296.0625 34.3125 C-293.7583742 33.17428613 -293.7583742 33.17428613 -293.375 30.625 C-293.189375 29.325625 -293.189375 29.325625 -293 28 C-292.1875 25.75 -292.1875 25.75 -291 24 C-288.875 23.25 -288.875 23.25 -287 23 C-287 22.01 -287 21.02 -287 20 C-286.2575 19.87625 -285.515 19.7525 -284.75 19.625 C-282.19858515 19.04513299 -280.2732427 18.26291261 -278 17 C-278 16.34 -278 15.68 -278 15 C-278.99 14.505 -278.99 14.505 -280 14 C-278.02 14 -276.04 14 -274 14 C-274 13.34 -274 12.68 -274 12 C-273.01 12 -272.02 12 -271 12 C-271 11.34 -271 10.68 -271 10 C-270.484375 9.896875 -269.96875 9.79375 -269.4375 9.6875 C-266.79467651 9.02437211 -266.79467651 9.02437211 -263.75 7.375 C-259.12894171 5.68061196 -256.76007301 6.08138942 -252 7 C-252 6.34 -252 5.68 -252 5 C-172.14 5 -92.28 5 -10 5 C-9.67 5.99 -9.34 6.98 -9 8 C-8.67 7.34 -8.34 6.68 -8 6 C-7.01 6 -6.02 6 -5 6 C-4.67 4.68 -4.34 3.36 -4 2 C-2.68 2 -1.36 2 0 2 C0 1.34 0 0.68 0 0 Z M-14 6 C-10 7 -10 7 -10 7 Z M-297 36 C-296 39 -296 39 -296 39 Z M37 52 C38 54 38 54 38 54 Z M45 66 C46 68 46 68 46 68 Z M97 156 C98 158 98 158 98 158 Z M100 162 C100.66 162.66 101.32 163.32 102 164 C102 163.34 102 162.68 102 162 C101.34 162 100.68 162 100 162 Z M-370 163 C-369 165 -369 165 -369 165 Z M-371 172 C-371 172.33 -371 172.66 -371 173 C-278.27 173 -185.54 173 -90 173 C-90 172.67 -90 172.34 -90 172 C-182.73 172 -275.46 172 -371 172 Z M-89 172 C-88 175 -88 175 -88 175 Z M148 242 C147.67 242.66 147.34 243.32 147 244 C147.66 244 148.32 244 149 244 C148.67 243.34 148.34 242.68 148 242 Z M152 257 C153 259 153 259 153 259 Z M151 259 C151 262 151 262 151 262 Z M141 276 C140.2884375 277.423125 140.2884375 277.423125 139.5625 278.875 C138.70833333 280.58333333 137.85416667 282.29166667 137 284 C137.99 284.33 138.98 284.66 140 285 C140.99 282.69 141.98 280.38 143 278 C142.34 277.34 141.68 276.68 141 276 Z M-117 287 C-117 287.66 -117 288.32 -117 289 C-116.34 288.67 -115.68 288.34 -115 288 C-115.66 287.67 -116.32 287.34 -117 287 Z M124 305 C125 307 125 307 125 307 Z M-102 312 C-101 315 -101 315 -101 315 Z M-96 323 C-95 325 -95 325 -95 325 Z M107 335 C108 337 108 337 108 337 Z M-369 349 C-368 353 -368 353 -368 353 Z M-367 352 C-366.42647107 355.87132028 -364.51295648 358.08172796 -362 361 C-362.4793247 356.68607774 -363.7457985 354.83430453 -367 352 Z M96 354 C97 356 97 356 97 356 Z M95 356 C94.34 357.65 93.68 359.3 93 361 C95.95664519 362.4783226 98.74229737 362.06032783 102 362 C102 361.34 102 360.68 102 360 C99.03 359.505 99.03 359.505 96 359 C95.67 358.01 95.34 357.02 95 356 Z M-358 365 C-358.33 365.66 -358.66 366.32 -359 367 C-358.34 367 -357.68 367 -357 367 C-357.33 366.34 -357.66 365.68 -358 365 Z M90 365 C89.731875 365.9075 89.46375 366.815 89.1875 367.75 C88.10423706 370.71471963 87.01640543 372.6169754 85 375 C88.84345809 373.54213659 90.15079935 371.61034412 92 368 C92.33 367.01 92.66 366.02 93 365 C92.01 365 91.02 365 90 365 Z M84 375 C85 377 85 377 85 377 Z M82 379 C83 381 83 381 83 381 Z M66 409 C67 411 67 411 67 411 Z M-45 411 C-44 413 -44 413 -44 413 Z M60 418 C59.34 419.65 58.68 421.3 58 423 C59.32 421.68 60.64 420.36 62 419 C61.34 418.67 60.68 418.34 60 418 Z M57 423 C58 425 58 425 58 425 Z M52 431 C53 433 53 433 53 433 Z M51 433 C49.39092892 435.37612865 49.39092892 435.37612865 48 438 C48.33 438.66 48.66 439.32 49 440 C50.60907108 437.62387135 50.60907108 437.62387135 52 435 C51.67 434.34 51.34 433.68 51 433 Z M47 440 C47 442.64 47 445.28 47 448 C47.33 448 47.66 448 48 448 C48 445.36 48 442.72 48 440 C47.67 440 47.34 440 47 440 Z M-304 459 C-304 462 -304 462 -304 462 Z M-306 462 C-306 462.99 -306 463.98 -306 465 C-305.34 465 -304.68 465 -304 465 C-304 464.01 -304 463.02 -304 462 C-304.66 462 -305.32 462 -306 462 Z M32 466 C31.34 466.66 30.68 467.32 30 468 C30.33 468.99 30.66 469.98 31 471 C31.66 469.35 32.32 467.7 33 466 C32.67 466 32.34 466 32 466 Z M-297 471 C-296 473 -296 473 -296 473 Z M25 477 C25 477.66 25 478.32 25 479 C25.66 479 26.32 479 27 479 C27 478.34 27 477.68 27 477 C26.34 477 25.68 477 25 477 Z M19 486 C18.67 486.99 18.34 487.98 18 489 C18.66 489 19.32 489 20 489 C20.33 488.01 20.66 487.02 21 486 C20.34 486 19.68 486 19 486 Z M10 493 C10 493.99 10 494.98 10 496 C10.99 495.34 11.98 494.68 13 494 C12.01 493.67 11.02 493.34 10 493 Z M-3 500 C-3.33 500.66 -3.66 501.32 -4 502 C-2.68 501.34 -1.36 500.68 0 500 C-0.99 500 -1.98 500 -3 500 Z M-16 505 C-13.36 504.67 -10.72 504.34 -8 504 C-8 503.67 -8 503.34 -8 503 C-12.49304582 502.57496554 -12.49304582 502.57496554 -16 505 Z " fill="#F9328D" transform="translate(634,246)"/>
<path d="M0 0 C0.66 0 1.32 0 2 0 C3.09741211 1.46533203 3.09741211 1.46533203 4.27734375 3.5078125 C4.70853516 4.24773437 5.13972656 4.98765625 5.58398438 5.75 C6.03064453 6.53375 6.47730469 7.3175 6.9375 8.125 C7.38029297 8.88554687 7.82308594 9.64609375 8.27929688 10.4296875 C14.25127308 20.75381924 14.25127308 20.75381924 16 26 C16.60614413 25.9981014 17.21228826 25.9962028 17.8368004 25.99424666 C53.73553616 25.88243638 89.63424203 25.79660783 125.53311558 25.74467335 C129.84035534 25.73841957 134.14759475 25.73194798 138.45483398 25.7253418 C139.74111325 25.72337447 139.74111325 25.72337447 141.05337795 25.7213674 C154.95120463 25.69959124 168.84892824 25.66015761 182.74669371 25.61423602 C196.99954817 25.56753276 211.25234854 25.53971761 225.50527638 25.52955753 C234.30519193 25.5226856 243.10481621 25.50095607 251.90464213 25.46041767 C257.93320267 25.43405488 263.96161191 25.42598425 269.99022595 25.43249311 C273.47223076 25.43570619 276.95372547 25.43066803 280.43564034 25.40397263 C284.20537617 25.37926239 287.97384418 25.38501579 291.74360657 25.39872742 C292.8515702 25.38416321 293.95953384 25.369599 295.10107213 25.35459346 C297.82929132 25.3815994 300.33142251 25.4344092 303 26 C305.26602459 28.41257954 305.26602459 28.41257954 306 31 C305.67 31.66 305.34 32.32 305 33 C305.99 33.33 306.98 33.66 308 34 C309.66241699 36.20197338 311.15602272 38.36319886 312.625 40.6875 C313.03234375 41.30044922 313.4396875 41.91339844 313.859375 42.54492188 C316.32943678 46.40132627 317.37926725 49.39968058 318 54 C318.66 54.33 319.32 54.66 320 55 C319.67 56.32 319.34 57.64 319 59 C316.70620251 55.55930376 316 54.27709699 316 50 C314.35 50 312.7 50 311 50 C308 44.25 308 44.25 308 42 C205.04 42 102.08 42 -4 42 C-4 36.72 -4 31.44 -4 26 C-2.02 26 -0.04 26 2 26 C2 23.36 2 20.72 2 18 C2.66 18 3.32 18 4 18 C4 17.34 4 16.68 4 16 C4.99 16 5.98 16 7 16 C6.21394124 14.20586589 5.42096137 12.41476285 4.625 10.625 C4.18414062 9.62726563 3.74328125 8.62953125 3.2890625 7.6015625 C2.13287556 4.91977521 2.13287556 4.91977521 0 3 C0 2.01 0 1.02 0 0 Z " fill="#000000" transform="translate(212,502)"/>
<path d="M0 0 C3.3 0.33 6.6 0.66 10 1 C10 22.12 10 43.24 10 65 C-0.56 65 -11.12 65 -22 65 C-22 65.66 -22 66.32 -22 67 C-23.79093191 67.08086147 -25.58289628 67.13912702 -27.375 67.1875 C-28.87160156 67.23970703 -28.87160156 67.23970703 -30.3984375 67.29296875 C-31.25695312 67.19628906 -32.11546875 67.09960938 -33 67 C-33.66 66.01 -34.32 65.02 -35 64 C-33.02 61.03 -33.02 61.03 -31 58 C-31.33 57.34 -31.66 56.68 -32 56 C-30.13518468 50.92038036 -26.98088359 46.47132538 -24 42 C-22.60066684 39.36426974 -21.28502795 36.69309049 -20 34 C-19.34 34 -18.68 34 -18 34 C-17.938125 33.34 -17.87625 32.68 -17.8125 32 C-16.53239151 27.27344557 -13.92743685 22.87102406 -10.3984375 19.4453125 C-8.73950953 17.93921452 -8.73950953 17.93921452 -8 15 C-6.48303867 13.77352063 -4.96507932 12.54813812 -3.43359375 11.33984375 C-1.4657602 9.50069686 -0.73091325 7.55819637 0 5 C-0.66 4.34 -1.32 3.68 -2 3 C-1.34 2.01 -0.68 1.02 0 0 Z M-26 48 C-25 50 -25 50 -25 50 Z " fill="#010001" transform="translate(726,607)"/>
<path d="M0 0 C2.55844378 3.83766567 3.12495165 6.38297732 3.09765625 10.88671875 C3.09443359 11.82451172 3.09121094 12.76230469 3.08789062 13.72851562 C3.07951172 14.70498047 3.07113281 15.68144531 3.0625 16.6875 C3.05798828 17.67556641 3.05347656 18.66363281 3.04882812 19.68164062 C3.03704303 22.12115474 3.02059011 24.56054689 3 27 C2.01 27 1.02 27 0 27 C0 27.66 0 28.32 0 29 C-4.16138263 29.08159574 -7.9472484 28.98248524 -12 28 C-13.13865385 31.41596155 -13.02524163 33.82462209 -12.87890625 37.41796875 C-12.83056641 38.67158203 -12.78222656 39.92519531 -12.73242188 41.21679688 C-12.67634766 42.52712891 -12.62027344 43.83746094 -12.5625 45.1875 C-12.50925765 46.5227663 -12.4565174 47.85805272 -12.40429688 49.19335938 C-12.27447654 52.46247144 -12.13950464 55.73128919 -12 59 C-12.66 59 -13.32 59 -14 59 C-14.33 59.99 -14.66 60.98 -15 62 C-19.62 62 -24.24 62 -29 62 C-29 66.29 -29 70.58 -29 75 C-29.99 75 -30.98 75 -32 75 C-32 75.66 -32 76.32 -32 77 C-36.95 77 -41.9 77 -47 77 C-47 76.34 -47 75.68 -47 75 C-48.31952321 75.00791911 -49.63904642 75.01583822 -50.99855518 75.02399731 C-82.34606171 75.21144614 -113.69361109 75.38309441 -145.04130711 75.53537826 C-148.90262002 75.55414987 -152.76393228 75.57305437 -156.62524414 75.59204102 C-157.39393734 75.59581856 -158.16263053 75.59959611 -158.95461746 75.60348812 C-171.38883891 75.66490956 -183.82297571 75.73708681 -196.25711451 75.8132638 C-209.02287119 75.89123206 -221.78865045 75.9575842 -234.55452412 76.01323253 C-242.42695476 76.04791335 -250.29922917 76.09157211 -258.17154261 76.14684484 C-264.21575116 76.18830974 -270.25991878 76.21358499 -276.30424309 76.2329216 C-278.77815154 76.24334586 -281.25204455 76.25896552 -283.72588348 76.28024101 C-287.11154198 76.30857067 -290.49676039 76.31795724 -293.88252258 76.32279968 C-294.85434599 76.33542916 -295.82616939 76.34805863 -296.82744199 76.36107081 C-308.63647485 76.32913406 -318.61050857 72.22960978 -329 67 C-328.505 66.01 -328.505 66.01 -328 65 C-327.34 65 -326.68 65 -326 65 C-326 65.66 -326 66.32 -326 67 C-324.6696875 67.185625 -324.6696875 67.185625 -323.3125 67.375 C-320 68 -320 68 -317.59767723 68.96957493 C-305.9269219 73.59903341 -292.3189642 72.26209654 -280.00537109 72.21118164 C-277.68175319 72.2089778 -275.35813428 72.20767439 -273.03451538 72.2071991 C-268.05169239 72.20427679 -263.06893563 72.19506805 -258.08613205 72.18089485 C-250.21266516 72.15856552 -242.33922255 72.15052896 -234.46572876 72.14439392 C-223.43530813 72.13463655 -212.40491443 72.11798101 -201.37451172 72.09594727 C-200.67603727 72.09455395 -199.97756282 72.09316064 -199.25792249 72.0917251 C-198.20883944 72.08963181 -198.20883944 72.08963181 -197.1385628 72.08749622 C-187.19963723 72.06768447 -177.2607107 72.04986867 -167.32177734 72.03442383 C-166.62112988 72.03333298 -165.92048241 72.03224213 -165.1986032 72.03111822 C-153.52970909 72.01311589 -141.86081222 71.99915628 -130.19191039 71.98725218 C-122.35808702 71.97882819 -114.52429915 71.96478818 -106.69049335 71.94627964 C-101.83280997 71.93567142 -96.97512695 71.92906579 -92.11743546 71.92347908 C-89.85745659 71.91999581 -87.59747968 71.91476802 -85.33750916 71.90771103 C-82.26473685 71.89832313 -79.19201686 71.89499131 -76.11923218 71.89320374 C-75.2149795 71.88892665 -74.31072682 71.88464957 -73.37907255 71.88024288 C-67.22812917 71.88593542 -67.22812917 71.88593542 -65 73 C-63.9171875 72.319375 -63.9171875 72.319375 -62.8125 71.625 C-59.49742928 69.70962581 -56.7704751 69.47987865 -53 69 C-50.64054775 68.0562191 -49.00375195 67.00293121 -47 65.4375 C-45 64 -45 64 -42.875 63.5625 C-42.25625 63.376875 -41.6375 63.19125 -41 63 C-40.31379969 61.67661368 -39.65213539 60.34050052 -39 59 C-37.1397605 56.85074023 -35.20482697 54.79741329 -33 53 C-32.34 53 -31.68 53 -31 53 C-30.67 51.68 -30.34 50.36 -30 49 C-28.68 48.67 -27.36 48.34 -26 48 C-26.33644531 47.11634766 -26.33644531 47.11634766 -26.6796875 46.21484375 C-27 44 -27 44 -25.8203125 42.25390625 C-25.26085937 41.69574219 -24.70140625 41.13757813 -24.125 40.5625 C-21.45028155 37.6787231 -20.51974394 35.95005393 -20 32 C-18.53129686 29.2541637 -17.20271564 27.20271564 -15 25 C-14.12786312 23.39549176 -13.29912042 21.767095 -12.5 20.125 C-12.0771875 19.26132812 -11.654375 18.39765625 -11.21875 17.5078125 C-10.8165625 16.68023438 -10.414375 15.85265625 -10 15 C-9.33524698 13.66571156 -8.6689527 12.33218786 -8 11 C-7.62875 10.2575 -7.2575 9.515 -6.875 8.75 C-6.58625 8.1725 -6.2975 7.595 -6 7 C-5.34 7.33 -4.68 7.66 -4 8 C-2.68 5.36 -1.36 2.72 0 0 Z M-6 9 C-6 11.64 -6 14.28 -6 17 C-5.67 17 -5.34 17 -5 17 C-5 14.36 -5 11.72 -5 9 C-5.33 9 -5.66 9 -6 9 Z M-34 55 C-34.33 55.99 -34.66 56.98 -35 58 C-34.34 58 -33.68 58 -33 58 C-32.67 57.01 -32.34 56.02 -32 55 C-32.66 55 -33.32 55 -34 55 Z " fill="#060104" transform="translate(687,677)"/>
<path d="M0 0 C0.66 0 1.32 0 2 0 C2 0.66 2 1.32 2 2 C3.32 2.33 4.64 2.66 6 3 C6 5.64 6 8.28 6 11 C11.28 11 16.56 11 22 11 C22 16.28 22 21.56 22 27 C16.72 27 11.44 27 6 27 C6 27.66 6 28.32 6 29 C1.38 29 -3.24 29 -8 29 C-8 28.34 -8 27.68 -8 27 C-9.32 27 -10.64 27 -12 27 C-12.474375 27.94875 -12.94875 28.8975 -13.4375 29.875 C-14.29166667 31.58333333 -15.14583333 33.29166667 -16 35 C-14.02 35 -12.04 35 -10 35 C-10 42.92 -10 50.84 -10 59 C-14.62 59 -19.24 59 -24 59 C-24.495 61.475 -24.495 61.475 -25 64 C-25.495 62.515 -25.495 62.515 -26 61 C-26.804375 61.020625 -27.60875 61.04125 -28.4375 61.0625 C-31 61 -31 61 -32 60 C-32.99084422 54.60772147 -29.783181 50.68860218 -27.0625 46.3125 C-26.13652008 44.78788106 -25.21072975 43.26314695 -24.28515625 41.73828125 C-23.87144775 41.06837158 -23.45773926 40.39846191 -23.03149414 39.70825195 C-21.95609839 37.97844635 -21.95609839 37.97844635 -21 36 C-20.34 36 -19.68 36 -19 36 C-18.566875 34.63875 -18.566875 34.63875 -18.125 33.25 C-16.48892027 28.52354743 -14.12590655 24.30067979 -11.6875 19.9375 C-11.11386719 18.89464844 -10.54023437 17.85179687 -9.94921875 16.77734375 C-8 14 -8 14 -5.3125 12.4140625 C-2.80156618 11.23540573 -2.80156618 11.23540573 -2.36328125 8.80859375 C-2.34652344 8.02613281 -2.32976563 7.24367188 -2.3125 6.4375 C-2.17966102 2.17966102 -2.17966102 2.17966102 0 0 Z " fill="#020102" transform="translate(778,517)"/>
<path d="M0 0 C2.375 0.25 2.375 0.25 5 1 C7.09862498 3.89810116 7 5.28378861 7 9 C7.66 8.67 8.32 8.34 9 8 C9.79397239 9.24853673 10.58507217 10.49890043 11.375 11.75 C11.81585938 12.44609375 12.25671875 13.1421875 12.7109375 13.859375 C13.92058035 15.86811525 14.95680246 17.90156802 16 20 C19.00023544 25.27184228 22.01395136 30.40071311 26 35 C25.1875 36.9375 25.1875 36.9375 24 39 C21.24921116 39.91692961 19.64051087 40.10886083 16.8125 40.0625 C15.554375 40.041875 14.29625 40.02125 13 40 C13 39.34 13 38.68 13 38 C7.72 38 2.44 38 -3 38 C-3 27.44 -3 16.88 -3 6 C-1.02 6 0.96 6 3 6 C3 5.34 3 4.68 3 4 C2.01 3.67 1.02 3.34 0 3 C0 2.01 0 1.02 0 0 Z M5 10 C5 10.99 5 11.98 5 13 C5.66 13 6.32 13 7 13 C7 12.01 7 11.02 7 10 C6.34 10 5.68 10 5 10 Z " fill="#030001" transform="translate(323,698)"/>
<path d="M0 0 C0.66 0 1.32 0 2 0 C2.33 1.98 2.66 3.96 3 6 C2.01 6.33 1.02 6.66 0 7 C-0.66 8.98 -1.32 10.96 -2 13 C7.24 13 16.48 13 26 13 C26 18.28 26 23.56 26 29 C21.76424794 29.16565817 17.52863258 29.32809193 13.29248047 29.48217773 C11.85100177 29.5355959 10.40959259 29.59092518 8.96826172 29.64819336 C6.89826447 29.73010997 4.82811573 29.80518359 2.7578125 29.87890625 C1.5114502 29.9260376 0.26508789 29.97316895 -1.01904297 30.02172852 C-4 30 -4 30 -6 29 C-6 28.34 -6 27.68 -6 27 C-8.31 27 -10.62 27 -13 27 C-12.01 23.7 -11.02 20.4 -10 17 C-9.34 17 -8.68 17 -8 17 C-7.8453125 16.1646875 -7.8453125 16.1646875 -7.6875 15.3125 C-6.86798993 12.55596614 -5.50303883 10.4424381 -4 8 C-3.67 7.01 -3.34 6.02 -3 5 C-2 4 -1 3 0 2 C0 1.34 0 0.68 0 0 Z " fill="#020102" transform="translate(742,579)"/>
<path d="M0 0 C0.33 0.66 0.66 1.32 1 2 C0.34 3.98 -0.32 5.96 -1 8 C-142.57 7.505 -142.57 7.505 -287 7 C-287 6.67 -287 6.34 -287 6 C-286.41192279 5.99864347 -285.82384557 5.99728694 -285.21794784 5.99588931 C-250.37110989 5.91525596 -215.52431374 5.82430824 -180.67753857 5.71994839 C-176.49433583 5.70742938 -172.31113284 5.69499662 -168.12792969 5.68261719 C-167.29512203 5.68015119 -166.46231437 5.6776852 -165.60427012 5.67514448 C-152.11592699 5.63541044 -138.62757548 5.60266595 -125.13920794 5.57250018 C-111.3010219 5.54139665 -97.46287147 5.50279196 -83.62472546 5.45720994 C-75.08444299 5.42931562 -66.5441866 5.40728667 -58.0038708 5.39273749 C-52.14909654 5.38220314 -46.29437276 5.36438891 -40.43963651 5.34083296 C-37.06071595 5.32745373 -33.68192881 5.31837916 -30.30297279 5.31578636 C-26.63969833 5.31247129 -22.97667044 5.29701377 -19.31344604 5.2784729 C-18.24534852 5.28040763 -17.17725099 5.28234237 -16.07678688 5.28433573 C-8.83514279 5.23827238 -8.83514279 5.23827238 -2 3 C-1.34 2.01 -0.68 1.02 0 0 Z M-286 8 C-192.28 8 -98.56 8 -2 8 C-2 8.33 -2 8.66 -2 9 C-95.72 9 -189.44 9 -286 9 C-286 8.67 -286 8.34 -286 8 Z " fill="#E82E82" transform="translate(582,356)"/>
<path d="M0 0 C93.72 0.33 187.44 0.66 284 1 C284.33 1.66 284.66 2.32 285 3 C191.94 3 98.88 3 3 3 C3 3.66 3 4.32 3 5 C3.66 5.33 4.32 5.66 5 6 C4.01 6 3.02 6 2 6 C1.34 5.34 0.68 4.68 0 4 C0 2.68 0 1.36 0 0 Z " fill="#FC3596" transform="translate(324,692)"/>
<path d="M0 0 C29.64877077 -0.04558895 59.29753988 -0.08100061 88.94633832 -0.10213066 C92.44371779 -0.10463218 95.94109719 -0.10722082 99.43847656 -0.10986328 C100.13476518 -0.1103879 100.8310538 -0.11091252 101.54844208 -0.11145304 C112.83442366 -0.12016441 124.12038495 -0.1359384 135.40635447 -0.15430559 C146.97995098 -0.17298431 158.55353318 -0.18396263 170.12714446 -0.18817699 C176.63074653 -0.19079106 183.13430252 -0.19696181 189.63788986 -0.21146011 C195.75269327 -0.22498194 201.86743137 -0.22923364 207.98224831 -0.22621536 C210.23254183 -0.22676796 212.48283742 -0.23077739 214.73311806 -0.23841095 C217.79346367 -0.24828777 220.85355912 -0.24599561 223.91390991 -0.24050903 C224.81467518 -0.24633472 225.71544045 -0.2521604 226.64350164 -0.25816262 C232.77175758 -0.22824242 232.77175758 -0.22824242 235 2 C231.00967033 4.66021978 227.55156753 4.26287388 222.92100525 4.22273254 C221.98063606 4.22247454 221.04026688 4.22221653 220.07140166 4.22195071 C216.90679579 4.21854713 213.74243607 4.20067556 210.57788086 4.18286133 C208.31470421 4.17734858 206.05152537 4.17267908 203.78834534 4.16879272 C197.63150136 4.15541214 191.47477593 4.12907464 185.31799006 4.09965348 C180.18583738 4.07618176 175.0536713 4.05870441 169.9214955 4.04115504 C157.12737276 3.99719111 144.33334992 3.94054967 131.53930617 3.87832262 C120.41844661 3.8246419 109.29760299 3.78740659 98.17665523 3.757924 C86.76562325 3.72752464 75.35469794 3.6858048 63.94374567 3.63263911 C57.53410433 3.6029043 51.12452297 3.57765998 44.71482658 3.56351662 C38.69098953 3.54973588 32.66738997 3.52164552 26.64366722 3.48231125 C24.42726072 3.47027332 22.21081965 3.46338872 19.99438095 3.46190834 C16.97999065 3.4590957 13.96627839 3.43805764 10.95201111 3.41218567 C9.62144201 3.41741067 9.62144201 3.41741067 8.26399273 3.42274123 C5.82971096 3.39034748 5.82971096 3.39034748 2 3 C1.34 2.01 0.68 1.02 0 0 Z " fill="#FE339B" transform="translate(384,746)"/>
<path d="M0 0 C36.22213377 -0.1601589 72.44420554 -0.28353539 108.66662038 -0.35745731 C112.94124034 -0.36621244 117.2158596 -0.37527268 121.49047852 -0.38452148 C122.34149217 -0.38635766 123.19250583 -0.38819383 124.06930778 -0.39008565 C137.85590596 -0.42055993 151.64230019 -0.47576013 165.4287773 -0.54006957 C179.57089391 -0.60548866 193.71290358 -0.64440262 207.8551653 -0.65861946 C216.58456757 -0.6682331 225.31339344 -0.69861527 234.04261831 -0.75541527 C240.02543771 -0.79236594 246.00795834 -0.80361245 251.99088361 -0.79450964 C255.44497809 -0.79001776 258.89806423 -0.79698827 262.35198021 -0.83443832 C266.09514132 -0.86912238 269.83580991 -0.8609481 273.57902527 -0.84178162 C275.22055935 -0.87236645 275.22055935 -0.87236645 276.89525574 -0.90356916 C284.01527579 -0.80460451 284.01527579 -0.80460451 286.84706175 1.50920856 C288.25150756 3.3329038 289.27582568 4.81420174 290 7 C289.67 7.99 289.34 8.98 289 10 C288.01 10 287.02 10 286 10 C285.00946122 8.28515625 285.00946122 8.28515625 284.01681995 6.0625 C282.43551403 3.40845636 281.67084651 2.22000614 278.70117605 1.24609375 C275.6875398 0.97191058 272.7568313 0.94555106 269.73088074 1 C268.5791304 0.98908105 267.42738006 0.9781621 266.2407282 0.96691227 C263.04732093 0.9446736 259.85637414 0.95824724 256.66309178 0.98693204 C253.2186015 1.00915339 249.77439558 0.98522254 246.32992554 0.96690369 C240.36351767 0.9414858 234.39770266 0.94529314 228.43129539 0.96896362 C219.80500398 1.00314438 211.17920637 0.99322945 202.5528926 0.97256029 C188.55739865 0.94022337 174.56214923 0.94353616 160.56665039 0.96923828 C146.97155064 0.99412881 133.37661146 1.00224814 119.78149414 0.98779297 C118.943462 0.98690776 118.10542986 0.98602255 117.24200281 0.98511052 C113.03783162 0.98056616 108.83366088 0.97569187 104.62949026 0.97065353 C69.75291077 0.92928384 34.87655685 0.94575743 0 1 C0 0.67 0 0.34 0 0 Z " fill="#000000" transform="translate(294,639)"/>
<path d="M0 0 C94.05 0.33 188.1 0.66 285 1 C285 1.33 285 1.66 285 2 C284.4128996 2.00173625 283.82579919 2.0034725 283.22090787 2.00526136 C248.44942795 2.10821751 213.67796772 2.21631441 178.90652485 2.33111694 C174.73447698 2.34488705 170.56242896 2.35861407 166.39038086 2.37231445 C165.55977688 2.37504276 164.72917291 2.37777106 163.87339912 2.38058204 C150.41212544 2.42469576 136.95084335 2.46531606 123.48955496 2.50465261 C109.68416609 2.54507218 95.87879285 2.58922899 82.07342702 2.63687855 C73.55003001 2.66617877 65.02663419 2.69253968 56.50321684 2.71517897 C50.6638985 2.73096779 44.82459929 2.75037611 38.98530217 2.77266841 C35.61285813 2.78543511 32.24044359 2.79603458 28.86798096 2.80341911 C25.21686045 2.81166384 21.56581286 2.82593598 17.91471863 2.84178162 C16.84177353 2.84275972 15.76882842 2.84373783 14.66336983 2.84474558 C13.68901272 2.85022002 12.7146556 2.85569446 11.71077251 2.8613348 C10.86741366 2.86399284 10.02405481 2.86665089 9.15513963 2.86938947 C6.81530165 2.91808849 6.81530165 2.91808849 4 4 C1.8125 3.0625 1.8125 3.0625 0 2 C0 1.34 0 0.68 0 0 Z " fill="#DF2D82" transform="translate(258,415)"/>
<path d="M0 0 C2.64 0 5.28 0 8 0 C8 0.66 8 1.32 8 2 C8.66 2 9.32 2 10 2 C9.91878906 3.16015625 9.83757813 4.3203125 9.75390625 5.515625 C9.2963954 14.99626656 9.62548248 21.46596576 15.2734375 29.51953125 C16.97381275 31.96237805 17.97870182 34.21849206 19 37 C19.391875 37.70125 19.78375 38.4025 20.1875 39.125 C21 41 21 41 20 44 C18.87068379 42.10673459 17.74672384 40.2102736 16.625 38.3125 C15.68527344 36.72888672 15.68527344 36.72888672 14.7265625 35.11328125 C13 32 13 32 11.96484375 29.38671875 C10.58913459 25.98364872 8.47507427 23.24655791 6.33984375 20.28125 C4.89878228 17.82766429 4.3993333 15.80026316 4 13 C3.34 13 2.68 13 2 13 C0.04677487 10.68506651 -1.01430369 8.96728675 -0.96875 5.88671875 C-0.71648561 3.91415138 -0.3644814 1.95494569 0 0 Z " fill="#070207" transform="translate(696,334)"/>
<path d="M0 0 C1.65 0 3.3 0 5 0 C5 0.66 5 1.32 5 2 C5.99 2 6.98 2 8 2 C8 4.97 8 7.94 8 11 C8.78375 11.309375 9.5675 11.61875 10.375 11.9375 C13 13 13 13 15 14 C15.12246094 14.75667969 15.24492188 15.51335937 15.37109375 16.29296875 C16.16174835 19.69622115 17.53540774 20.94585804 20.0625 23.3125 C20.79597656 24.00988281 21.52945313 24.70726562 22.28515625 25.42578125 C22.85105469 25.94527344 23.41695312 26.46476562 24 27 C23.67 27.66 23.34 28.32 23 29 C22.32195313 28.27554687 21.64390625 27.55109375 20.9453125 26.8046875 C13.12928774 18.61923455 5.29709506 13.09971472 -5.28515625 8.859375 C-7 8 -7 8 -8 6 C-7.01 6 -6.02 6 -5 6 C-4.67 4.68 -4.34 3.36 -4 2 C-2.68 2 -1.36 2 0 2 C0 1.34 0 0.68 0 0 Z " fill="#080303" transform="translate(634,246)"/>
<path d="M0 0 C2.64 0 5.28 0 8 0 C8 6.93 8 13.86 8 21 C6 20 6 20 5 17 C3.18821437 14.41416511 1.29760361 11.8972127 -0.6015625 9.375 C-1.06304688 8.59125 -1.52453125 7.8075 -2 7 C-1.67 6.01 -1.34 5.02 -1 4 C-0.65772583 2.66893378 -0.32248257 1.33599921 0 0 Z " fill="#050207" transform="translate(776,472)"/>
<path d="M0 0 C1.94415395 1.94415395 3.55478648 3.66013049 5 6 C4.66666667 7.33333333 4.33333333 8.66666667 4 10 C5.3516367 12.24755753 5.3516367 12.24755753 7 14 C7.66 13.67 8.32 13.34 9 13 C10.92910232 16.0194645 12.1372809 18.54912362 13 22 C13.66 22.33 14.32 22.66 15 23 C15 23.66 15 24.32 15 25 C13.68 25.33 12.36 25.66 11 26 C10.62488281 25.27554688 10.24976563 24.55109375 9.86328125 23.8046875 C6.5246702 17.38053732 6.5246702 17.38053732 2.1875 11.625 C-0.09166029 8.89000765 -0.81508754 7.51333675 -1 4 C-0.5625 1.6875 -0.5625 1.6875 0 0 Z M1 4 C2 8 2 8 2 8 Z " fill="#090204" transform="translate(264,591)"/>
<path d="M0 0 C1.32 0 2.64 0 4 0 C4 0.66 4 1.32 4 2 C3.53207031 2.46148437 3.06414062 2.92296875 2.58203125 3.3984375 C0.47341311 5.53308796 -0.07946309 7.95081301 -1.04296875 10.73828125 C-2.48253329 14.14035419 -4.56069751 17.0193883 -6.6953125 20.01953125 C-8.16495025 22.06514286 -8.16495025 22.06514286 -9 25 C-9.99 25.33 -10.98 25.66 -12 26 C-12 25.34 -12 24.68 -12 24 C-11.34 24 -10.68 24 -10 24 C-10.33 23.01 -10.66 22.02 -11 21 C-10.34 21 -9.68 21 -9 21 C-9 20.01 -9 19.02 -9 18 C-8.34 18 -7.68 18 -7 18 C-7 15.69 -7 13.38 -7 11 C-6.360625 10.773125 -5.72125 10.54625 -5.0625 10.3125 C-2.7583742 9.17428613 -2.7583742 9.17428613 -2.375 6.625 C-2.25125 5.75875 -2.1275 4.8925 -2 4 C-0.9375 1.6875 -0.9375 1.6875 0 0 Z M-6 12 C-5 15 -5 15 -5 15 Z " fill="#8D1E50" transform="translate(343,270)"/>
<path d="M0 0 C-3.85421412 8.6309795 -3.85421412 8.6309795 -8 11 C-8 9.68 -8 8.36 -8 7 C-8.66 7 -9.32 7 -10 7 C-10.1875 4.625 -10.1875 4.625 -10 2 C-6.3558226 -0.4294516 -4.28758728 -0.16179575 0 0 Z " fill="#040201" transform="translate(271,400)"/>
<path d="M0 0 C0.66 0 1.32 0 2 0 C2.66 2.31 3.32 4.62 4 7 C4.66 7 5.32 7 6 7 C6.24234375 7.50789063 6.4846875 8.01578125 6.734375 8.5390625 C8.87798137 12.94170019 11.19200344 16.98857634 14 21 C13.01 21.33 12.02 21.66 11 22 C9.8000962 20.23754778 8.61540483 18.46473019 7.4375 16.6875 C6.77621094 15.70136719 6.11492188 14.71523438 5.43359375 13.69921875 C4.96050781 12.80847656 4.48742187 11.91773438 4 11 C4.33 10.01 4.66 9.02 5 8 C4.01 8 3.02 8 2 8 C1.34 5.36 0.68 2.72 0 0 Z " fill="#0F030D" transform="translate(731,400)"/>
<path d="M0 0 C1.8125 0.5625 1.8125 0.5625 4 2 C5.05352843 4.30965848 6.05719096 6.6429774 7 9 C7.66 9.33 8.32 9.66 9 10 C9 11.98 9 13.96 9 16 C8.34 16.33 7.68 16.66 7 17 C6.54625 15.865625 6.0925 14.73125 5.625 13.5625 C4.42904194 9.95278308 4.42904194 9.95278308 2 9 C1.4375 6.6875 1.4375 6.6875 1 4 C0.67516582 2.66457061 0.3449145 1.33038449 0 0 Z " fill="#0C0307" transform="translate(532,561)"/>
<path d="M0 0 C0.66 0 1.32 0 2 0 C0.63855967 5.19822672 -1.46730171 8.09543873 -5 12 C-5.99 11.67 -6.98 11.34 -8 11 C-7.34 8.69 -6.68 6.38 -6 4 C-4.02 3.67 -2.04 3.34 0 3 C0 2.01 0 1.02 0 0 Z " fill="#EC3386" transform="translate(334,292)"/>
<path d="M0 0 C0.33 0 0.66 0 1 0 C0.67 2.31 0.34 4.62 0 7 C-0.99 7 -1.98 7 -3 7 C-3.28875 7.804375 -3.5775 8.60875 -3.875 9.4375 C-5 12 -5 12 -7 13 C-7 10.69 -7 8.38 -7 6 C-5.68 5.34 -4.36 4.68 -3 4 C-3 3.34 -3 2.68 -3 2 C-2.34 2 -1.68 2 -1 2 C-0.67 1.34 -0.34 0.68 0 0 Z " fill="#260915" transform="translate(226,475)"/>
<path d="M0 0 C1 3 1 3 -0.07421875 5.4453125 C-0.60660156 6.32960938 -1.13898437 7.21390625 -1.6875 8.125 C-2.20699219 9.01445313 -2.72648438 9.90390625 -3.26171875 10.8203125 C-5 13 -5 13 -9 14 C-7.68 11.36 -6.36 8.72 -5 6 C-4.34 6 -3.68 6 -3 6 C-2.814375 4.7934375 -2.814375 4.7934375 -2.625 3.5625 C-2.41875 2.716875 -2.2125 1.87125 -2 1 C-1.34 0.67 -0.68 0.34 0 0 Z " fill="#13040A" transform="translate(711,635)"/>
<path d="M0 0 C1.9375 0.25 1.9375 0.25 4 1 C6 4 6 4 6 8 C6.66 8 7.32 8 8 8 C8.66 9.65 9.32 11.3 10 13 C9.34 13 8.68 13 8 13 C6.34375 10.8828125 6.34375 10.8828125 4.5 8.125 C1.98303319 4.37124832 1.98303319 4.37124832 -1 1 C-0.67 0.67 -0.34 0.34 0 0 Z " fill="#080204" transform="translate(583,651)"/>
<path d="M0 0 C0.99 0.33 1.98 0.66 3 1 C3.33 2.65 3.66 4.3 4 6 C0.375 9 0.375 9 -3 9 C-2.67 8.01 -2.34 7.02 -2 6 C-1.34 6 -0.68 6 0 6 C0 4.02 0 2.04 0 0 Z " fill="#B42764" transform="translate(347,266)"/>
<path d="M0 0 C0.66 0 1.32 0 2 0 C3.54296875 2.1171875 3.54296875 2.1171875 5.1875 4.875 C5.73792969 5.77992188 6.28835937 6.68484375 6.85546875 7.6171875 C7.23316406 8.40351563 7.61085937 9.18984375 8 10 C7.67 10.66 7.34 11.32 7 12 C3.32566807 8.67560444 0.90794497 4.90290284 0 0 Z " fill="#19090D" transform="translate(212,502)"/>
<path d="M0 0 C1 2 1 2 0.0625 5.125 C-0.288125 6.07375 -0.63875 7.0225 -1 8 C-3.31 7.34 -5.62 6.68 -8 6 C-5 4 -5 4 -2 3 C-1.34 2.01 -0.68 1.02 0 0 Z " fill="#6F173A" transform="translate(582,356)"/>
<path d="M0 0 C1.70884005 1.62339805 3.37446717 3.29319053 5 5 C5 5.66 5 6.32 5 7 C3.35 6.67 1.7 6.34 0 6 C-0.38218767 4.34385343 -0.71395102 2.67542976 -1 1 C-0.67 0.67 -0.34 0.34 0 0 Z " fill="#100106" transform="translate(283,624)"/>
<path d="M0 0 C0.66 0.99 1.32 1.98 2 3 C1.125 5.6875 1.125 5.6875 0 8 C-0.99 7.67 -1.98 7.34 -3 7 C-2.67 5.35 -2.34 3.7 -2 2 C-1.34 2 -0.68 2 0 2 C0 1.34 0 0.68 0 0 Z " fill="#BF2E73" transform="translate(278,386)"/>
<path d="M0 0 C1.32 0 2.64 0 4 0 C4 2 4 2 2.625 3.4375 C2.08875 3.953125 1.5525 4.46875 1 5 C0.01 6.485 0.01 6.485 -1 8 C-1.66 8 -2.32 8 -3 8 C-1.125 2.25 -1.125 2.25 0 0 Z " fill="#120608" transform="translate(343,270)"/>
<path d="M0 0 C1 4 1 4 1 8 C-0.65 8.33 -2.3 8.66 -4 9 C-2.68 6.03 -1.36 3.06 0 0 Z " fill="#A9235E" transform="translate(606,314)"/>
<path d="M0 0 C0.99 0.33 1.98 0.66 3 1 C3 4.10551666 2.4606285 5.35261084 1 8 C0.01 7.67 -0.98 7.34 -2 7 C-1.34 4.69 -0.68 2.38 0 0 Z " fill="#791943" transform="translate(328,296)"/>
<path d="M0 0 C2.79872437 2.52788007 4.45773019 4.20411134 5 8 C4.34 8 3.68 8 3 8 C3 7.34 3 6.68 3 6 C2.34 6 1.68 6 1 6 C0.67 4.02 0.34 2.04 0 0 Z " fill="#661541" transform="translate(769,468)"/>
<path d="M0 0 C0.99 0 1.98 0 3 0 C3 0.99 3 1.98 3 3 C2.01 3 1.02 3 0 3 C0 2.01 0 1.02 0 0 Z " fill="#000000" transform="translate(338,270)"/>
<path d="M0 0 C0.66 0 1.32 0 2 0 C2 0.66 2 1.32 2 2 C1.34 2 0.68 2 0 2 C0 1.34 0 0.68 0 0 Z " fill="#010400" transform="translate(539,424)"/>
<path d="M0 0 C0.33 0.99 0.66 1.98 1 3 C0.34 2.67 -0.32 2.34 -1 2 C-0.67 1.34 -0.34 0.68 0 0 Z " fill="#060101" transform="translate(284,371)"/>
<path d="M0 0 C0.66 0 1.32 0 2 0 C2 0.66 2 1.32 2 2 C1.34 2 0.68 2 0 2 C0 1.34 0 0.68 0 0 Z " fill="#060100" transform="translate(603,314)"/>
<path d="M0 0 C0.99 0.495 0.99 0.495 2 1 C1.01 1.495 1.01 1.495 0 2 C0 1.34 0 0.68 0 0 Z " fill="#000100" transform="translate(351,263)"/>
<path d="" fill="#000600" transform="translate(0,0)"/>
<path d="" fill="#120306" transform="translate(0,0)"/>
<path d="" fill="#0C0203" transform="translate(0,0)"/>
<path d="" fill="#000100" transform="translate(0,0)"/>
<path d="" fill="#000200" transform="translate(0,0)"/>
</svg>
