<?xml version="1.0" encoding="UTF-8"?>
<svg version="1.1" xmlns="http://www.w3.org/2000/svg" width="225" height="225" fill="#3B82F6">
<path d="M0 0 C74.25 0 148.5 0 225 0 C225 74.25 225 148.5 225 225 C150.75 225 76.5 225 0 225 C0 150.75 0 76.5 0 0 Z " fill="#FDFDFE" transform="translate(0,0)"/>
<path d="M0 0 C20.48902981 -0.55913059 42.04298519 3.37004985 58 17 C55.31334616 24.12840819 52.16173513 30.80234204 48.4375 37.4375 C48.06181885 38.11103516 47.6861377 38.78457031 47.29907227 39.47851562 C45.15261703 43.24056718 43.00002679 46.84397182 40 50 C30.12131726 51.1720471 15.73270445 47.91250042 7.61328125 42.37109375 C7.08089844 41.91863281 6.54851562 41.46617188 6 41 C7.65121316 36.59960204 9.73745561 32.48881131 11.875 28.3125 C14.91684654 22.31131632 17.63503439 16.30657497 20 10 C16.37 9.34 12.74 8.68 9 8 C8.91878906 9.26714844 8.83757812 10.53429687 8.75390625 11.83984375 C8.12481504 17.50166468 6.15107022 22.35162572 3.9375 27.5625 C3.56044922 28.47580078 3.18339844 29.38910156 2.79492188 30.33007812 C1.87347684 32.55787561 0.94178421 34.78074295 0 37 C-2.9719385 35.87548273 -5.33440687 34.77706209 -8 33 C-7.0277044 28.36289793 -5.98651291 23.8318673 -4.5625 19.3125 C-2.60039251 12.97569367 -1.31966841 6.4953892 0 0 Z " fill="#F15923" transform="translate(116,71)"/>
<path d="M0 0 C2.9719385 1.12451727 5.33440687 2.22293791 8 4 C4.86390776 14.41304412 -2.11779737 22.75923269 -9 31 C-0.53493976 24.32008852 5.69712206 16.7039743 12 8 C15.77235562 8.61964686 18.89824003 9.73968001 22.375 11.3125 C29.40201958 14.32658321 36.59400086 16.18897016 44 18 C34.92922009 29.27718584 24.13906749 37.36051757 12 45 C11.17242187 45.60972656 10.34484375 46.21945313 9.4921875 46.84765625 C5.9379263 48.49108424 3.76157244 47.9260516 0 47 C-8.10229919 43.51068867 -15.2975497 38.69794871 -22 33 C-18.82039582 28.12219814 -15.5434783 23.35594652 -12.0625 18.6875 C-8.44322366 13.7666762 -5.34787018 8.65294534 -2.34765625 3.3359375 C-1 1 -1 1 0 0 Z " fill="#F15923" transform="translate(103,113)"/>
<path d="M0 0 C3.17176751 1.47676331 5.91052578 3.27332345 8.75 5.3125 C13.07572238 8.38029718 17.47555312 11.23506024 22 14 C13.88279303 22.11720697 -4.21063457 23.64438263 -15 26 C-16.134375 26.25007813 -17.26875 26.50015625 -18.4375 26.7578125 C-24.33781854 27.94793357 -29.98786302 28.23474721 -36 28 C-32.34323209 24.9504193 -28.55592332 22.42593919 -24.5 19.9375 C-15.5262124 14.30705236 -7.39583978 7.59046714 0 0 Z " fill="#F15A24" transform="translate(73,153)"/>
<path d="M0 0 C2.1428233 1.67699215 2.9423303 2.79553471 3.6875 5.4375 C4.46311095 14.2794648 4.04882425 22.37101029 2 31 C1.6612776 32.66557979 1.32654176 34.3319894 1 36 C3.31 37.98 5.62 39.96 8 42 C7.67 43.32 7.34 44.64 7 46 C6.01902344 45.60167969 5.03804687 45.20335937 4.02734375 44.79296875 C-5.23584716 41.12513343 -14.15972929 38.61176848 -24 37 C-24.5625 35.0625 -24.5625 35.0625 -25 33 C-24 32 -24 32 -21.27734375 31.90234375 C-20.17519531 31.91394531 -19.07304687 31.92554687 -17.9375 31.9375 C-16.28041016 31.95103516 -16.28041016 31.95103516 -14.58984375 31.96484375 C-13.73519531 31.97644531 -12.88054687 31.98804687 -12 32 C-7.56728539 21.37033217 -7.56728539 21.37033217 -5.5625 10.125 C-5.23567597 5.4032529 -3.29538632 3.29538632 0 0 Z " fill="#F15A24" transform="translate(160,30)"/>
</svg>
