<?xml version="1.0" encoding="UTF-8"?>
<svg version="1.1" xmlns="http://www.w3.org/2000/svg" width="364" height="364" fill="#3B82F6">
<path d="M0 0 C120.12 0 240.24 0 364 0 C364 120.12 364 240.24 364 364 C243.88 364 123.76 364 0 364 C0 243.88 0 123.76 0 0 Z " fill="#29145F" transform="translate(0,0)"/>
<path d="M0 0 C2.40625 2.22265625 2.40625 2.22265625 4 4 C2.47920927 7.50827915 0.4004327 9.95271646 -2.1875 12.75 C-6.18884221 17.11392338 -10.11726474 21.53048481 -14 26 C-16.78740618 24.9019309 -19.48968446 23.76235901 -22.1875 22.453125 C-26.05678248 20.79834071 -29.76168798 20.49899525 -33.9375 20.5625 C-34.64189209 20.57079834 -35.34628418 20.57909668 -36.07202148 20.58764648 C-43.86337255 20.84125122 -48.13349683 23.10448242 -53.75 28.25 C-60.66795878 35.81701212 -61.87451512 42.71367429 -61.453125 52.8515625 C-60.8936568 59.79462577 -57.99093595 64.65171657 -53.5625 69.875 C-47.0626252 75.26514008 -40.92553657 78.59493047 -32.234375 78.30859375 C-13.40280609 75.70773021 -2.194534 57.23759037 8.890625 43.54296875 C11.74475219 40.10215985 14.75641756 36.81665864 17.765625 33.51171875 C20.00134533 30.99848768 22.13377682 28.42688521 24.25 25.8125 C25.83116567 23.8732306 27.41472525 21.93591184 29 20 C29.49016602 19.39929688 29.98033203 18.79859375 30.48535156 18.1796875 C41.5888126 4.66124079 54.64745733 -8.12513593 73 -10 C75.8545687 -10.15628527 78.70396803 -10.22133454 81.5625 -10.25 C82.62525146 -10.2641394 82.62525146 -10.2641394 83.70947266 -10.27856445 C98.75469752 -10.1861662 112.37747536 -3.00012409 123.21875 7.05859375 C135.29623662 19.71672877 139.50431555 34.2127899 139.34960938 51.23046875 C138.91823692 67.55266993 133.0413049 80.72405081 121.671875 92.55859375 C108.92950955 104.20183703 93.44961269 108.6888453 76.546875 108.3125 C62.36601576 107.60286568 48.52701792 100.40539546 39 90 C34.10751763 83.70521376 29.97445559 77.41743171 27 70 C23.41906765 73.53560409 19.95680735 77.15929584 16.5625 80.875 C16.076604 81.40311279 15.59070801 81.93122559 15.09008789 82.4753418 C12.6076237 85.18571524 10.22174635 87.9343496 7.9375 90.8125 C0.00794279 100.09753707 -13.92429879 106.99279003 -26.04907227 108.20483398 C-44.04357022 109.00781317 -58.90538538 105.27036607 -72.875 93.25 C-83.78395847 82.78565701 -90.77492337 68.83764401 -91.30078125 53.66015625 C-91.31518418 51.79432233 -91.31897425 49.92837827 -91.3125 48.0625 C-91.32861328 47.13759766 -91.34472656 46.21269531 -91.36132812 45.25976562 C-91.37180566 30.30832279 -84.63768135 16.92493552 -74.37890625 6.21484375 C-52.82700877 -13.85071597 -24.59868895 -14.74019376 0 0 Z " fill="#FCFBFD" transform="translate(158,133)"/>
<path d="M0 0 C0.33 0 0.66 0 1 0 C1 55.44 1 110.88 1 168 C-54.44 168 -109.88 168 -167 168 C-167 167.67 -167 167.34 -167 167 C-166.27111572 166.90501221 -165.54223145 166.81002441 -164.79125977 166.7121582 C-150.52024363 164.81827286 -136.5689857 162.93303259 -123 158 C-121.8241333 157.57460938 -121.8241333 157.57460938 -120.62451172 157.140625 C-95.77851787 147.99117378 -74.54919997 134.84421523 -55 117 C-54.18144531 116.25363281 -53.36289062 115.50726563 -52.51953125 114.73828125 C-20.83607609 84.40067197 -5.12320701 42.68552202 0 0 Z " fill="#FDFDFE" transform="translate(363,196)"/>
<path d="M0 0 C0.33 0 0.66 0 1 0 C1.05945801 0.55123535 1.11891602 1.1024707 1.18017578 1.67041016 C5.90739765 43.90199996 22.36730193 80.63149582 51 112 C51.74636719 112.81855469 52.49273437 113.63710938 53.26171875 114.48046875 C82.83508526 145.36577758 125.75677445 163.84007368 168 167 C168 167.33 168 167.66 168 168 C112.56 168 57.12 168 0 168 C0 112.56 0 57.12 0 0 Z " fill="#FDFDFE" transform="translate(0,196)"/>
<path d="M0 0 C55.44 0 110.88 0 168 0 C168 55.77 168 111.54 168 169 C167.67 169 167.34 169 167 169 C166.90203125 167.82566406 166.8040625 166.65132812 166.703125 165.44140625 C165.70365574 154.3391623 164.02688907 143.73169761 161 133 C160.8045459 132.30116699 160.6090918 131.60233398 160.40771484 130.88232422 C147.47498042 85.94132891 116.56919941 47.3419923 76.0625 24.25 C53.07029388 11.57637177 26.44041048 2.03687884 0 1 C0 0.67 0 0.34 0 0 Z " fill="#FDFDFE" transform="translate(196,0)"/>
<path d="M0 0 C56.76 0 113.52 0 172 0 C172 0.33 172 0.66 172 1 C171.05382812 1.02578125 170.10765625 1.0515625 169.1328125 1.078125 C159.15005936 1.4629129 149.81671429 3.04369932 140.13574219 5.46923828 C138.16126725 5.95992284 136.17852943 6.41703074 134.1953125 6.87109375 C89.90213561 17.58718493 51.35985668 48.30969062 27.42382812 86.47607422 C12.76099031 110.56843583 1.67420845 139.49937014 1 168 C0.67 168 0.34 168 0 168 C0 112.56 0 57.12 0 0 Z " fill="#FDFDFE" transform="translate(0,0)"/>
<path d="M0 0 C4.93112315 3.77975242 8.30541997 8.78536306 10.1875 14.6875 C11.13277328 24.50839183 11.24488808 33.42289927 5.1875 41.6875 C2.6875 44.5625 2.6875 44.5625 0.1875 46.6875 C-0.6375 47.409375 -1.4625 48.13125 -2.3125 48.875 C-9.44574517 54.04660275 -18.35416832 53.66835761 -26.8125 52.6875 C-34.14434036 50.60424605 -39.54333937 44.81113764 -43.8125 38.6875 C-47.93025138 30.6702191 -48.45766973 21.33226013 -45.93359375 12.671875 C-41.94531872 4.08984423 -35.63781081 -1.92794781 -26.8125 -5.3125 C-17.0294247 -8.18760497 -8.34759232 -5.46848781 0 0 Z " fill="#2A165F" transform="translate(257.8125,158.3125)"/>
<path d="M0 0 C-0.33 0.66 -0.66 1.32 -1 2 C-7.27 2 -13.54 2 -20 2 C-20 1.67 -20 1.34 -20 1 C-17.41765641 0.63667026 -14.83460218 0.28405133 -12.25 -0.0625 C-11.52039063 -0.16626953 -10.79078125 -0.27003906 -10.0390625 -0.37695312 C-6.3892704 -0.85806208 -3.52327086 -1.04532842 0 0 Z " fill="#DED4EB" transform="translate(216,362)"/>
<path d="M0 0 C0.66 0.99 1.32 1.98 2 3 C0.625 6.6875 0.625 6.6875 -1 10 C-1.33 10 -1.66 10 -2 10 C-2.25 3.375 -2.25 3.375 0 0 Z " fill="#312061" transform="translate(348,250)"/>
<path d="M0 0 C1.32 0.66 2.64 1.32 4 2 C-1.2734375 5.22265625 -1.2734375 5.22265625 -3 6 C-3.66 5.67 -4.32 5.34 -5 5 C-3.35 3.35 -1.7 1.7 0 0 Z " fill="#221153" transform="translate(168,221)"/>
<path d="M0 0 C1 3 1 3 -0.1875 5.5625 C-2 8 -2 8 -6 10 C-4.02 6.7 -2.04 3.4 0 0 Z " fill="#3B2B64" transform="translate(290,210)"/>
</svg>
