<?xml version="1.0" encoding="UTF-8"?>
<svg version="1.1" xmlns="http://www.w3.org/2000/svg" width="148" height="148" fill="#3B82F6">
<path d="M0 0 C2.37018086 0.02145843 4.73733219 0.00009421 7.10742188 -0.02539062 C25.86953594 -0.0608024 40.30148107 6.81483238 53.68945312 19.84570312 C55.01783203 21.17021484 55.01783203 21.17021484 56.37304688 22.52148438 C57.04207031 23.16730469 57.71109375 23.813125 58.40039062 24.47851562 C62.22068332 28.45473864 64.9633025 32.96451258 67.62304688 37.77148438 C68.11756348 38.64691895 68.11756348 38.64691895 68.62207031 39.54003906 C73.94518345 49.63597422 74.87830012 60.21810465 74.81054688 71.45898438 C74.83052734 72.63138672 74.85050781 73.80378906 74.87109375 75.01171875 C74.86146386 92.45144653 67.71696058 107.73426144 55.70507812 120.21679688 C54.93550781 120.97734375 54.1659375 121.73789063 53.37304688 122.52148438 C52.61378906 123.30265625 51.85453125 124.08382812 51.07226562 124.88867188 C37.97353032 137.62295792 20.50563308 143.30777376 2.49804688 143.08398438 C0.66258301 143.07189941 0.66258301 143.07189941 -1.20996094 143.05957031 C-10.57653039 142.85297311 -18.15691644 141.55428492 -26.62695312 137.52148438 C-27.43777344 137.16441406 -28.24859375 136.80734375 -29.08398438 136.43945312 C-33.19416728 134.52543474 -36.92346296 132.12180726 -40.62695312 129.52148438 C-41.18125 129.16441406 -41.73554687 128.80734375 -42.30664062 128.43945312 C-56.70556959 118.87216476 -66.33391215 101.5155804 -69.89257812 84.92382812 C-73.87608973 63.31084869 -67.77080327 44.62934629 -55.79101562 26.78710938 C-42.42556979 8.62814921 -22.0609141 -0.23721413 0 0 Z " fill="#3CC48F" transform="translate(73.626953125,2.478515625)"/>
<path d="M0 0 C2.37018086 0.02145843 4.73733219 0.00009421 7.10742188 -0.02539062 C25.86953594 -0.0608024 40.30148107 6.81483238 53.68945312 19.84570312 C55.01783203 21.17021484 55.01783203 21.17021484 56.37304688 22.52148438 C57.04207031 23.16730469 57.71109375 23.813125 58.40039062 24.47851562 C62.22068332 28.45473864 64.9633025 32.96451258 67.62304688 37.77148438 C68.11756348 38.64691895 68.11756348 38.64691895 68.62207031 39.54003906 C73.94518345 49.63597422 74.87830012 60.21810465 74.81054688 71.45898438 C74.83052734 72.63138672 74.85050781 73.80378906 74.87109375 75.01171875 C74.86146386 92.45144653 67.71696058 107.73426144 55.70507812 120.21679688 C54.93550781 120.97734375 54.1659375 121.73789063 53.37304688 122.52148438 C52.61378906 123.30265625 51.85453125 124.08382812 51.07226562 124.88867188 C37.97353032 137.62295792 20.50563308 143.30777376 2.49804688 143.08398438 C0.66258301 143.07189941 0.66258301 143.07189941 -1.20996094 143.05957031 C-10.57653039 142.85297311 -18.15691644 141.55428492 -26.62695312 137.52148438 C-27.43777344 137.16441406 -28.24859375 136.80734375 -29.08398438 136.43945312 C-33.19416728 134.52543474 -36.92346296 132.12180726 -40.62695312 129.52148438 C-41.18125 129.16441406 -41.73554687 128.80734375 -42.30664062 128.43945312 C-56.70556959 118.87216476 -66.33391215 101.5155804 -69.89257812 84.92382812 C-73.87608973 63.31084869 -67.77080327 44.62934629 -55.79101562 26.78710938 C-42.42556979 8.62814921 -22.0609141 -0.23721413 0 0 Z M-41.62695312 33.52148438 C-51.70636288 45.66796058 -56.91395123 59.72462058 -55.62695312 75.52148438 C-53.49998296 91.93782686 -46.34438567 105.92559138 -33.33789062 116.35742188 C-31.1533195 117.87813039 -28.95161107 119.22603397 -26.62695312 120.52148438 C-25.38751953 121.21371094 -25.38751953 121.21371094 -24.12304688 121.91992188 C-10.78007796 128.96826881 6.09215934 130.01251515 20.58007812 125.61914062 C35.65525418 119.69449101 47.77655817 110.15055181 54.87695312 95.39648438 C58.51063215 86.94895708 59.57414125 79.96099741 59.62304688 70.83398438 C59.64367187 69.89103516 59.66429687 68.94808594 59.68554688 67.9765625 C59.76865747 52.86082234 53.02144632 40.6294264 42.75976562 29.77539062 C29.48835303 17.24248544 15.22276621 13.95586498 -2.48242188 14.27929688 C-18.2693723 14.85669394 -30.86327756 22.1411399 -41.62695312 33.52148438 Z " fill="#ADFEDB" transform="translate(73.626953125,2.478515625)"/>
<path d="" fill="#00FF00" transform="translate(0,0)"/>
<path d="" fill="#00FFFF" transform="translate(0,0)"/>
<path d="" fill="#00FFFF" transform="translate(0,0)"/>
<path d="" fill="#00FF00" transform="translate(0,0)"/>
</svg>
