<?xml version="1.0" encoding="UTF-8"?>
<svg version="1.1" xmlns="http://www.w3.org/2000/svg" width="1324" height="480" fill="#3B82F6">
<path d="M0 0 C436.92 0 873.84 0 1324 0 C1324 158.4 1324 316.8 1324 480 C887.08 480 450.16 480 0 480 C0 321.6 0 163.2 0 0 Z " fill="#FEFEFE" transform="translate(0,0)"/>
<path d="M0 0 C1.155 0.61101562 2.31 1.22203125 3.5 1.8515625 C16.88509747 9.11178278 29.03979888 18.44937292 40 29 C40.83265381 29.78600586 40.83265381 29.78600586 41.68212891 30.58789062 C69.26506377 56.71214783 95.79703807 98.51262313 97.125 137.6875 C97.08375 138.450625 97.0425 139.21375 97 140 C95.35425434 140.02688151 93.70838587 140.04634123 92.0625 140.0625 C91.14597656 140.07410156 90.22945312 140.08570313 89.28515625 140.09765625 C87 140 87 140 86 139 C85.91368126 137.65732587 85.89293527 136.31025678 85.90234375 134.96484375 C85.90556641 134.15595703 85.90878906 133.34707031 85.91210938 132.51367188 C85.92048828 131.66353516 85.92886719 130.81339844 85.9375 129.9375 C85.94201172 129.08349609 85.94652344 128.22949219 85.95117188 127.34960938 C85.96299627 125.23304337 85.98093231 123.11651315 86 121 C85.34805664 121.21092285 84.69611328 121.4218457 84.02441406 121.63916016 C82.8985791 122.00340088 82.8985791 122.00340088 81.75 122.375 C80.1578301 122.89011379 78.57403776 123.43188703 77 124 C76.2575 124.2165625 75.515 124.433125 74.75 124.65625 C72.6294869 125.97495441 72.6294869 125.97495441 72.390625 129.2578125 C72.34421875 130.53398437 72.2978125 131.81015625 72.25 133.125 C72.19328125 134.40632812 72.1365625 135.68765625 72.078125 137.0078125 C72.05234375 137.99523437 72.0265625 138.98265625 72 140 C69.36 140.33 66.72 140.66 64 141 C63.67 145.29 63.34 149.58 63 154 C64.464375 153.979375 65.92875 153.95875 67.4375 153.9375 C68.95832518 153.91607993 70.48071962 153.92820036 72 154 C73.88406765 155.88406765 73.15340333 159.15954882 73.17578125 161.66796875 C73.19899675 163.05014515 73.22311477 164.43230663 73.24804688 165.81445312 C73.28304152 167.99562294 73.3124304 170.1762508 73.32592773 172.35766602 C73.34149952 174.4617741 73.38178086 176.56428722 73.42578125 178.66796875 C73.44765503 180.55938599 73.44765503 180.55938599 73.4699707 182.48901367 C74.08575413 186.56804706 75.61753602 188.68942638 78 192 C78 192.99 78 193.98 78 195 C80.04159095 195.0272616 82.08328963 195.04651345 84.125 195.0625 C85.83042969 195.07990234 85.83042969 195.07990234 87.5703125 195.09765625 C90.8129156 195.005327 93.81932612 194.61389906 97 194 C97.61592838 214.14599066 87.61011169 237.83561213 77.98242188 255.22363281 C77.01228847 256.97778059 76.07617739 258.75060503 75.140625 260.5234375 C67.86863218 273.8954904 58.547345 286.04320837 48 297 C47.47599609 297.55510254 46.95199219 298.11020508 46.41210938 298.68212891 C24.82092486 321.47888181 -1.27915655 337.09624687 -30.87841797 347.27001953 C-32.6861954 347.89202811 -34.48653757 348.53557774 -36.28515625 349.18359375 C-39.49982023 350.27208998 -42.7097199 351.16579405 -46 352 C-46.69722168 352.18191895 -47.39444336 352.36383789 -48.11279297 352.55126953 C-74.81437011 359.19717018 -107.40133504 358.95895304 -134 352 C-135.25200195 351.68651611 -135.25200195 351.68651611 -136.52929688 351.36669922 C-167.86254706 343.35331052 -196.69811581 327.43111124 -220 305 C-220.55510254 304.47599609 -221.11020508 303.95199219 -221.68212891 303.41210938 C-245.16579241 281.17034038 -260.55262421 254.4266717 -271 224 C-271.39058594 222.90429688 -271.78117187 221.80859375 -272.18359375 220.6796875 C-277.065771 206.12813975 -279.94333511 190.35539923 -279 175 C-278.67 175 -278.34 175 -278 175 C-277.5196682 176.58298026 -277.04078388 178.16639978 -276.5625 179.75 C-276.29566406 180.63171875 -276.02882813 181.5134375 -275.75390625 182.421875 C-275.11531506 184.60565835 -274.53224167 186.78835498 -274 189 C-273.41734375 189.12246094 -272.8346875 189.24492187 -272.234375 189.37109375 C-269.97041918 190.00832607 -268.29666157 190.92046284 -266.25 192.0625 C-259.49985532 195.09614711 -252.20318121 195.02796174 -245 194 C-241.77169615 192.44646296 -239.39828237 190.65073315 -237 188 C-238.59943016 184.65382374 -240.07246842 182.35828933 -243 180 C-246.14481791 179.19684346 -246.14481791 179.19684346 -249 179 C-249 179.66 -249 180.32 -249 181 C-252.3 181 -255.6 181 -259 181 C-259 180.34 -259 179.68 -259 179 C-260.32 179 -261.64 179 -263 179 C-265 176 -265 176 -265 171 C-254.77 171 -244.54 171 -234 171 C-234.29946141 157.55817146 -234.29946141 157.55817146 -240 147 C-240.43699219 146.39285156 -240.87398438 145.78570312 -241.32421875 145.16015625 C-244.80531008 141.27704912 -248.19448453 140.63675172 -253.20385742 140.24023438 C-256.47242432 140.07160791 -259.72696088 140.00785844 -263 140 C-263 140.66 -263 141.32 -263 142 C-264.19625 142.515625 -265.3925 143.03125 -266.625 143.5625 C-272.63998232 146.5593263 -276.09508183 151.05805211 -279 157 C-279.21197356 149.49849121 -278.71201151 142.44331653 -277.375 135.0625 C-277.10659302 133.57097412 -277.10659302 133.57097412 -276.83276367 132.04931641 C-270.09443343 96.3256508 -253.23166248 63.21115248 -228 37 C-227.47599609 36.44489746 -226.95199219 35.88979492 -226.41210938 35.31787109 C-201.72385644 9.25112143 -169.04627963 -9.70986482 -134 -18 C-132.92854736 -18.27287842 -132.92854736 -18.27287842 -131.83544922 -18.55126953 C-88.51995853 -29.24678727 -38.69496995 -21.94506398 0 0 Z " fill="#3366CC" transform="translate(752,73)"/>
<path d="M0 0 C1.155 0.61101562 2.31 1.22203125 3.5 1.8515625 C16.88509747 9.11178278 29.03979888 18.44937292 40 29 C40.83265381 29.78600586 40.83265381 29.78600586 41.68212891 30.58789062 C69.26506377 56.71214783 95.79703807 98.51262313 97.125 137.6875 C97.08375 138.450625 97.0425 139.21375 97 140 C95.35425434 140.02688151 93.70838587 140.04634123 92.0625 140.0625 C91.14597656 140.07410156 90.22945312 140.08570313 89.28515625 140.09765625 C87 140 87 140 86 139 C85.91368126 137.65732587 85.89293527 136.31025678 85.90234375 134.96484375 C85.90556641 134.15595703 85.90878906 133.34707031 85.91210938 132.51367188 C85.92048828 131.66353516 85.92886719 130.81339844 85.9375 129.9375 C85.94201172 129.08349609 85.94652344 128.22949219 85.95117188 127.34960938 C85.96299627 125.23304337 85.98093231 123.11651315 86 121 C84.43536936 121.25824001 82.8733355 121.53223319 81.3125 121.8125 C80.44238281 121.96332031 79.57226562 122.11414063 78.67578125 122.26953125 C75.55588708 123.12123959 73.50002956 123.92251065 71 126 C70.17869322 129.17861973 70.17869322 129.17861973 70.1875 132.6875 C70.13980469 133.86699219 70.09210938 135.04648438 70.04296875 136.26171875 C70.02878906 137.16535156 70.01460937 138.06898438 70 139 C67.36 139 64.72 139 62 139 C62 140.32 62 141.64 62 143 C60.56206608 142.68950274 59.1246682 142.3765224 57.6875 142.0625 C56.88699219 141.88847656 56.08648438 141.71445313 55.26171875 141.53515625 C53 141 53 141 50 140 C47.09114618 139.85038536 44.22206142 139.76881689 41.3125 139.75 C40.53455078 139.729375 39.75660156 139.70875 38.95507812 139.6875 C32.40164222 139.64377399 26.99917389 140.84674695 21.5625 144.75 C19.47557675 147.75516948 19.27705993 150.39822093 19 154 C18.01 154 17.02 154 16 154 C14.5393715 151.35261084 14 150.10551666 14 147 C13.34 147 12.68 147 12 147 C12 146.34 12 145.68 12 145 C11.34 145 10.68 145 10 145 C10 144.34 10 143.68 10 143 C9.34 143 8.68 143 8 143 C8 142.34 8 141.68 8 141 C-1.66331231 138.74051988 -9.07638691 137.51499018 -18.15234375 142.125 C-20 143 -20 143 -22 143 C-22.268125 143.7425 -22.53625 144.485 -22.8125 145.25 C-23.9607472 147.90909879 -25.03501375 149.87781485 -27 152 C-27.99 152 -28.98 152 -30 152 C-30 153.65 -30 155.3 -30 157 C-30.66 157.33 -31.32 157.66 -32 158 C-32.5775 156.96875 -33.155 155.9375 -33.75 154.875 C-36.92347908 149.35203291 -40.02004468 144.07388958 -45 140 C-47.79554116 139.63645429 -49.98025148 139.57759264 -52.75 139.75 C-54.41777203 139.80341801 -56.08578145 139.849678 -57.75390625 139.890625 C-58.71055176 139.91576172 -59.66719727 139.94089844 -60.65283203 139.96679688 C-67.66716102 140.03637738 -74.67799663 139.73606455 -81.6875 139.5 C-83.20083741 139.45121908 -84.71418365 139.40271124 -86.22753906 139.35449219 C-89.81846758 139.23949951 -93.40926282 139.12083748 -97 139 C-97.14638916 140.08893555 -97.29277832 141.17787109 -97.44360352 142.29980469 C-97.97157953 145.81099575 -98.79752726 148.89460853 -99.9375 152.25 C-100.44603516 153.77367187 -100.44603516 153.77367187 -100.96484375 155.328125 C-102 158 -102 158 -104 161 C-104.59739945 163.04705225 -105.13409983 165.11233108 -105.625 167.1875 C-105.88539063 168.27417969 -106.14578125 169.36085937 -106.4140625 170.48046875 C-106.70410156 171.72763672 -106.70410156 171.72763672 -107 173 C-107.99 173 -108.98 173 -110 173 C-114.32401159 162.17224968 -118.34595443 151.57831901 -120 140 C-125.94 139.67 -131.88 139.34 -138 139 C-138.33 140.32 -138.66 141.64 -139 143 C-139.33 142.67 -139.66 142.34 -140 142 C-146.6436645 139.89792947 -153.15456909 139.75001308 -160.0625 139.875 C-161.50399414 139.88853516 -161.50399414 139.88853516 -162.97460938 139.90234375 C-165.31667805 139.92564792 -167.65819792 139.95835942 -170 140 C-170.33 140.66 -170.66 141.32 -171 142 C-171.763125 142.433125 -172.52625 142.86625 -173.3125 143.3125 C-176.54799156 145.34408772 -178.11228572 146.6440635 -180 150 C-180.69091786 155.66382048 -180.63072869 160.844478 -178 166 C-176.515 166.99 -176.515 166.99 -175 168 C-175 168.66 -175 169.32 -175 170 C-173.68 170 -172.36 170 -171 170 C-171 170.66 -171 171.32 -171 172 C-170.39671875 172.06058594 -169.7934375 172.12117187 -169.171875 172.18359375 C-168.37265625 172.26738281 -167.5734375 172.35117188 -166.75 172.4375 C-165.56664062 172.55931641 -165.56664062 172.55931641 -164.359375 172.68359375 C-162.17635361 172.97634993 -160.1226818 173.42064419 -158 174 C-158 174.66 -158 175.32 -158 176 C-156.68 176 -155.36 176 -154 176 C-153.61781233 177.65614657 -153.28604898 179.32457024 -153 181 C-154.71692739 182.71692739 -156.90476026 182.21316377 -159.25 182.25 C-166.11234334 182.21700796 -172.40311464 180.78754313 -179 179 C-179.495 181.97 -179.495 181.97 -180 185 C-181.32 185.33 -182.64 185.66 -184 186 C-184.029729 184.44104004 -184.029729 184.44104004 -184.06005859 182.85058594 C-184.13622124 178.98885164 -184.224922 175.1274889 -184.31738281 171.26611328 C-184.35562857 169.59594059 -184.39048915 167.92568677 -184.421875 166.25537109 C-184.46762161 163.85224443 -184.52559925 161.44967416 -184.5859375 159.046875 C-184.59748871 158.30193787 -184.60903992 157.55700073 -184.62094116 156.78948975 C-184.72587462 153.09049211 -184.82666101 150.08380486 -187 147 C-187.66 146.67 -188.32 146.34 -189 146 C-189 145.34 -189 144.68 -189 144 C-189.7425 143.87625 -190.485 143.7525 -191.25 143.625 C-193.80141485 143.04513299 -195.7267573 142.26291261 -198 141 C-198 140.34 -198 139.68 -198 139 C-201.37594805 139.08140775 -204.75015913 139.19420201 -208.125 139.3125 C-209.07632813 139.33505859 -210.02765625 139.35761719 -211.0078125 139.38085938 C-216.4692626 139.58945643 -220.18062679 140.19995918 -225 143 C-225.99 143 -226.98 143 -228 143 C-228 144.32 -228 145.64 -228 147 C-227.01 147 -226.02 147 -225 147 C-223.5393715 149.64738916 -223 150.89448334 -223 154 C-222.071875 153.67 -221.14375 153.34 -220.1875 153 C-215.26146219 151.60261376 -210.0672283 151.27832736 -205 152 C-202.66796875 153.33203125 -202.66796875 153.33203125 -201 155 C-201 155.99 -201 156.98 -201 158 C-202.7015625 158.05607422 -202.7015625 158.05607422 -204.4375 158.11328125 C-217.35091778 158.23948915 -217.35091778 158.23948915 -228.375 164.1875 C-228.91125 164.785625 -229.4475 165.38375 -230 166 C-230.66 166 -231.32 166 -232 166 C-232.13277344 165.19175781 -232.26554688 164.38351563 -232.40234375 163.55078125 C-232.57894531 162.48214844 -232.75554688 161.41351563 -232.9375 160.3125 C-233.19853516 158.72888672 -233.19853516 158.72888672 -233.46484375 157.11328125 C-233.93167121 154.39750396 -234.44422616 151.69875765 -235 149 C-235.66 149 -236.32 149 -237 149 C-237 148.34 -237 147.68 -237 147 C-237.53625 146.938125 -238.0725 146.87625 -238.625 146.8125 C-241 146 -241 146 -243.625 143.5 C-247.32290599 140.34450634 -250.65392473 140.22591743 -255.375 140.1875 C-256.11105469 140.16236328 -256.84710938 140.13722656 -257.60546875 140.11132812 C-259.40308149 140.05296407 -261.2015935 140.02349462 -263 140 C-263 140.66 -263 141.32 -263 142 C-264.19625 142.515625 -265.3925 143.03125 -266.625 143.5625 C-272.63998232 146.5593263 -276.09508183 151.05805211 -279 157 C-279.21197356 149.49849121 -278.71201151 142.44331653 -277.375 135.0625 C-277.10659302 133.57097412 -277.10659302 133.57097412 -276.83276367 132.04931641 C-270.09443343 96.3256508 -253.23166248 63.21115248 -228 37 C-227.47599609 36.44489746 -226.95199219 35.88979492 -226.41210938 35.31787109 C-201.72385644 9.25112143 -169.04627963 -9.70986482 -134 -18 C-132.92854736 -18.27287842 -132.92854736 -18.27287842 -131.83544922 -18.55126953 C-88.51995853 -29.24678727 -38.69496995 -21.94506398 0 0 Z " fill="#3366CC" transform="translate(752,73)"/>
<path d="M0 0 C4.29 0 8.58 0 13 0 C13 0.66 13 1.32 13 2 C13.9075 1.67 14.815 1.34 15.75 1 C21.93774019 -0.70350742 28.67879488 -1.45393899 34.66796875 1.16796875 C40.45910655 4.84293222 43.08223906 8.15011078 45.1875 14.6875 C46.1602299 19.5184527 46.21306442 24.3395374 46.25 29.25 C46.25926514 30.03076904 46.26853027 30.81153809 46.27807617 31.6159668 C46.2548451 35.85996535 45.95139912 39.12817634 44 43 C43.34 43 42.68 43 42 43 C41.896875 43.763125 41.79375 44.52625 41.6875 45.3125 C40.60853638 49.53026686 38.86487133 50.4810772 35.1875 52.6875 C29.50422732 55.04937956 23.0240944 54.22559022 17 54 C17 53.34 17 52.68 17 52 C15.68 52 14.36 52 13 52 C13 59.26 13 66.52 13 74 C8.71 74 4.42 74 0 74 C0 49.58 0 25.16 0 0 Z " fill="#F8F9FD" transform="translate(673,213)"/>
<path d="M0 0 C1.0528418 0.00483398 1.0528418 0.00483398 2.12695312 0.00976562 C7.54218134 0.15639645 10.80803284 1.08392627 15 4.4375 C15 5.0975 15 5.7575 15 6.4375 C15.66 6.4375 16.32 6.4375 17 6.4375 C23.24256695 13.14825947 24.30001871 18.22307345 24.125 27.25 C24.11597656 28.13365234 24.10695313 29.01730469 24.09765625 29.92773438 C24.07419637 32.09777359 24.03832865 34.26767247 24 36.4375 C23.34 36.4375 22.68 36.4375 22 36.4375 C22.0928125 38.0153125 22.0928125 38.0153125 22.1875 39.625 C21.94840681 44.48656154 20.82105896 46.70496474 17.3125 50.04296875 C12.22682235 54.50353186 9.69111987 55.60583977 2.75 55.6875 C1.44546875 55.71328125 0.1409375 55.7390625 -1.203125 55.765625 C-5.18091119 55.4218657 -7.58935866 54.44999023 -11 52.4375 C-11 51.7775 -11 51.1175 -11 50.4375 C-11.86625 50.3446875 -11.86625 50.3446875 -12.75 50.25 C-15.94710041 49.09549152 -17.1436532 47.22202021 -19 44.4375 C-19 43.4475 -19 42.4575 -19 41.4375 C-19.99 41.1075 -20.98 40.7775 -22 40.4375 C-23.20921058 36.80986827 -23.18405415 33.46415683 -23.1875 29.6875 C-23.20586914 28.65109375 -23.20586914 28.65109375 -23.22460938 27.59375 C-23.2441054 20.6791607 -21.48488442 14.84105663 -18.3125 8.6875 C-17.85488281 7.76453125 -17.39726563 6.8415625 -16.92578125 5.890625 C-12.66978841 0.46919801 -6.51014735 -0.09309076 0 0 Z " fill="#F8F9FD" transform="translate(745,212.5625)"/>
<path d="M0 0 C1.44149414 0.02707031 1.44149414 0.02707031 2.91210938 0.0546875 C5.25499227 0.10131204 7.5956829 0.16671831 9.9375 0.25 C9.9375 0.91 9.9375 1.57 9.9375 2.25 C10.54078125 2.37375 11.1440625 2.4975 11.765625 2.625 C12.56484375 2.83125 13.3640625 3.0375 14.1875 3.25 C14.97640625 3.435625 15.7653125 3.62125 16.578125 3.8125 C20.24088694 6.04411655 21.52527253 9.27546884 22.9375 13.25 C23.43476773 16.59032867 23.40744554 19.84766554 23.328125 23.21875 C23.32246521 24.13966431 23.31680542 25.06057861 23.31097412 26.00939941 C23.28875236 28.92348307 23.23858383 31.83629397 23.1875 34.75 C23.1674166 36.73696129 23.14916906 38.72394204 23.1328125 40.7109375 C23.0889343 45.55777499 23.02000689 50.40367242 22.9375 55.25 C21.18373047 55.21519531 21.18373047 55.21519531 19.39453125 55.1796875 C17.84636058 55.16092179 16.29818297 55.14272245 14.75 55.125 C13.59661133 55.09986328 13.59661133 55.09986328 12.41992188 55.07421875 C8.08797491 55.03703466 4.91100223 55.32571078 0.9375 57.25 C-6.53748266 58.42570092 -12.001967 56.64977345 -18.0625 52.25 C-21.54845692 49.21546197 -22.91890125 46.6358949 -23.3984375 42.0078125 C-23.51693165 30.98785629 -23.51693165 30.98785629 -21.375 27.5625 C-16.94499116 23.13249116 -11.90365853 20.44005482 -5.6171875 20.01953125 C-4.40289063 20.03371094 -3.18859375 20.04789063 -1.9375 20.0625 C-0.71804688 20.06894531 0.50140625 20.07539063 1.7578125 20.08203125 C4.9375 20.25 4.9375 20.25 7.9375 21.25 C6.83963575 15.84212615 6.83963575 15.84212615 2.9375 12.25 C-2.74868328 11.66348809 -8.45398196 12.27460556 -14.0625 13.25 C-14.0625 12.59 -14.0625 11.93 -14.0625 11.25 C-15.0525 11.25 -16.0425 11.25 -17.0625 11.25 C-17.0625 10.26 -17.0625 9.27 -17.0625 8.25 C-18.0525 8.25 -19.0425 8.25 -20.0625 8.25 C-20.0625 6.93 -20.0625 5.61 -20.0625 4.25 C-13.248306 0.51382934 -7.69983318 -0.27863001 0 0 Z " fill="#F9FBFD" transform="translate(544.0625,211.75)"/>
<path d="M0 0 C0.33 5.94 0.66 11.88 1 18 C4.3 18.33 7.6 18.66 11 19 C11.33 18.34 11.66 17.68 12 17 C12.96346156 22.65256298 13.14595052 28.11609603 13.1328125 33.84375 C13.13376923 34.77167358 13.13472595 35.69959717 13.13571167 36.65563965 C13.13638925 38.60880603 13.13456451 40.56197472 13.13037109 42.51513672 C13.12501689 45.49061176 13.13033046 48.46593586 13.13671875 51.44140625 C13.13605789 53.3463545 13.13477658 55.25130265 13.1328125 57.15625 C13.13483673 58.03873413 13.13686096 58.92121826 13.13894653 59.83044434 C13.12077569 64.6598249 12.81173228 69.23762231 12 74 C5.38110809 75.10314865 -1.45518587 75.92432656 -8 74 C-13.16851141 69.00369108 -13.57724351 62.06362784 -13.76364136 55.27944946 C-13.79528303 53.16532262 -13.80453595 51.05183547 -13.8125 48.9375 C-13.8356844 47.48498915 -13.86105783 46.03251151 -13.88867188 44.58007812 C-13.95101734 41.05341074 -13.98375142 37.52721641 -14 34 C-16.97 33.67 -19.94 33.34 -23 33 C-23.02685938 30.85423363 -23.04633088 28.70837355 -23.0625 26.5625 C-23.07410156 25.36753906 -23.08570313 24.17257813 -23.09765625 22.94140625 C-23 20 -23 20 -22 19 C-19.32941149 18.85884839 -16.67567762 18.95752893 -14 19 C-14 14.38 -14 9.76 -14 5 C-5.625 0 -5.625 0 0 0 Z " fill="#F9FAFD" transform="translate(838,194)"/>
<path d="M0 0 C4.95 0 9.9 0 15 0 C17.83723541 6.92988471 20.40051243 13.89103546 22.75 21 C23.06582031 21.93972656 23.38164063 22.87945312 23.70703125 23.84765625 C24.00480469 24.74355469 24.30257812 25.63945312 24.609375 26.5625 C25.0110791 27.77099609 25.0110791 27.77099609 25.42089844 29.00390625 C26 31 26 31 26 33 C26.99 33 27.98 33 29 33 C29.09796875 32.23816406 29.1959375 31.47632813 29.296875 30.69140625 C30.15505785 24.76550568 31.28348826 19.68609139 33.91796875 14.30859375 C35.60845564 10.70181486 36.85781808 6.94570112 38.16796875 3.1875 C39 1 39 1 40 0 C42.35313555 -0.07271741 44.70833668 -0.08370868 47.0625 -0.0625 C48.35285156 -0.05347656 49.64320313 -0.04445312 50.97265625 -0.03515625 C51.97167969 -0.02355469 52.97070312 -0.01195312 54 0 C53.57319497 7.39795385 50.98369825 13.27617295 48 20 C44.04866621 29.23232277 40.47798323 38.58195606 37 48 C36.34 48 35.68 48 35 48 C34.9175 48.78375 34.835 49.5675 34.75 50.375 C33.9397592 54.29116387 32.58654719 57.64161296 31.0546875 61.3203125 C29.42087123 65.47141607 28.225078 69.71222698 27 74 C22.05 74 17.1 74 12 74 C13.63559003 65.57042064 13.63559003 65.57042064 15.5546875 62.56640625 C18.56521165 57.22069175 17.49698197 50.3192492 16.25 44.5 C15.63125 42.7675 15.63125 42.7675 15 41 C14.28619875 38.91853377 13.5783235 36.83502996 12.875 34.75 C12.52179687 33.73421875 12.16859375 32.7184375 11.8046875 31.671875 C11 29 11 29 11 26 C10.01 25.67 9.02 25.34 8 25 C7.2265625 23.1015625 7.2265625 23.1015625 6.625 20.625 C5.27175137 15.58830991 3.29517981 11.1135497 0.98828125 6.4453125 C0 4 0 4 0 0 Z " fill="#F9FAFD" transform="translate(616,213)"/>
<path d="M0 0 C6.93 0 13.86 0 21 0 C21.495 0.99 21.495 0.99 22 2 C23.98248715 2.71706982 25.98415349 3.38290413 28 4 C28.66 4.33 29.32 4.66 30 5 C29.49287967 8.71888239 28.88391785 11.73454239 27 15 C25.35 15 23.7 15 22 15 C22 14.34 22 13.68 22 13 C16.06 13 10.12 13 4 13 C5.22806461 18.951382 5.22806461 18.951382 8.5390625 20.390625 C9.55742188 20.67421875 10.57578125 20.9578125 11.625 21.25 C12.70007813 21.56453125 13.77515625 21.8790625 14.8828125 22.203125 C17.41544223 22.85056418 19.94703717 23.44123832 22.5 24 C26.36103249 25.10315214 27.78325198 25.67487797 30 29 C31.96516436 34.44447175 33.03151886 40.45155065 31 46 C27.81643677 51.11578369 23.99201672 54.85423821 18.1640625 56.609375 C14.08246219 57.34612596 10.12534861 57.26656099 6 57 C5.14148438 56.94585937 4.28296875 56.89171875 3.3984375 56.8359375 C1.25535801 56.65224497 -0.87565758 56.33719721 -3 56 C-3.33 55.34 -3.66 54.68 -4 54 C-6.30965848 52.94647157 -8.6429774 51.94280904 -11 51 C-10 43.57142857 -10 43.57142857 -9 40 C-2.2885906 40.93959732 -2.2885906 40.93959732 0.6875 41.5625 C5.78149454 42.23529173 10.86940485 42.07471741 16 42 C16 40.35 16 38.7 16 37 C14.68 37 13.36 37 12 37 C12 36.34 12 35.68 12 35 C10.96875 34.855625 9.9375 34.71125 8.875 34.5625 C5.57450187 34.08339543 2.28731659 33.56124917 -1 33 C-1 32.34 -1 31.68 -1 31 C-2.32 31 -3.64 31 -5 31 C-5 30.34 -5 29.68 -5 29 C-5.61875 28.773125 -6.2375 28.54625 -6.875 28.3125 C-9.689124 26.57436459 -9.97913673 25.11120234 -11 22 C-11.81638396 17.16671798 -12.07173757 12.82825821 -9.5390625 8.5078125 C-7.78846526 6.43220986 -6.17576388 4.62599913 -4 3 C-3.01 3 -2.02 3 -1 3 C-0.67 2.01 -0.34 1.02 0 0 Z " fill="#F9FAFD" transform="translate(582,212)"/>
<path d="M0 0 C1.17925049 0.00483398 1.17925049 0.00483398 2.38232422 0.00976562 C8.43289441 0.15523011 12.80075785 1.31943058 18.0625 4.4375 C18.28286864 8.29395121 17.66605101 10.92973216 16.0625 14.4375 C13.7525 14.4375 11.4425 14.4375 9.0625 14.4375 C9.0625 13.7775 9.0625 13.1175 9.0625 12.4375 C3.4525 12.4375 -2.1575 12.4375 -7.9375 12.4375 C-7.2775 14.0875 -6.6175 15.7375 -5.9375 17.4375 C-3.89644361 18.32443303 -3.89644361 18.32443303 -1.9375 18.4375 C-1.9375 19.0975 -1.9375 19.7575 -1.9375 20.4375 C-0.803125 20.685 0.33125 20.9325 1.5 21.1875 C8.30592376 22.91311542 16.23831701 25.26946291 20.0625 31.4375 C20.46854376 36.13371661 20.34874212 40.73676832 20.0625 45.4375 C19.4025 45.4375 18.7425 45.4375 18.0625 45.4375 C17.959375 46.200625 17.85625 46.96375 17.75 47.75 C16.97837429 50.76635503 16.58846454 51.66932482 14.0625 53.4375 C8.71926625 55.29099786 4.00687514 55.75507767 -1.625 55.6875 C-2.40794434 55.68363281 -3.19088867 55.67976563 -3.99755859 55.67578125 C-10.43794215 55.58070075 -16.64055235 54.82035909 -22.9375 53.4375 C-23.85083744 49.26397129 -24.0164818 46.56601196 -22.5 42.5625 C-22.06880859 41.39074219 -22.06880859 41.39074219 -21.62890625 40.1953125 C-21.40074219 39.61523438 -21.17257812 39.03515625 -20.9375 38.4375 C-18.2975 38.7675 -15.6575 39.0975 -12.9375 39.4375 C-12.6075 40.4275 -12.2775 41.4175 -11.9375 42.4375 C-9.47909395 42.46441685 -7.02098118 42.48429802 -4.5625 42.5 C-3.86382813 42.50837891 -3.16515625 42.51675781 -2.4453125 42.52539062 C1.43545376 42.6210442 1.43545376 42.6210442 5.0625 41.4375 C4.5675 38.9625 4.5675 38.9625 4.0625 36.4375 C3.32386719 36.30214844 2.58523438 36.16679687 1.82421875 36.02734375 C-6.68362126 34.22199523 -15.23983699 31.26477875 -20.71484375 24.1171875 C-23.00701546 19.09345015 -22.65798128 13.82725421 -21.9375 8.4375 C-17.18184007 1.00678136 -8.17906725 -0.10470323 0 0 Z " fill="#FAFBFD" transform="translate(793.9375,212.5625)"/>
<path d="M0 0 C6.96327638 -0.33693273 12.43345544 0.6969113 19 3 C19 3.66 19 4.32 19 5 C19.66 5 20.32 5 21 5 C21 5.66 21 6.32 21 7 C21.66 7 22.32 7 23 7 C23 7.66 23 8.32 23 9 C23.66 9 24.32 9 25 9 C26.4606285 11.64738916 27 12.89448334 27 16 C27.99 16 28.98 16 30 16 C29.87625 14.96875 29.7525 13.9375 29.625 12.875 C30.05715722 8.40937536 30.95368024 7.27887998 34.00390625 4.26171875 C39.7242457 0.64592688 45.92581988 0.73857479 52.4375 0.875 C53.67790039 0.88853516 53.67790039 0.88853516 54.94335938 0.90234375 C56.96236708 0.92568488 58.98122356 0.96154712 61 1 C61 1.33 61 1.66 61 2 C59.87722656 2.02578125 58.75445313 2.0515625 57.59765625 2.078125 C48.5460757 2.38327987 40.86227596 2.75119449 33.296875 8.234375 C31.34296383 10.89451913 31.60264726 13.11895086 31.625 16.375 C31.61726562 17.49648437 31.60953125 18.61796875 31.6015625 19.7734375 C32.04852419 23.39295083 32.75148923 25.14482465 35 28 C41.10263419 32.63502962 47.42648907 35.66478909 55.0390625 36.61328125 C57 37 57 37 59 39 C58.75 41.5625 58.75 41.5625 58 44 C53.24390845 46.37804578 45.98282168 45.24570542 41 44 C40.67 43.34 40.34 42.68 40 42 C38.11235097 41.31527335 38.11235097 41.31527335 35.9375 40.875 C35.20402344 40.70742187 34.47054687 40.53984375 33.71484375 40.3671875 C32.86599609 40.18542969 32.86599609 40.18542969 32 40 C31.814375 41.5778125 31.814375 41.5778125 31.625 43.1875 C31.08859218 46.45958771 30.36119965 49.00536076 29 52 C28.34 50.68 27.68 49.36 27 48 C25.68 48.66 24.36 49.32 23 50 C23.309375 49.319375 23.61875 48.63875 23.9375 47.9375 C25.13370649 44.63034088 25.59005397 41.48454122 26 38 C26.66 38 27.32 38 28 38 C27.91262714 34.9570141 27.80569374 31.91681634 27.6875 28.875 C27.66494141 28.0190625 27.64238281 27.163125 27.61914062 26.28125 C27.33372506 19.53506389 26.0176029 14.77866943 21 10 C21 9.34 21 8.68 21 8 C20.34 8 19.68 8 19 8 C19 7.34 19 6.68 19 6 C18.030625 5.690625 17.06125 5.38125 16.0625 5.0625 C13 4 13 4 12 3 C9.81707226 2.76518307 7.62796826 2.58636677 5.4375 2.4375 C3.64119141 2.31181641 3.64119141 2.31181641 1.80859375 2.18359375 C0.88175781 2.12300781 -0.04507813 2.06242188 -1 2 C-0.67 1.34 -0.34 0.68 0 0 Z " fill="#3F6FCF" transform="translate(741,211)"/>
<path d="M0 0 C0.66 0 1.32 0 2 0 C2 0.66 2 1.32 2 2 C2.66 2 3.32 2 4 2 C5.74685308 5.82745451 6.34886333 9.12442723 6.625 13.3125 C6.69976563 14.38113281 6.77453125 15.44976562 6.8515625 16.55078125 C6.90054688 17.35902344 6.94953125 18.16726562 7 19 C7.42410156 18.59007812 7.84820313 18.18015625 8.28515625 17.7578125 C9.16494141 16.94957031 9.16494141 16.94957031 10.0625 16.125 C10.63097656 15.59132812 11.19945312 15.05765625 11.78515625 14.5078125 C17.36031461 10.71237841 23.46179571 10.73072553 29.9375 10.875 C30.71673828 10.88402344 31.49597656 10.89304688 32.29882812 10.90234375 C34.19935447 10.92566309 36.09972008 10.96152414 38 11 C36.6910428 7.87802522 36.6910428 7.87802522 34 6 C27.92543101 5.65748699 21.98446551 5.93609502 16 7 C15.505 5.02 15.505 5.02 15 3 C15.66 3 16.32 3 17 3 C17 3.66 17 4.32 17 5 C17.94875 4.67 18.8975 4.34 19.875 4 C25.75490717 2.35075775 31.61521437 1.75991147 37.125 4.625 C39.49176236 7.62289899 39.15294062 9.27844498 39 13 C37.87722656 12.95359375 36.75445313 12.9071875 35.59765625 12.859375 C25.81399739 12.57319451 17.98330286 12.38132906 10.4375 19.375 C7.91830571 25.72775081 7.76078341 33.44789442 10.0234375 39.93359375 C10.34570312 40.61550781 10.66796875 41.29742187 11 42 C10.34 42 9.68 42 9 42 C9 41.01 9 40.02 9 39 C8.01 39 7.02 39 6 39 C4.53171497 40.47764184 4.53171497 40.47764184 3.1875 42.375 C0.47203463 45.74381043 -1.67725622 47.07369776 -6 48 C-4 45 -4 45 -1.375 43.5625 C-0.59125 43.046875 0.1925 42.53125 1 42 C1.41349039 37.95192414 1.41349039 37.95192414 -1.125 35.3125 C-4.24636457 32.80183719 -6.06089933 32.27482098 -10 32 C-10 32.66 -10 33.32 -10 34 C-13.3 34 -16.6 34 -20 34 C-20 33.34 -20 32.68 -20 32 C-21.32 32 -22.64 32 -24 32 C-26 29 -26 29 -26 24 C-15.77 24 -5.54 24 5 24 C4.68398206 11.05326965 4.68398206 11.05326965 0 1 C0 0.67 0 0.34 0 0 Z " fill="#3F6FCF" transform="translate(513,220)"/>
<path d="M0 0 C3.81339579 0.07153556 4.72960573 0.09032455 7.6875 2.6875 C10.64112145 8.33790625 10.76568469 14.16052162 10.125 20.4375 C8.64615897 24.98383802 7.1311532 27.7667312 3.125 30.4375 C-0.46375129 30.76375012 -2.94812098 30.9134649 -6.1875 29.25 C-10.08749248 25.06111919 -10.17093006 20.4608145 -10.1875 14.9375 C-10.20425781 13.6484375 -10.22101562 12.359375 -10.23828125 11.03125 C-9.57395712 4.45944141 -6.76120939 0.17053495 0 0 Z " fill="#3B6CCE" transform="translate(745.875,224.5625)"/>
<path d="M0 0 C1.33998047 0.06960937 1.33998047 0.06960937 2.70703125 0.140625 C3.60808594 0.17671875 4.50914062 0.2128125 5.4375 0.25 C6.46810547 0.31960937 6.46810547 0.31960937 7.51953125 0.390625 C11.39160355 6.06915623 12.05411401 10.03644808 11.76953125 16.828125 C11.75148438 17.65505859 11.7334375 18.48199219 11.71484375 19.33398438 C11.66815265 21.35337433 11.59642518 23.37215945 11.51953125 25.390625 C10.85953125 25.390625 10.19953125 25.390625 9.51953125 25.390625 C9.39578125 26.03 9.27203125 26.669375 9.14453125 27.328125 C8.93828125 28.00875 8.73203125 28.689375 8.51953125 29.390625 C5.3901066 30.95533733 1.90870902 31.08764458 -1.48046875 30.390625 C-3.7109375 29.05859375 -3.7109375 29.05859375 -5.48046875 26.390625 C-6.05272775 22.71528772 -5.99229904 19.1023439 -5.91796875 15.390625 C-5.92505859 14.39289063 -5.93214844 13.39515625 -5.93945312 12.3671875 C-5.83970907 0.91963922 -5.83970907 0.91963922 0 0 Z " fill="#3467CC" transform="translate(692.48046875,224.609375)"/>
<path d="M0 0 C1.65322266 0.01740234 1.65322266 0.01740234 3.33984375 0.03515625 C4.99693359 0.04869141 4.99693359 0.04869141 6.6875 0.0625 C7.54214844 0.07410156 8.39679687 0.08570313 9.27734375 0.09765625 C9.39328959 4.03490951 9.46450839 7.97172548 9.52734375 11.91015625 C9.57761719 13.58948242 9.57761719 13.58948242 9.62890625 15.30273438 C9.64179687 16.37587891 9.6546875 17.44902344 9.66796875 18.5546875 C9.68891602 19.5444458 9.70986328 20.5342041 9.73144531 21.55395508 C9.27734375 24.09765625 9.27734375 24.09765625 7.48730469 25.93237305 C4.37818844 27.57176897 1.73085381 27.29689722 -1.72265625 27.09765625 C-1.72265625 26.43765625 -1.72265625 25.77765625 -1.72265625 25.09765625 C-2.38265625 25.09765625 -3.04265625 25.09765625 -3.72265625 25.09765625 C-3.75152609 21.11850466 -3.76941031 17.13937972 -3.78515625 13.16015625 C-3.79353516 12.02384766 -3.80191406 10.88753906 -3.81054688 9.71679688 C-3.81376953 8.63720703 -3.81699219 7.55761719 -3.8203125 6.4453125 C-3.82554932 5.44508057 -3.83078613 4.44484863 -3.83618164 3.41430664 C-3.67105015 0.04455888 -3.40393718 0.12209244 0 0 Z " fill="#3F6FCF" transform="translate(841.72265625,226.90234375)"/>
<path d="M0 0 C6.93 0 13.86 0 21 0 C21 0.33 21 0.66 21 1 C19.9378125 1.03738281 18.875625 1.07476562 17.78125 1.11328125 C7.01818661 1.44154615 7.01818661 1.44154615 -3 5 C-5.34325664 7.55139853 -5.34325664 7.55139853 -7 10 C-7.66 10 -8.32 10 -9 10 C-8.99206175 19.58753622 -8.99206175 19.58753622 -5.35546875 28.0703125 C0.95352017 31.79249891 8.87617077 32.75358322 16 34 C16 34.66 16 35.32 16 36 C17.485 36.495 17.485 36.495 19 37 C19.36284289 41.47506234 19.36284289 41.47506234 17.86328125 43.64453125 C13.78140078 46.61394954 7.79769511 45.41533876 3 45 C-0.75356947 44.22707564 -4.36926417 43.22237198 -8 42 C-8 44.97 -8 47.94 -8 51 C-8.99 51 -9.98 51 -11 51 C-10 43.57142857 -10 43.57142857 -9 40 C-2.2885906 40.93959732 -2.2885906 40.93959732 0.6875 41.5625 C5.78149454 42.23529173 10.86940485 42.07471741 16 42 C16 40.35 16 38.7 16 37 C14.68 37 13.36 37 12 37 C12 36.34 12 35.68 12 35 C10.96875 34.855625 9.9375 34.71125 8.875 34.5625 C5.57450187 34.08339543 2.28731659 33.56124917 -1 33 C-1 32.34 -1 31.68 -1 31 C-2.32 31 -3.64 31 -5 31 C-5 30.34 -5 29.68 -5 29 C-5.61875 28.773125 -6.2375 28.54625 -6.875 28.3125 C-9.689124 26.57436459 -9.97913673 25.11120234 -11 22 C-11.81638396 17.16671798 -12.07173757 12.82825821 -9.5390625 8.5078125 C-7.78846526 6.43220986 -6.17576388 4.62599913 -4 3 C-3.01 3 -2.02 3 -1 3 C-0.67 2.01 -0.34 1.02 0 0 Z " fill="#A9BEE9" transform="translate(582,212)"/>
<path d="M0 0 C7.33223678 -0.10135462 14.66429317 -0.17144649 21.99707031 -0.21972656 C24.49193065 -0.23985164 26.98674378 -0.26715452 29.48144531 -0.30175781 C33.06587368 -0.35023457 36.64967885 -0.3729602 40.234375 -0.390625 C41.35116638 -0.41127014 42.46795776 -0.43191528 43.61859131 -0.45318604 C44.65936829 -0.45348816 45.70014526 -0.45379028 46.77246094 -0.45410156 C47.68735291 -0.46298401 48.60224487 -0.47186646 49.54486084 -0.48101807 C52.73080224 0.14318092 53.93628549 1.56833231 56 4 C53 4 53 4 50 2 C47.0604536 1.72007757 47.0604536 1.72007757 43.875 1.8125 C42.79992187 1.81894531 41.72484375 1.82539063 40.6171875 1.83203125 C38.07385474 1.70602303 38.07385474 1.70602303 37 3 C35.00041636 3.04080783 32.99954746 3.04254356 31 3 C31 2.34 31 1.68 31 1 C26.71 1 22.42 1 18 1 C18 25.42 18 49.84 18 75 C22.29 75 26.58 75 31 75 C31 67.74 31 60.48 31 53 C32.32 53.33 33.64 53.66 35 54 C34.01 54 33.02 54 32 54 C32 61.26 32 68.52 32 76 C27.05 76 22.1 76 17 76 C16.67 53.56 16.34 31.12 16 8 C15.34 7.67 14.68 7.34 14 7 C14.33 5.02 14.66 3.04 15 1 C10.05 1.33 5.1 1.66 0 2 C0 1.34 0 0.68 0 0 Z " fill="#9AB3E5" transform="translate(655,212)"/>
<path d="M0 0 C0.66 0 1.32 0 2 0 C2 0.66 2 1.32 2 2 C2.66 2 3.32 2 4 2 C5.74685308 5.82745451 6.34886333 9.12442723 6.625 13.3125 C6.69976563 14.38113281 6.77453125 15.44976562 6.8515625 16.55078125 C6.90054688 17.35902344 6.94953125 18.16726562 7 19 C7.42410156 18.59007812 7.84820313 18.18015625 8.28515625 17.7578125 C9.16494141 16.94957031 9.16494141 16.94957031 10.0625 16.125 C10.63097656 15.59132812 11.19945312 15.05765625 11.78515625 14.5078125 C17.36031461 10.71237841 23.46179571 10.73072553 29.9375 10.875 C30.71673828 10.88402344 31.49597656 10.89304688 32.29882812 10.90234375 C34.19935447 10.92566309 36.09972008 10.96152414 38 11 C36.6910428 7.87802522 36.6910428 7.87802522 34 6 C27.92543101 5.65748699 21.98446551 5.93609502 16 7 C15.505 5.02 15.505 5.02 15 3 C15.66 3 16.32 3 17 3 C17 3.66 17 4.32 17 5 C17.94875 4.67 18.8975 4.34 19.875 4 C25.75490717 2.35075775 31.61521437 1.75991147 37.125 4.625 C39.49176236 7.62289899 39.15294062 9.27844498 39 13 C37.87722656 12.95359375 36.75445313 12.9071875 35.59765625 12.859375 C25.81399739 12.57319451 17.98330286 12.38132906 10.4375 19.375 C7.91830571 25.72775081 7.76078341 33.44789442 10.0234375 39.93359375 C10.34570312 40.61550781 10.66796875 41.29742187 11 42 C10.34 42 9.68 42 9 42 C9 41.01 9 40.02 9 39 C8.34 39 7.68 39 7 39 C7 34.38 7 29.76 7 25 C-3.89 25 -14.78 25 -26 25 C-26 24.67 -26 24.34 -26 24 C-15.77 24 -5.54 24 5 24 C4.68398206 11.05326965 4.68398206 11.05326965 0 1 C0 0.67 0 0.34 0 0 Z " fill="#94AFE4" transform="translate(513,220)"/>
<path d="M0 0 C6.96327638 -0.33693273 12.43345544 0.6969113 19 3 C19 3.66 19 4.32 19 5 C19.66 5 20.32 5 21 5 C21 5.66 21 6.32 21 7 C21.66 7 22.32 7 23 7 C23 7.66 23 8.32 23 9 C23.66 9 24.32 9 25 9 C26.4606285 11.64738916 27 12.89448334 27 16 C27.99 16 28.98 16 30 16 C29.87625 14.96875 29.7525 13.9375 29.625 12.875 C30.05715722 8.40937536 30.95368024 7.27887998 34.00390625 4.26171875 C39.7242457 0.64592688 45.92581988 0.73857479 52.4375 0.875 C53.67790039 0.88853516 53.67790039 0.88853516 54.94335938 0.90234375 C56.96236708 0.92568488 58.98122356 0.96154712 61 1 C61 1.33 61 1.66 61 2 C59.87722656 2.02578125 58.75445313 2.0515625 57.59765625 2.078125 C48.52212833 2.38408721 40.89382019 2.78437462 33.28515625 8.2265625 C31.32808575 10.92720082 31.71277001 13.21999159 31.8125 16.5 C31.83957031 17.6446875 31.86664062 18.789375 31.89453125 19.96875 C31.94673828 21.46921875 31.94673828 21.46921875 32 23 C32 23.99 32 24.98 32 26 C31.67 25.67 31.34 25.34 31 25 C30.96261719 25.79664063 30.92523437 26.59328125 30.88671875 27.4140625 C30.52043059 33.31776574 30.21397206 37.96943503 27 43 C26.67 43 26.34 43 26 43 C26 41.35 26 39.7 26 38 C26.66 38 27.32 38 28 38 C27.91262714 34.9570141 27.80569374 31.91681634 27.6875 28.875 C27.66494141 28.0190625 27.64238281 27.163125 27.61914062 26.28125 C27.33372506 19.53506389 26.0176029 14.77866943 21 10 C21 9.34 21 8.68 21 8 C20.34 8 19.68 8 19 8 C19 7.34 19 6.68 19 6 C18.030625 5.690625 17.06125 5.38125 16.0625 5.0625 C13 4 13 4 12 3 C9.81707226 2.76518307 7.62796826 2.58636677 5.4375 2.4375 C3.64119141 2.31181641 3.64119141 2.31181641 1.80859375 2.18359375 C0.88175781 2.12300781 -0.04507813 2.06242188 -1 2 C-0.67 1.34 -0.34 0.68 0 0 Z " fill="#98B2E5" transform="translate(741,211)"/>
<path d="M0 0 C0.66 0.33 1.32 0.66 2 1 C1.19175781 1.34675781 0.38351562 1.69351563 -0.44921875 2.05078125 C-3.34379606 3.8234665 -3.34379606 3.8234665 -3.70703125 7.35546875 C-3.74183594 8.62003906 -3.77664063 9.88460937 -3.8125 11.1875 C-3.86019531 12.45980469 -3.90789063 13.73210937 -3.95703125 15.04296875 C-3.97830078 16.50669922 -3.97830078 16.50669922 -4 18 C-7.96 18.495 -7.96 18.495 -12 19 C-12.33 23.29 -12.66 27.58 -13 32 C-10.8034375 31.9690625 -10.8034375 31.9690625 -8.5625 31.9375 C-7.04167482 31.91607993 -5.51928038 31.92820036 -4 32 C-2.04901915 33.95098085 -2.74584892 37.64674929 -2.68359375 40.31640625 C-2.66281265 41.04746078 -2.64203156 41.77851532 -2.62062073 42.53172302 C-2.55504976 44.87521656 -2.49620568 47.21882539 -2.4375 49.5625 C-2.39432192 51.14779855 -2.35070787 52.73308529 -2.30664062 54.31835938 C-2.1993608 58.21212037 -2.0981151 62.10599772 -2 66 C-2.66 66 -3.32 66 -4 66 C-4.93087909 62.06711636 -5.11608885 58.42345837 -5.09765625 54.38671875 C-5.09443359 53.13955078 -5.09121094 51.89238281 -5.08789062 50.60742188 C-5.07951172 49.31384766 -5.07113281 48.02027344 -5.0625 46.6875 C-5.05798828 45.37458984 -5.05347656 44.06167969 -5.04882812 42.70898438 C-5.03705949 39.4726099 -5.0206176 36.23632822 -5 33 C-7.97 33 -10.94 33 -14 33 C-15.42258812 29.17679443 -16.24042276 26.08718695 -16 22 C-18.97 21.01 -21.94 20.02 -25 19 C-23 18 -23 18 -20.8359375 18.55859375 C-20.02382813 18.84863281 -19.21171875 19.13867188 -18.375 19.4375 C-17.14910156 19.86869141 -17.14910156 19.86869141 -15.8984375 20.30859375 C-15.27195312 20.53675781 -14.64546875 20.76492187 -14 21 C-14 19.68 -14 18.36 -14 17 C-11.36 17 -8.72 17 -6 17 C-6.06960938 16.10796875 -6.13921875 15.2159375 -6.2109375 14.296875 C-6.64788065 4.85058016 -6.64788065 4.85058016 -4.6640625 2.24609375 C-3 1.1875 -3 1.1875 0 0 Z " fill="#7C9CDE" transform="translate(828,195)"/>
<path d="M0 0 C0.87527344 -0.00257813 1.75054688 -0.00515625 2.65234375 -0.0078125 C5.0625 0.125 5.0625 0.125 8.0625 1.125 C8.2578125 7.1796875 8.2578125 7.1796875 8.0625 9.125 C6.0625 11.125 6.0625 11.125 3.53125 11.35546875 C2.06171875 11.33419922 2.06171875 11.33419922 0.5625 11.3125 C-0.90703125 11.30283203 -0.90703125 11.30283203 -2.40625 11.29296875 C-4.9375 11.125 -4.9375 11.125 -6.9375 10.125 C-6.9375 7.155 -6.9375 4.185 -6.9375 1.125 C-4.46371876 -0.11189062 -2.75834683 -0.00810087 0 0 Z " fill="#3A6BCD" transform="translate(542.9375,242.875)"/>
<path d="M0 0 C1.32 1.65 2.64 3.3 4 5 C4.33 3.35 4.66 1.7 5 0 C5.99 0 6.98 0 8 0 C7.690625 1.155 7.38125 2.31 7.0625 3.5 C5.85116022 8.80278813 5.60844378 14.08314569 5.42993164 19.50195312 C5.27349455 23.17135562 5.08817705 24.86773443 3 28 C2.34 28 1.68 28 1 28 C1.12375 29.3303125 1.12375 29.3303125 1.25 30.6875 C0.94608803 34.71433365 -0.18236593 36.18236593 -3 39 C-3.66 39 -4.32 39 -5 39 C-5 39.66 -5 40.32 -5 41 C-11.27711729 43.547236 -17.20041343 44.94506889 -24 44 C-24.99 43.34 -25.98 42.68 -27 42 C-25.62328125 41.96132813 -25.62328125 41.96132813 -24.21875 41.921875 C-15.94290958 41.53937817 -9.12625584 41.12625584 -3 35 C-2.3574765 32.93125966 -2.3574765 32.93125966 -2 31 C-1.34 31 -0.68 31 0 31 C1.16681369 26.37904736 1.14844001 21.91847578 1.125 17.1875 C1.12886719 16.41857422 1.13273438 15.64964844 1.13671875 14.85742188 C1.1282177 9.82055194 0.71633268 4.98590284 0 0 Z " fill="#5982D5" transform="translate(717,225)"/>
<path d="M0 0 C0.99 0 1.98 0 3 0 C6.66637378 6.26708874 7.55996962 10.77168645 7.390625 17.96875 C7.38496521 18.88966431 7.37930542 19.81057861 7.37347412 20.75939941 C7.35125236 23.67348307 7.30108383 26.58629397 7.25 29.5 C7.2299166 31.48696129 7.21166906 33.47394204 7.1953125 35.4609375 C7.1514343 40.30777499 7.08250689 45.15367242 7 50 C5.24623047 49.96519531 5.24623047 49.96519531 3.45703125 49.9296875 C1.90886058 49.91092179 0.36068297 49.89272245 -1.1875 49.875 C-2.34088867 49.84986328 -2.34088867 49.84986328 -3.51757812 49.82421875 C-7.8569943 49.78697054 -11.01354578 50.0939564 -15 52 C-17.5703125 52.265625 -17.5703125 52.265625 -20.125 52.25 C-21.39730469 52.25773437 -21.39730469 52.25773437 -22.6953125 52.265625 C-25 52 -25 52 -28 50 C-26.86820313 49.96261719 -25.73640625 49.92523438 -24.5703125 49.88671875 C-23.08850795 49.82106918 -21.60673861 49.75462149 -20.125 49.6875 C-19.00544922 49.65366211 -19.00544922 49.65366211 -17.86328125 49.61914062 C-15.900396 49.52188055 -13.94671678 49.26957706 -12 49 C-11.34 48.01 -10.68 47.02 -10 46 C-9.01 46 -8.02 46 -7 46 C-7 46.99 -7 47.98 -7 49 C-3.04 49 0.92 49 5 49 C4.90594109 43.59199502 4.79973448 38.18441032 4.68261719 32.77685547 C4.64450427 30.94000658 4.60962161 29.10308754 4.578125 27.26611328 C4.53208774 24.61465506 4.47416016 21.96367244 4.4140625 19.3125 C4.40251129 18.50071289 4.39096008 17.68892578 4.37905884 16.85253906 C4.24577171 11.61887437 3.43589715 7.03823561 2 2 C1.34 2 0.68 2 0 2 C0 1.34 0 0.68 0 0 Z " fill="#ADC1EA" transform="translate(560,217)"/>
<path d="M0 0 C2 2 2 2 2.24050903 4.74612427 C2.23606781 5.91416595 2.23162659 7.08220764 2.22705078 8.28564453 C2.22734283 8.92967224 2.22763489 9.57369995 2.22793579 10.23724365 C2.22654074 12.36923627 2.21097174 14.50088082 2.1953125 16.6328125 C2.19158298 18.10968841 2.18873572 19.58656678 2.18673706 21.06344604 C2.17909574 24.95317398 2.15944308 28.84275288 2.1373291 32.73242188 C2.11688135 36.70050032 2.10773764 40.66860282 2.09765625 44.63671875 C2.07619756 52.42454716 2.04205572 60.21225271 2 68 C1.34 67.67 0.68 67.34 0 67 C-0.33 47.2 -0.66 27.4 -1 7 C-2.485 9.475 -2.485 9.475 -4 12 C-4.33 11.34 -4.66 10.68 -5 10 C-4.2578125 7.87109375 -4.2578125 7.87109375 -3.125 5.4375 C-2.75632812 4.63183594 -2.38765625 3.82617188 -2.0078125 2.99609375 C-1 1 -1 1 0 0 Z " fill="#4C78D2" transform="translate(670,218)"/>
<path d="M0 0 C3.38092957 -0.29034701 6.6272869 -0.42819712 10 0 C12.625 2.25 12.625 2.25 14 5 C14 6.32 14 7.64 14 9 C8.06 9 2.12 9 -4 9 C-4 7.35 -4 5.7 -4 4 C-3.34 4 -2.68 4 -2 4 C-1.34 2.68 -0.68 1.36 0 0 Z " fill="#517CD3" transform="translate(491,225)"/>
<path d="M0 0 C0.33 0 0.66 0 1 0 C1 1.98 1 3.96 1 6 C-4.94 6.495 -4.94 6.495 -11 7 C-11.33 14.92 -11.66 22.84 -12 31 C-11.34 31 -10.68 31 -10 31 C-10 31.66 -10 32.32 -10 33 C-5.88425629 32.5251065 -2.63616656 31.9789756 1 30 C1.10477512 35.78591511 0.99250545 41.29309366 0 47 C-6.75105368 48.12517561 -13.26614928 48.68346268 -20 47 C-19.67 46.34 -19.34 45.68 -19 45 C-18.03578125 45.01160156 -17.0715625 45.02320313 -16.078125 45.03515625 C-14.18320312 45.04869141 -14.18320312 45.04869141 -12.25 45.0625 C-10.37054687 45.07990234 -10.37054687 45.07990234 -8.453125 45.09765625 C-4.87165082 45.12021394 -4.87165082 45.12021394 -1 44 C-1.495 39.05 -1.495 39.05 -2 34 C-2.99 34.495 -2.99 34.495 -4 35 C-9.33856172 35.45434568 -9.33856172 35.45434568 -11.66870117 33.85375977 C-13.55445608 31.22795067 -13.37230455 29.30091773 -13.36328125 26.08984375 C-13.36263672 24.93548828 -13.36199219 23.78113281 -13.36132812 22.59179688 C-13.34521484 21.38587891 -13.32910156 20.17996094 -13.3125 18.9375 C-13.31572266 17.72771484 -13.31894531 16.51792969 -13.32226562 15.27148438 C-13.26689925 6.26689925 -13.26689925 6.26689925 -11 4 C-8.3984375 3.8046875 -8.3984375 3.8046875 -5.375 3.875 C-3.87066406 3.90207031 -3.87066406 3.90207031 -2.3359375 3.9296875 C-1.56507813 3.95289063 -0.79421875 3.97609375 0 4 C0 2.68 0 1.36 0 0 Z " fill="#B0C4EB" transform="translate(850,221)"/>
<path d="M0 0 C0.66 0 1.32 0 2 0 C3.4606285 2.64738916 4 3.89448334 4 7 C4.928125 6.67 5.85625 6.34 6.8125 6 C11.73853781 4.60261376 16.9327717 4.27832736 22 5 C24.33203125 6.33203125 24.33203125 6.33203125 26 8 C26 8.99 26 9.98 26 11 C24.83082031 11.06058594 23.66164063 11.12117187 22.45703125 11.18359375 C20.90884386 11.26804034 19.36066732 11.35268625 17.8125 11.4375 C17.04357422 11.47681641 16.27464844 11.51613281 15.48242188 11.55664062 C11.56748925 11.77507034 7.82879312 12.08692108 4 13 C4.33 12.34 4.66 11.68 5 11 C5.66 11 6.32 11 7 11 C7 10.34 7 9.68 7 9 C6.21625 8.814375 5.4325 8.62875 4.625 8.4375 C2 7 2 7 0.6875 3.375 C0.460625 2.26125 0.23375 1.1475 0 0 Z " fill="#4070CF" transform="translate(525,220)"/>
<path d="M0 0 C2.29109597 -0.08075665 4.58299267 -0.13907731 6.875 -0.1875 C8.78925781 -0.23970703 8.78925781 -0.23970703 10.7421875 -0.29296875 C12.35480469 -0.14794922 12.35480469 -0.14794922 14 0 C16.52883142 3.79324712 16.61200158 6.54907942 16 11 C14.6875 13 14.6875 13 13 14 C12.01 14 11.02 14 10 14 C10 14.66 10 15.32 10 16 C8.58376784 16.05447047 7.16691809 16.09300508 5.75 16.125 C4.56664062 16.15980469 4.56664062 16.15980469 3.359375 16.1953125 C0.75385683 15.97962391 -0.79986977 15.3921178 -3 14 C-4.50934217 10.98131566 -4.17510672 8.32702771 -4 5 C-3.34 4.01 -2.68 3.02 -2 2 C-1.34 2 -0.68 2 0 2 C0 1.34 0 0.68 0 0 Z M-1 3 C-1 5.97 -1 8.94 -1 12 C1.60179663 13.30089831 3.5969188 13.16840078 6.5 13.1875 C7.96953125 13.20876953 7.96953125 13.20876953 9.46875 13.23046875 C12.169918 13.25680034 12.169918 13.25680034 14 11 C14.24212873 9.01871492 14.24212873 9.01871492 14.125 6.875 C14.08375 5.59625 14.0425 4.3175 14 3 C11.03650719 2.01216906 9.0287337 1.86589475 5.9375 1.875 C5.05964844 1.87242187 4.18179688 1.86984375 3.27734375 1.8671875 C0.96801734 1.85166576 0.96801734 1.85166576 -1 3 Z " fill="#BDCDEE" transform="translate(537,241)"/>
<path d="M0 0 C3 1 3 1 4.17529297 2.55957031 C5.3514201 6.0399039 5.24559915 9.41789567 5.1953125 13.046875 C5.1924826 13.81807678 5.18965271 14.58927856 5.18673706 15.3838501 C5.17557013 17.83939332 5.15047229 20.2945676 5.125 22.75 C5.11496568 24.41796347 5.10584061 26.08593268 5.09765625 27.75390625 C5.07564225 31.83607897 5.04113667 35.917977 5 40 C5.99 40 6.98 40 8 40 C8 41.32 8 42.64 8 44 C8.86625 44.185625 8.86625 44.185625 9.75 44.375 C12.02335767 45.00648824 13.9253529 45.88858191 16 47 C12.98968256 47.93423645 12.13349732 48.04449911 9 47 C9 46.34 9 45.68 9 45 C7.68 44.67 6.36 44.34 5 44 C5 45.65 5 47.3 5 49 C-0.28 49 -5.56 49 -11 49 C-11 48.67 -11 48.34 -11 48 C-6.05 48 -1.1 48 4 48 C3.93099394 42.12800337 3.84296356 36.25671001 3.73754883 30.38525391 C3.70436287 28.38923971 3.67631132 26.39313311 3.65356445 24.39697266 C3.61990207 21.5220616 3.56758023 18.64799257 3.51171875 15.7734375 C3.50532883 14.88570648 3.4989389 13.99797546 3.49235535 13.08334351 C3.37205178 7.97550682 2.74693944 4.47057199 0 0 Z " fill="#5C85D6" transform="translate(563,219)"/>
<path d="M0 0 C7.33223678 -0.10135462 14.66429317 -0.17144649 21.99707031 -0.21972656 C24.49193065 -0.23985164 26.98674378 -0.26715452 29.48144531 -0.30175781 C33.06587368 -0.35023457 36.64967885 -0.3729602 40.234375 -0.390625 C41.35116638 -0.41127014 42.46795776 -0.43191528 43.61859131 -0.45318604 C44.65936829 -0.45348816 45.70014526 -0.45379028 46.77246094 -0.45410156 C47.68735291 -0.46298401 48.60224487 -0.47186646 49.54486084 -0.48101807 C52.73080224 0.14318092 53.93628549 1.56833231 56 4 C53 4 53 4 50 2 C47.0604536 1.72007757 47.0604536 1.72007757 43.875 1.8125 C42.79992187 1.81894531 41.72484375 1.82539063 40.6171875 1.83203125 C38.07385474 1.70602303 38.07385474 1.70602303 37 3 C35.00041636 3.04080783 32.99954746 3.04254356 31 3 C31 2.34 31 1.68 31 1 C26.38 1 21.76 1 17 1 C17 3.31 17 5.62 17 8 C16.01 7.67 15.02 7.34 14 7 C14.33 5.02 14.66 3.04 15 1 C10.05 1.33 5.1 1.66 0 2 C0 1.34 0 0.68 0 0 Z " fill="#6A8FDA" transform="translate(655,212)"/>
<path d="M0 0 C10.89 0 21.78 0 33 0 C33 2.97 33 5.94 33 9 C32.34 8.67 31.68 8.34 31 8 C31 6.02 31 4.04 31 2 C21.43 2 11.86 2 2 2 C2.66 3.65 3.32 5.3 4 7 C3.34 7 2.68 7 2 7 C0 4 0 4 0 0 Z " fill="#5882D5" transform="translate(487,245)"/>
<path d="M0 0 C0.33 0 0.66 0 1 0 C1.125 2.375 1.125 2.375 1 5 C-1.53256591 7.53256591 -3.16042091 7.26056785 -6.61914062 7.2734375 C-7.34294922 7.26570313 -8.06675781 7.25796875 -8.8125 7.25 C-9.52470703 7.25773437 -10.23691406 7.26546875 -10.97070312 7.2734375 C-15.08914347 7.25819813 -18.29822748 6.83270466 -22 5 C-22 4.34 -22 3.68 -22 3 C-23.32 3 -24.64 3 -26 3 C-26.144375 3.886875 -26.28875 4.77375 -26.4375 5.6875 C-26.91019978 8.47117646 -27.43070185 11.23483757 -28 14 C-25.69 14.66 -23.38 15.32 -21 16 C-24.05263664 16.98120464 -25.94736336 16.98120464 -29 16 C-30.6112798 10.28728072 -29.08989546 6.31329355 -27 1 C-24.36 1.33 -21.72 1.66 -19 2 C-18.67 2.99 -18.34 3.98 -18 5 C-15.54159395 5.02691685 -13.08348118 5.04679802 -10.625 5.0625 C-9.57699219 5.07506836 -9.57699219 5.07506836 -8.5078125 5.08789062 C-4.62704624 5.1835442 -4.62704624 5.1835442 -1 4 C-0.34786708 1.97536745 -0.34786708 1.97536745 0 0 Z " fill="#89A6E1" transform="translate(800,250)"/>
<path d="M0 0 C5.94 0 11.88 0 18 0 C18.33 1.65 18.66 3.3 19 5 C18.34 4.01 17.68 3.02 17 2 C14.390379 1.61588725 11.9941926 1.39706803 9.375 1.3125 C8.66859375 1.27833984 7.9621875 1.24417969 7.234375 1.20898438 C5.49014312 1.12648692 3.74509605 1.06156665 2 1 C2.30035156 1.67546875 2.60070312 2.3509375 2.91015625 3.046875 C3.48056641 4.38492188 3.48056641 4.38492188 4.0625 5.75 C4.44535156 6.63171875 4.82820312 7.5134375 5.22265625 8.421875 C6 11 6 11 5 15 C3.68 12.36 2.36 9.72 1 7 C0.67 7.66 0.34 8.32 0 9 C-0.66 9 -1.32 9 -2 9 C-2.33 10.32 -2.66 11.64 -3 13 C-4 11 -4 11 -3.0625 7.875 C-2.711875 6.92625 -2.36125 5.9775 -2 5 C-4.97 4.01 -7.94 3.02 -11 2 C-7.90842747 0.45421373 -5.31526981 1.39722367 -2 2 C-1.67 2.33 -1.34 2.66 -1 3 C-0.67 2.01 -0.34 1.02 0 0 Z " fill="#688ED9" transform="translate(614,212)"/>
<path d="M0 0 C0.66 0.33 1.32 0.66 2 1 C3.98518375 7.06583925 4.20795677 12.92122043 4.25 19.25 C4.25918457 20.03044678 4.26836914 20.81089355 4.27783203 21.61499023 C4.25506406 25.85939473 3.95156811 29.12784105 2 33 C1.34 33 0.68 33 0 33 C-0.0825 33.763125 -0.165 34.52625 -0.25 35.3125 C-1.14615794 38.52373261 -2.21611025 39.29374499 -5 41 C-3.86377483 38.72754966 -2.71580958 36.51119248 -1.4375 34.3125 C3.06989616 23.92589146 1.05259416 10.93946075 0 0 Z " fill="#C4D3F0" transform="translate(715,223)"/>
<path d="M0 0 C0.66 0.33 1.32 0.66 2 1 C1.36191406 1.18691406 0.72382812 1.37382812 0.06640625 1.56640625 C-2.90099009 2.74688373 -4.74801225 3.70552191 -7 6 C-8.12684901 11.04399079 -8.16190606 15.85138736 -8 21 C-10.64 21 -13.28 21 -16 21 C-16 24.63 -16 28.26 -16 32 C-14.02 32 -12.04 32 -10 32 C-10 32.33 -10 32.66 -10 33 C-12.64 33 -15.28 33 -18 33 C-18.02685938 30.85423363 -18.04633088 28.70837355 -18.0625 26.5625 C-18.07410156 25.36753906 -18.08570313 24.17257813 -18.09765625 22.94140625 C-18 20 -18 20 -17 19 C-14.32941149 18.85884839 -11.67567762 18.95752893 -9 19 C-9 14.38 -9 9.76 -9 5 C-2.1640625 0.99609375 -2.1640625 0.99609375 0 0 Z " fill="#C0CFEF" transform="translate(833,194)"/>
<path d="M0 0 C6.93 0 13.86 0 21 0 C21 0.33 21 0.66 21 1 C19.9378125 1.03738281 18.875625 1.07476562 17.78125 1.11328125 C7.01818661 1.44154615 7.01818661 1.44154615 -3 5 C-5.34325664 7.55139853 -5.34325664 7.55139853 -7 10 C-7.66 10 -8.32 10 -9 10 C-8.67 14.29 -8.34 18.58 -8 23 C-8.99 22.67 -9.98 22.34 -11 22 C-11.5605111 17.16003116 -12.05262134 12.81945033 -9.546875 8.48828125 C-7.7888653 6.43111443 -6.16855739 4.62061355 -4 3 C-3.01 3 -2.02 3 -1 3 C-0.67 2.01 -0.34 1.02 0 0 Z " fill="#B7C8ED" transform="translate(582,212)"/>
<path d="M0 0 C0.66 0 1.32 0 2 0 C3.96587381 5.16041875 5.22398456 9.17437022 2.94921875 14.42578125 C2.08746073 16.14167111 1.20178279 17.84582308 0.2890625 19.53515625 C-1.24376594 22.36489204 -1.24376594 22.36489204 -3 27 C1.29 27 5.58 27 10 27 C10 27.33 10 27.66 10 28 C5.05 28 0.1 28 -5 28 C-3.35789474 19.53684211 -3.35789474 19.53684211 -1.4375 16.65625 C0.44612257 13.17564308 0.29767212 10.61697226 0.1875 6.6875 C0.16042969 5.43324219 0.13335938 4.17898438 0.10546875 2.88671875 C0.07066406 1.93410156 0.03585937 0.98148437 0 0 Z " fill="#9AB3E6" transform="translate(633,259)"/>
<path d="M0 0 C6.875 0.875 6.875 0.875 8 2 C9.63256758 2.15714654 11.27135338 2.25085414 12.91015625 2.31640625 C13.89951172 2.35830078 14.88886719 2.40019531 15.90820312 2.44335938 C16.94912109 2.48267578 17.99003906 2.52199219 19.0625 2.5625 C20.62967773 2.62727539 20.62967773 2.62727539 22.22851562 2.69335938 C24.81886884 2.79981225 27.40932186 2.9018276 30 3 C27.3681325 5.6318675 25.39354732 5.91816821 21.73828125 6.1328125 C16.0837508 6.11460145 10.59112349 5.88747992 5 5 C4.67 4.34 4.34 3.68 4 3 C1.98330173 1.86649466 1.98330173 1.86649466 0 1 C0 0.67 0 0.34 0 0 Z " fill="#C0D0EF" transform="translate(574,263)"/>
<path d="M0 0 C1.44149414 0.02707031 1.44149414 0.02707031 2.91210938 0.0546875 C5.25499227 0.10131204 7.5956829 0.16671831 9.9375 0.25 C9.9375 0.91 9.9375 1.57 9.9375 2.25 C12.4125 3.24 12.4125 3.24 14.9375 4.25 C14.2775 4.58 13.6175 4.91 12.9375 5.25 C12.25171875 4.94578125 11.5659375 4.6415625 10.859375 4.328125 C6.91337172 2.87211309 3.35861522 2.95048227 -0.8125 3 C-1.61292725 3.00604248 -2.41335449 3.01208496 -3.23803711 3.01831055 C-8.75933006 3.11103455 -13.8034265 3.43322916 -19.0625 5.25 C-19.3925 6.24 -19.7225 7.23 -20.0625 8.25 C-20.0625 6.93 -20.0625 5.61 -20.0625 4.25 C-13.248306 0.51382934 -7.69983318 -0.27863001 0 0 Z " fill="#B5C7EC" transform="translate(544.0625,211.75)"/>
<path d="M0 0 C0.33 0.99 0.66 1.98 1 3 C0.34 3 -0.32 3 -1 3 C-0.87625 4.3303125 -0.87625 4.3303125 -0.75 5.6875 C-1.05391197 9.71433365 -2.18236593 11.18236593 -5 14 C-5.66 14 -6.32 14 -7 14 C-7 14.66 -7 15.32 -7 16 C-13.27711729 18.547236 -19.20041343 19.94506889 -26 19 C-26.99 18.34 -27.98 17.68 -29 17 C-27.62328125 16.96132813 -27.62328125 16.96132813 -26.21875 16.921875 C-17.94290958 16.53937817 -11.12625584 16.12625584 -5 10 C-4.3574765 7.93125966 -4.3574765 7.93125966 -4 6 C-3.34 6 -2.68 6 -2 6 C-1.855625 5.195625 -1.71125 4.39125 -1.5625 3.5625 C-1 1 -1 1 0 0 Z " fill="#7A9BDD" transform="translate(719,250)"/>
<path d="M0 0 C0.33 0 0.66 0 1 0 C1.37632149 5.14306032 0.04771554 8.33120856 -2 13 C-2.4054103 15.32189536 -2.76072994 17.65515344 -3 20 C-4.65 20 -6.3 20 -8 20 C-10.27678571 11.96428571 -10.27678571 11.96428571 -9 8 C-8.34 10.31 -7.68 12.62 -7 15 C-6.01 15 -5.02 15 -4 15 C-3.87882813 14.16855469 -3.75765625 13.33710938 -3.6328125 12.48046875 C-3.38144531 10.85044922 -3.38144531 10.85044922 -3.125 9.1875 C-2.96257813 8.10855469 -2.80015625 7.02960938 -2.6328125 5.91796875 C-2 3 -2 3 0 0 Z " fill="#CDD9F2" transform="translate(649,231)"/>
<path d="M0 0 C0.81919922 -0.01611328 1.63839844 -0.03222656 2.48242188 -0.04882812 C4.85546875 -0.05078125 4.85546875 -0.05078125 8.8125 0.3125 C9.4725 1.3025 10.1325 2.2925 10.8125 3.3125 C9.8225 2.9825 8.8325 2.6525 7.8125 2.3125 C5.07960707 2.08452438 2.36207796 1.89581813 -0.375 1.75 C-1.12458984 1.70681641 -1.87417969 1.66363281 -2.64648438 1.61914062 C-4.49328375 1.51327315 -6.34036834 1.4124024 -8.1875 1.3125 C-8.1875 1.9725 -8.1875 2.6325 -8.1875 3.3125 C-9.38375 3.828125 -10.58 4.34375 -11.8125 4.875 C-17.88946929 7.90270987 -21.19530492 12.32810983 -24.1875 18.3125 C-24.1875 14.6825 -24.1875 11.0525 -24.1875 7.3125 C-23.1975 8.7975 -23.1975 8.7975 -22.1875 10.3125 C-21.66800781 9.75820312 -21.14851563 9.20390625 -20.61328125 8.6328125 C-19.91589844 7.90835938 -19.21851563 7.18390625 -18.5 6.4375 C-17.81550781 5.71820313 -17.13101562 4.99890625 -16.42578125 4.2578125 C-11.3894988 -0.11927068 -6.37482174 -0.02543824 0 0 Z " fill="#83A2E0" transform="translate(497.1875,211.6875)"/>
<path d="M0 0 C4.95 0 9.9 0 15 0 C19.41964286 10.17857143 19.41964286 10.17857143 18 14 C17.63261719 12.82630859 17.63261719 12.82630859 17.2578125 11.62890625 C16.08031301 8.44153694 14.96429436 5.78023202 13 3 C9.60726191 1.73614031 6.58392845 1.70075937 3 2 C3 3.98 3 5.96 3 8 C0.37613513 4.93882432 0 4.26826873 0 0 Z " fill="#C3D2EF" transform="translate(616,213)"/>
<path d="M0 0 C1.73056641 -0.00386719 1.73056641 -0.00386719 3.49609375 -0.0078125 C6.5625 0.125 6.5625 0.125 9.5625 1.125 C9.5625 1.785 9.5625 2.445 9.5625 3.125 C11.2125 3.125 12.8625 3.125 14.5625 3.125 C14.8925 2.465 15.2225 1.805 15.5625 1.125 C15.5625 2.445 15.5625 3.765 15.5625 5.125 C14.10369891 4.98392253 12.64546449 4.83697585 11.1875 4.6875 C10.37539063 4.60628906 9.56328125 4.52507812 8.7265625 4.44140625 C6.5625 4.125 6.5625 4.125 4.5625 3.125 C2.5250237 2.89641886 0.48209697 2.71475722 -1.5625 2.5625 C-3.20605469 2.43681641 -3.20605469 2.43681641 -4.8828125 2.30859375 C-5.72585938 2.24800781 -6.56890625 2.18742188 -7.4375 2.125 C-6.06766497 5.28615776 -5.4484362 6.1177092 -2.4375 8.125 C-7.3125 7.25 -7.3125 7.25 -8.4375 6.125 C-8.47813832 4.45882885 -8.480221 2.79111905 -8.4375 1.125 C-5.59989474 -0.29380263 -3.16067025 -0.0070472 0 0 Z " fill="#7E9EDE" transform="translate(594.4375,223.875)"/>
<path d="M0 0 C4.62 0 9.24 0 14 0 C13.375 7.5 13.375 7.5 10 12 C10.33 8.7 10.66 5.4 11 2 C7.37 2 3.74 2 0 2 C-0.33 3.65 -0.66 5.3 -1 7 C-2.0625 9.3125 -2.0625 9.3125 -3 11 C-3.33 10.34 -3.66 9.68 -4 9 C-2.88378061 5.89253496 -1.4097791 2.99044051 0 0 Z " fill="#C1D1EF" transform="translate(656,213)"/>
<path d="M0 0 C0.66 0.33 1.32 0.66 2 1 C2 1.66 2 2.32 2 3 C2.66 3 3.32 3 4 3 C4.61863847 13.61996034 4.61863847 13.61996034 2.375 18.625 C-0.30842311 21.30842311 -2.32903667 22.16569015 -6 23 C-5.36771484 22.27296875 -5.36771484 22.27296875 -4.72265625 21.53125 C-0.20595016 16.00492725 1.45475086 12.20986313 0.8203125 4.94140625 C0.60051429 3.28625916 0.30770243 1.64107963 0 0 Z " fill="#87A5E1" transform="translate(612,243)"/>
<path d="M0 0 C0 6.93 0 13.86 0 21 C2.97 21 5.94 21 9 21 C9 21.33 9 21.66 9 22 C7.35425434 22.02688151 5.70838587 22.04634123 4.0625 22.0625 C3.14597656 22.07410156 2.22945312 22.08570313 1.28515625 22.09765625 C-1 22 -1 22 -2 21 C-2.08631874 19.65732587 -2.10706473 18.31025678 -2.09765625 16.96484375 C-2.09282227 15.75151367 -2.09282227 15.75151367 -2.08789062 14.51367188 C-2.07951172 13.66353516 -2.07113281 12.81339844 -2.0625 11.9375 C-2.05798828 11.08349609 -2.05347656 10.22949219 -2.04882812 9.34960938 C-2.03700373 7.23304337 -2.01906769 5.11651315 -2 3 C-3.32 2.67 -4.64 2.34 -6 2 C-3 0 -3 0 0 0 Z " fill="#7295DB" transform="translate(840,191)"/>
<path d="M0 0 C0.66 0.33 1.32 0.66 2 1 C2.92188461 3.76565382 3.11785222 5.38283702 3.09765625 8.23046875 C3.09443359 9.03291016 3.09121094 9.83535156 3.08789062 10.66210938 C3.07951172 11.49548828 3.07113281 12.32886719 3.0625 13.1875 C3.05798828 14.03248047 3.05347656 14.87746094 3.04882812 15.74804688 C3.03705403 17.83206155 3.0191189 19.91603977 3 22 C2.34 22 1.68 22 1 22 C0.87625 22.639375 0.7525 23.27875 0.625 23.9375 C0.41875 24.618125 0.2125 25.29875 0 26 C-3.17772874 27.58886437 -6.54865311 27.54346362 -10 27 C-12 25 -12 25 -13 23 C-12.319375 23.165 -11.63875 23.33 -10.9375 23.5 C-7.5835178 24.07089059 -4.39610195 24.06659023 -1 24 C-0.67 22.35 -0.34 20.7 0 19 C0.33 19 0.66 19 1 19 C1.02714735 16.77090129 1.04646254 14.54170633 1.0625 12.3125 C1.07410156 11.07113281 1.08570313 9.82976562 1.09765625 8.55078125 C1.01478673 5.53764546 0.70839449 2.91724661 0 0 Z " fill="#678DD9" transform="translate(701,228)"/>
<path d="M0 0 C1.33998047 0.06960937 1.33998047 0.06960937 2.70703125 0.140625 C3.60808594 0.17671875 4.50914062 0.2128125 5.4375 0.25 C6.46810547 0.31960937 6.46810547 0.31960937 7.51953125 0.390625 C7.84953125 1.380625 8.17953125 2.370625 8.51953125 3.390625 C7.73707031 3.45121094 6.95460938 3.51179687 6.1484375 3.57421875 C4.63056641 3.69990234 4.63056641 3.69990234 3.08203125 3.828125 C2.07269531 3.90933594 1.06335938 3.99054688 0.0234375 4.07421875 C-2.41687654 4.12273968 -2.41687654 4.12273968 -3.48046875 5.390625 C-3.63733124 6.95011042 -3.73123514 8.51605168 -3.796875 10.08203125 C-3.8597168 11.49838867 -3.8597168 11.49838867 -3.92382812 12.94335938 C-3.96314453 13.93658203 -4.00246094 14.92980469 -4.04296875 15.953125 C-4.08615234 16.95021484 -4.12933594 17.94730469 -4.17382812 18.97460938 C-4.28027173 21.4464665 -4.38228803 23.9184281 -4.48046875 26.390625 C-4.81046875 26.390625 -5.14046875 26.390625 -5.48046875 26.390625 C-5.56767794 22.80744542 -5.62092987 19.22453933 -5.66796875 15.640625 C-5.69310547 14.62484375 -5.71824219 13.6090625 -5.74414062 12.5625 C-5.75380859 11.5828125 -5.76347656 10.603125 -5.7734375 9.59375 C-5.78914795 8.69301758 -5.8048584 7.79228516 -5.82104492 6.86425781 C-5.29014151 3.00826259 -3.95081493 0.62217558 0 0 Z " fill="#7396DC" transform="translate(692.48046875,224.609375)"/>
<path d="M0 0 C0.90492188 0.02320313 1.80984375 0.04640625 2.7421875 0.0703125 C4.10730469 0.09738281 4.10730469 0.09738281 5.5 0.125 C6.19867187 0.14820313 6.89734375 0.17140625 7.6171875 0.1953125 C7.9471875 1.1853125 8.2771875 2.1753125 8.6171875 3.1953125 C7.69486328 3.17791016 7.69486328 3.17791016 6.75390625 3.16015625 C5.54154297 3.14662109 5.54154297 3.14662109 4.3046875 3.1328125 C3.50417969 3.12121094 2.70367188 3.10960937 1.87890625 3.09765625 C-0.55142584 3.09873395 -0.55142584 3.09873395 -3.3828125 4.1953125 C-5.33346675 8.5487594 -5.60429373 12.34273201 -5.5078125 17.0703125 C-5.48976563 18.22273438 -5.47171875 19.37515625 -5.453125 20.5625 C-5.42992187 21.43132812 -5.40671875 22.30015625 -5.3828125 23.1953125 C-6.0428125 22.8653125 -6.7028125 22.5353125 -7.3828125 22.1953125 C-7.46420392 19.79878722 -7.52348259 17.40505814 -7.5703125 15.0078125 C-7.60801758 13.99750977 -7.60801758 13.99750977 -7.64648438 12.96679688 C-7.71224404 8.47322003 -7.0925512 5.78424002 -4.3828125 2.1953125 C-2.3828125 0.1953125 -2.3828125 0.1953125 0 0 Z " fill="#91ACE3" transform="translate(743.3828125,224.8046875)"/>
<path d="M0 0 C0.33 0 0.66 0 1 0 C1.22036864 3.85645121 0.60355101 6.49223216 -1 10 C-3.31 10 -5.62 10 -8 10 C-8 9.34 -8 8.68 -8 8 C-13.61 8 -19.22 8 -25 8 C-24.67 7.01 -24.34 6.02 -24 5 C-17.59370576 4.79147686 -12.07027358 4.8416805 -6 7 C-6 7.66 -6 8.32 -6 9 C-5.01 8.67 -4.02 8.34 -3 8 C-2.67 6.35 -2.34 4.7 -2 3 C-1.34 3 -0.68 3 0 3 C0 2.01 0 1.02 0 0 Z " fill="#DAE4F5" transform="translate(811,217)"/>
<path d="M0 0 C1 2 1 2 0.4765625 4.05859375 C0.19554687 4.84363281 -0.08546875 5.62867188 -0.375 6.4375 C-0.65085937 7.21996094 -0.92671875 8.00242187 -1.2109375 8.80859375 C-1.47132813 9.53175781 -1.73171875 10.25492187 -2 11 C-2.33 11.99 -2.66 12.98 -3 14 C-3.66 14 -4.32 14 -5 14 C-5.103125 14.78375 -5.20625 15.5675 -5.3125 16.375 C-5.88517375 19.39455249 -6.55601658 22.2913688 -7.375 25.25 C-7.60960937 26.10078125 -7.84421875 26.9515625 -8.0859375 27.828125 C-9 30 -9 30 -12 32 C-11.2531799 27.57916835 -9.88289994 23.41843259 -8.4375 19.1875 C-8.20353516 18.49462891 -7.96957031 17.80175781 -7.72851562 17.08789062 C-7.15508324 15.39099886 -6.57791831 13.69536922 -6 12 C-5.34 12 -4.68 12 -4 12 C-3.79503906 11.21753906 -3.59007812 10.43507813 -3.37890625 9.62890625 C-3.10949219 8.61699219 -2.84007812 7.60507812 -2.5625 6.5625 C-2.29566406 5.55316406 -2.02882813 4.54382813 -1.75390625 3.50390625 C-1 1 -1 1 0 0 Z " fill="#7497DC" transform="translate(657,249)"/>
<path d="M0 0 C0.33 0.66 0.66 1.32 1 2 C0.34 2 -0.32 2 -1 2 C-1 3.65 -1 5.3 -1 7 C4.94 7 10.88 7 17 7 C17.33 5.68 17.66 4.36 18 3 C18.042721 4.66611905 18.04063832 6.33382885 18 8 C17 9 17 9 15.14233398 9.11352539 C14.35157471 9.10828857 13.56081543 9.10305176 12.74609375 9.09765625 C11.89208984 9.09443359 11.03808594 9.09121094 10.15820312 9.08789062 C9.26037109 9.07951172 8.36253906 9.07113281 7.4375 9.0625 C6.53580078 9.05798828 5.63410156 9.05347656 4.70507812 9.04882812 C2.46998686 9.03700225 0.23502563 9.0205222 -2 9 C-2.79953138 5.71303767 -3.09658936 4.28976808 -2 1 C-1.34 0.67 -0.68 0.34 0 0 Z " fill="#D4DFF4" transform="translate(488,227)"/>
<path d="M0 0 C0.33 0 0.66 0 1 0 C1 2.64 1 5.28 1 8 C3.14576637 8.02685938 5.29162645 8.04633088 7.4375 8.0625 C9.22994141 8.07990234 9.22994141 8.07990234 11.05859375 8.09765625 C13.88873341 8.33901792 13.88873341 8.33901792 15 7 C15.36760731 4.67182036 15.70241581 2.3381615 16 0 C16.33 0 16.66 0 17 0 C17.1953125 6.0546875 17.1953125 6.0546875 17 8 C16.34 8.66 15.68 9.32 15 10 C14.01 10 13.02 10 12 10 C12 10.66 12 11.32 12 12 C10.56344146 12.08131463 9.1255517 12.13933559 7.6875 12.1875 C6.48673828 12.23970703 6.48673828 12.23970703 5.26171875 12.29296875 C3 12 3 12 1.21875 10.78125 C-0.35672932 8.47862638 -0.30765272 7.07601256 -0.1875 4.3125 C-0.16042969 3.50425781 -0.13335938 2.69601563 -0.10546875 1.86328125 C-0.07066406 1.24839844 -0.03585937 0.63351563 0 0 Z " fill="#7B9CDE" transform="translate(535,245)"/>
<path d="M0 0 C0.66 0.33 1.32 0.66 2 1 C1.67 1.33 1.34 1.66 1 2 C0.9008082 3.61083745 0.8692018 5.22595644 0.8671875 6.83984375 C0.86589844 7.82017578 0.86460937 8.80050781 0.86328125 9.81054688 C0.86714844 10.84244141 0.87101563 11.87433594 0.875 12.9375 C0.87113281 13.96552734 0.86726562 14.99355469 0.86328125 16.05273438 C0.86457031 17.03435547 0.86585938 18.01597656 0.8671875 19.02734375 C0.86831543 19.93218506 0.86944336 20.83702637 0.87060547 21.76928711 C0.85503424 24.03895859 0.85503424 24.03895859 2 26 C0.68 25.67 -0.64 25.34 -2 25 C-2.05786668 21.20839703 -2.09355054 17.41690689 -2.125 13.625 C-2.14175781 12.54476562 -2.15851562 11.46453125 -2.17578125 10.3515625 C-2.18222656 9.3203125 -2.18867187 8.2890625 -2.1953125 7.2265625 C-2.20578613 6.27346191 -2.21625977 5.32036133 -2.22705078 4.33837891 C-2 2 -2 2 0 0 Z " fill="#C4D2F0" transform="translate(687,227)"/>
<path d="M0 0 C2.6429866 0.98168074 4.9856661 1.99094701 7.375 3.5 C10.50367943 5.28781682 13.52459597 6.05751755 17 7 C19.68711425 7.95227558 22.33992728 8.97330527 25 10 C25 10.99 25 11.98 25 13 C24.42378906 12.68417969 23.84757813 12.36835938 23.25390625 12.04296875 C21.04337337 11.02007052 19.33000896 10.65684241 16.9375 10.3125 C10.85736247 9.06814573 5.89740902 5.70803826 1 2 C0.67 1.34 0.34 0.68 0 0 Z " fill="#D1DDF3" transform="translate(774,237)"/>
<path d="M0 0 C0.99 0.33 1.98 0.66 3 1 C4.02593601 3.43140905 4.85867285 5.7381499 5.625 8.25 C5.8415625 8.91902344 6.058125 9.58804688 6.28125 10.27734375 C7.40920454 13.82134906 8.36089825 17.33581664 9 21 C8.67 20.01 8.34 19.02 8 18 C7.01 18 6.02 18 5 18 C5 16.35 5 14.7 5 13 C4.34 13 3.68 13 3 13 C0.96834048 8.66579301 0.47939368 4.71403788 0 0 Z " fill="#85A3E0" transform="translate(624,238)"/>
<path d="M0 0 C1.794375 0.7115625 1.794375 0.7115625 3.625 1.4375 C9.93351712 3.57734901 16.39095639 3.7273652 23 4 C21.99609375 5.5390625 21.99609375 5.5390625 20 7 C17.21928101 6.97025969 14.78810165 6.78005808 12.0625 6.375 C11.34642578 6.29121094 10.63035156 6.20742188 9.89257812 6.12109375 C5.86522808 5.57615111 2.883796 4.96662043 0 2 C0 1.34 0 0.68 0 0 Z " fill="#6D92DA" transform="translate(482,264)"/>
<path d="M0 0 C1.32 0 2.64 0 4 0 C4 0.66 4 1.32 4 2 C7.3 2 10.6 2 14 2 C14 1.34 14 0.68 14 0 C16.875 -0.1875 16.875 -0.1875 20 0 C20.66 0.99 21.32 1.98 22 3 C21.030625 2.979375 20.06125 2.95875 19.0625 2.9375 C16.12534105 2.64381501 16.12534105 2.64381501 15 4 C5.31251422 4.97675477 5.31251422 4.97675477 1.3125 2 C0.879375 1.34 0.44625 0.68 0 0 Z " fill="#AEC2EA" transform="translate(489,252)"/>
<path d="M0 0 C0.66 0 1.32 0 2 0 C3.95031692 4.07723734 4.21581971 7.31692422 4.125 11.8125 C4.10695313 12.97394531 4.08890625 14.13539063 4.0703125 15.33203125 C4.04710937 16.21246094 4.02390625 17.09289062 4 18 C3.34 18 2.68 18 2 18 C1.34 19.98 0.68 21.96 0 24 C-0.99 24 -1.98 24 -3 24 C-2.34 22.906875 -1.68 21.81375 -1 20.6875 C2.32677138 14.08097874 1.560313 7.04043672 0 0 Z " fill="#CBD8F2" transform="translate(754,229)"/>
<path d="M0 0 C2.48046875 1.546875 2.48046875 1.546875 5 4 C5.48828125 7.453125 5.48828125 7.453125 5.3125 11.25 C5.26738281 12.51328125 5.22226562 13.7765625 5.17578125 15.078125 C5.11777344 16.04234375 5.05976562 17.0065625 5 18 C4.34 18 3.68 18 3 18 C2.896875 18.763125 2.79375 19.52625 2.6875 20.3125 C1.93412462 23.25751284 1.44706902 24.25209356 -1 26 C-3.6875 26.6875 -3.6875 26.6875 -6 27 C-5 25 -5 25 -2.5625 23.6875 C0.41434947 21.72713571 1.00305041 20.35337589 2 17 C2.66 17 3.32 17 4 17 C3.56432873 9.03078327 3.56432873 9.03078327 0 2 C0 1.34 0 0.68 0 0 Z " fill="#B5C7EC" transform="translate(809,240)"/>
<path d="M0 0 C1.953125 1.49739583 3.90625 2.99479167 5.859375 4.4921875 C7.84722603 5.89238914 9.79843386 6.97855265 12 8 C10 9 10 9 8.0546875 8.44140625 C7.33539062 8.15136719 6.61609375 7.86132812 5.875 7.5625 C5.15054688 7.27503906 4.42609375 6.98757812 3.6796875 6.69140625 C3.12539063 6.46324219 2.57109375 6.23507813 2 6 C2 7.98 2 9.96 2 12 C1.01 12.495 1.01 12.495 0 13 C0 8.71 0 4.42 0 0 Z " fill="#5A83D5" transform="translate(771,235)"/>
<path d="M0 0 C0.33 0.66 0.66 1.32 1 2 C0.01965496 4.00970734 -0.98553388 6.00729869 -2 8 C-2.79585403 10.23326386 -3.51505069 12.48448363 -4.23828125 14.7421875 C-5.30988734 17.91853787 -6.63295861 20.94043117 -8 24 C-9.43088528 21.13822943 -8.59991697 19.06624227 -8 16 C-7.34 16 -6.68 16 -6 16 C-5.34 12.37 -4.68 8.74 -4 5 C-3.34 5 -2.68 5 -2 5 C-1.855625 4.360625 -1.71125 3.72125 -1.5625 3.0625 C-1 1 -1 1 0 0 Z " fill="#B9CBED" transform="translate(665,226)"/>
<path d="M0 0 C0.33 0 0.66 0 1 0 C1.125 2.375 1.125 2.375 1 5 C-1.53256591 7.53256591 -3.16042091 7.26056785 -6.61914062 7.2734375 C-7.34294922 7.26570313 -8.06675781 7.25796875 -8.8125 7.25 C-9.52470703 7.25773437 -10.23691406 7.26546875 -10.97070312 7.2734375 C-15.08914347 7.25819813 -18.29822748 6.83270466 -22 5 C-22 4.34 -22 3.68 -22 3 C-21.07380859 3.2165625 -21.07380859 3.2165625 -20.12890625 3.4375 C-10.45700268 5.77669419 -10.45700268 5.77669419 -1 4 C-0.34786708 1.97536745 -0.34786708 1.97536745 0 0 Z " fill="#BBCCEE" transform="translate(800,250)"/>
<path d="M0 0 C1.41750563 0.11509661 2.83401169 0.24253658 4.25 0.375 C5.03890625 0.44460938 5.8278125 0.51421875 6.640625 0.5859375 C9 1 9 1 10.78125 2 C14.14500812 3.51606 17.61736579 3.47096604 21.25 3.625 C21.99507812 3.66367187 22.74015625 3.70234375 23.5078125 3.7421875 C25.3381524 3.83605108 27.16904143 3.91909718 29 4 C29 4.33 29 4.66 29 5 C18.60510406 5.41167905 9.57565812 5.72455379 0 1 C0 0.67 0 0.34 0 0 Z " fill="#C4D2F0" transform="translate(772,263)"/>
<path d="M0 0 C1 4 1 4 0 7 C0.66 7 1.32 7 2 7 C2.33 5.68 2.66 4.36 3 3 C4 5 4 5 3.44140625 6.9453125 C3.15136719 7.66460937 2.86132812 8.38390625 2.5625 9.125 C2.27503906 9.84945313 1.98757813 10.57390625 1.69140625 11.3203125 C1.46324219 11.87460937 1.23507812 12.42890625 1 13 C0.34 11.68 -0.32 10.36 -1 9 C-2.98 9.99 -2.98 9.99 -5 11 C-3.35 7.37 -1.7 3.74 0 0 Z " fill="#5E86D6" transform="translate(769,250)"/>
<path d="M0 0 C0.99 0.495 0.99 0.495 2 1 C2.33 1.99 2.66 2.98 3 4 C4.91605743 5.39119954 4.91605743 5.39119954 7.25 6.5625 C8.05824219 6.99046875 8.86648438 7.4184375 9.69921875 7.859375 C12.08972121 9.04447979 14.48452855 10.10741336 17 11 C14.13822943 12.43088528 12.06624227 11.59991697 9 11 C9 10.34 9 9.68 9 9 C7.68 9 6.36 9 5 9 C5 8.34 5 7.68 5 7 C4.360625 6.773125 3.72125 6.54625 3.0625 6.3125 C1 5 1 5 0.25 2.375 C0.1675 1.59125 0.085 0.8075 0 0 Z " fill="#799ADD" transform="translate(572,234)"/>
<path d="M0 0 C1.92050612 0.39859561 3.83635712 0.81965926 5.75 1.25 C6.81734375 1.48203125 7.8846875 1.7140625 8.984375 1.953125 C12.26814405 3.09308628 13.77074995 4.38117228 16 7 C15.67 7.66 15.34 8.32 15 9 C14.38125 8.5875 13.7625 8.175 13.125 7.75 C8.9155432 5.39270419 4.49977472 3.72127305 0 2 C0 1.34 0 0.68 0 0 Z " fill="#B3C6EC" transform="translate(596,234)"/>
<path d="M0 0 C1.30066406 -0.03738281 2.60132813 -0.07476562 3.94140625 -0.11328125 C7.4375 0.3125 7.4375 0.3125 9.90234375 2.33203125 C10.40894531 2.98558594 10.91554688 3.63914063 11.4375 4.3125 C8.4375 4.3125 8.4375 4.3125 5.4375 2.3125 C2.4979536 2.03257757 2.4979536 2.03257757 -0.6875 2.125 C-1.76257813 2.13144531 -2.83765625 2.13789063 -3.9453125 2.14453125 C-6.48864526 2.01852303 -6.48864526 2.01852303 -7.5625 3.3125 C-9.56208364 3.35330783 -11.56295254 3.35504356 -13.5625 3.3125 C-13.2325 2.6525 -12.9025 1.9925 -12.5625 1.3125 C-8.43992261 0.11810842 -4.26982307 0.0805627 0 0 Z " fill="#94AEE4" transform="translate(699.5625,211.6875)"/>
<path d="M0 0 C0.66 0.33 1.32 0.66 2 1 C-2.63580151 4.66820431 -5.92127992 5.54999365 -11.875 5.25 C-12.56335938 5.23195313 -13.25171875 5.21390625 -13.9609375 5.1953125 C-15.6412381 5.14863748 -17.32081163 5.07690939 -19 5 C-19 4.67 -19 4.34 -19 4 C-18.04738281 3.87882812 -17.09476563 3.75765625 -16.11328125 3.6328125 C-14.85902344 3.46523438 -13.60476563 3.29765625 -12.3125 3.125 C-11.07113281 2.96257812 -9.82976563 2.80015625 -8.55078125 2.6328125 C-5.05764812 2.13405664 -5.05764812 2.13405664 -2.16796875 0.8671875 C-1.45253906 0.58101563 -0.73710938 0.29484375 0 0 Z " fill="#B9CBED" transform="translate(759,263)"/>
<path d="M0 0 C6.96327638 -0.33693273 12.43345544 0.6969113 19 3 C18.67 3.66 18.34 4.32 18 5 C17.15179687 4.68289062 16.30359375 4.36578125 15.4296875 4.0390625 C11.90522775 2.97128768 8.79329043 2.59958921 5.125 2.375 C3.97257813 2.30023438 2.82015625 2.22546875 1.6328125 2.1484375 C0.32957031 2.07496094 0.32957031 2.07496094 -1 2 C-0.67 1.34 -0.34 0.68 0 0 Z " fill="#84A3E0" transform="translate(741,211)"/>
<path d="M0 0 C0.88751953 0.2165625 0.88751953 0.2165625 1.79296875 0.4375 C5.92529941 1.40822694 9.7229762 2.27593702 14 2 C12.9375 3.5 12.9375 3.5 11 5 C7.23373911 5.41086482 4.89465675 5.50467817 1.5625 3.625 C0 2 0 2 0 0 Z " fill="#7698DC" transform="translate(738,250)"/>
<path d="M0 0 C2.85475306 -0.08156437 5.70713565 -0.14076372 8.5625 -0.1875 C9.36236328 -0.21263672 10.16222656 -0.23777344 10.98632812 -0.26367188 C16.44794805 -0.33054885 20.12924103 0.5090481 25 3 C22.21541197 4.39229401 20.58230642 3.33637542 17.70703125 2.546875 C11.9083553 1.37542531 5.90025261 1.29193958 0 1 C0 0.67 0 0.34 0 0 Z " fill="#DFE7F7" transform="translate(785,213)"/>
<path d="M0 0 C0.33 1.32 0.66 2.64 1 4 C0.34 4 -0.32 4 -1 4 C-0.938125 4.66 -0.87625 5.32 -0.8125 6 C-1.05987165 9.9579464 -2.19903884 13.464168 -4 17 C-4.66 17.33 -5.32 17.66 -6 18 C-5.32739631 11.61026495 -2.85677683 5.71355366 0 0 Z " fill="#5B84D6" transform="translate(664,231)"/>
<path d="M0 0 C1 2 1 2 0.00390625 5.4765625 C-0.46900047 6.86197936 -0.94981644 8.24471547 -1.4375 9.625 C-1.68048828 10.33140625 -1.92347656 11.0378125 -2.17382812 11.765625 C-2.77587205 13.51273287 -3.38708017 15.25667786 -4 17 C-4.33 17 -4.66 17 -5 17 C-4.75759721 10.18848171 -4.45683174 5.31944433 0 0 Z " fill="#6C91DA" transform="translate(654,214)"/>
<path d="M0 0 C2.475 0.495 2.475 0.495 5 1 C5 1.66 5 2.32 5 3 C5.66 3 6.32 3 7 3 C7 3.66 7 4.32 7 5 C7.66 5 8.32 5 9 5 C10.42944945 7.35438733 11.08661261 8.48032433 10.625 11.25 C10.41875 11.8275 10.2125 12.405 10 13 C8.19933758 10.0534615 6.49836105 7.11198065 5 4 C4.34 4 3.68 4 3 4 C3 3.34 3 2.68 3 2 C2.01 1.67 1.02 1.34 0 1 C0 0.67 0 0.34 0 0 Z " fill="#9EB6E6" transform="translate(757,215)"/>
<path d="M0 0 C0 0.66 0 1.32 0 2 C-6.75 6 -6.75 6 -9 6 C-9.66 7.32 -10.32 8.64 -11 10 C-11 6.73343924 -10.88441939 5.62180089 -9 3 C-3 0 -3 0 0 0 Z " fill="#A8BDE9" transform="translate(739,213)"/>
<path d="M0 0 C0.99 0 1.98 0 3 0 C2.5359375 1.85625 2.5359375 1.85625 2.0625 3.75 C0.78031188 9.45164503 0.37429453 15.17873504 0 21 C-0.33 21 -0.66 21 -1 21 C-1.18451025 6.21867882 -1.18451025 6.21867882 0 0 Z " fill="#789ADD" transform="translate(722,225)"/>
<path d="M0 0 C0.66 0 1.32 0 2 0 C2.2475 0.804375 2.495 1.60875 2.75 2.4375 C3.72238859 5.171081 3.72238859 5.171081 6.125 5.8125 C7.053125 5.9053125 7.053125 5.9053125 8 6 C8 6.66 8 7.32 8 8 C8.66 8.33 9.32 8.66 10 9 C3.54847841 8.51309271 3.54847841 8.51309271 1.0625 6.1875 C0 4 0 4 0 0 Z " fill="#B9CAED" transform="translate(784,225)"/>
<path d="M0 0 C1.47968324 0.14049518 2.95874516 0.28754826 4.4375 0.4375 C5.67306641 0.55931641 5.67306641 0.55931641 6.93359375 0.68359375 C9 1 9 1 10 2 C9.94921875 4.03125 9.94921875 4.03125 9.6875 6.5 C9.56955078 7.72203125 9.56955078 7.72203125 9.44921875 8.96875 C9.30097656 9.6390625 9.15273438 10.309375 9 11 C8.01 11.495 8.01 11.495 7 12 C7.66 9.36 8.32 6.72 9 4 C6.03 3.01 3.06 2.02 0 1 C0 0.67 0 0.34 0 0 Z " fill="#7D9DDE" transform="translate(603,213)"/>
<path d="M0 0 C1.53271273 4.58798777 0.02911182 6.77944742 -2 11 C-2.66 11 -3.32 11 -4 11 C-4.33 12.32 -4.66 13.64 -5 15 C-5.30017023 10.83513802 -4.45324946 8.34984273 -2.5 4.6875 C-2.0359375 3.80449219 -1.571875 2.92148438 -1.09375 2.01171875 C-0.7328125 1.34785156 -0.371875 0.68398437 0 0 Z " fill="#C9D7F1" transform="translate(655,250)"/>
<path d="M0 0 C0.99 0.2165625 0.99 0.2165625 2 0.4375 C4.82816941 1.02604993 4.82816941 1.02604993 7.04296875 1.1484375 C9.1875 1.3125 9.1875 1.3125 13 2 C14.5 4.0625 14.5 4.0625 15 6 C14.0409375 5.566875 14.0409375 5.566875 13.0625 5.125 C9.70108576 3.89019477 6.40447935 3.21407564 2.890625 2.5625 C2.26671875 2.376875 1.6428125 2.19125 1 2 C0.67 1.34 0.34 0.68 0 0 Z " fill="#ABC0EA" transform="translate(785,244)"/>
<path d="M0 0 C0.99 0.33 1.98 0.66 3 1 C3 3.97 3 6.94 3 10 C2.01 10 1.02 10 0 10 C0 6.7 0 3.4 0 0 Z " fill="#E2EAF8" transform="translate(472,243)"/>
<path d="M0 0 C0.33 0 0.66 0 1 0 C0.85831863 1.43791516 0.71148957 2.8753237 0.5625 4.3125 C0.48128906 5.11300781 0.40007813 5.91351563 0.31640625 6.73828125 C0 9 0 9 -1 12 C-1.99 12 -2.98 12 -4 12 C-4 11.34 -4 10.68 -4 10 C-3.34 10 -2.68 10 -2 10 C-2.04125 9.0925 -2.0825 8.185 -2.125 7.25 C-2.00468444 4.1217954 -1.6085292 2.61385994 0 0 Z " fill="#648BD8" transform="translate(646,234)"/>
<path d="M0 0 C0.66 0 1.32 0 2 0 C3.4606285 2.64738916 4 3.89448334 4 7 C5.65 6.67 7.3 6.34 9 6 C9 6.66 9 7.32 9 8 C6.125 8.125 6.125 8.125 3 8 C0.4345406 5.4345406 0.45953913 3.52313332 0 0 Z " fill="#6F93DB" transform="translate(525,220)"/>
<path d="M0 0 C0.33 0 0.66 0 1 0 C1 4.62 1 9.24 1 14 C0.01 14.33 -0.98 14.66 -2 15 C-2 13.68 -2 12.36 -2 11 C-1.34 11 -0.68 11 0 11 C0 7.37 0 3.74 0 0 Z " fill="#6B90DA" transform="translate(814,247)"/>
<path d="M0 0 C0.33 0 0.66 0 1 0 C1.22036864 3.85645121 0.60355101 6.49223216 -1 10 C-3.31 10 -5.62 10 -8 10 C-8 9.67 -8 9.34 -8 9 C-6.35 8.67 -4.7 8.34 -3 8 C-2.67 6.35 -2.34 4.7 -2 3 C-1.34 3 -0.68 3 0 3 C0 2.01 0 1.02 0 0 Z " fill="#BACBED" transform="translate(811,217)"/>
<path d="M0 0 C0.33 1.32 0.66 2.64 1 4 C1.5775 4.12375 2.155 4.2475 2.75 4.375 C5.02335767 5.00648824 6.9253529 5.88858191 9 7 C5.98968256 7.93423645 5.13349732 8.04449911 2 7 C2 6.34 2 5.68 2 5 C1.34 5 0.68 5 0 5 C0 3.35 0 1.7 0 0 Z " fill="#7799DD" transform="translate(570,259)"/>
<path d="M0 0 C2.35953094 2.35953094 2.49141413 3.77895617 3 7 C3.99 7 4.98 7 6 7 C6 7.99 6 8.98 6 10 C4.125 9.8125 4.125 9.8125 2 9 C0.21715186 5.70173093 0 3.8225249 0 0 Z " fill="#A9BEE9" transform="translate(639,239)"/>
<path d="M0 0 C0.66 0 1.32 0 2 0 C2 0.66 2 1.32 2 2 C2.66 2 3.32 2 4 2 C6.09230769 6.43076923 6.09230769 6.43076923 5.625 9.3125 C5.41875 9.869375 5.2125 10.42625 5 11 C3.15172566 7.3874638 1.44950455 3.7910119 0 0 Z " fill="#668CD9" transform="translate(513,220)"/>
<path d="M0 0 C0.33 0 0.66 0 1 0 C1.66 2.64 2.32 5.28 3 8 C2.34 8 1.68 8 1 8 C1 9.98 1 11.96 1 14 C0.67 14 0.34 14 0 14 C0 9.38 0 4.76 0 0 Z " fill="#88A5E1" transform="translate(473,248)"/>
<path d="M0 0 C-4.77573323 2.61895048 -8.84434881 1.83119431 -14 1 C-14 0.67 -14 0.34 -14 0 C-12.41773035 -0.19627391 -10.83410729 -0.38165538 -9.25 -0.5625 C-8.36828125 -0.66691406 -7.4865625 -0.77132813 -6.578125 -0.87890625 C-4.11567549 -0.99456676 -2.33461936 -0.73638695 0 0 Z " fill="#527DD3" transform="translate(505,269)"/>
<path d="M0 0 C6.875 3.625 6.875 3.625 8 7 C6.68 7 5.36 7 4 7 C0 2.77777778 0 2.77777778 0 0 Z " fill="#80A0DF" transform="translate(727,259)"/>
<path d="M0 0 C4.75207471 -0.43200679 7.78210698 1.01510917 12 3 C9.49981892 4.25009054 8.66064722 3.86733449 6 3.1875 C5.29875 3.01605469 4.5975 2.84460938 3.875 2.66796875 C2 2 2 2 0 0 Z " fill="#DAE3F5" transform="translate(598,213)"/>
<path d="M0 0 C0.33 0 0.66 0 1 0 C1.144375 0.7425 1.28875 1.485 1.4375 2.25 C1.90187492 4.52027739 2.41863569 6.75759479 3 9 C2.01 9.33 1.02 9.66 0 10 C0 6.7 0 3.4 0 0 Z " fill="#E8EEF9" transform="translate(472,227)"/>
</svg>
