<?xml version="1.0" encoding="UTF-8"?>
<svg version="1.1" xmlns="http://www.w3.org/2000/svg" width="320" height="320" fill="#3B82F6">
<path d="M0 0 C105.6 0 211.2 0 320 0 C320 105.6 320 211.2 320 320 C214.4 320 108.8 320 0 320 C0 214.4 0 108.8 0 0 Z " fill="#FDFDFD" transform="translate(0,0)"/>
<path d="M0 0 C15.38672493 11.8133052 27.63880086 28.70162589 30.859375 48.1953125 C31.16203621 52.44878349 31.18415294 56.68241167 31.171875 60.9453125 C31.18798828 62.04875 31.20410156 63.1521875 31.22070312 64.2890625 C31.23277229 84.85492362 22.4166099 102.90878112 8.44921875 117.6953125 C-6.25630397 131.89068888 -25.60700748 138.48950223 -45.73291016 138.44018555 C-66.97421932 138.02316329 -85.52243321 129.41521007 -100.328125 114.0703125 C-116.15950654 95.82652997 -120.16883824 74.99127116 -119.3671875 51.37597656 C-118.05662927 32.97732071 -106.75085004 17.11991087 -93.9375 4.6171875 C-67.03228401 -18.68062523 -29.09999918 -19.42803414 0 0 Z " fill="#FBFAFA" transform="translate(204.140625,97.8046875)"/>
<path d="M0 0 C15.38672493 11.8133052 27.63880086 28.70162589 30.859375 48.1953125 C31.16203621 52.44878349 31.18415294 56.68241167 31.171875 60.9453125 C31.18798828 62.04875 31.20410156 63.1521875 31.22070312 64.2890625 C31.23277229 84.85492362 22.4166099 102.90878112 8.44921875 117.6953125 C-6.25630397 131.89068888 -25.60700748 138.48950223 -45.73291016 138.44018555 C-66.97421932 138.02316329 -85.52243321 129.41521007 -100.328125 114.0703125 C-116.15950654 95.82652997 -120.16883824 74.99127116 -119.3671875 51.37597656 C-118.05662927 32.97732071 -106.75085004 17.11991087 -93.9375 4.6171875 C-67.03228401 -18.68062523 -29.09999918 -19.42803414 0 0 Z M-93.140625 16.1953125 C-107.63055249 33.52430157 -111.56649059 51.11401785 -110.140625 73.1953125 C-108.14811692 89.70979388 -98.07934915 104.73200898 -85.61328125 115.31640625 C-70.11136861 127.09590069 -53.21621578 130.63254137 -34.140625 129.1953125 C-16.44307733 126.11977045 -0.96785776 116.4665507 9.859375 102.1953125 C21.27659965 85.15119391 23.80464003 67.72114199 21.43359375 47.578125 C18.33120602 33.53173146 10.90554583 23.00717031 0.859375 13.1953125 C-0.12675781 12.17824219 -0.12675781 12.17824219 -1.1328125 11.140625 C-12.73000462 -0.05838027 -28.80667241 -4.39661081 -44.515625 -4.2421875 C-46.16751831 -4.22865234 -46.16751831 -4.22865234 -47.8527832 -4.21484375 C-65.17314046 -3.8457529 -81.2613279 3.35096612 -93.140625 16.1953125 Z " fill="#070707" transform="translate(204.140625,97.8046875)"/>
<path d="M0 0 C0.84732193 0.00359528 1.69464386 0.00719055 2.56764221 0.01089478 C3.89922363 0.01067574 3.89922363 0.01067574 5.25770569 0.01045227 C8.20666404 0.01115174 11.15556006 0.01894568 14.10450745 0.02676392 C16.14332037 0.02862798 18.18213374 0.03005194 20.22094727 0.03105164 C25.59844693 0.03487776 30.97591978 0.04470884 36.35340881 0.05575562 C41.83619321 0.06596771 47.31898192 0.07054882 52.80177307 0.07559204 C63.56806093 0.08633103 74.33432883 0.10340858 85.1006012 0.12442017 C85.11266409 1.56784033 85.12127974 3.01128959 85.12843323 4.45474243 C85.13359955 5.2585585 85.13876587 6.06237457 85.14408875 6.89054871 C84.98136692 15.24925488 80.61786716 22.36668716 76.1006012 29.12442017 C75.2343512 30.45473267 75.2343512 30.45473267 74.3506012 31.81192017 C65.74324546 40.65836911 54.84344832 45.61927789 42.5849762 46.32754517 C27.53208996 46.51649353 16.29722741 42.66985388 5.17481995 32.36270142 C-2.64372688 23.92573846 -7.33297789 12.61426607 -6.8993988 1.12442017 C-5.0546798 -0.72029884 -2.45423468 0.00439827 0 0 Z " fill="#020202" transform="translate(120.89939880371094,160.87557983398438)"/>
</svg>
