<svg version="1.1" id="Layer_1" xmlns="http://www.w3.org/2000/svg" xmlns:xlink="http://www.w3.org/1999/xlink" x="0px" y="0px"
	 width="100%" viewBox="0 0 224 224" enable-background="new 0 0 224 224" xml:space="preserve" fill="#3B82F6">
<path fill="#FFFFFF" opacity="1.000000" stroke="none" 
	d="
M150.000000,225.000000 
	C100.000000,225.000000 50.500008,225.000000 1.000007,225.000000 
	C1.000004,150.333344 1.000004,75.666679 1.000002,1.000017 
	C75.666656,1.000011 150.333313,1.000011 224.999969,1.000006 
	C224.999985,75.666649 224.999985,150.333298 225.000000,224.999969 
	C200.166672,225.000000 175.333328,225.000000 150.000000,225.000000 
M64.583092,81.799103 
	C64.379425,88.569069 63.971451,95.340851 64.031967,102.108459 
	C64.087807,108.353233 64.646355,114.593506 64.982208,121.648933 
	C65.132515,122.426979 65.282814,123.205025 65.680916,124.660225 
	C69.287628,143.197815 88.085632,159.562531 105.879486,161.329468 
	C118.507729,161.285690 131.135971,161.241928 144.398132,161.274460 
	C148.331055,159.215530 152.263992,157.156601 156.633362,154.944214 
	C156.917175,154.759933 157.059982,154.498611 157.677719,153.808258 
	C158.790665,150.862762 159.903610,147.917252 161.378464,144.247635 
	C161.402466,123.633461 162.071747,102.992035 161.202545,82.415596 
	C160.700760,70.536896 153.462448,64.714882 140.115875,64.314766 
	C122.159225,63.776443 104.176216,64.097305 86.204597,64.116898 
	C84.745979,64.118492 83.287926,64.639809 81.129646,64.878456 
	C80.053307,65.176758 78.976959,65.475060 77.160522,65.834373 
	C73.752174,68.883774 70.343819,71.933174 66.485733,75.425377 
	C65.975151,77.314278 65.464569,79.203171 64.583092,81.799103 
z"/>
<path fill="#500CFE" opacity="1.000000" stroke="none" 
	d="
M65.433105,123.983063 
	C65.282814,123.205025 65.132515,122.426979 65.028992,120.842499 
	C65.095711,118.674957 65.115654,117.313843 65.359711,115.763565 
	C65.415993,114.724747 65.248161,113.875084 65.047333,112.587456 
	C65.034157,110.101585 65.053970,108.053688 65.416336,106.070816 
	C66.371490,107.399811 66.666283,109.043388 67.648582,109.865776 
	C73.754829,114.977913 80.017952,119.902550 86.221779,124.898392 
	C87.256592,125.731712 88.824654,126.423500 89.175201,127.497620 
	C90.882057,132.727524 94.379295,132.714203 98.647202,131.252777 
	C98.704971,131.347000 98.795059,131.548859 98.586411,131.893616 
	C98.699203,133.688110 99.020638,135.137878 99.485916,137.236359 
	C100.894005,135.491974 101.751808,134.429321 102.744034,133.367081 
	C102.878471,133.367508 103.084076,133.540756 103.038681,133.924545 
	C103.446960,135.932755 103.397888,138.079193 104.444893,139.087555 
	C108.166336,142.671661 112.268410,145.859558 116.212883,149.213318 
	C120.920235,153.215714 124.712341,158.555099 131.459061,159.595718 
	C131.699142,159.632751 131.817444,160.459457 131.533310,160.949127 
	C127.384399,160.960342 123.694679,160.940536 119.918449,160.554382 
	C116.696373,158.020920 113.788872,158.600754 110.646042,160.938507 
	C109.509521,160.899292 108.752655,160.840698 107.917664,160.438324 
	C107.212257,158.635849 106.762985,157.062744 105.916000,155.745331 
	C104.644524,153.767593 103.420372,151.528809 101.599205,150.179840 
	C96.784378,146.613373 90.321686,144.443619 87.000130,139.900818 
	C82.937935,134.345032 76.304901,132.412598 72.573090,127.021759 
	C71.436226,125.379463 70.592781,123.534050 69.053741,120.775902 
	C68.062607,121.653854 66.747856,122.818459 65.433105,123.983063 
z"/>
<path fill="#492CFB" opacity="1.000000" stroke="none" 
	d="
M66.935463,74.982574 
	C70.343819,71.933174 73.752174,68.883774 77.666870,66.130295 
	C79.617004,69.270439 80.410980,72.870300 82.647049,74.793221 
	C86.646118,78.232262 91.556282,80.596977 96.006721,83.530434 
	C99.989052,86.155334 103.865135,88.941414 107.788094,91.656387 
	C107.855293,91.104324 107.922485,90.552261 107.989685,90.000198 
	C111.659065,90.000198 115.328438,90.000198 119.364922,90.159683 
	C122.818535,91.038261 125.905037,91.757370 128.525848,92.514816 
	C123.258141,92.578751 118.425995,92.308136 113.670692,92.792320 
	C112.029961,92.959381 109.756104,94.728691 109.241280,96.260185 
	C108.508934,98.438759 109.513504,100.998291 112.568443,101.013008 
	C118.687973,101.042488 124.808662,100.828606 131.079376,101.005798 
	C131.819305,101.531746 132.408737,101.767097 132.953217,102.373474 
	C131.301010,105.122871 127.901764,106.489426 128.366119,109.964111 
	C122.382042,109.479248 116.719666,109.249435 110.744209,108.893051 
	C108.890221,108.766464 107.349304,108.766464 105.808395,108.766464 
	C106.050774,108.318932 106.293159,107.871391 106.535545,107.423859 
	C105.034058,106.276817 103.532578,105.129776 102.023209,103.555374 
	C101.684593,100.756897 101.353859,98.385773 100.866516,95.722733 
	C98.720474,92.194389 96.219131,91.820328 92.931046,94.046127 
	C91.932571,93.117210 90.869812,91.377991 90.618477,91.488258 
	C87.269005,92.957794 86.845238,90.121529 85.539055,88.398773 
	C85.020226,87.714493 83.942474,87.412209 83.074181,87.041389 
	C77.101799,84.490746 71.627113,81.495682 71.139725,73.946793 
	C71.185059,73.927917 71.092003,73.963280 70.715614,74.136078 
	C69.266678,74.509865 68.101067,74.746216 66.935463,74.982574 
z"/>
<path fill="#5207F9" opacity="1.000000" stroke="none" 
	d="
M65.557007,124.321640 
	C66.747856,122.818459 68.062607,121.653854 69.053741,120.775902 
	C70.592781,123.534050 71.436226,125.379463 72.573090,127.021759 
	C76.304901,132.412598 82.937935,134.345032 87.000130,139.900818 
	C90.321686,144.443619 96.784378,146.613373 101.599205,150.179840 
	C103.420372,151.528809 104.644524,153.767593 105.916000,155.745331 
	C106.762985,157.062744 107.212257,158.635849 107.564255,160.478638 
	C106.583046,160.904083 105.877106,160.945404 105.171173,160.986710 
	C88.085632,159.562531 69.287628,143.197815 65.557007,124.321640 
z"/>
<path fill="#492CFC" opacity="1.000000" stroke="none" 
	d="
M161.016571,144.971756 
	C159.903610,147.917252 158.790665,150.862762 157.351791,153.557968 
	C156.911102,148.133133 153.817429,143.906982 149.128464,141.835266 
	C147.114685,140.945526 144.375214,139.705078 143.785156,137.995773 
	C142.506134,134.290665 140.246414,133.657135 136.972778,133.675995 
	C135.775360,132.231506 134.609146,131.112854 133.393494,129.644196 
	C132.533478,127.946846 131.722900,126.599510 130.911194,124.887093 
	C129.698792,123.053810 128.487503,121.585609 128.035995,121.038345 
	C127.946236,118.991653 127.892082,117.756943 128.009933,116.225388 
	C128.540253,114.619110 128.898560,113.309677 129.547195,111.999886 
	C130.224609,111.999680 130.611694,111.999840 131.281708,112.199844 
	C134.285965,114.019714 137.335083,115.271362 139.658401,117.338692 
	C144.098175,121.289291 148.648010,125.317993 152.146255,130.056854 
	C154.650192,133.448792 157.269241,134.334229 160.959229,134.453003 
	C160.989304,138.264664 161.002930,141.618210 161.016571,144.971756 
z"/>
<path fill="#4634FE" opacity="1.000000" stroke="none" 
	d="
M118.997818,90.000198 
	C115.328438,90.000198 111.659065,90.000198 107.989685,90.000198 
	C107.922485,90.552261 107.855293,91.104324 107.788094,91.656387 
	C103.865135,88.941414 99.989052,86.155334 96.006721,83.530434 
	C91.556282,80.596977 86.646118,78.232262 82.647049,74.793221 
	C80.410980,72.870300 79.617004,69.270439 78.036919,66.099792 
	C78.976959,65.475060 80.053307,65.176758 81.944778,64.954475 
	C85.835487,65.038864 88.911072,65.047226 91.996811,65.416862 
	C93.286484,67.604897 94.297310,69.722221 95.897659,71.202003 
	C100.104294,75.091705 104.506271,78.779030 108.948898,82.401672 
	C112.201294,85.053772 115.641388,87.475685 118.997818,90.000198 
z"/>
<path fill="#572AFD" opacity="1.000000" stroke="none" 
	d="
M156.196915,155.097672 
	C152.263992,157.156601 148.331055,159.215530 143.782181,161.153076 
	C142.126358,160.992493 141.086472,160.953308 140.304016,160.661041 
	C142.027710,160.020935 143.493958,159.633896 144.960220,159.246841 
	C143.906265,157.449203 142.602585,156.973679 141.518906,156.192825 
	C137.303894,153.155655 132.595322,150.544357 129.120697,146.799973 
	C124.011162,141.293747 119.209099,135.880386 111.146881,135.073242 
	C109.031288,134.861450 106.949081,134.316086 105.130676,133.590607 
	C112.523270,133.289139 119.638992,133.430801 126.748741,133.283707 
	C128.794937,133.241379 130.823914,132.366745 132.899200,132.242828 
	C133.247986,133.965073 133.558365,135.318207 133.938278,136.974457 
	C132.380569,136.804474 130.871002,136.639740 128.270676,136.355972 
	C129.474014,138.186523 129.914536,139.512451 130.832230,140.134918 
	C134.142334,142.380112 137.643158,144.341415 141.016129,146.497269 
	C145.925415,149.635101 149.289200,155.486572 156.196915,155.097672 
z"/>
<path fill="#4C5AF4" opacity="1.000000" stroke="none" 
	d="
M91.986656,65.055588 
	C88.911072,65.047226 85.835487,65.038864 82.294754,64.975060 
	C83.287926,64.639809 84.745979,64.118492 86.204597,64.116898 
	C104.176216,64.097305 122.159225,63.776443 140.115875,64.314766 
	C153.462448,64.714882 160.700760,70.536896 161.202545,82.415596 
	C162.071747,102.992035 161.402466,123.633461 161.197510,144.609695 
	C161.002930,141.618210 160.989304,138.264664 160.979340,133.990784 
	C160.971085,129.050171 160.959167,125.029900 160.962021,120.570755 
	C160.967407,118.082741 160.958023,116.033592 160.962524,113.525688 
	C160.959290,109.380249 160.942169,105.693558 160.945496,101.538528 
	C160.968155,96.583298 161.459991,92.019821 160.774887,87.640450 
	C160.408585,85.298904 158.343475,82.908401 156.449417,81.200592 
	C154.104675,79.086426 150.187729,78.271797 148.612854,75.825310 
	C142.012833,65.572655 132.606628,63.406075 121.484695,65.000183 
	C120.342735,65.163857 119.161552,65.053764 117.531311,65.055710 
	C111.712700,65.045876 106.361328,65.051018 100.559311,65.042374 
	C97.401321,65.037582 94.693993,65.046585 91.986656,65.055588 
z"/>
<path fill="#4A23FD" opacity="1.000000" stroke="none" 
	d="
M156.415131,155.020935 
	C149.289200,155.486572 145.925415,149.635101 141.016129,146.497269 
	C137.643158,144.341415 134.142334,142.380112 130.832230,140.134918 
	C129.914536,139.512451 129.474014,138.186523 128.270676,136.355972 
	C130.871002,136.639740 132.380569,136.804474 133.938278,136.974457 
	C133.558365,135.318207 133.247986,133.965073 132.906860,132.266083 
	C132.876114,131.920227 132.850342,131.888535 133.187805,131.960846 
	C134.349655,133.027512 135.174026,134.021866 136.025787,135.278870 
	C136.242691,135.744598 136.432220,135.947662 136.621765,136.150726 
	C136.748352,135.434967 136.874939,134.719208 137.000763,134.001724 
	C137.000000,134.000000 137.003952,134.001816 137.003952,134.001816 
	C140.246414,133.657135 142.506134,134.290665 143.785156,137.995773 
	C144.375214,139.705078 147.114685,140.945526 149.128464,141.835266 
	C153.817429,143.906982 156.911102,148.133133 157.043823,153.733963 
	C157.059982,154.498611 156.917175,154.759933 156.415131,155.020935 
z"/>
<path fill="#532CFE" opacity="1.000000" stroke="none" 
	d="
M66.710602,75.203979 
	C68.101067,74.746216 69.266678,74.509865 70.716141,74.136749 
	C71.000000,74.000000 71.001335,74.001038 71.001335,74.001038 
	C71.627113,81.495682 77.101799,84.490746 83.074181,87.041389 
	C83.942474,87.412209 85.020226,87.714493 85.539055,88.398773 
	C86.845238,90.121529 87.269005,92.957794 90.618477,91.488258 
	C90.869812,91.377991 91.932571,93.117210 92.846390,94.305481 
	C92.865219,95.103043 92.655792,95.591805 92.096008,96.224594 
	C91.492722,97.573975 91.239792,98.779320 90.575607,99.989464 
	C86.459259,100.513977 84.313957,98.607445 81.769974,95.991913 
	C77.428757,91.528618 72.169518,87.955490 67.259521,84.054230 
	C66.926147,83.789337 66.288887,83.906914 65.795013,83.536835 
	C65.516052,82.515404 65.235023,81.803734 64.953987,81.092072 
	C65.464569,79.203171 65.975151,77.314278 66.710602,75.203979 
z"/>
<path fill="#5D4ABE" opacity="1.000000" stroke="none" 
	d="
M64.768539,81.445587 
	C65.235023,81.803734 65.516052,82.515404 65.560791,83.866341 
	C65.235184,87.005669 65.145859,89.505730 65.030983,92.469460 
	C65.028221,97.290688 65.051003,101.648232 65.073792,106.005783 
	C65.053970,108.053688 65.034157,110.101585 65.015930,112.953156 
	C65.056885,114.488792 65.096237,115.220764 65.135597,115.952728 
	C65.115654,117.313843 65.095711,118.674957 65.029633,120.435913 
	C64.646355,114.593506 64.087807,108.353233 64.031967,102.108459 
	C63.971451,95.340851 64.379425,88.569069 64.768539,81.445587 
z"/>
<path fill="#5D4ABE" opacity="1.000000" stroke="none" 
	d="
M140.046600,160.914108 
	C141.086472,160.953308 142.126358,160.992493 143.465225,161.114914 
	C131.135971,161.241928 118.507729,161.285690 105.525330,161.158081 
	C105.877106,160.945404 106.583046,160.904083 107.642387,160.822433 
	C108.752655,160.840698 109.509521,160.899292 111.091896,160.976837 
	C114.613266,160.970764 117.309113,160.945740 120.004967,160.920731 
	C123.694679,160.940536 127.384399,160.960342 131.978302,160.985107 
	C135.270538,160.964767 137.658569,160.939438 140.046600,160.914108 
z"/>
<path fill="#F9F7FB" opacity="1.000000" stroke="none" 
	d="
M92.446365,96.080559 
	C92.655792,95.591805 92.865219,95.103043 93.159309,94.354927 
	C96.219131,91.820328 98.720474,92.194389 100.809723,96.162582 
	C100.958000,99.260635 101.006470,101.626938 100.981201,104.433914 
	C100.954872,107.255432 101.002274,109.636269 100.992096,112.443321 
	C101.310951,115.570030 101.687408,118.270538 102.162216,121.319016 
	C104.858315,122.799828 107.397781,124.714317 110.065163,124.913185 
	C116.984177,125.429054 123.959473,125.189941 130.912308,125.252167 
	C131.722900,126.599510 132.533478,127.946846 133.230896,129.936371 
	C133.028595,131.015213 132.939468,131.451874 132.850342,131.888535 
	C132.850342,131.888535 132.876114,131.920227 132.868454,131.896973 
	C130.823914,132.366745 128.794937,133.241379 126.748741,133.283707 
	C119.638992,133.430801 112.523270,133.289139 104.830643,133.554337 
	C103.862328,133.747833 103.473206,133.644287 103.084076,133.540756 
	C103.084076,133.540756 102.878471,133.367508 102.500397,133.188705 
	C101.013229,132.522888 99.904144,132.035873 98.795059,131.548859 
	C98.795059,131.548859 98.704971,131.347000 98.535088,130.951813 
	C96.507835,127.034790 94.650475,123.512939 92.809044,119.740479 
	C92.742981,119.343910 92.660995,119.197952 92.599380,118.621368 
	C92.561958,110.820671 92.504158,103.450615 92.446365,96.080559 
z"/>
<path fill="#4E14FE" opacity="1.000000" stroke="none" 
	d="
M103.038681,133.924545 
	C103.473206,133.644287 103.862328,133.747833 104.551498,133.887634 
	C106.949081,134.316086 109.031288,134.861450 111.146881,135.073242 
	C119.209099,135.880386 124.011162,141.293747 129.120697,146.799973 
	C132.595322,150.544357 137.303894,153.155655 141.518906,156.192825 
	C142.602585,156.973679 143.906265,157.449203 144.960220,159.246841 
	C143.493958,159.633896 142.027710,160.020935 140.304016,160.661041 
	C137.658569,160.939438 135.270538,160.964767 132.437500,160.954102 
	C131.817444,160.459457 131.699142,159.632751 131.459061,159.595718 
	C124.712341,158.555099 120.920235,153.215714 116.212883,149.213318 
	C112.268410,145.859558 108.166336,142.671661 104.444893,139.087555 
	C103.397888,138.079193 103.446960,135.932755 103.038681,133.924545 
z"/>
<path fill="#4E14FE" opacity="1.000000" stroke="none" 
	d="
M92.793114,119.991081 
	C94.650475,123.512939 96.507835,127.034790 98.477310,130.857605 
	C94.379295,132.714203 90.882057,132.727524 89.175201,127.497620 
	C88.824654,126.423500 87.256592,125.731712 86.221779,124.898392 
	C80.017952,119.902550 73.754829,114.977913 67.648582,109.865776 
	C66.666283,109.043388 66.371490,107.399811 65.416336,106.070816 
	C65.051003,101.648232 65.028221,97.290688 65.381866,92.510345 
	C66.774933,93.309708 68.347252,94.388191 68.707161,95.780159 
	C69.934311,100.526253 72.898552,103.457863 77.101418,105.655975 
	C78.759850,106.523346 79.841537,108.426964 81.385818,109.594154 
	C83.913544,111.504662 85.665390,115.612961 90.215523,112.889893 
	C90.693237,112.598343 90.873138,112.347061 90.977936,111.593597 
	C90.985565,109.092422 90.983322,107.032578 90.983788,104.735107 
	C90.986496,104.497482 90.985168,104.022202 90.990417,103.618736 
	C90.992737,102.138405 90.989799,101.061539 90.986862,99.984673 
	C91.239792,98.779320 91.492722,97.573975 92.096001,96.224594 
	C92.504158,103.450615 92.561958,110.820671 92.488220,118.734482 
	C92.288017,119.628380 92.433495,119.865990 92.793114,119.991081 
z"/>
<path fill="#5207F9" opacity="1.000000" stroke="none" 
	d="
M119.918449,160.554382 
	C117.309113,160.945740 114.613266,160.970764 111.471558,160.957458 
	C113.788872,158.600754 116.696373,158.020920 119.918449,160.554382 
z"/>
<path fill="#4E14FE" opacity="1.000000" stroke="none" 
	d="
M98.586411,131.893616 
	C99.904144,132.035873 101.013229,132.522888 102.365959,133.188278 
	C101.751808,134.429321 100.894005,135.491974 99.485916,137.236359 
	C99.020638,135.137878 98.699203,133.688110 98.586411,131.893616 
z"/>
<path fill="#5207F9" opacity="1.000000" stroke="none" 
	d="
M65.359711,115.763565 
	C65.096237,115.220764 65.056885,114.488792 65.048927,113.391129 
	C65.248161,113.875084 65.415993,114.724747 65.359711,115.763565 
z"/>
<path fill="#4840FD" opacity="1.000000" stroke="none" 
	d="
M160.948639,113.984436 
	C160.958023,116.033592 160.967407,118.082741 160.615112,120.529816 
	C151.440903,115.172607 143.266327,108.671318 135.774307,100.730110 
	C135.261505,100.965134 134.129837,101.483780 132.998169,102.002441 
	C132.408737,101.767097 131.819305,101.531746 131.304062,100.723969 
	C134.448685,95.904900 133.983200,94.407982 128.991547,92.476471 
	C125.905037,91.757370 122.818535,91.038261 119.364922,90.159683 
	C115.641388,87.475685 112.201294,85.053772 108.948898,82.401672 
	C104.506271,78.779030 100.104294,75.091705 95.897659,71.202003 
	C94.297310,69.722221 93.286484,67.604897 91.996811,65.416870 
	C94.693993,65.046585 97.401321,65.037582 100.559784,65.403625 
	C102.799698,68.052536 104.220894,70.808220 106.448105,72.507431 
	C112.469215,77.101112 118.773781,81.335098 125.093178,85.519554 
	C127.304817,86.984009 129.987427,87.722839 132.268265,89.101837 
	C133.984467,90.139458 135.636078,91.481216 136.890091,93.032288 
	C138.229477,94.688972 138.633148,97.301666 140.201172,98.539429 
	C146.965836,103.879257 154.007690,108.867943 160.948639,113.984436 
z"/>
<path fill="#4636FE" opacity="1.000000" stroke="none" 
	d="
M132.953217,102.373474 
	C134.129837,101.483780 135.261505,100.965134 135.774307,100.730110 
	C143.266327,108.671318 151.440903,115.172607 160.600342,120.968674 
	C160.959167,125.029900 160.971085,129.050171 160.962875,133.532684 
	C157.269241,134.334229 154.650192,133.448792 152.146255,130.056854 
	C148.648010,125.317993 144.098175,121.289291 139.658401,117.338692 
	C137.335083,115.271362 134.285965,114.019714 131.229843,111.859100 
	C130.168152,110.949722 129.441238,110.580940 128.708832,110.194809 
	C128.703323,110.177460 128.687805,110.219154 128.687805,110.219154 
	C127.901764,106.489426 131.301010,105.122871 132.953217,102.373474 
z"/>
<path fill="#4A23FD" opacity="1.000000" stroke="none" 
	d="
M101.049683,112.017113 
	C101.002274,109.636269 100.954872,107.255432 101.225296,104.436646 
	C101.543129,103.998703 102.031090,103.982742 102.031090,103.982742 
	C103.532578,105.129776 105.034058,106.276817 106.535545,107.423859 
	C106.293159,107.871391 106.050774,108.318932 105.808395,108.766464 
	C107.349304,108.766464 108.890221,108.766464 110.538651,109.188553 
	C108.366859,113.273041 109.082581,117.173141 112.194626,117.193924 
	C117.407333,117.228714 122.623329,116.772064 127.837936,116.522240 
	C127.892082,117.756943 127.946236,118.991653 128.035995,121.038345 
	C128.487503,121.585609 129.698792,123.053810 130.911194,124.887093 
	C123.959473,125.189941 116.984177,125.429054 110.065163,124.913185 
	C107.397781,124.714317 104.858315,122.799828 102.425812,121.076576 
	C102.077271,117.663139 101.563477,114.840126 101.049683,112.017113 
z"/>
<path fill="#F9F7FB" opacity="1.000000" stroke="none" 
	d="
M128.525848,92.514816 
	C133.983200,94.407982 134.448685,95.904900 131.153564,100.433365 
	C124.808662,100.828606 118.687973,101.042488 112.568443,101.013008 
	C109.513504,100.998291 108.508934,98.438759 109.241280,96.260185 
	C109.756104,94.728691 112.029961,92.959381 113.670692,92.792320 
	C118.425995,92.308136 123.258141,92.578751 128.525848,92.514816 
z"/>
<path fill="#F9F7FB" opacity="1.000000" stroke="none" 
	d="
M128.009933,116.225388 
	C122.623329,116.772064 117.407333,117.228714 112.194626,117.193924 
	C109.082581,117.173141 108.366859,113.273041 110.851730,109.315140 
	C116.719666,109.249435 122.382042,109.479248 128.366119,109.964111 
	C128.687805,110.219154 128.703323,110.177460 128.759003,110.503540 
	C128.962082,111.219833 129.109482,111.610046 129.256866,112.000252 
	C128.898560,113.309677 128.540253,114.619110 128.009933,116.225388 
z"/>
<path fill="#4E14FE" opacity="1.000000" stroke="none" 
	d="
M102.023209,103.555374 
	C102.031090,103.982742 101.543129,103.998703 101.299042,103.995972 
	C101.006470,101.626938 100.958000,99.260635 100.966324,96.454498 
	C101.353859,98.385773 101.684593,100.756897 102.023209,103.555374 
z"/>
<path fill="#532CFE" opacity="1.000000" stroke="none" 
	d="
M70.999474,73.999321 
	C71.092003,73.963280 71.185059,73.927917 71.139725,73.946793 
	C71.001335,74.001038 71.000000,74.000000 70.999474,73.999321 
z"/>
<path fill="#572AFD" opacity="1.000000" stroke="none" 
	d="
M133.187805,131.960846 
	C132.939468,131.451874 133.028595,131.015213 133.280319,130.286377 
	C134.609146,131.112854 135.775360,132.231506 136.972778,133.675995 
	C137.003952,134.001816 137.000000,134.000000 136.779999,134.111084 
	C136.285278,134.424942 136.098083,134.689621 135.998398,135.016205 
	C135.174026,134.021866 134.349655,133.027512 133.187805,131.960846 
z"/>
<path fill="#492CFB" opacity="1.000000" stroke="none" 
	d="
M129.547211,111.999886 
	C129.109482,111.610046 128.962082,111.219833 128.764496,110.520889 
	C129.441238,110.580940 130.168152,110.949722 130.946930,111.659256 
	C130.611694,111.999840 130.224609,111.999680 129.547211,111.999886 
z"/>
<path fill="#4241FE" opacity="1.000000" stroke="none" 
	d="
M160.962524,113.525688 
	C154.007690,108.867943 146.965836,103.879257 140.201172,98.539429 
	C138.633148,97.301666 138.229477,94.688972 136.890091,93.032288 
	C135.636078,91.481216 133.984467,90.139458 132.268265,89.101837 
	C129.987427,87.722839 127.304817,86.984009 125.093178,85.519554 
	C118.773781,81.335098 112.469215,77.101112 106.448105,72.507431 
	C104.220894,70.808220 102.799698,68.052536 101.010437,65.417419 
	C106.361328,65.051018 111.712700,65.045876 117.572556,65.402580 
	C120.449295,68.844810 122.517494,72.226097 125.245186,74.945999 
	C131.935562,81.617233 142.115082,84.098686 147.067322,92.935661 
	C147.137146,93.060265 147.342941,93.174942 147.489639,93.180550 
	C152.131836,93.358032 153.803284,97.417908 156.633560,100.014397 
	C157.741165,101.030510 159.475922,101.363014 160.925034,102.006866 
	C160.942169,105.693558 160.959290,109.380249 160.962524,113.525688 
z"/>
<path fill="#3F49FF" opacity="1.000000" stroke="none" 
	d="
M160.945496,101.538528 
	C159.475922,101.363014 157.741165,101.030510 156.633560,100.014397 
	C153.803284,97.417908 152.131836,93.358032 147.489639,93.180550 
	C147.342941,93.174942 147.137146,93.060265 147.067322,92.935661 
	C142.115082,84.098686 131.935562,81.617233 125.245186,74.945999 
	C122.517494,72.226097 120.449295,68.844810 118.039810,65.417557 
	C119.161552,65.053764 120.342735,65.163857 121.484695,65.000183 
	C132.606628,63.406075 142.012833,65.572655 148.612854,75.825310 
	C150.187729,78.271797 154.104675,79.086426 156.449417,81.200592 
	C158.343475,82.908401 160.408585,85.298904 160.774887,87.640450 
	C161.459991,92.019821 160.968155,96.583298 160.945496,101.538528 
z"/>
<path fill="#492CFC" opacity="1.000000" stroke="none" 
	d="
M136.025787,135.278870 
	C136.098083,134.689621 136.285278,134.424942 136.780762,134.112808 
	C136.874939,134.719208 136.748352,135.434967 136.621765,136.150726 
	C136.432220,135.947662 136.242691,135.744598 136.025787,135.278870 
z"/>
<path fill="#4C1CFE" opacity="1.000000" stroke="none" 
	d="
M90.981079,104.972740 
	C90.983322,107.032578 90.985565,109.092422 90.765709,111.693619 
	C90.281876,112.428703 90.101578,112.680710 90.002693,112.990997 
	C85.665390,115.612961 83.913544,111.504662 81.385818,109.594154 
	C79.841537,108.426964 78.759850,106.523346 77.101418,105.655975 
	C72.898552,103.457863 69.934311,100.526253 68.707161,95.780159 
	C68.347252,94.388191 66.774933,93.309708 65.407410,92.046661 
	C65.145859,89.505730 65.235184,87.005669 65.558731,84.176117 
	C66.288887,83.906914 66.926147,83.789337 67.259521,84.054230 
	C72.169518,87.955490 77.428757,91.528618 81.769974,95.991913 
	C84.313957,98.607445 86.459259,100.513977 90.575607,99.989464 
	C90.989799,101.061539 90.992737,102.138405 90.826736,103.700439 
	C90.595757,104.289429 90.457817,104.453636 90.484360,104.487000 
	C90.627411,104.666832 90.811287,104.814186 90.981079,104.972740 
z"/>
<path fill="#4E14FE" opacity="1.000000" stroke="none" 
	d="
M100.992096,112.443321 
	C101.563477,114.840126 102.077271,117.663139 102.327469,120.728592 
	C101.687408,118.270538 101.310951,115.570030 100.992096,112.443321 
z"/>
<path fill="#532CFE" opacity="1.000000" stroke="none" 
	d="
M92.809044,119.740479 
	C92.433495,119.865990 92.288017,119.628380 92.467842,119.165123 
	C92.660995,119.197952 92.742981,119.343910 92.809044,119.740479 
z"/>
<path fill="#532CFE" opacity="1.000000" stroke="none" 
	d="
M90.215523,112.889893 
	C90.101578,112.680710 90.281876,112.428703 90.755829,112.134949 
	C90.873138,112.347061 90.693237,112.598343 90.215523,112.889893 
z"/>
<path fill="#532CFE" opacity="1.000000" stroke="none" 
	d="
M90.983788,104.735107 
	C90.811287,104.814186 90.627411,104.666832 90.484360,104.487000 
	C90.457817,104.453636 90.595757,104.289429 90.821480,104.103912 
	C90.985168,104.022202 90.986496,104.497482 90.983788,104.735107 
z"/>
</svg>