<svg version="1.1" id="Layer_1" xmlns="http://www.w3.org/2000/svg" xmlns:xlink="http://www.w3.org/1999/xlink" x="0px" y="0px"
	 width="100%" viewBox="0 0 200 200" enable-background="new 0 0 200 200" xml:space="preserve" fill="#3B82F6">
<path fill="#FDFF37" opacity="1.000000" stroke="none" 
	d="
M138.000000,201.000000 
	C92.000000,201.000000 46.500004,201.000000 1.000006,201.000000 
	C1.000004,134.333344 1.000004,67.666679 1.000002,1.000015 
	C67.666656,1.000010 134.333313,1.000010 200.999969,1.000005 
	C200.999985,67.666649 200.999985,134.333298 201.000000,200.999969 
	C180.166672,201.000000 159.333328,201.000000 138.000000,201.000000 
M137.619949,72.729774 
	C137.287048,72.675377 136.954147,72.620987 136.485870,72.589035 
	C136.485870,72.589035 136.387039,72.493820 136.705963,71.589149 
	C137.332657,67.879852 137.644699,64.928825 132.112305,64.749992 
	C128.727722,64.640587 124.505074,63.396858 122.272415,61.096462 
	C118.977936,57.702049 115.894020,56.992825 111.877106,58.187424 
	C111.877106,58.187424 111.873878,58.274632 111.594589,57.716270 
	C111.034576,57.498264 110.474571,57.280254 109.998367,57.005627 
	C109.998367,57.005627 109.926590,57.077145 110.236618,56.454288 
	C111.050575,54.921665 111.864532,53.389042 112.597923,52.008118 
	C108.121300,52.008118 103.969696,51.671425 99.893822,52.083618 
	C93.038261,52.776917 88.141296,56.852531 84.161942,62.278736 
	C84.161942,62.278736 84.237251,62.266582 83.450706,62.120678 
	C81.378822,63.511688 79.306946,64.902695 77.029800,66.138657 
	C77.029800,66.138657 77.256561,66.260086 76.494919,66.121597 
	C75.304329,66.970619 74.113739,67.819641 72.524719,69.084702 
	C71.990921,69.297523 71.457115,69.510338 70.431068,69.413849 
	C68.143646,69.815727 65.856224,70.217606 63.093307,70.703026 
	C63.140671,71.471062 63.228924,72.902115 63.274261,74.110489 
	C63.274261,74.110489 63.276985,74.337212 62.530216,74.177132 
	C61.776199,74.891205 61.022182,75.605278 60.163162,76.170532 
	C60.163162,76.170532 60.313450,76.273407 59.496990,76.225723 
	C57.881084,76.545372 56.223324,76.737778 54.670334,77.248680 
	C54.067890,77.446861 53.343601,78.356857 53.329910,78.957527 
	C53.316273,79.555786 54.073631,80.655365 54.579273,80.708153 
	C60.803162,81.357971 64.277367,85.186638 65.888138,90.242218 
	C68.615105,89.282051 70.946922,88.461021 73.290894,87.737625 
	C73.290894,87.737625 73.345703,87.655914 73.246696,88.383369 
	C77.747070,93.230186 82.633583,97.475121 89.616638,99.054848 
	C90.530357,102.135300 91.406639,105.733864 96.405289,104.583832 
	C96.715508,104.512459 97.419655,106.153252 97.111549,106.999260 
	C94.115791,106.867722 90.550186,107.708778 88.262650,106.368500 
	C85.114258,104.523834 84.275406,105.956055 82.327759,107.973770 
	C78.401367,105.706726 73.406662,104.269463 70.830956,100.953323 
	C67.902847,97.183472 65.342873,97.888306 61.500778,98.798553 
	C61.335632,98.868820 61.170486,98.939087 61.104282,98.786934 
	C61.104282,98.786934 61.017124,98.559494 60.748829,98.410027 
	C60.413719,98.363091 60.166233,98.495407 59.730659,99.077087 
	C59.730659,99.077087 59.351875,99.151291 58.698193,99.607353 
	C58.461575,107.251198 58.538807,114.922798 57.865959,122.528053 
	C57.486458,126.817635 58.926472,128.305908 63.143650,128.745911 
	C66.659775,133.187439 71.166664,135.783752 77.121376,136.766006 
	C80.359528,139.108704 82.841751,141.726349 84.111534,145.895828 
	C84.811134,148.193039 88.095352,149.737564 90.309418,151.502121 
	C90.643219,151.768158 91.496872,151.381943 92.277969,151.274292 
	C92.010643,149.865585 91.794716,148.727737 91.578789,147.589890 
	C91.835648,147.480194 92.092506,147.370499 92.349365,147.260788 
	C93.444252,148.743195 94.539146,150.225586 95.474518,151.492020 
	C99.633438,150.497711 103.657806,150.101013 107.171219,148.548187 
	C111.283157,146.730835 114.866676,143.754852 118.838318,141.570389 
	C121.613968,140.043716 124.650841,138.487091 127.616447,141.467865 
	C127.683434,141.535187 128.141052,141.213821 128.482895,141.039978 
	C128.034103,139.717667 127.579880,138.379379 127.016418,136.719223 
	C129.044617,135.830276 131.041534,134.117126 132.552475,134.472168 
	C135.446808,135.152283 138.001480,136.759583 139.003571,132.363022 
	C139.598618,129.752335 144.943527,130.262375 143.492355,125.790970 
	C143.730377,125.576576 143.927048,125.329300 144.578644,124.376678 
	C144.720016,108.904099 144.861404,93.431519 144.738342,77.461403 
	C144.198700,76.947952 143.659073,76.434502 142.878296,75.256020 
	C141.847397,74.935188 140.816498,74.614357 139.889969,74.025116 
	C139.889969,74.025116 139.813812,74.302589 139.558548,73.732597 
	C138.996353,73.532600 138.434143,73.332596 137.947250,73.059250 
	C137.947250,73.059250 137.925369,73.162071 137.619949,72.729774 
M53.507591,118.256523 
	C52.886433,118.835197 52.265274,119.413864 51.644119,119.992538 
	C52.163662,120.271332 52.683205,120.550125 53.202744,120.828918 
	C53.505928,120.036133 53.809109,119.243347 53.507591,118.256523 
M141.555695,69.382553 
	C141.154785,68.437248 140.753876,67.491943 140.352966,66.546638 
	C139.780563,67.913681 140.056427,68.999519 140.429657,70.050774 
	C140.460922,70.138832 141.147583,69.994186 141.555695,69.382553 
M53.493729,106.754471 
	C53.780514,106.468346 54.067299,106.182220 54.354084,105.896095 
	C53.999531,105.695732 53.644978,105.495369 53.290428,105.295006 
	C53.189739,105.741615 53.089054,106.188225 53.493729,106.754471 
M69.995522,91.368950 
	C70.096245,91.813972 70.196968,92.259003 70.297691,92.704025 
	C70.651901,92.504959 71.006111,92.305893 71.360321,92.106819 
	C71.074188,91.821030 70.788055,91.535240 69.995522,91.368950 
M49.559284,91.761452 
	C49.818581,91.943306 50.077881,92.125160 50.337177,92.307022 
	C50.171101,92.037392 50.005024,91.767754 49.559284,91.761452 
z"/>
<path fill="#1A261D" opacity="1.000000" stroke="none" 
	d="
M61.005337,99.009361 
	C61.170486,98.939087 61.335632,98.868820 62.059242,98.921425 
	C64.412025,100.350189 66.206345,101.656090 68.216156,103.189438 
	C69.028023,103.540726 69.624397,103.664574 70.177872,103.803055 
	C70.134972,103.817688 70.132645,103.727051 70.277863,104.002510 
	C70.983147,104.491959 71.543205,104.705940 72.073257,104.946625 
	C72.043251,104.973328 72.045036,104.893021 72.219528,105.135048 
	C72.939438,105.575783 73.484856,105.774490 74.016739,105.987724 
	C74.003197,106.002258 74.018677,105.967087 74.200211,106.191422 
	C74.732193,106.562599 75.082626,106.709450 75.767929,106.907852 
	C83.049095,111.108902 89.981392,115.282433 96.973389,119.353455 
	C97.436668,119.623207 98.354294,119.112625 99.264046,118.947876 
	C99.582146,118.599800 99.696785,118.268837 99.740501,117.577133 
	C99.496010,115.810471 99.322426,114.404541 99.457291,112.900871 
	C99.560776,111.537788 99.355804,110.272446 99.087502,108.593445 
	C98.652672,105.847641 98.281166,103.515495 97.834274,100.937469 
	C97.148277,100.533478 96.537674,100.375359 95.699982,100.129059 
	C95.143173,99.907043 94.942436,99.665855 94.722496,99.037491 
	C94.000816,98.541565 93.427330,98.325478 92.892075,98.099098 
	C92.930298,98.088806 92.926613,98.167900 92.790466,97.850052 
	C91.664970,97.139648 90.675629,96.747101 89.770889,96.293198 
	C89.855492,96.231850 89.730583,96.399429 89.652283,96.045418 
	C88.336998,95.165535 87.100006,94.639664 85.914497,94.074066 
	C85.965973,94.034348 85.895470,94.143616 85.927574,93.791107 
	C85.981239,92.967216 86.002808,92.495819 86.440384,92.004082 
	C87.682037,91.866867 88.507675,91.750000 89.263855,91.675659 
	C89.194389,91.718201 89.280457,91.579895 89.352722,91.939735 
	C90.678169,92.811356 91.931358,93.323128 93.142502,93.847534 
	C93.100471,93.860176 93.095657,93.772530 93.248383,94.040558 
	C93.957619,94.523109 94.514114,94.737633 95.045731,94.975128 
	C95.020851,94.998116 95.026291,94.930588 95.234482,95.158249 
	C95.823647,95.528404 96.204628,95.670898 96.727081,95.808189 
	C96.868561,95.802986 97.008057,96.049393 97.196243,96.257103 
	C97.729057,96.598099 98.073692,96.731384 98.666000,96.890335 
	C99.311607,97.184738 99.709549,97.453468 100.259521,97.990631 
	C101.258629,98.119995 102.105690,97.980934 102.948074,97.881760 
	C102.943390,97.921654 102.865807,97.900833 103.179451,97.887604 
	C103.960854,97.503433 104.428604,97.132484 104.892326,96.822159 
	C104.888298,96.882774 104.769897,96.855522 105.017326,96.791237 
	C105.508995,96.496437 105.753242,96.265930 106.062698,95.912384 
	C106.127922,95.789345 106.403526,95.829475 106.706696,95.769188 
	C107.329025,95.458519 107.648178,95.208138 107.983658,94.978722 
	C108.000000,94.999695 107.967003,94.956848 108.271477,94.928413 
	C109.022804,94.523087 109.469650,94.146187 110.052109,93.551201 
	C110.668091,93.174004 111.148460,93.014900 111.971085,92.845474 
	C112.754814,92.386894 113.196274,91.938644 113.659180,91.603973 
	C113.680634,91.717552 113.574333,91.512268 113.919319,91.607513 
	C115.171051,91.468117 116.077789,91.233475 117.236954,91.130356 
	C117.978142,91.825706 118.466896,92.389526 118.671509,92.994637 
	C117.905762,93.325554 117.424164,93.615166 116.655258,93.957336 
	C115.869217,94.297249 115.370491,94.584618 114.598640,94.947090 
	C113.861069,95.332695 113.396629,95.643204 112.742294,96.103378 
	C112.307518,96.472160 112.119507,96.732361 111.927483,97.139107 
	C111.866600,97.244553 111.636024,97.166229 111.319366,97.244583 
	C110.693169,97.617111 110.383629,97.911293 110.082817,98.158737 
	C110.091537,98.112007 110.180321,98.146011 109.862076,98.148338 
	C109.076134,98.528183 108.608429,98.905693 108.145477,99.237381 
	C108.150230,99.191559 108.234344,99.229172 107.908676,99.218407 
	C107.165169,99.631668 106.747322,100.055702 106.234581,100.379349 
	C106.139687,100.278969 106.366943,100.436066 106.119507,100.409340 
	C105.526672,100.435127 105.247574,100.599930 104.748749,101.003555 
	C103.938889,101.764229 103.415085,102.398361 102.669739,103.336777 
	C102.588516,106.084175 102.728836,108.527298 102.934944,111.310226 
	C102.959297,112.107735 102.917847,112.565430 102.685074,113.231750 
	C102.617508,114.283180 102.741257,115.125969 102.923561,116.231949 
	C102.946075,116.671234 102.910034,116.847336 102.706009,117.189133 
	C102.667183,117.883057 102.796341,118.411270 103.129578,119.206924 
	C106.214218,117.987373 109.094795,116.500381 112.338943,115.018936 
	C114.288208,114.214249 115.873894,113.404030 117.507080,112.571716 
	C117.554573,112.549622 117.604515,112.457535 117.828438,112.266312 
	C118.429214,111.398445 118.806061,110.721802 119.494202,110.044388 
	C120.220245,110.059082 120.634979,110.074547 121.043488,110.464508 
	C121.454842,111.945007 121.872429,113.051003 122.054092,114.438515 
	C117.596008,117.159332 113.423424,119.690376 109.135391,122.007790 
	C105.930344,123.739906 102.973717,127.592896 98.886574,125.304802 
	C89.102760,119.827545 79.568825,113.903931 69.774284,107.905357 
	C69.068398,107.438461 68.522255,107.226707 67.986214,107.005722 
	C67.996315,106.996483 67.990822,107.021721 67.883713,106.794510 
	C67.165527,106.443375 66.554451,106.319443 65.704781,106.118423 
	C64.755867,106.010330 64.045540,105.979324 63.022358,106.224731 
	C62.779659,109.995567 62.849815,113.489975 62.940361,117.386879 
	C63.373756,119.441444 63.786770,121.093521 64.498016,122.868393 
	C65.866028,123.707497 66.935799,124.423798 68.161781,125.323013 
	C68.568344,125.726845 68.860069,125.848885 69.142761,125.880379 
	C69.092369,125.888702 69.093117,125.786545 69.243484,126.053658 
	C69.947128,126.535393 70.500404,126.750015 71.032104,126.984215 
	C71.010521,127.003792 71.023239,126.946953 71.188835,127.156876 
	C71.687080,127.473808 72.019722,127.580818 72.291855,127.698936 
	C72.231331,127.710045 72.253601,127.589012 72.364716,127.890625 
	C73.047775,128.405289 73.619728,128.618332 74.150986,128.848373 
	C74.110291,128.865372 74.096153,128.778305 74.260017,129.043823 
	C74.995613,129.499420 75.567352,129.689499 76.102280,129.898422 
	C76.065468,129.917282 76.067986,129.834610 76.263313,130.089737 
	C76.851524,130.501190 77.244400,130.657516 77.756691,130.780365 
	C77.876099,130.746887 77.995537,130.964264 78.168442,131.169312 
	C78.675674,131.481308 79.009987,131.588272 79.282669,131.708054 
	C79.221031,131.720886 79.238152,131.596130 79.365784,131.899872 
	C80.081848,132.432632 80.670280,132.661682 81.530693,132.909485 
	C82.222343,133.236588 82.642021,133.544907 83.218704,134.076523 
	C83.716125,134.400436 84.056541,134.501053 84.345612,134.612854 
	C84.294258,134.624023 84.333084,134.526352 84.432159,134.837952 
	C85.119186,135.326996 85.707153,135.504440 86.232040,135.720886 
	C86.168968,135.759918 86.240761,135.630112 86.326675,135.978943 
	C87.641808,136.859909 88.871025,137.392044 90.069458,137.949661 
	C90.038681,137.975143 90.044144,137.895416 90.198166,138.116638 
	C90.681076,138.463318 91.009956,138.588760 91.277435,138.730164 
	C91.216042,138.746124 91.224174,138.619507 91.359146,138.912613 
	C92.082008,139.386246 92.669907,139.566757 93.211029,139.758118 
	C93.164261,139.768967 93.176483,139.673721 93.309052,139.960526 
	C94.009598,140.460358 94.577583,140.673386 95.109070,140.901276 
	C95.072578,140.916138 95.065834,140.837631 95.231079,141.089615 
	C95.944870,141.540680 96.493416,141.739761 97.023460,141.968719 
	C97.004951,141.998611 97.051453,141.944763 97.214676,142.183289 
	C97.906303,142.620743 98.434708,142.819672 98.976074,143.005463 
	C98.989029,142.992310 98.987228,143.028595 99.032547,143.293243 
	C99.705841,143.734100 100.333832,143.910294 101.261902,144.044739 
	C101.962646,143.957886 102.363297,143.912781 103.087997,143.857910 
	C103.890030,143.462555 104.368034,143.076996 104.845520,142.756714 
	C104.845016,142.821976 104.717812,142.792679 104.980560,142.734344 
	C105.496399,142.430511 105.749489,142.185043 106.050346,141.834381 
	C106.098114,141.729202 106.324326,141.776154 106.642319,141.723389 
	C107.292770,141.409454 107.625229,141.148270 107.954475,140.925644 
	C107.951256,140.964203 107.890221,140.916626 108.204140,140.898743 
	C108.952377,140.477692 109.386696,140.074509 109.823013,139.717712 
	C109.825012,139.764084 109.737518,139.733017 110.063431,139.759216 
	C110.859383,139.402359 111.329430,139.019318 111.801941,138.684799 
	C111.804398,138.733322 111.713547,138.698837 112.040527,138.724762 
	C112.768219,138.322281 113.168922,137.893875 113.685654,137.507660 
	C113.801682,137.549835 113.576752,137.482727 113.847458,137.500443 
	C114.390862,137.297607 114.663559,137.077072 114.936295,136.897705 
	C114.936333,136.938873 114.867027,136.894424 115.182945,136.883331 
	C115.947746,136.480148 116.396637,136.088058 116.847809,135.745117 
	C116.850090,135.794250 116.755180,135.768311 117.079536,135.781738 
	C117.864601,135.405563 118.325310,135.015961 118.789673,134.691544 
	C118.793320,134.756744 118.666466,134.725677 118.932144,134.682770 
	C119.449226,134.394928 119.700638,134.149979 119.963295,133.945984 
	C119.974548,133.986938 119.911102,133.930435 120.281487,133.935287 
	C121.351227,133.393616 122.050575,132.847076 122.832832,132.146057 
	C122.915733,131.991547 123.219444,131.816223 123.219444,131.816223 
	C123.219444,131.816223 123.569969,131.826706 123.917435,131.824310 
	C124.752785,131.398224 125.240685,130.974533 125.736145,130.611786 
	C125.743706,130.672729 125.625946,130.637909 125.895096,130.619141 
	C126.423729,130.364761 126.683220,130.129150 126.957596,129.937836 
	C126.972488,129.982132 126.903168,129.919449 127.210625,129.903809 
	C127.986580,129.531189 128.455078,129.174194 128.919708,128.865509 
	C128.915833,128.913803 128.821457,128.891830 129.058350,128.824905 
	C129.599518,128.607452 129.833694,128.383591 130.082428,127.953262 
	C130.167053,127.820137 130.482437,127.811081 130.878632,127.819069 
	C133.512894,127.221725 135.750961,126.616402 137.995422,126.349091 
	C138.003876,127.138161 138.005905,127.589218 137.944000,128.156296 
	C137.880081,128.272308 137.624588,128.202286 137.313446,128.267181 
	C136.686447,128.604263 136.370590,128.876465 136.062057,129.110046 
	C136.069382,129.071426 136.135880,129.113327 135.769501,129.085266 
	C134.348282,129.827667 133.293472,130.598129 132.230011,131.311661 
	C132.221390,131.254730 132.334152,131.278107 132.068253,131.315125 
	C131.546402,131.590820 131.290466,131.829483 130.861984,132.323212 
	C129.590103,133.102951 128.490768,133.627625 127.119461,134.215622 
	C126.564018,134.514084 126.280540,134.749237 125.996552,134.994537 
	C125.996040,135.004669 125.979095,134.991089 125.683907,135.020554 
	C124.941330,135.404877 124.493942,135.759735 124.044563,136.075043 
	C124.042572,136.035507 124.108124,136.079895 123.798592,136.094177 
	C123.020393,136.470703 122.551727,136.832932 122.090118,137.155365 
	C122.097176,137.115585 122.171707,137.146851 121.807861,137.112122 
	C119.985062,138.095901 118.526108,139.114426 117.056656,140.088074 
	C117.046158,140.043167 117.119751,140.098709 116.808853,140.109360 
	C116.029137,140.482758 115.560326,140.845505 115.095444,141.156738 
	C115.099373,141.105225 115.199638,141.130157 114.956360,141.190628 
	C114.468445,141.472321 114.223816,141.693542 113.847427,142.082367 
	C113.499992,142.447769 113.248306,142.573563 112.820724,142.556015 
	C112.331650,142.488144 112.106789,142.664139 112.003906,143.005737 
	C112.001579,142.998779 112.015007,143.009796 111.713425,143.038696 
	C110.967148,143.440903 110.522453,143.814209 110.083694,144.146500 
	C110.089615,144.105469 110.167709,144.133316 109.813393,144.133820 
	C108.407570,144.908508 107.356056,145.682693 106.288223,146.406219 
	C106.271896,146.355560 106.376389,146.375854 106.109253,146.385605 
	C105.568047,146.610565 105.293983,146.825775 105.014420,147.017761 
	C105.008919,146.994507 105.042610,147.028931 104.621201,147.014984 
	C101.711678,146.758240 99.223564,146.515411 96.779510,146.261383 
	C96.823586,146.250168 96.809402,146.340012 96.680923,146.050110 
	C95.983978,145.548141 95.415527,145.336075 94.883438,145.108658 
	C94.919807,145.093323 94.931297,145.171432 94.765396,144.914932 
	C94.042183,144.456406 93.484871,144.254364 92.956589,144.028839 
	C92.985619,144.005356 92.963135,144.076584 92.805634,143.859009 
	C92.316628,143.526672 91.985115,143.411911 91.717125,143.282135 
	C91.780640,143.267105 91.769104,143.397125 91.642258,143.098724 
	C90.927704,142.613220 90.339989,142.426086 89.798737,142.225662 
	C89.845192,142.212372 89.840279,142.308884 89.702026,142.025818 
	C88.997314,141.530350 88.430862,141.317963 87.898796,141.086761 
	C87.933182,141.067932 87.943024,141.145721 87.772606,140.896362 
	C87.052437,140.441757 86.502678,140.236511 85.971565,140.012970 
	C85.990204,139.994690 85.979355,140.045624 85.820145,139.834320 
	C85.336281,139.502472 85.011642,139.381943 84.748871,139.244965 
	C84.810738,139.228500 84.808113,139.356506 84.653839,139.060532 
	C83.892036,138.554550 83.284515,138.344559 82.367538,138.083878 
	C81.034378,137.364990 80.010681,136.696793 78.833481,135.734528 
	C77.722641,135.015137 76.765297,134.589813 75.848801,134.148987 
	C75.889648,134.133469 75.900620,134.220169 75.746231,133.953308 
	C75.034218,133.476578 74.476593,133.266708 73.944077,133.031372 
	C73.969185,133.005875 73.968742,133.077438 73.762573,132.850464 
	C73.178497,132.480927 72.800591,132.338333 72.279984,132.214630 
	C72.137283,132.233490 71.988525,131.987015 71.828949,131.782776 
	C71.352165,131.456055 71.034950,131.333572 70.781036,131.196625 
	C70.844345,131.182175 70.844536,131.312042 70.697388,131.028030 
	C69.966888,130.553268 69.383530,130.362534 68.845657,130.159302 
	C68.891151,130.146820 68.894318,130.241104 68.744522,129.969406 
	C68.034752,129.486954 67.474762,129.276199 66.942230,129.036972 
	C66.969681,129.008499 66.959167,129.086899 66.795891,128.876434 
	C66.300896,128.563492 65.969170,128.461014 65.778191,128.357513 
	C65.918930,128.356476 65.634300,128.380768 65.645676,128.004028 
	C64.380356,127.131363 63.103668,126.635422 61.873745,126.106339 
	C61.920509,126.073189 61.877060,126.179276 61.853043,125.778351 
	C61.062431,122.578125 60.295834,119.778839 59.416840,116.575058 
	C59.311111,114.773750 59.317780,113.376930 59.520874,111.677452 
	C59.805557,109.921814 59.893818,108.468834 59.987381,106.581245 
	C59.963425,104.397057 59.934162,102.647469 60.032578,100.656006 
	C60.441948,99.945877 60.723644,99.477615 61.005337,99.009361 
z"/>
<path fill="#232F1A" opacity="1.000000" stroke="none" 
	d="
M70.923317,69.723160 
	C71.457115,69.510338 71.990921,69.297523 73.044098,68.904854 
	C74.794502,67.903366 76.025528,67.081726 77.256561,66.260086 
	C77.256561,66.260086 77.029800,66.138657 77.469086,66.148468 
	C80.017998,64.861046 82.127625,63.563816 84.237251,62.266582 
	C84.237251,62.266582 84.161942,62.278736 84.545761,62.208050 
	C87.096878,60.910603 89.425499,59.898899 91.401237,58.416782 
	C97.343536,53.959122 103.319626,51.614082 109.926590,57.077145 
	C109.926590,57.077145 109.998367,57.005627 110.115349,57.291206 
	C110.779510,57.809399 111.326698,58.042015 111.873878,58.274632 
	C111.873878,58.274632 111.877106,58.187424 112.043594,58.472710 
	C120.269066,63.336601 128.328049,67.915215 136.387039,72.493820 
	C136.387039,72.493820 136.485870,72.589035 136.720001,72.769615 
	C137.277863,73.020821 137.601624,73.091446 137.925369,73.162071 
	C137.925369,73.162071 137.947250,73.059250 138.058472,73.354904 
	C138.717728,73.867897 139.265762,74.085243 139.813812,74.302589 
	C139.813812,74.302589 139.889969,74.025116 139.996552,74.407173 
	C140.734695,75.254395 141.366272,75.719559 141.997772,76.487961 
	C141.991043,77.196404 141.984390,77.601616 141.638885,78.007294 
	C140.518814,78.366409 139.737595,78.725075 138.699585,79.049103 
	C138.270370,79.024918 138.097946,79.035355 137.735474,78.836311 
	C137.040207,78.409264 136.534988,78.191704 135.830078,77.702728 
	C134.774948,77.311584 133.919525,77.191849 132.815659,76.821930 
	C132.427429,76.270836 132.371140,75.827705 132.135788,75.689522 
	C122.485207,70.023216 112.837196,64.351601 103.119377,58.802353 
	C102.317711,58.344574 100.799377,58.341312 100.000549,58.800003 
	C89.234421,64.981956 78.536926,71.283432 66.803741,78.151588 
	C72.244125,81.357262 76.650513,84.571861 81.561089,86.507164 
	C83.247963,87.171974 86.194740,84.639977 88.694901,83.888672 
	C89.554382,85.061234 90.284912,85.913544 90.774261,86.985504 
	C89.402374,87.826256 88.271660,88.447365 86.829788,88.818634 
	C84.090416,88.975952 81.662216,89.383110 79.131744,89.887321 
	C79.029488,89.984375 78.826416,90.179993 78.493774,90.106750 
	C76.555992,89.240974 74.950844,88.448448 73.345703,87.655914 
	C73.345703,87.655914 73.290894,87.737625 73.072212,87.427460 
	C69.289101,85.073273 65.569031,83.246597 62.245358,80.866386 
	C61.094963,80.042557 60.929043,77.844025 60.313450,76.273407 
	C60.313450,76.273407 60.163162,76.170532 60.506897,76.149147 
	C61.659412,75.530907 62.468197,74.934059 63.276985,74.337212 
	C63.276985,74.337212 63.274261,74.110489 63.635254,74.156738 
	C66.305267,72.709709 68.614288,71.216431 70.923317,69.723160 
z"/>
<path fill="#F3F841" opacity="1.000000" stroke="none" 
	d="
M78.986984,136.028595 
	C80.010681,136.696793 81.034378,137.364990 82.543282,138.352142 
	C83.621696,138.899567 84.214905,139.128036 84.808113,139.356506 
	C84.808113,139.356506 84.810738,139.228500 84.886887,139.480331 
	C85.301811,139.836655 85.640579,139.941132 85.979355,140.045624 
	C85.979355,140.045624 85.990204,139.994690 86.135529,140.265686 
	C86.834915,140.739700 87.388969,140.942703 87.943024,141.145721 
	C87.943024,141.145721 87.933182,141.067932 88.067017,141.336578 
	C88.747330,141.839767 89.293808,142.074326 89.840279,142.308884 
	C89.840279,142.308884 89.845192,142.212372 89.970810,142.473572 
	C90.653984,142.955566 91.211540,143.176346 91.769104,143.397125 
	C91.769104,143.397125 91.780640,143.267105 91.862762,143.511581 
	C92.284309,143.862900 92.623726,143.969742 92.963135,144.076569 
	C92.963135,144.076584 92.985619,144.005356 93.109818,144.292603 
	C93.799774,144.777054 94.365540,144.974243 94.931297,145.171432 
	C94.931297,145.171432 94.919807,145.093323 95.048416,145.359558 
	C95.721146,145.863861 96.265274,146.101929 96.809402,146.340012 
	C96.809402,146.340012 96.823586,146.250168 96.982849,146.539215 
	C99.736885,148.419739 102.323135,150.346756 105.042610,147.028931 
	C105.042610,147.028931 105.008919,146.994507 105.281174,146.998108 
	C105.827751,146.793091 106.102074,146.584473 106.376389,146.375854 
	C106.376389,146.375854 106.271896,146.355560 106.601944,146.311310 
	C108.010567,145.555801 109.089142,144.844559 110.167709,144.133316 
	C110.167709,144.133316 110.089615,144.105469 110.374557,144.107452 
	C111.111336,143.742874 111.563171,143.376328 112.014999,143.009796 
	C112.015007,143.009796 112.001579,142.998779 112.276260,142.993011 
	C112.687500,142.867279 112.824066,142.747314 112.960632,142.627350 
	C113.248306,142.573563 113.499992,142.447769 114.114944,142.080627 
	C114.742683,141.650925 114.971161,141.390533 115.199631,141.130157 
	C115.199638,141.130157 115.099373,141.105225 115.397552,141.116669 
	C116.170410,140.784973 116.645081,140.441849 117.119751,140.098709 
	C117.119751,140.098709 117.046158,140.043167 117.389099,140.032318 
	C119.211929,139.063248 120.691818,138.105057 122.171707,137.146851 
	C122.171707,137.146851 122.097176,137.115585 122.390892,137.119873 
	C123.159111,136.776062 123.633621,136.427979 124.108124,136.079895 
	C124.108124,136.079895 124.042572,136.035507 124.334877,136.045258 
	C125.077820,135.700348 125.528458,135.345718 125.979095,134.991089 
	C125.979095,134.991089 125.996040,135.004669 126.290840,134.980408 
	C126.854233,134.688187 127.122826,134.420242 127.391411,134.152298 
	C128.490768,133.627625 129.590103,133.102951 131.132233,132.293182 
	C131.828064,131.764755 132.081100,131.521423 132.334137,131.278107 
	C132.334152,131.278107 132.221390,131.254730 132.550873,131.240326 
	C133.965515,130.521713 135.050690,129.817520 136.135880,129.113327 
	C136.135880,129.113327 136.069382,129.071426 136.382309,129.066467 
	C137.005020,128.775101 137.314804,128.488693 137.624588,128.202286 
	C137.624588,128.202286 137.880081,128.272308 138.258408,128.122574 
	C139.493591,127.395294 140.350449,126.817741 141.481842,126.186218 
	C142.115662,126.034317 142.474960,125.936394 142.903137,125.899696 
	C142.972031,125.960930 143.114594,126.077766 143.114594,126.077766 
	C144.943527,130.262375 139.598618,129.752335 139.003571,132.363022 
	C138.001480,136.759583 135.446808,135.152283 132.552475,134.472168 
	C131.041534,134.117126 129.044617,135.830276 127.016418,136.719223 
	C127.579880,138.379379 128.034103,139.717667 128.482895,141.039978 
	C128.141052,141.213821 127.683434,141.535187 127.616447,141.467865 
	C124.650841,138.487091 121.613968,140.043716 118.838318,141.570389 
	C114.866676,143.754852 111.283157,146.730835 107.171219,148.548187 
	C103.657806,150.101013 99.633438,150.497711 95.474518,151.492020 
	C94.539146,150.225586 93.444252,148.743195 92.349365,147.260788 
	C92.092506,147.370499 91.835648,147.480194 91.578789,147.589890 
	C91.794716,148.727737 92.010643,149.865585 92.277969,151.274292 
	C91.496872,151.381943 90.643219,151.768158 90.309418,151.502121 
	C88.095352,149.737564 84.811134,148.193039 84.111534,145.895828 
	C82.841751,141.726349 80.359528,139.108704 77.102417,136.333771 
	C77.083450,135.901550 77.280624,135.681702 77.568741,135.724609 
	C78.233559,135.854553 78.610275,135.941574 78.986984,136.028595 
z"/>
<path fill="#F3F841" opacity="1.000000" stroke="none" 
	d="
M73.296204,88.019638 
	C74.950844,88.448448 76.555992,89.240974 78.694557,90.377945 
	C81.450478,91.862801 83.672974,93.003204 85.895470,94.143616 
	C85.895470,94.143616 85.965973,94.034348 86.089035,94.351746 
	C87.384918,95.245911 88.557747,95.822670 89.730583,96.399429 
	C89.730583,96.399429 89.855492,96.231850 89.975098,96.534836 
	C91.038681,97.281174 91.982643,97.724533 92.926613,98.167900 
	C92.926613,98.167900 92.930298,98.088806 93.049667,98.362877 
	C93.736252,98.863739 94.303474,99.090530 94.870689,99.317322 
	C94.942436,99.665855 95.143173,99.907043 95.831482,100.396942 
	C96.763275,100.896446 97.336472,101.039894 97.909668,101.183350 
	C98.281166,103.515495 98.652672,105.847641 99.015533,108.988441 
	C99.054214,110.864273 99.101532,111.931442 99.148849,112.998619 
	C99.322426,114.404541 99.496010,115.810471 99.507263,117.654297 
	C99.029755,118.311348 98.934967,118.602272 99.060585,118.964981 
	C98.354294,119.112625 97.436668,119.623207 96.973389,119.353455 
	C89.981392,115.282433 83.049095,111.108902 75.599960,106.663712 
	C74.737640,106.234375 74.378159,106.100731 74.018677,105.967087 
	C74.018677,105.967087 74.003197,106.002258 73.856972,105.733742 
	C73.155510,105.274490 72.600273,105.083755 72.045036,104.893021 
	C72.045036,104.893021 72.043251,104.973328 71.895981,104.704971 
	C71.210022,104.200104 70.671333,103.963577 70.132645,103.727051 
	C70.132645,103.727051 70.134972,103.817688 69.976746,103.543060 
	C69.212563,103.166290 68.606613,103.064140 68.000664,102.961990 
	C66.206345,101.656090 64.412025,100.350189 62.322830,98.866684 
	C65.342873,97.888306 67.902847,97.183472 70.830956,100.953323 
	C73.406662,104.269463 78.401367,105.706726 82.840492,108.284805 
	C87.880150,110.721268 92.407082,112.846703 97.940521,115.444710 
	C97.940521,111.833511 97.940521,109.415482 97.940521,106.997452 
	C97.419655,106.153252 96.715508,104.512459 96.405289,104.583832 
	C91.406639,105.733864 90.530357,102.135300 89.616638,99.054848 
	C82.633583,97.475121 77.747070,93.230186 73.296204,88.019638 
z"/>
<path fill="#F3F841" opacity="1.000000" stroke="none" 
	d="
M136.546509,72.041489 
	C128.328049,67.915215 120.269066,63.336601 112.002670,58.487831 
	C115.894020,56.992825 118.977936,57.702049 122.272415,61.096462 
	C124.505074,63.396858 128.727722,64.640587 132.112305,64.749992 
	C137.644699,64.928825 137.332657,67.879852 136.546509,72.041489 
z"/>
<path fill="#FEFE38" opacity="1.000000" stroke="none" 
	d="
M97.526031,106.998352 
	C97.940521,109.415482 97.940521,111.833511 97.940521,115.444710 
	C92.407082,112.846703 87.880150,110.721268 83.175262,108.299133 
	C84.275406,105.956055 85.114258,104.523834 88.262650,106.368500 
	C90.550186,107.708778 94.115791,106.867722 97.526031,106.998352 
z"/>
<path fill="#F3F841" opacity="1.000000" stroke="none" 
	d="
M59.905220,76.249565 
	C60.929043,77.844025 61.094963,80.042557 62.245358,80.866386 
	C65.569031,83.246597 69.289101,85.073273 73.066139,87.378632 
	C70.946922,88.461021 68.615105,89.282051 65.888138,90.242218 
	C64.277367,85.186638 60.803162,81.357971 54.579273,80.708153 
	C54.073631,80.655365 53.316273,79.555786 53.329910,78.957527 
	C53.343601,78.356857 54.067890,77.446861 54.670334,77.248680 
	C56.223324,76.737778 57.881084,76.545372 59.905220,76.249565 
z"/>
<path fill="#F3F841" opacity="1.000000" stroke="none" 
	d="
M110.081604,56.765717 
	C103.319626,51.614082 97.343536,53.959122 91.401237,58.416782 
	C89.425499,59.898899 87.096878,60.910603 84.589188,62.212120 
	C88.141296,56.852531 93.038261,52.776917 99.893822,52.083618 
	C103.969696,51.671425 108.121300,52.008118 112.597923,52.008118 
	C111.864532,53.389042 111.050575,54.921665 110.081604,56.765717 
z"/>
<path fill="#F6FA67" opacity="1.000000" stroke="none" 
	d="
M145.002777,77.958939 
	C144.861404,93.431519 144.720016,108.904099 144.287827,124.668152 
	C143.997009,124.959633 143.886902,124.903297 143.923859,124.442703 
	C143.998444,108.646660 144.036087,93.311203 144.306000,77.971771 
	C144.538254,77.967789 145.002762,77.958939 145.002777,77.958939 
z"/>
<path fill="#F3F841" opacity="1.000000" stroke="none" 
	d="
M59.324448,111.980103 
	C59.317780,113.376930 59.311111,114.773750 59.319649,116.996422 
	C59.441628,119.250473 59.548409,120.678673 59.557255,122.340759 
	C59.553967,122.889084 59.648613,123.203537 59.721710,123.836105 
	C60.425797,124.829247 61.151428,125.504257 61.877060,126.179276 
	C61.877060,126.179276 61.920509,126.073189 61.997696,126.345520 
	C62.501812,126.935738 62.928741,127.253632 63.240837,127.705574 
	C63.126007,127.839622 62.894402,128.106064 62.894402,128.106064 
	C58.926472,128.305908 57.486458,126.817635 57.865959,122.528053 
	C58.538807,114.922798 58.461575,107.251198 58.953304,99.690002 
	C59.188011,100.189789 59.167603,100.606934 59.083679,101.445160 
	C59.078072,103.566750 59.135975,105.267242 59.119576,107.382835 
	C59.138332,109.191986 59.231388,110.586044 59.324448,111.980103 
z"/>
<path fill="#F3F841" opacity="1.000000" stroke="none" 
	d="
M71.988525,131.987015 
	C71.988525,131.987015 72.137283,132.233490 72.457764,132.478073 
	C73.175079,132.840912 73.571915,132.959183 73.968742,133.077438 
	C73.968742,133.077438 73.969185,133.005875 74.128136,133.267395 
	C74.824928,133.759323 75.362778,133.989746 75.900620,134.220169 
	C75.900620,134.220169 75.889648,134.133469 75.984192,134.383209 
	C76.479362,134.982529 76.879990,135.332123 77.280624,135.681702 
	C77.280624,135.681702 77.083450,135.901550 76.984161,136.012817 
	C71.166664,135.783752 66.659775,133.187439 63.019028,128.425995 
	C62.894402,128.106064 63.126007,127.839622 63.534691,127.783554 
	C64.507011,127.945244 65.070656,128.163010 65.634300,128.380768 
	C65.634300,128.380768 65.918930,128.356476 65.928101,128.583832 
	C66.277901,128.903076 66.618538,128.994995 66.959167,129.086899 
	C66.959167,129.086899 66.969681,129.008499 67.122055,129.274750 
	C67.814384,129.774368 68.354347,130.007736 68.894318,130.241104 
	C68.894318,130.241104 68.891151,130.146820 69.011314,130.417480 
	C69.702499,130.896103 70.273514,131.104080 70.844536,131.312042 
	C70.844536,131.312042 70.844345,131.182175 70.912056,131.435272 
	C71.316017,131.787903 71.652275,131.887466 71.988525,131.987015 
z"/>
<path fill="#F3F841" opacity="1.000000" stroke="none" 
	d="
M70.677193,69.568497 
	C68.614288,71.216431 66.305267,72.709709 63.656712,74.268082 
	C63.228924,72.902115 63.140671,71.471062 63.093307,70.703026 
	C65.856224,70.217606 68.143646,69.815727 70.677193,69.568497 
z"/>
<path fill="#F3F841" opacity="1.000000" stroke="none" 
	d="
M83.843979,62.193630 
	C82.127625,63.563816 80.017998,64.861046 77.571716,66.225998 
	C79.306946,64.902695 81.378822,63.511688 83.843979,62.193630 
z"/>
<path fill="#F3F841" opacity="1.000000" stroke="none" 
	d="
M53.809940,118.353546 
	C53.809109,119.243347 53.505928,120.036133 53.202744,120.828918 
	C52.683205,120.550125 52.163662,120.271332 51.644119,119.992538 
	C52.265274,119.413864 52.886433,118.835197 53.809940,118.353546 
z"/>
<path fill="#F3F841" opacity="1.000000" stroke="none" 
	d="
M141.542725,69.670105 
	C141.147583,69.994186 140.460922,70.138832 140.429657,70.050774 
	C140.056427,68.999519 139.780563,67.913681 140.352966,66.546638 
	C140.753876,67.491943 141.154785,68.437248 141.542725,69.670105 
z"/>
<path fill="#F3F841" opacity="1.000000" stroke="none" 
	d="
M76.875740,66.190842 
	C76.025528,67.081726 74.794502,67.903366 73.243309,68.696838 
	C74.113739,67.819641 75.304329,66.970619 76.875740,66.190842 
z"/>
<path fill="#F3F841" opacity="1.000000" stroke="none" 
	d="
M53.241051,106.694656 
	C53.089054,106.188225 53.189739,105.741615 53.290428,105.295006 
	C53.644978,105.495369 53.999531,105.695732 54.354084,105.896095 
	C54.067299,106.182220 53.780514,106.468346 53.241051,106.694656 
z"/>
<path fill="#F3F841" opacity="1.000000" stroke="none" 
	d="
M70.248718,91.309204 
	C70.788055,91.535240 71.074188,91.821030 71.360321,92.106819 
	C71.006111,92.305893 70.651901,92.504959 70.297684,92.704025 
	C70.196968,92.259003 70.096245,91.813972 70.248718,91.309204 
z"/>
<path fill="#F3F841" opacity="1.000000" stroke="none" 
	d="
M141.997833,76.184731 
	C141.366272,75.719559 140.734695,75.254395 139.944366,74.541382 
	C140.816498,74.614357 141.847397,74.935188 142.933975,75.641861 
	C142.989655,76.027702 142.865601,76.139015 142.647278,76.123734 
	C142.428940,76.108459 141.997833,76.184731 141.997833,76.184731 
z"/>
<path fill="#F3F841" opacity="1.000000" stroke="none" 
	d="
M62.903603,74.257172 
	C62.468197,74.934059 61.659412,75.530907 60.559395,76.223557 
	C61.022182,75.605278 61.776199,74.891205 62.903603,74.257172 
z"/>
<path fill="#F3F841" opacity="1.000000" stroke="none" 
	d="
M49.699116,91.629791 
	C50.005024,91.767754 50.171101,92.037392 50.337181,92.307022 
	C50.077881,92.125160 49.818581,91.943306 49.699116,91.629791 
z"/>
<path fill="#F3F841" opacity="1.000000" stroke="none" 
	d="
M144.870544,77.710175 
	C145.002762,77.958939 144.538254,77.967789 144.135742,77.853958 
	C143.733215,77.740135 143.343842,77.598717 143.250427,77.358978 
	C143.059875,76.792503 142.962738,76.465759 142.865601,76.139015 
	C142.865601,76.139015 142.989655,76.027702 143.054535,75.974373 
	C143.659073,76.434502 144.198700,76.947952 144.870544,77.710175 
z"/>
<path fill="#3D4523" opacity="1.000000" stroke="none" 
	d="
M59.147202,101.024078 
	C59.167603,100.606934 59.188011,100.189789 59.280144,99.461967 
	C59.351875,99.151291 59.730659,99.077087 60.133751,98.931107 
	C60.696938,98.709915 60.857033,98.634705 61.017124,98.559494 
	C61.017124,98.559494 61.104282,98.786934 61.054810,98.898148 
	C60.723644,99.477615 60.441948,99.945877 59.843895,100.689774 
	C59.527538,100.965408 59.147202,101.024078 59.147202,101.024078 
z"/>
<path fill="#F3F841" opacity="1.000000" stroke="none" 
	d="
M111.734238,57.995453 
	C111.326698,58.042015 110.779510,57.809399 110.073441,57.319511 
	C110.474571,57.280254 111.034576,57.498264 111.734238,57.995453 
z"/>
<path fill="#F3F841" opacity="1.000000" stroke="none" 
	d="
M139.686188,74.017593 
	C139.265762,74.085243 138.717728,73.867897 138.020813,73.391571 
	C138.434143,73.332596 138.996353,73.532600 139.686188,74.017593 
z"/>
<path fill="#F3F841" opacity="1.000000" stroke="none" 
	d="
M144.039688,125.004379 
	C143.927048,125.329300 143.730377,125.576576 143.303467,125.934372 
	C143.114594,126.077766 142.972031,125.960930 142.939529,125.688644 
	C142.907028,125.416351 143.065735,125.018326 143.271637,124.993469 
	C143.477524,124.968620 143.886902,124.903297 143.886902,124.903297 
	C143.886902,124.903297 143.997009,124.959633 144.039688,125.004379 
z"/>
<path fill="#F3F841" opacity="1.000000" stroke="none" 
	d="
M137.772659,72.945923 
	C137.601624,73.091446 137.277863,73.020821 136.787689,72.758392 
	C136.954147,72.620987 137.287048,72.675377 137.772659,72.945923 
z"/>
<path fill="#F3F841" opacity="1.000000" stroke="none" 
	d="
M60.882977,98.484756 
	C60.857033,98.634705 60.696938,98.709915 60.271610,98.796051 
	C60.166233,98.495407 60.413719,98.363091 60.882977,98.484756 
z"/>
<path fill="#F8FB3D" opacity="1.000000" stroke="none" 
	d="
M136.029785,77.974144 
	C136.534988,78.191704 137.040207,78.409264 137.748566,79.302773 
	C137.920258,94.293877 137.888779,108.609032 137.529541,123.058067 
	C134.962006,124.731659 132.722214,126.271370 130.482437,127.811081 
	C130.482437,127.811081 130.167053,127.820137 129.820328,127.965302 
	C129.256226,128.370911 129.038849,128.631378 128.821472,128.891846 
	C128.821457,128.891830 128.915833,128.913803 128.616852,128.904022 
	C127.846313,129.235977 127.374741,129.577713 126.903168,129.919449 
	C126.903168,129.919449 126.972488,129.982132 126.689842,129.965881 
	C126.146782,130.179062 125.886368,130.408493 125.625946,130.637909 
	C125.625946,130.637909 125.743706,130.672729 125.422775,130.697418 
	C124.591217,131.090302 124.080589,131.458496 123.569962,131.826691 
	C123.569969,131.826706 123.219444,131.816223 123.219444,131.816223 
	C123.219444,131.816223 122.915733,131.991547 122.504898,132.223846 
	C121.366409,132.947586 120.638748,133.439011 119.911102,133.930420 
	C119.911102,133.930435 119.974548,133.986938 119.691582,133.977066 
	C119.161232,134.220032 118.913849,134.472855 118.666473,134.725677 
	C118.666466,134.725677 118.793320,134.756744 118.487854,134.741058 
	C117.706657,135.073013 117.230919,135.420670 116.755180,135.768311 
	C116.755180,135.768311 116.850090,135.794250 116.550392,135.800064 
	C115.789474,136.168732 115.328255,136.531586 114.867035,136.894440 
	C114.867027,136.894424 114.936333,136.938873 114.673355,136.908722 
	C114.132500,137.079956 113.854622,137.281342 113.576752,137.482727 
	C113.576752,137.482727 113.801682,137.549835 113.409897,137.591644 
	C112.583252,137.988571 112.148399,138.343704 111.713547,138.698822 
	C111.713547,138.698837 111.804398,138.733322 111.503342,138.737854 
	C110.714020,139.072586 110.225769,139.402802 109.737518,139.733017 
	C109.737518,139.733017 109.825012,139.764084 109.529709,139.774475 
	C108.786346,140.162140 108.338287,140.539383 107.890221,140.916626 
	C107.890221,140.916626 107.951256,140.964203 107.626709,140.955643 
	C106.976212,141.223434 106.650269,141.499786 106.324326,141.776154 
	C106.324326,141.776154 106.098114,141.729202 105.771896,141.858673 
	C105.203049,142.256317 104.960434,142.524506 104.717812,142.792679 
	C104.717812,142.792679 104.845016,142.821976 104.531044,142.803864 
	C103.732697,143.146408 103.248322,143.507050 102.763954,143.867706 
	C102.363297,143.912781 101.962646,143.957886 101.049988,143.847031 
	C100.021065,143.470261 99.504143,143.249420 98.987228,143.028595 
	C98.987228,143.028595 98.989029,142.992310 98.803909,142.775208 
	C98.096352,142.353668 97.573906,142.149216 97.051453,141.944763 
	C97.051453,141.944763 97.004951,141.998611 96.872223,141.710419 
	C96.181610,141.227356 95.623726,141.032486 95.065834,140.837616 
	C95.065834,140.837631 95.072578,140.916138 94.952057,140.641586 
	C94.279846,140.135925 93.728165,139.904831 93.176483,139.673721 
	C93.176483,139.673721 93.164261,139.768967 93.050453,139.497940 
	C92.365822,139.024445 91.794998,138.821976 91.224174,138.619507 
	C91.224174,138.619507 91.216042,138.746124 91.142838,138.486389 
	C90.727806,138.116241 90.385971,138.005829 90.044144,137.895416 
	C90.044144,137.895416 90.038681,137.975143 89.876076,137.687042 
	C88.555901,136.809326 87.398331,136.219711 86.240761,135.630112 
	C86.240761,135.630112 86.168968,135.759918 86.054771,135.488297 
	C85.404747,134.986557 84.868919,134.756454 84.333084,134.526352 
	C84.333084,134.526352 84.294258,134.624023 84.189011,134.390778 
	C83.743065,134.056107 83.402382,133.954666 83.061691,133.853241 
	C82.642021,133.544907 82.222343,133.236588 81.360809,132.647736 
	C80.358681,132.110184 79.798416,131.853149 79.238152,131.596130 
	C79.238152,131.596130 79.221031,131.720886 79.133331,131.473755 
	C78.695602,131.139191 78.345566,131.051727 77.995537,130.964264 
	C77.995537,130.964264 77.876099,130.746887 77.569122,130.515228 
	C76.864090,130.133926 76.466034,129.984268 76.067986,129.834610 
	C76.067986,129.834610 76.065468,129.917282 75.946808,129.632019 
	C75.250816,129.157257 74.673485,128.967789 74.096153,128.778305 
	C74.096153,128.778305 74.110291,128.865372 73.988785,128.597031 
	C73.329391,128.082123 72.791496,127.835564 72.253601,127.589005 
	C72.253601,127.589012 72.231331,127.710045 72.143364,127.470505 
	C71.711342,127.136292 71.367294,127.041626 71.023239,126.946953 
	C71.023239,126.946953 71.010521,127.003792 70.875854,126.728012 
	C70.191833,126.230331 69.642479,126.008438 69.093117,125.786545 
	C69.093117,125.786545 69.092369,125.888702 69.037003,125.638565 
	C68.656281,125.305656 68.330925,125.222878 68.005577,125.140099 
	C66.935799,124.423798 65.866028,123.707497 64.484001,122.424561 
	C63.925953,116.720711 63.680157,111.583511 63.490570,106.305679 
	C63.546780,106.165062 63.335213,105.948311 63.335213,105.948311 
	C64.045540,105.979324 64.755867,106.010330 65.841194,106.389771 
	C66.807739,106.832710 67.399277,106.927216 67.990822,107.021721 
	C67.990822,107.021721 67.996315,106.996483 68.164597,107.241364 
	C68.866585,107.710999 69.400307,107.935753 69.934029,108.160507 
	C79.568825,113.903931 89.102760,119.827545 98.886574,125.304802 
	C102.973717,127.592896 105.930344,123.739906 109.135391,122.007790 
	C113.423424,119.690376 117.596008,117.159332 122.381981,114.206070 
	C123.295738,109.003395 123.880745,104.316597 123.918770,99.625351 
	C123.947456,96.085533 123.276260,92.540031 122.940247,88.684753 
	C122.294289,87.950378 121.624680,87.528320 120.876740,86.983383 
	C120.798409,86.860497 120.507263,86.873512 120.329361,86.622665 
	C119.767754,86.244362 119.384056,86.116905 118.999725,85.995338 
	C118.999084,86.001221 119.010170,85.996704 118.847122,85.704788 
	C116.895485,84.503975 115.106888,83.595078 113.172897,82.469543 
	C112.704491,82.146919 112.381500,82.040932 111.900421,81.689224 
	C111.199295,81.252853 110.656235,81.062210 109.952728,80.635719 
	C109.278114,80.172661 108.763954,79.945442 108.082161,79.488213 
	C107.383850,79.066490 106.853165,78.874779 106.181274,78.465942 
	C105.719269,78.137108 105.398483,78.025414 104.866493,77.625168 
	C99.939598,74.840500 96.645988,77.236732 93.294418,80.664505 
	C91.514900,81.703705 90.058441,82.623398 88.594765,83.551964 
	C88.587540,83.560837 88.565933,83.568420 88.565933,83.568420 
	C86.194740,84.639977 83.247963,87.171974 81.561089,86.507164 
	C76.650513,84.571861 72.244125,81.357262 66.803741,78.151588 
	C78.536926,71.283432 89.234421,64.981956 100.000549,58.800003 
	C100.799377,58.341312 102.317711,58.344574 103.119377,58.802353 
	C112.837196,64.351601 122.485207,70.023216 132.135788,75.689522 
	C132.371140,75.827705 132.427429,76.270836 133.041077,77.050995 
	C134.353195,77.678215 135.191498,77.826180 136.029785,77.974144 
z"/>
<path fill="#F2F543" opacity="1.000000" stroke="none" 
	d="
M87.140945,89.068466 
	C88.271660,88.447365 89.402374,87.826256 90.996361,86.971710 
	C91.774399,86.634659 91.963257,86.420151 92.324089,86.046265 
	C92.906082,85.724770 93.190193,85.451752 93.636795,85.179466 
	C93.799294,85.180206 94.002502,84.926575 94.281265,84.908241 
	C94.812553,84.634354 95.065079,84.378799 95.517380,84.102509 
	C95.717163,84.081772 95.990540,83.787430 96.288956,83.746765 
	C97.382935,83.132507 98.178490,82.558914 98.985992,81.994232 
	C98.997940,82.003136 98.987480,81.976318 99.326149,81.904228 
	C100.762131,81.608948 101.859444,81.385750 102.947327,81.120834 
	C102.937889,81.079109 102.857880,81.109413 103.028053,81.357681 
	C103.742996,81.851677 104.287773,82.097412 104.837738,82.289276 
	C104.842934,82.235405 104.737251,82.258797 104.907150,82.514679 
	C105.652817,82.973862 106.228577,83.177155 106.807053,83.307983 
	C106.809769,83.235512 106.668060,83.266464 106.803619,83.508072 
	C107.280014,83.862984 107.620842,83.976303 107.966965,84.051498 
	C107.972260,84.013382 107.913063,84.062561 108.085114,84.311714 
	C108.812698,84.771042 109.368225,84.981209 109.916176,85.142807 
	C109.908600,85.094223 109.815025,85.124435 109.937439,85.340851 
	C110.319206,85.803490 110.625916,85.901466 111.073311,85.996384 
	C111.166649,86.141586 111.509987,86.177658 111.713989,86.439072 
	C112.960815,87.434517 114.003639,88.168541 115.054794,88.939178 
	C115.063141,88.975800 115.135323,88.955009 115.085045,89.262161 
	C114.547951,90.216965 114.061142,90.864616 113.574333,91.512268 
	C113.574333,91.512268 113.680634,91.717552 113.364166,91.704613 
	C112.574745,92.079712 112.101791,92.467758 111.628830,92.855797 
	C111.148460,93.014900 110.668091,93.174004 109.758820,93.601532 
	C108.875610,94.232254 108.421310,94.594551 107.967003,94.956848 
	C107.967003,94.956848 108.000000,94.999695 107.669121,95.013412 
	C107.026672,95.294571 106.715096,95.562027 106.403526,95.829475 
	C106.403526,95.829475 106.127922,95.789345 105.795044,95.931679 
	C105.231415,96.334518 105.000656,96.595024 104.769897,96.855522 
	C104.769897,96.855522 104.888298,96.882774 104.586220,96.863007 
	C103.811363,97.195763 103.338585,97.548302 102.865807,97.900833 
	C102.865807,97.900833 102.943390,97.921654 102.587585,97.921951 
	C101.523682,97.855568 100.815590,97.788887 100.107491,97.722198 
	C99.709549,97.453468 99.311607,97.184738 98.502884,96.649872 
	C97.730759,96.272293 97.369408,96.160843 97.008057,96.049393 
	C97.008057,96.049393 96.868561,95.802986 96.544327,95.548042 
	C95.822151,95.172264 95.424225,95.051422 95.026291,94.930588 
	C95.026291,94.930588 95.020851,94.998116 94.876541,94.727585 
	C94.186714,94.228882 93.641182,94.000710 93.095657,93.772530 
	C93.095657,93.772530 93.100471,93.860176 92.953522,93.578239 
	C91.631195,92.724167 90.455826,92.152031 89.280457,91.579895 
	C89.280457,91.579895 89.194389,91.718201 89.098610,91.442589 
	C88.340919,90.789879 87.679008,90.412788 87.029694,89.791534 
	C87.042290,89.547379 87.140945,89.068466 87.140945,89.068466 
z"/>
<path fill="#F4F844" opacity="1.000000" stroke="none" 
	d="
M102.873993,117.023430 
	C102.910034,116.847336 102.946075,116.671234 102.998085,115.867813 
	C102.968170,114.501366 102.922287,113.762238 102.876396,113.023117 
	C102.917847,112.565430 102.959297,112.107735 103.009521,110.874969 
	C102.975952,107.744087 102.933617,105.388290 102.891281,103.032494 
	C103.415085,102.398361 103.938889,101.764229 104.999733,101.063400 
	C105.813499,100.809830 106.090218,100.622940 106.366943,100.436066 
	C106.366943,100.436066 106.139687,100.278969 106.517212,100.298355 
	C107.341278,99.954880 107.787811,99.592026 108.234344,99.229172 
	C108.234344,99.229172 108.150230,99.191559 108.447052,99.192902 
	C109.222687,98.844833 109.701500,98.495422 110.180321,98.146011 
	C110.180321,98.146011 110.091537,98.112007 110.406769,98.096542 
	C111.026680,97.776123 111.331352,97.471176 111.636024,97.166229 
	C111.636024,97.166229 111.866600,97.244553 112.207710,97.150230 
	C112.735397,97.045403 112.921982,97.034904 113.479706,97.016296 
	C115.073753,96.861328 116.296654,96.714455 117.501518,96.569748 
	C117.991859,99.985321 118.426003,103.009369 118.917557,106.352493 
	C118.935959,107.100304 118.896942,107.529037 118.626984,108.223846 
	C118.132202,109.812462 117.868362,111.135002 117.604523,112.457535 
	C117.604515,112.457535 117.554573,112.549622 117.155937,112.432297 
	C115.163322,113.214447 113.569344,114.113922 111.975372,115.013397 
	C109.094795,116.500381 106.214218,117.987373 103.186005,118.888397 
	C102.983566,117.876099 102.928780,117.449768 102.873993,117.023430 
z"/>
<path fill="#10202F" opacity="1.000000" stroke="none" 
	d="
M118.857941,107.957771 
	C118.896942,107.529037 118.935959,107.100304 118.997894,105.893074 
	C118.997765,101.361107 118.974709,97.607628 118.967590,93.629013 
	C118.983528,93.403877 118.955658,92.953339 118.955658,92.953339 
	C118.466896,92.389526 117.978142,91.825706 117.253700,90.796814 
	C117.023476,89.886566 117.028931,89.441391 117.254852,88.771255 
	C117.683533,87.742775 117.891731,86.939262 118.329826,86.116257 
	C118.559723,86.096764 119.010170,85.996704 119.010170,85.996704 
	C119.010170,85.996704 118.999084,86.001221 119.188065,86.234085 
	C119.753784,86.602470 120.130524,86.737991 120.507263,86.873512 
	C120.507263,86.873512 120.798409,86.860497 120.914909,87.260010 
	C121.339020,88.107750 121.646629,88.555977 121.969391,89.472244 
	C121.672935,96.656860 121.361328,103.373436 121.049721,110.090012 
	C120.634979,110.074547 120.220245,110.059082 119.433899,109.696167 
	C118.994171,108.885071 118.926056,108.421425 118.857941,107.957771 
z"/>
<path fill="#18250A" opacity="1.000000" stroke="none" 
	d="
M121.043488,110.464508 
	C121.361328,103.373436 121.672935,96.656860 122.210190,89.469391 
	C122.435837,88.998505 122.916588,88.997063 122.916588,88.997063 
	C123.276260,92.540031 123.947456,96.085533 123.918770,99.625351 
	C123.880745,104.316597 123.295738,109.003395 122.617905,113.924561 
	C121.872429,113.051003 121.454842,111.945007 121.043488,110.464508 
z"/>
<path fill="#25301A" opacity="1.000000" stroke="none" 
	d="
M130.878632,127.819061 
	C132.722214,126.271370 134.962006,124.731659 137.802673,123.072609 
	C138.583023,122.928062 138.762527,122.902847 138.833282,123.184853 
	C138.489075,124.322403 138.253601,125.152725 138.011093,125.989624 
	C138.004059,125.996208 137.989014,126.011070 137.989014,126.011078 
	C135.750961,126.616402 133.512894,127.221725 130.878632,127.819061 
z"/>
<path fill="#25301A" opacity="1.000000" stroke="none" 
	d="
M59.655190,122.106880 
	C59.548409,120.678673 59.441628,119.250473 59.432045,117.400909 
	C60.295834,119.778839 61.062431,122.578125 61.853043,125.778351 
	C61.151428,125.504257 60.425797,124.829247 59.791000,123.598549 
	C59.924690,122.702156 59.849140,122.390160 59.655190,122.106880 
z"/>
<path fill="#4E561B" opacity="1.000000" stroke="none" 
	d="
M63.434357,106.446304 
	C63.680157,111.583511 63.925953,116.720711 64.185768,122.301758 
	C63.786770,121.093521 63.373756,119.441444 62.965996,116.922134 
	C63.125622,112.852028 63.279991,109.649170 63.434357,106.446304 
z"/>
<path fill="#232F1A" opacity="1.000000" stroke="none" 
	d="
M85.927574,93.791107 
	C83.672974,93.003204 81.450478,91.862801 79.027199,90.451187 
	C78.826416,90.179993 79.029488,89.984375 79.484802,89.950531 
	C81.960899,90.612061 83.981689,91.307434 86.005753,92.005875 
	C86.009033,92.008934 86.024368,92.024429 86.024368,92.024429 
	C86.002808,92.495819 85.981239,92.967216 85.927574,93.791107 
z"/>
<path fill="#25301A" opacity="1.000000" stroke="none" 
	d="
M104.621201,147.014984 
	C102.323135,150.346756 99.736885,148.419739 96.938782,146.550415 
	C99.223564,146.515411 101.711678,146.758240 104.621201,147.014984 
z"/>
<path fill="#25301A" opacity="1.000000" stroke="none" 
	d="
M63.490570,106.305679 
	C63.279991,109.649170 63.125622,112.852028 62.945610,116.519638 
	C62.849815,113.489975 62.779659,109.995567 63.022358,106.224731 
	C63.335213,105.948311 63.546780,106.165062 63.490570,106.305679 
z"/>
<path fill="#E2E662" opacity="1.000000" stroke="none" 
	d="
M112.338943,115.018936 
	C113.569344,114.113922 115.163322,113.214447 117.108444,112.454391 
	C115.873894,113.404030 114.288208,114.214249 112.338943,115.018936 
z"/>
<path fill="#232F1A" opacity="1.000000" stroke="none" 
	d="
M102.669739,103.336777 
	C102.933617,105.388290 102.975952,107.744087 102.943726,110.535149 
	C102.728836,108.527298 102.588516,106.084175 102.669739,103.336777 
z"/>
<path fill="#25301A" opacity="1.000000" stroke="none" 
	d="
M121.807861,137.112122 
	C120.691818,138.105057 119.211929,139.063248 117.399597,140.077209 
	C118.526108,139.114426 119.985062,138.095901 121.807861,137.112122 
z"/>
<path fill="#232F1A" opacity="1.000000" stroke="none" 
	d="
M99.457298,112.900871 
	C99.101532,111.931442 99.054214,110.864273 99.078865,109.402100 
	C99.355804,110.272446 99.560776,111.537788 99.457298,112.900871 
z"/>
<path fill="#232F1A" opacity="1.000000" stroke="none" 
	d="
M117.034386,88.996216 
	C117.028931,89.441391 117.023476,89.886566 117.001282,90.665283 
	C116.077789,91.233475 115.171051,91.468117 113.919319,91.607513 
	C114.061142,90.864616 114.547951,90.216965 115.401566,89.259628 
	C116.190369,88.965370 116.612381,88.980789 117.034386,88.996216 
z"/>
<path fill="#25301A" opacity="1.000000" stroke="none" 
	d="
M65.645676,128.004028 
	C65.070656,128.163010 64.507011,127.945244 63.649521,127.649506 
	C62.928741,127.253632 62.501812,126.935738 61.950932,126.378662 
	C63.103668,126.635422 64.380356,127.131363 65.645676,128.004028 
z"/>
<path fill="#25301A" opacity="1.000000" stroke="none" 
	d="
M86.326675,135.978943 
	C87.398331,136.219711 88.555901,136.809326 89.906860,137.661560 
	C88.871025,137.392044 87.641808,136.859909 86.326675,135.978943 
z"/>
<path fill="#25301A" opacity="1.000000" stroke="none" 
	d="
M59.083683,101.445160 
	C59.147202,101.024078 59.527538,100.965408 59.716217,100.931641 
	C59.934162,102.647469 59.963425,104.397057 59.790520,106.567665 
	C59.588352,106.988686 59.193878,106.967743 59.193878,106.967743 
	C59.135975,105.267242 59.078072,103.566750 59.083683,101.445160 
z"/>
<path fill="#25301A" opacity="1.000000" stroke="none" 
	d="
M135.769501,129.085266 
	C135.050690,129.817520 133.965515,130.521713 132.559494,131.297241 
	C133.293472,130.598129 134.348282,129.827667 135.769501,129.085266 
z"/>
<path fill="#E2E662" opacity="1.000000" stroke="none" 
	d="
M118.626991,108.223846 
	C118.926056,108.421425 118.994171,108.885071 119.122597,109.696945 
	C118.806061,110.721802 118.429214,111.398445 117.828445,112.266312 
	C117.868362,111.135002 118.132202,109.812462 118.626991,108.223846 
z"/>
<path fill="#232F1A" opacity="1.000000" stroke="none" 
	d="
M87.017090,90.035698 
	C87.679008,90.412788 88.340919,90.789879 89.168076,91.400055 
	C88.507675,91.750000 87.682037,91.866867 86.440384,92.004082 
	C86.024368,92.024429 86.009033,92.008934 86.047943,91.718903 
	C86.396927,90.964485 86.707008,90.500092 87.017090,90.035698 
z"/>
<path fill="#232F1A" opacity="1.000000" stroke="none" 
	d="
M89.352722,91.939735 
	C90.455826,92.152031 91.631195,92.724167 92.995552,93.565598 
	C91.931358,93.323128 90.678169,92.811356 89.352722,91.939735 
z"/>
<path fill="#25301A" opacity="1.000000" stroke="none" 
	d="
M141.207306,126.240189 
	C140.350449,126.817741 139.493591,127.395294 138.322327,128.006561 
	C138.005905,127.589218 138.003876,127.138161 137.995422,126.349083 
	C137.989014,126.011070 138.004059,125.996208 138.374542,125.998001 
	C139.470490,125.959351 140.195969,125.918892 140.991028,125.970352 
	C141.060608,126.062279 141.207306,126.240189 141.207306,126.240189 
z"/>
<path fill="#232F1A" opacity="1.000000" stroke="none" 
	d="
M89.652283,96.045418 
	C88.557747,95.822670 87.384918,95.245911 86.037552,94.391472 
	C87.100006,94.639664 88.336998,95.165535 89.652283,96.045418 
z"/>
<path fill="#3D4523" opacity="1.000000" stroke="none" 
	d="
M59.119576,107.382835 
	C59.193878,106.967743 59.588352,106.988686 59.785217,107.002266 
	C59.893818,108.468834 59.805557,109.921814 59.520874,111.677452 
	C59.231388,110.586044 59.138332,109.191986 59.119576,107.382835 
z"/>
<path fill="#25301A" opacity="1.000000" stroke="none" 
	d="
M109.813400,144.133820 
	C109.089142,144.844559 108.010567,145.555801 106.618271,146.361969 
	C107.356056,145.682693 108.407570,144.908508 109.813400,144.133820 
z"/>
<path fill="#25301A" opacity="1.000000" stroke="none" 
	d="
M77.568741,135.724609 
	C76.879990,135.332123 76.479362,134.982529 75.943344,134.398712 
	C76.765297,134.589813 77.722641,135.015137 78.833481,135.734528 
	C78.610275,135.941574 78.233559,135.854553 77.568741,135.724609 
z"/>
<path fill="#232F1A" opacity="1.000000" stroke="none" 
	d="
M92.790466,97.850052 
	C91.982643,97.724533 91.038681,97.281174 89.890503,96.596184 
	C90.675629,96.747101 91.664970,97.139648 92.790466,97.850052 
z"/>
<path fill="#25301A" opacity="1.000000" stroke="none" 
	d="
M99.032547,143.293243 
	C99.504143,143.249420 100.021065,143.470261 100.749893,143.888794 
	C100.333832,143.910294 99.705841,143.734100 99.032547,143.293243 
z"/>
<path fill="#25301A" opacity="1.000000" stroke="none" 
	d="
M67.883713,106.794510 
	C67.399277,106.927216 66.807739,106.832710 66.079781,106.466858 
	C66.554451,106.319443 67.165527,106.443375 67.883713,106.794510 
z"/>
<path fill="#232F1A" opacity="1.000000" stroke="none" 
	d="
M102.685074,113.231750 
	C102.922287,113.762238 102.968170,114.501366 102.939529,115.604630 
	C102.741257,115.125969 102.617508,114.283180 102.685074,113.231750 
z"/>
<path fill="#25301A" opacity="1.000000" stroke="none" 
	d="
M120.281479,133.935272 
	C120.638748,133.439011 121.366409,132.947586 122.421997,132.378357 
	C122.050575,132.847076 121.351227,133.393616 120.281479,133.935272 
z"/>
<path fill="#232F1A" opacity="1.000000" stroke="none" 
	d="
M100.259521,97.990631 
	C100.815590,97.788887 101.523682,97.855568 102.592270,97.882065 
	C102.105690,97.980934 101.258629,98.119995 100.259521,97.990631 
z"/>
<path fill="#232F1A" opacity="1.000000" stroke="none" 
	d="
M97.834274,100.937469 
	C97.336472,101.039894 96.763275,100.896446 96.058578,100.485107 
	C96.537674,100.375359 97.148277,100.533478 97.834274,100.937469 
z"/>
<path fill="#25301A" opacity="1.000000" stroke="none" 
	d="
M72.364716,127.890625 
	C72.791496,127.835564 73.329391,128.082123 74.029480,128.580032 
	C73.619728,128.618332 73.047775,128.405289 72.364716,127.890625 
z"/>
<path fill="#25301A" opacity="1.000000" stroke="none" 
	d="
M93.309052,139.960526 
	C93.728165,139.904831 94.279846,140.135925 94.988548,140.626740 
	C94.577583,140.673386 94.009598,140.460358 93.309052,139.960526 
z"/>
<path fill="#25301A" opacity="1.000000" stroke="none" 
	d="
M68.744522,129.969406 
	C68.354347,130.007736 67.814384,129.774368 67.094604,129.303223 
	C67.474762,129.276199 68.034752,129.486954 68.744522,129.969406 
z"/>
<path fill="#25301A" opacity="1.000000" stroke="none" 
	d="
M103.087997,143.857910 
	C103.248322,143.507050 103.732697,143.146408 104.531555,142.738586 
	C104.368034,143.076996 103.890030,143.462555 103.087997,143.857910 
z"/>
<path fill="#25301A" opacity="1.000000" stroke="none" 
	d="
M96.680923,146.050110 
	C96.265274,146.101929 95.721146,145.863861 95.012039,145.374878 
	C95.415527,145.336075 95.983978,145.548141 96.680923,146.050110 
z"/>
<path fill="#25301A" opacity="1.000000" stroke="none" 
	d="
M111.713417,143.038681 
	C111.563171,143.376328 111.111336,143.742874 110.368637,144.148468 
	C110.522453,143.814209 110.967148,143.440903 111.713417,143.038681 
z"/>
<path fill="#25301A" opacity="1.000000" stroke="none" 
	d="
M94.765396,144.914932 
	C94.365540,144.974243 93.799774,144.777054 93.080788,144.316101 
	C93.484871,144.254364 94.042183,144.456406 94.765396,144.914932 
z"/>
<path fill="#25301A" opacity="1.000000" stroke="none" 
	d="
M69.243484,126.053658 
	C69.642479,126.008438 70.191833,126.230331 70.897438,126.708435 
	C70.500404,126.750015 69.947128,126.535393 69.243484,126.053658 
z"/>
<path fill="#25301A" opacity="1.000000" stroke="none" 
	d="
M115.182953,136.883331 
	C115.328255,136.531586 115.789474,136.168732 116.548111,135.750916 
	C116.396637,136.088058 115.947746,136.480148 115.182953,136.883331 
z"/>
<path fill="#25301A" opacity="1.000000" stroke="none" 
	d="
M87.772606,140.896362 
	C87.388969,140.942703 86.834915,140.739700 86.116898,140.283966 
	C86.502678,140.236511 87.052437,140.441757 87.772606,140.896362 
z"/>
<path fill="#25301A" opacity="1.000000" stroke="none" 
	d="
M108.204140,140.898743 
	C108.338287,140.539383 108.786346,140.162140 109.527710,139.728119 
	C109.386696,140.074509 108.952377,140.477692 108.204140,140.898743 
z"/>
<path fill="#25301A" opacity="1.000000" stroke="none" 
	d="
M116.808853,140.109360 
	C116.645081,140.441849 116.170410,140.784973 115.393631,141.168182 
	C115.560326,140.845505 116.029137,140.482758 116.808853,140.109360 
z"/>
<path fill="#25301A" opacity="1.000000" stroke="none" 
	d="
M89.702026,142.025818 
	C89.293808,142.074326 88.747330,141.839767 88.032639,141.355392 
	C88.430862,141.317963 88.997314,141.530350 89.702026,142.025818 
z"/>
<path fill="#25301A" opacity="1.000000" stroke="none" 
	d="
M110.063431,139.759216 
	C110.225769,139.402802 110.714020,139.072586 111.500877,138.689331 
	C111.329430,139.019318 110.859383,139.402359 110.063431,139.759216 
z"/>
<path fill="#25301A" opacity="1.000000" stroke="none" 
	d="
M91.359146,138.912613 
	C91.794998,138.821976 92.365822,139.024445 93.097229,139.487091 
	C92.669907,139.566757 92.082008,139.386246 91.359146,138.912613 
z"/>
<path fill="#25301A" opacity="1.000000" stroke="none" 
	d="
M112.040527,138.724762 
	C112.148399,138.343704 112.583252,137.988571 113.293869,137.549454 
	C113.168922,137.893875 112.768219,138.322281 112.040527,138.724762 
z"/>
<path fill="#25301A" opacity="1.000000" stroke="none" 
	d="
M84.653839,139.060532 
	C84.214905,139.128036 83.621696,138.899567 82.852737,138.402832 
	C83.284515,138.344559 83.892036,138.554550 84.653839,139.060532 
z"/>
<path fill="#25301A" opacity="1.000000" stroke="none" 
	d="
M95.231079,141.089600 
	C95.623726,141.032486 96.181610,141.227356 96.890732,141.680527 
	C96.493416,141.739761 95.944870,141.540680 95.231079,141.089600 
z"/>
<path fill="#25301A" opacity="1.000000" stroke="none" 
	d="
M123.798592,136.094177 
	C123.633621,136.427979 123.159111,136.776062 122.383835,137.159653 
	C122.551727,136.832932 123.020393,136.470703 123.798592,136.094177 
z"/>
<path fill="#25301A" opacity="1.000000" stroke="none" 
	d="
M74.260017,129.043823 
	C74.673485,128.967789 75.250816,129.157257 75.983612,129.613159 
	C75.567352,129.689499 74.995613,129.499420 74.260017,129.043823 
z"/>
<path fill="#25301A" opacity="1.000000" stroke="none" 
	d="
M125.683907,135.020554 
	C125.528458,135.345718 125.077820,135.700348 124.336868,136.084778 
	C124.493942,135.759735 124.941330,135.404877 125.683907,135.020554 
z"/>
<path fill="#25301A" opacity="1.000000" stroke="none" 
	d="
M117.079536,135.781738 
	C117.230919,135.420670 117.706657,135.073013 118.484207,134.675842 
	C118.325310,135.015961 117.864601,135.405563 117.079536,135.781738 
z"/>
<path fill="#25301A" opacity="1.000000" stroke="none" 
	d="
M84.432159,134.837952 
	C84.868919,134.756454 85.404747,134.986557 86.117844,135.449280 
	C85.707153,135.504440 85.119186,135.326996 84.432159,134.837952 
z"/>
<path fill="#25301A" opacity="1.000000" stroke="none" 
	d="
M91.642258,143.098724 
	C91.211540,143.176346 90.653984,142.955566 89.924347,142.486862 
	C90.339989,142.426086 90.927704,142.613220 91.642258,143.098724 
z"/>
<path fill="#25301A" opacity="1.000000" stroke="none" 
	d="
M75.746231,133.953308 
	C75.362778,133.989746 74.824928,133.759323 74.103027,133.292877 
	C74.476593,133.266708 75.034218,133.476578 75.746231,133.953308 
z"/>
<path fill="#25301A" opacity="1.000000" stroke="none" 
	d="
M79.365784,131.899872 
	C79.798416,131.853149 80.358681,132.110184 81.088837,132.628967 
	C80.670280,132.661682 80.081848,132.432632 79.365784,131.899872 
z"/>
<path fill="#25301A" opacity="1.000000" stroke="none" 
	d="
M123.917427,131.824310 
	C124.080589,131.458496 124.591217,131.090302 125.415207,130.636475 
	C125.240685,130.974533 124.752785,131.398224 123.917427,131.824310 
z"/>
<path fill="#25301A" opacity="1.000000" stroke="none" 
	d="
M97.214676,142.183289 
	C97.573906,142.149216 98.096352,142.353668 98.790955,142.788361 
	C98.434708,142.819672 97.906303,142.620743 97.214676,142.183289 
z"/>
<path fill="#25301A" opacity="1.000000" stroke="none" 
	d="
M70.697388,131.028030 
	C70.273514,131.104080 69.702499,130.896103 68.965820,130.429962 
	C69.383530,130.362534 69.966888,130.553268 70.697388,131.028030 
z"/>
<path fill="#25301A" opacity="1.000000" stroke="none" 
	d="
M127.210625,129.903809 
	C127.374741,129.577713 127.846313,129.235977 128.620728,128.855728 
	C128.455078,129.174194 127.986580,129.531189 127.210625,129.903809 
z"/>
<path fill="#232F1A" opacity="1.000000" stroke="none" 
	d="
M93.248383,94.040558 
	C93.641182,94.000710 94.186714,94.228882 94.901428,94.704605 
	C94.514114,94.737633 93.957619,94.523109 93.248383,94.040558 
z"/>
<path fill="#232F1A" opacity="1.000000" stroke="none" 
	d="
M108.271477,94.928413 
	C108.421310,94.594551 108.875610,94.232254 109.623207,93.819626 
	C109.469650,94.146187 109.022804,94.523087 108.271477,94.928413 
z"/>
<path fill="#232F1A" opacity="1.000000" stroke="none" 
	d="
M114.871765,94.871994 
	C115.370491,94.584618 115.869217,94.297249 116.690506,94.010178 
	C117.013077,94.010483 117.089577,94.112244 116.923676,94.348969 
	C116.223495,94.787704 115.689232,94.989708 115.084702,95.111305 
	C115.014435,95.030899 114.871765,94.871986 114.871765,94.871994 
z"/>
<path fill="#232F1A" opacity="1.000000" stroke="none" 
	d="
M118.671509,92.994637 
	C118.955658,92.953339 118.983528,93.403877 118.652115,93.615204 
	C117.910324,93.921768 117.499954,94.017006 117.089577,94.112244 
	C117.089577,94.112244 117.013077,94.010483 116.977829,93.957634 
	C117.424164,93.615166 117.905762,93.325554 118.671509,92.994637 
z"/>
<path fill="#232F1A" opacity="1.000000" stroke="none" 
	d="
M111.971085,92.845474 
	C112.101791,92.467758 112.574745,92.079712 113.342720,91.591034 
	C113.196274,91.938644 112.754814,92.386894 111.971085,92.845474 
z"/>
<path fill="#232F1A" opacity="1.000000" stroke="none" 
	d="
M112.932182,95.953712 
	C113.396629,95.643204 113.861069,95.332695 114.598640,94.947083 
	C114.871765,94.871986 115.014435,95.030899 114.927933,95.341797 
	C114.335945,95.873474 113.830460,96.094269 113.227585,96.223839 
	C113.130196,96.132622 112.932182,95.953712 112.932182,95.953712 
z"/>
<path fill="#232F1A" opacity="1.000000" stroke="none" 
	d="
M103.179451,97.887604 
	C103.338585,97.548302 103.811363,97.195763 104.590248,96.802383 
	C104.428604,97.132484 103.960854,97.503433 103.179451,97.887604 
z"/>
<path fill="#232F1A" opacity="1.000000" stroke="none" 
	d="
M94.722496,99.037491 
	C94.303474,99.090530 93.736252,98.863739 93.011444,98.373169 
	C93.427330,98.325478 94.000816,98.541565 94.722496,99.037491 
z"/>
<path fill="#232F1A" opacity="1.000000" stroke="none" 
	d="
M109.862076,98.148338 
	C109.701500,98.495422 109.222687,98.844833 108.442299,99.238724 
	C108.608429,98.905693 109.076134,98.528183 109.862076,98.148338 
z"/>
<path fill="#232F1A" opacity="1.000000" stroke="none" 
	d="
M107.908676,99.218399 
	C107.787811,99.592026 107.341278,99.954880 106.612106,100.398735 
	C106.747322,100.055702 107.165169,99.631668 107.908676,99.218399 
z"/>
<path fill="#25301A" opacity="1.000000" stroke="none" 
	d="
M70.277863,104.002510 
	C70.671333,103.963577 71.210022,104.200104 71.925980,104.678268 
	C71.543205,104.705940 70.983147,104.491959 70.277863,104.002510 
z"/>
<path fill="#232F1A" opacity="1.000000" stroke="none" 
	d="
M99.264046,118.947876 
	C98.934967,118.602272 99.029755,118.311348 99.578186,118.015045 
	C99.696785,118.268837 99.582146,118.599800 99.264046,118.947876 
z"/>
<path fill="#232F1A" opacity="1.000000" stroke="none" 
	d="
M102.706009,117.189133 
	C102.928780,117.449768 102.983566,117.876099 102.981926,118.620964 
	C102.796341,118.411270 102.667183,117.883057 102.706009,117.189133 
z"/>
<path fill="#25301A" opacity="1.000000" stroke="none" 
	d="
M69.774284,107.905365 
	C69.400307,107.935753 68.866585,107.710999 68.154495,107.250595 
	C68.522255,107.226707 69.068398,107.438461 69.774284,107.905365 
z"/>
<path fill="#25301A" opacity="1.000000" stroke="none" 
	d="
M68.216156,103.189438 
	C68.606613,103.064140 69.212563,103.166290 70.019646,103.528427 
	C69.624397,103.664574 69.028023,103.540726 68.216156,103.189438 
z"/>
<path fill="#25301A" opacity="1.000000" stroke="none" 
	d="
M72.219528,105.135048 
	C72.600273,105.083755 73.155510,105.274490 73.870514,105.719208 
	C73.484856,105.774490 72.939438,105.575783 72.219528,105.135048 
z"/>
<path fill="#25301A" opacity="1.000000" stroke="none" 
	d="
M106.109253,146.385620 
	C106.102074,146.584473 105.827751,146.793091 105.286674,147.021362 
	C105.293983,146.825775 105.568047,146.610565 106.109253,146.385620 
z"/>
<path fill="#25301A" opacity="1.000000" stroke="none" 
	d="
M85.820145,139.834320 
	C85.640579,139.941132 85.301811,139.836655 84.825020,139.496796 
	C85.011642,139.381943 85.336281,139.502472 85.820145,139.834320 
z"/>
<path fill="#25301A" opacity="1.000000" stroke="none" 
	d="
M92.805634,143.858994 
	C92.623726,143.969742 92.284309,143.862900 91.799255,143.526611 
	C91.985115,143.411911 92.316628,143.526672 92.805634,143.858994 
z"/>
<path fill="#25301A" opacity="1.000000" stroke="none" 
	d="
M112.820724,142.556015 
	C112.824066,142.747314 112.687500,142.867279 112.278587,142.999954 
	C112.106789,142.664139 112.331650,142.488144 112.820724,142.556015 
z"/>
<path fill="#25301A" opacity="1.000000" stroke="none" 
	d="
M106.642319,141.723389 
	C106.650269,141.499786 106.976212,141.223434 107.629929,140.917084 
	C107.625229,141.148270 107.292770,141.409454 106.642319,141.723389 
z"/>
<path fill="#25301A" opacity="1.000000" stroke="none" 
	d="
M114.956352,141.190628 
	C114.971161,141.390533 114.742683,141.650925 114.246689,141.913055 
	C114.223816,141.693542 114.468445,141.472321 114.956352,141.190628 
z"/>
<path fill="#25301A" opacity="1.000000" stroke="none" 
	d="
M104.980560,142.734344 
	C104.960434,142.524506 105.203049,142.256317 105.724121,141.963852 
	C105.749489,142.185043 105.496399,142.430511 104.980560,142.734344 
z"/>
<path fill="#25301A" opacity="1.000000" stroke="none" 
	d="
M132.068237,131.315125 
	C132.081100,131.521423 131.828064,131.764755 131.304764,132.038116 
	C131.290466,131.829483 131.546402,131.590820 132.068237,131.315125 
z"/>
<path fill="#25301A" opacity="1.000000" stroke="none" 
	d="
M68.161781,125.323013 
	C68.330925,125.222878 68.656281,125.305656 69.087395,125.630249 
	C68.860069,125.848885 68.568344,125.726845 68.161781,125.323013 
z"/>
<path fill="#25301A" opacity="1.000000" stroke="none" 
	d="
M71.188835,127.156876 
	C71.367294,127.041626 71.711342,127.136292 72.203888,127.459396 
	C72.019722,127.580818 71.687080,127.473808 71.188835,127.156876 
z"/>
<path fill="#25301A" opacity="1.000000" stroke="none" 
	d="
M66.795891,128.876434 
	C66.618538,128.994995 66.277901,128.903076 65.787361,128.584869 
	C65.969170,128.461014 66.300896,128.563492 66.795891,128.876434 
z"/>
<path fill="#25301A" opacity="1.000000" stroke="none" 
	d="
M74.200211,106.191422 
	C74.378159,106.100731 74.737640,106.234375 75.265091,106.612152 
	C75.082626,106.709450 74.732193,106.562599 74.200211,106.191422 
z"/>
<path fill="#25301A" opacity="1.000000" stroke="none" 
	d="
M129.058350,128.824921 
	C129.038849,128.631378 129.256226,128.370911 129.735687,128.098419 
	C129.833694,128.383591 129.599518,128.607452 129.058350,128.824921 
z"/>
<path fill="#25301A" opacity="1.000000" stroke="none" 
	d="
M137.313446,128.267181 
	C137.314804,128.488693 137.005020,128.775101 136.374985,129.105072 
	C136.370590,128.876465 136.686447,128.604263 137.313446,128.267181 
z"/>
<path fill="#232F1A" opacity="1.000000" stroke="none" 
	d="
M106.119507,100.409332 
	C106.090218,100.622940 105.813499,100.809830 105.285782,100.936867 
	C105.247574,100.599930 105.526672,100.435127 106.119507,100.409332 
z"/>
<path fill="#25301A" opacity="1.000000" stroke="none" 
	d="
M76.263313,130.089737 
	C76.466034,129.984268 76.864090,130.133926 77.449707,130.548706 
	C77.244400,130.657516 76.851524,130.501190 76.263313,130.089737 
z"/>
<path fill="#25301A" opacity="1.000000" stroke="none" 
	d="
M125.895096,130.619141 
	C125.886368,130.408493 126.146782,130.179062 126.674957,129.921600 
	C126.683220,130.129150 126.423729,130.364761 125.895096,130.619141 
z"/>
<path fill="#25301A" opacity="1.000000" stroke="none" 
	d="
M71.828949,131.782776 
	C71.652275,131.887466 71.316017,131.787903 70.848755,131.449722 
	C71.034950,131.333572 71.352165,131.456055 71.828949,131.782776 
z"/>
<path fill="#25301A" opacity="1.000000" stroke="none" 
	d="
M78.168442,131.169312 
	C78.345566,131.051727 78.695602,131.139191 79.194969,131.460938 
	C79.009987,131.588272 78.675674,131.481308 78.168442,131.169312 
z"/>
<path fill="#25301A" opacity="1.000000" stroke="none" 
	d="
M90.198166,138.116638 
	C90.385971,138.005829 90.727806,138.116241 91.204239,138.470428 
	C91.009956,138.588760 90.681076,138.463318 90.198166,138.116638 
z"/>
<path fill="#25301A" opacity="1.000000" stroke="none" 
	d="
M73.762573,132.850464 
	C73.571915,132.959183 73.175079,132.840912 72.600464,132.459198 
	C72.800591,132.338333 73.178497,132.480927 73.762573,132.850464 
z"/>
<path fill="#232F1A" opacity="1.000000" stroke="none" 
	d="
M111.319366,97.244583 
	C111.331352,97.471176 111.026680,97.776123 110.398056,98.143272 
	C110.383629,97.911293 110.693169,97.617111 111.319366,97.244583 
z"/>
<path fill="#25301A" opacity="1.000000" stroke="none" 
	d="
M83.218704,134.076523 
	C83.402382,133.954666 83.743065,134.056107 84.240356,134.379608 
	C84.056541,134.501053 83.716125,134.400436 83.218704,134.076523 
z"/>
<path fill="#25301A" opacity="1.000000" stroke="none" 
	d="
M118.932144,134.682770 
	C118.913849,134.472855 119.161232,134.220032 119.680328,133.936111 
	C119.700638,134.149979 119.449226,134.394928 118.932144,134.682770 
z"/>
<path fill="#25301A" opacity="1.000000" stroke="none" 
	d="
M127.119461,134.215622 
	C127.122826,134.420242 126.854233,134.688187 126.291351,134.970261 
	C126.280540,134.749237 126.564018,134.514084 127.119461,134.215622 
z"/>
<path fill="#232F1A" opacity="1.000000" stroke="none" 
	d="
M113.108559,97.024399 
	C112.921982,97.034904 112.735397,97.045403 112.268593,97.044785 
	C112.119507,96.732361 112.307518,96.472160 112.742294,96.103378 
	C112.932182,95.953712 113.130196,96.132622 113.180984,96.403458 
	C113.231773,96.674301 113.108559,97.024399 113.108559,97.024399 
z"/>
<path fill="#232F1A" opacity="1.000000" stroke="none" 
	d="
M105.017326,96.791237 
	C105.000656,96.595024 105.231415,96.334518 105.729828,96.054718 
	C105.753242,96.265930 105.508995,96.496437 105.017326,96.791237 
z"/>
<path fill="#232F1A" opacity="1.000000" stroke="none" 
	d="
M97.196243,96.257103 
	C97.369408,96.160843 97.730759,96.272293 98.255219,96.624207 
	C98.073692,96.731384 97.729057,96.598099 97.196243,96.257103 
z"/>
<path fill="#232F1A" opacity="1.000000" stroke="none" 
	d="
M106.706696,95.769188 
	C106.715096,95.562027 107.026672,95.294571 107.652786,94.992432 
	C107.648178,95.208138 107.329025,95.458519 106.706696,95.769188 
z"/>
<path fill="#232F1A" opacity="1.000000" stroke="none" 
	d="
M95.234482,95.158249 
	C95.424225,95.051422 95.822151,95.172264 96.402847,95.553246 
	C96.204628,95.670898 95.823647,95.528404 95.234482,95.158249 
z"/>
<path fill="#25301A" opacity="1.000000" stroke="none" 
	d="
M113.847458,137.500443 
	C113.854622,137.281342 114.132500,137.079956 114.673309,136.867554 
	C114.663559,137.077072 114.390862,137.297607 113.847458,137.500443 
z"/>
<path fill="#101F2E" opacity="1.000000" stroke="none" 
	d="
M138.956375,79.083740 
	C139.737595,78.725075 140.518814,78.366409 141.653748,78.244904 
	C142.007446,78.482056 142.032791,78.957779 142.023865,79.431259 
	C142.004028,90.931915 141.993134,101.959084 141.722137,112.993713 
	C141.288620,113.005501 141.115189,113.009827 140.951324,112.573982 
	C140.665939,101.764954 140.370987,91.396080 140.190964,80.912193 
	C140.452988,80.462837 140.361542,80.194199 139.835297,79.967491 
	C139.639038,79.943733 139.243851,79.931862 139.158096,79.724533 
	C139.072342,79.517212 138.956375,79.083740 138.956375,79.083740 
z"/>
<path fill="#EEF763" opacity="1.000000" stroke="none" 
	d="
M138.699585,79.049103 
	C138.956375,79.083740 139.072342,79.517212 139.083313,80.194763 
	C139.155548,94.234367 139.216827,107.596413 139.198700,121.273666 
	C139.060196,122.018456 139.001114,122.448036 138.942017,122.877625 
	C138.762527,122.902847 138.583023,122.928062 138.130417,122.938728 
	C137.888779,108.609032 137.920258,94.293877 137.938629,79.512260 
	C138.097946,79.035355 138.270370,79.024918 138.699585,79.049103 
z"/>
<path fill="#11212C" opacity="1.000000" stroke="none" 
	d="
M87.029694,89.791534 
	C86.707008,90.500092 86.396927,90.964485 86.044662,91.715851 
	C83.981689,91.307434 81.960899,90.612061 79.587059,89.853470 
	C81.662216,89.383110 84.090416,88.975952 86.829788,88.818634 
	C87.140945,89.068466 87.042290,89.547379 87.029694,89.791534 
z"/>
<path fill="#11212C" opacity="1.000000" stroke="none" 
	d="
M92.026199,86.094742 
	C91.963257,86.420151 91.774399,86.634659 91.237534,86.752060 
	C90.284912,85.913544 89.554382,85.061234 88.694901,83.888672 
	C88.565933,83.568420 88.587540,83.560837 88.982666,83.670189 
	C89.914032,83.837402 90.450279,83.895264 91.108734,84.164215 
	C91.424187,84.642891 91.665604,84.855865 91.967072,85.284744 
	C91.994705,85.735085 92.010452,85.914909 92.026199,86.094742 
z"/>
<path fill="#25301A" opacity="1.000000" stroke="none" 
	d="
M142.032791,78.957779 
	C142.032791,78.957779 142.007446,78.482056 141.992584,78.244446 
	C141.984390,77.601616 141.991043,77.196404 141.997772,76.487961 
	C141.997833,76.184731 142.428940,76.108459 142.647278,76.123734 
	C142.962738,76.465759 143.059875,76.792503 143.128601,77.702812 
	C143.042892,78.522438 142.985580,78.758492 142.704559,78.985046 
	C142.480835,78.975533 142.032791,78.957779 142.032791,78.957779 
z"/>
<path fill="#EEF763" opacity="1.000000" stroke="none" 
	d="
M135.830078,77.702728 
	C135.191498,77.826180 134.353195,77.678215 133.289490,77.301186 
	C133.919525,77.191849 134.774948,77.311584 135.830078,77.702728 
z"/>
<path fill="#25301A" opacity="1.000000" stroke="none" 
	d="
M143.065735,125.018326 
	C143.065735,125.018326 142.907028,125.416351 142.870636,125.627411 
	C142.474960,125.936394 142.115662,126.034317 141.481842,126.186218 
	C141.207306,126.240189 141.060608,126.062279 141.144073,125.806885 
	C141.624329,125.372276 142.021149,125.193069 142.579590,125.061554 
	C142.741211,125.109261 143.065735,125.018326 143.065735,125.018326 
z"/>
<path fill="#686F12" opacity="1.000000" stroke="none" 
	d="
M142.928268,78.994553 
	C142.985580,78.758492 143.042892,78.522438 143.222015,77.942551 
	C143.343842,77.598717 143.733215,77.740135 143.903473,77.857941 
	C144.036087,93.311203 143.998444,108.646660 143.923859,124.442703 
	C143.886902,124.903297 143.477524,124.968620 143.271637,124.993469 
	C143.065735,125.018326 142.741211,125.109261 142.736862,124.815903 
	C142.770294,124.332718 142.808075,124.142883 142.903076,123.491562 
	C142.949600,108.351555 142.938934,93.673058 142.928268,78.994553 
z"/>
<path fill="#3D4523" opacity="1.000000" stroke="none" 
	d="
M59.557255,122.340759 
	C59.849140,122.390160 59.924690,122.702156 59.812546,123.280426 
	C59.648613,123.203537 59.553967,122.889084 59.557255,122.340759 
z"/>
<path fill="#232F1A" opacity="1.000000" stroke="none" 
	d="
M93.617477,80.545006 
	C96.645988,77.236732 99.939598,74.840500 104.820847,77.685287 
	C104.986397,78.033958 104.900200,78.157913 104.500702,78.114349 
	C100.749046,79.069473 97.396881,80.068161 93.938263,80.936111 
	C93.831802,80.805359 93.617477,80.545006 93.617477,80.545006 
z"/>
<path fill="#232F1A" opacity="1.000000" stroke="none" 
	d="
M90.986519,83.953125 
	C90.450279,83.895264 89.914032,83.837402 88.989891,83.661316 
	C90.058441,82.623398 91.514900,81.703705 93.294418,80.664505 
	C93.617477,80.545006 93.831802,80.805359 93.725418,81.152802 
	C92.741531,82.317879 91.864029,83.135498 90.986519,83.953125 
z"/>
<path fill="#232F1A" opacity="1.000000" stroke="none" 
	d="
M118.847122,85.704788 
	C119.010170,85.996704 118.559723,86.096764 117.992859,86.028732 
	C115.934738,84.991844 114.443466,84.022995 113.042847,82.961281 
	C113.133492,82.868416 113.318298,82.686180 113.318298,82.686180 
	C115.106888,83.595078 116.895485,84.503975 118.847122,85.704788 
z"/>
<path fill="#232F1A" opacity="1.000000" stroke="none" 
	d="
M122.940247,88.684753 
	C122.916588,88.997063 122.435837,88.998505 122.195038,89.001358 
	C121.646629,88.555977 121.339020,88.107750 120.993240,87.382889 
	C121.624680,87.528320 122.294289,87.950378 122.940247,88.684753 
z"/>
<path fill="#232F1A" opacity="1.000000" stroke="none" 
	d="
M106.322487,78.683067 
	C106.853165,78.874779 107.383850,79.066490 108.002472,79.581314 
	C108.090416,79.904427 107.936226,80.094955 107.656189,80.031036 
	C106.902245,79.661598 106.428337,79.356079 106.045654,78.957901 
	C106.136887,78.865242 106.322487,78.683067 106.322487,78.683067 
z"/>
<path fill="#232F1A" opacity="1.000000" stroke="none" 
	d="
M108.170105,79.811325 
	C108.763954,79.945442 109.278114,80.172661 109.904373,80.696632 
	C110.016472,80.993385 109.924873,81.119095 109.644852,81.057495 
	C108.888626,80.695587 108.412422,80.395271 107.936226,80.094955 
	C107.936226,80.094955 108.090416,79.904427 108.170105,79.811325 
z"/>
<path fill="#232F1A" opacity="1.000000" stroke="none" 
	d="
M110.064827,80.932472 
	C110.656235,81.062210 111.199295,81.252853 111.860550,81.741074 
	C111.978752,82.038643 111.902267,82.144775 111.625320,82.078903 
	C110.873878,81.715050 110.399376,81.417068 109.924873,81.119095 
	C109.924873,81.119095 110.016472,80.993385 110.064827,80.932472 
z"/>
<path fill="#232F1A" opacity="1.000000" stroke="none" 
	d="
M105.032043,77.973839 
	C105.398483,78.025414 105.719269,78.137108 106.181274,78.465942 
	C106.322487,78.683067 106.136887,78.865242 105.848862,78.835022 
	C105.312393,78.618019 105.092178,78.402382 104.900200,78.157913 
	C104.900200,78.157913 104.986397,78.033958 105.032043,77.973839 
z"/>
<path fill="#232F1A" opacity="1.000000" stroke="none" 
	d="
M112.018631,81.986801 
	C112.381500,82.040932 112.704491,82.146919 113.172897,82.469543 
	C113.318298,82.686180 113.133492,82.868416 112.844093,82.838516 
	C112.302078,82.621880 112.084602,82.400597 111.902267,82.144775 
	C111.902267,82.144775 111.978752,82.038643 112.018631,81.986801 
z"/>
<path fill="#232F1A" opacity="1.000000" stroke="none" 
	d="
M120.329361,86.622665 
	C120.130524,86.737991 119.753784,86.602470 119.188705,86.228195 
	C119.384056,86.116905 119.767754,86.244362 120.329361,86.622665 
z"/>
<path fill="#1A261D" opacity="1.000000" stroke="none" 
	d="
M111.625320,82.078903 
	C112.084602,82.400597 112.302078,82.621880 112.753448,82.931381 
	C114.443466,84.022995 115.934738,84.991844 117.762970,86.048218 
	C117.891731,86.939262 117.683533,87.742775 117.254852,88.771255 
	C116.612381,88.980789 116.190369,88.965370 115.451843,88.952477 
	C115.135323,88.955009 115.063141,88.975800 115.021332,88.558685 
	C113.823006,87.486931 112.666496,86.832298 111.509987,86.177658 
	C111.509987,86.177658 111.166649,86.141586 110.924004,85.811699 
	C110.433624,85.263229 110.144852,85.144104 109.815025,85.124435 
	C109.815025,85.124435 109.908600,85.094223 109.751190,84.882980 
	C109.033546,84.468681 108.473305,84.265617 107.913063,84.062561 
	C107.913063,84.062561 107.972260,84.013382 107.811676,83.832047 
	C107.323418,83.522629 106.995735,83.394547 106.668060,83.266464 
	C106.668060,83.266464 106.809769,83.235512 106.667351,83.012505 
	C105.929039,82.612595 105.333145,82.435699 104.737251,82.258804 
	C104.737251,82.258797 104.842934,82.235405 104.705345,81.998734 
	C103.997795,81.544518 103.427841,81.326965 102.857880,81.109413 
	C102.857880,81.109413 102.937889,81.079109 102.733673,80.858978 
	C101.348801,81.084671 100.168137,81.530495 98.987480,81.976318 
	C98.987480,81.976318 98.997940,82.003136 98.657166,81.999176 
	C97.541107,82.592621 96.765823,83.190025 95.990540,83.787430 
	C95.990540,83.787430 95.717163,84.081772 95.260666,84.166382 
	C94.536949,84.476181 94.269722,84.701370 94.002502,84.926575 
	C94.002502,84.926575 93.799294,85.180206 93.258141,85.121567 
	C92.463058,85.046700 92.209122,85.030472 91.955193,85.014236 
	C91.665604,84.855865 91.424187,84.642891 91.108734,84.164215 
	C91.864029,83.135498 92.741531,82.317879 93.831879,81.283554 
	C97.396881,80.068161 100.749046,79.069473 104.500702,78.114349 
	C105.092178,78.402382 105.312393,78.618019 105.757629,78.927689 
	C106.428337,79.356079 106.902245,79.661598 107.656189,80.031036 
	C108.412422,80.395271 108.888626,80.695587 109.644852,81.057495 
	C110.399376,81.417068 110.873878,81.715050 111.625320,82.078903 
z"/>
<path fill="#232F1A" opacity="1.000000" stroke="none" 
	d="
M111.713989,86.439072 
	C112.666496,86.832298 113.823006,87.486931 115.012985,88.522064 
	C114.003639,88.168541 112.960815,87.434517 111.713989,86.439072 
z"/>
<path fill="#232F1A" opacity="1.000000" stroke="none" 
	d="
M99.326149,81.904228 
	C100.168137,81.530495 101.348801,81.084671 102.743103,80.900696 
	C101.859444,81.385750 100.762131,81.608948 99.326149,81.904228 
z"/>
<path fill="#232F1A" opacity="1.000000" stroke="none" 
	d="
M96.288956,83.746765 
	C96.765823,83.190025 97.541107,82.592621 98.645218,81.990265 
	C98.178490,82.558914 97.382935,83.132507 96.288956,83.746765 
z"/>
<path fill="#232F1A" opacity="1.000000" stroke="none" 
	d="
M108.085114,84.311714 
	C108.473305,84.265617 109.033546,84.468681 109.758774,84.931564 
	C109.368225,84.981209 108.812698,84.771042 108.085114,84.311714 
z"/>
<path fill="#232F1A" opacity="1.000000" stroke="none" 
	d="
M104.907150,82.514687 
	C105.333145,82.435699 105.929039,82.612595 106.664642,83.084976 
	C106.228577,83.177155 105.652817,82.973862 104.907150,82.514687 
z"/>
<path fill="#232F1A" opacity="1.000000" stroke="none" 
	d="
M103.028053,81.357681 
	C103.427841,81.326965 103.997795,81.544518 104.700150,82.052605 
	C104.287773,82.097412 103.742996,81.851677 103.028053,81.357681 
z"/>
<path fill="#232F1A" opacity="1.000000" stroke="none" 
	d="
M109.937439,85.340851 
	C110.144852,85.144104 110.433624,85.263229 110.830666,85.666496 
	C110.625916,85.901466 110.319206,85.803490 109.937439,85.340851 
z"/>
<path fill="#232F1A" opacity="1.000000" stroke="none" 
	d="
M91.967072,85.284744 
	C92.209122,85.030472 92.463058,85.046700 93.095642,85.120819 
	C93.190193,85.451752 92.906082,85.724770 92.324089,86.046265 
	C92.010452,85.914909 91.994705,85.735085 91.967072,85.284744 
z"/>
<path fill="#232F1A" opacity="1.000000" stroke="none" 
	d="
M94.281265,84.908234 
	C94.269722,84.701370 94.536949,84.476181 95.060890,84.187119 
	C95.065079,84.378799 94.812553,84.634354 94.281265,84.908234 
z"/>
<path fill="#232F1A" opacity="1.000000" stroke="none" 
	d="
M106.803619,83.508072 
	C106.995735,83.394547 107.323418,83.522629 107.806381,83.870163 
	C107.620842,83.976303 107.280014,83.862984 106.803619,83.508072 
z"/>
<path fill="#E2E662" opacity="1.000000" stroke="none" 
	d="
M113.479706,97.016296 
	C113.108559,97.024399 113.231773,96.674301 113.278366,96.494675 
	C113.830460,96.094269 114.335945,95.873474 114.998199,95.422195 
	C115.689232,94.989708 116.223495,94.787704 116.923676,94.348969 
	C117.499954,94.017006 117.910324,93.921768 118.636185,93.840347 
	C118.974709,97.607628 118.997765,101.361107 118.940475,105.574005 
	C118.426003,103.009369 117.991859,99.985321 117.501518,96.569748 
	C116.296654,96.714455 115.073753,96.861328 113.479706,97.016296 
z"/>
<path fill="#1A261D" opacity="1.000000" stroke="none" 
	d="
M142.845856,123.953056 
	C142.808075,124.142883 142.770294,124.332718 142.575226,124.768204 
	C142.021149,125.193069 141.624329,125.372276 141.074478,125.714966 
	C140.195969,125.918892 139.470490,125.959351 138.381577,125.991425 
	C138.253601,125.152725 138.489075,124.322403 138.833282,123.184853 
	C139.001114,122.448036 139.060196,122.018456 139.395050,120.952057 
	C140.094482,117.881546 140.518127,115.447845 140.941772,113.014145 
	C141.115189,113.009827 141.288620,113.005501 141.727692,113.446213 
	C142.277512,117.245193 142.561691,120.599121 142.845856,123.953056 
z"/>
<path fill="#25301A" opacity="1.000000" stroke="none" 
	d="
M140.951340,112.573982 
	C140.518127,115.447845 140.094482,117.881546 139.474472,120.636856 
	C139.216827,107.596413 139.155548,94.234367 139.169067,80.402084 
	C139.243851,79.931862 139.639038,79.943733 139.839691,80.226753 
	C140.052231,80.682251 140.064133,80.854736 140.076035,81.027214 
	C140.370987,91.396080 140.665939,101.764954 140.951340,112.573982 
z"/>
<path fill="#1A2711" opacity="1.000000" stroke="none" 
	d="
M142.903076,123.491562 
	C142.561691,120.599121 142.277512,117.245193 141.987793,113.438751 
	C141.993134,101.959084 142.004028,90.931915 142.023865,79.431259 
	C142.032791,78.957779 142.480835,78.975533 142.704559,78.985046 
	C142.938934,93.673058 142.949600,108.351555 142.903076,123.491562 
z"/>
<path fill="#1A261D" opacity="1.000000" stroke="none" 
	d="
M140.190964,80.912193 
	C140.064133,80.854736 140.052231,80.682251 140.035950,80.250511 
	C140.361542,80.194199 140.452988,80.462837 140.190964,80.912193 
z"/>
</svg>