<svg version="1.1" id="Layer_1" xmlns="http://www.w3.org/2000/svg" xmlns:xlink="http://www.w3.org/1999/xlink" x="0px" y="0px"
	 width="100%" viewBox="0 0 642 701" enable-background="new 0 0 642 701" xml:space="preserve" fill="#3B82F6">
<path fill="#FFFFFF" opacity="1.000000" stroke="none" 
	d="
M415.000000,702.000000 
	C276.666656,702.000000 138.833328,702.000000 1.000000,702.000000 
	C1.000000,468.333344 1.000000,234.666672 1.000000,1.000000 
	C215.000000,1.000000 429.000000,1.000000 643.000000,1.000000 
	C643.000000,234.666672 643.000000,468.333344 643.000000,702.000000 
	C567.166687,702.000000 491.333344,702.000000 415.000000,702.000000 
M226.450851,260.887146 
	C228.401657,260.469604 230.351990,260.049805 232.303345,259.634857 
	C284.828369,248.466110 337.350677,237.284515 389.879700,226.134628 
	C420.781677,219.575333 451.657379,212.884140 482.618011,206.613205 
	C497.774384,203.543365 511.037750,197.654510 521.096069,185.444168 
	C545.282043,156.083466 534.304443,110.594696 499.583496,95.550636 
	C485.000305,89.231972 470.511047,90.410240 455.604584,93.678703 
	C421.172302,101.228470 386.674835,108.481575 352.193878,115.808449 
	C318.208221,123.030060 284.207825,130.182190 250.218552,137.386856 
	C208.257034,146.281387 166.347855,155.430847 124.326477,164.032501 
	C90.905533,170.873688 71.156837,199.223389 77.028938,232.931931 
	C82.097198,262.026031 112.308014,283.998932 141.156830,278.591187 
	C169.415527,273.294098 197.468826,266.901215 226.450851,260.887146 
M258.165833,430.695007 
	C295.251587,422.783630 332.267151,414.522369 369.444244,407.066406 
	C401.892365,400.558868 422.333466,370.373901 415.743561,337.378479 
	C409.686432,307.050659 378.121826,286.858185 347.090027,293.478485 
	C271.770172,309.547119 196.453674,325.631592 121.132996,341.696411 
	C89.328117,348.479919 69.424721,380.473328 77.471649,411.928192 
	C85.240334,442.295441 114.433266,460.945709 145.064453,454.632965 
	C182.532654,446.911194 219.917603,438.785492 258.165833,430.695007 
M523.968933,534.399048 
	C525.425537,531.784058 527.084351,529.260010 528.306824,526.539734 
	C537.980469,505.013367 535.881592,484.446991 521.434814,465.975677 
	C507.312317,447.919067 487.997925,440.877106 465.547852,445.134827 
	C436.647400,450.615845 407.939423,457.116669 379.164062,463.251038 
	C350.871552,469.282379 322.470520,474.872528 294.351074,481.629944 
	C263.386292,489.071106 245.100708,520.030884 252.458038,550.812622 
	C259.753784,581.336609 289.842438,600.288757 320.756592,593.826599 
	C332.307922,591.411987 343.865631,589.026794 355.404541,586.553894 
	C399.133087,577.182434 442.818604,567.605408 486.599213,558.484253 
	C502.071411,555.260742 514.280701,547.621826 523.968933,534.399048 
M179.453979,608.917908 
	C193.755722,588.300842 195.552444,566.549622 182.660400,545.083069 
	C169.923569,523.874878 150.299255,514.875732 125.428932,517.878479 
	C85.044838,522.754211 62.970253,570.165955 85.009506,604.832764 
	C106.519722,638.667419 152.962555,640.955078 179.453979,608.917908 
z"/>
<path fill="#657EFF" opacity="1.000000" stroke="none" 
	d="
M226.031555,260.938202 
	C197.468826,266.901215 169.415527,273.294098 141.156830,278.591187 
	C112.308014,283.998932 82.097198,262.026031 77.028938,232.931931 
	C71.156837,199.223389 90.905533,170.873688 124.326477,164.032501 
	C166.347855,155.430847 208.257034,146.281387 250.218552,137.386856 
	C284.207825,130.182190 318.208221,123.030060 352.193878,115.808449 
	C386.674835,108.481575 421.172302,101.228470 455.604584,93.678703 
	C470.511047,90.410240 485.000305,89.231972 499.583496,95.550636 
	C534.304443,110.594696 545.282043,156.083466 521.096069,185.444168 
	C511.037750,197.654510 497.774384,203.543365 482.618011,206.613205 
	C451.657379,212.884140 420.781677,219.575333 389.879700,226.134628 
	C337.350677,237.284515 284.828369,248.466110 232.303345,259.634857 
	C230.351990,260.049805 228.401657,260.469604 226.031555,260.938202 
z"/>
<path fill="#657EFF" opacity="1.000000" stroke="none" 
	d="
M257.752197,430.764709 
	C219.917603,438.785492 182.532654,446.911194 145.064453,454.632965 
	C114.433266,460.945709 85.240334,442.295441 77.471649,411.928192 
	C69.424721,380.473328 89.328117,348.479919 121.132996,341.696411 
	C196.453674,325.631592 271.770172,309.547119 347.090027,293.478485 
	C378.121826,286.858185 409.686432,307.050659 415.743561,337.378479 
	C422.333466,370.373901 401.892365,400.558868 369.444244,407.066406 
	C332.267151,414.522369 295.251587,422.783630 257.752197,430.764709 
z"/>
<path fill="#657EFF" opacity="1.000000" stroke="none" 
	d="
M523.742676,534.680481 
	C514.280701,547.621826 502.071411,555.260742 486.599213,558.484253 
	C442.818604,567.605408 399.133087,577.182434 355.404541,586.553894 
	C343.865631,589.026794 332.307922,591.411987 320.756592,593.826599 
	C289.842438,600.288757 259.753784,581.336609 252.458038,550.812622 
	C245.100708,520.030884 263.386292,489.071106 294.351074,481.629944 
	C322.470520,474.872528 350.871552,469.282379 379.164062,463.251038 
	C407.939423,457.116669 436.647400,450.615845 465.547852,445.134827 
	C487.997925,440.877106 507.312317,447.919067 521.434814,465.975677 
	C535.881592,484.446991 537.980469,505.013367 528.306824,526.539734 
	C527.084351,529.260010 525.425537,531.784058 523.742676,534.680481 
z"/>
<path fill="#657EFF" opacity="1.000000" stroke="none" 
	d="
M179.221405,609.189941 
	C152.962555,640.955078 106.519722,638.667419 85.009506,604.832764 
	C62.970253,570.165955 85.044838,522.754211 125.428932,517.878479 
	C150.299255,514.875732 169.923569,523.874878 182.660400,545.083069 
	C195.552444,566.549622 193.755722,588.300842 179.221405,609.189941 
z"/>
</svg>