<?xml version="1.0" encoding="UTF-8"?>
<svg version="1.1" xmlns="http://www.w3.org/2000/svg" width="200" height="200" fill="#3B82F6">
<path d="M0 0 C15.50651602 13.00624057 25.30501513 29.77063314 27.51953125 50.11328125 C27.97413072 55.77369413 28.26682728 61.44074224 28.51953125 67.11328125 C30.18242187 67.18675781 30.18242187 67.18675781 31.87890625 67.26171875 C33.3424719 67.3367734 34.80601237 67.41232006 36.26953125 67.48828125 C36.99914062 67.51921875 37.72875 67.55015625 38.48046875 67.58203125 C45.45583683 67.96250587 45.45583683 67.96250587 48.51953125 70.11328125 C49.91888138 72.91198152 49.7721853 75.01826917 49.51953125 78.11328125 C48.38267517 79.77865601 48.38267517 79.77865601 46.51953125 81.11328125 C43.79396057 81.50527954 43.79396057 81.50527954 40.45922852 81.52978516 C39.2110585 81.54635162 37.96288849 81.56291809 36.67689514 81.57998657 C35.31324301 81.58344055 33.94959043 81.58672208 32.5859375 81.58984375 C31.18731685 81.60415579 29.7887103 81.61991318 28.39012146 81.63705444 C24.70753793 81.67892943 21.02504176 81.70390687 17.34228516 81.72454834 C11.4512739 81.7603411 5.56047891 81.8214654 -0.33030891 81.88303757 C-2.38650089 81.90208839 -4.44263531 81.91384824 -6.49888611 81.92446899 C-7.75020828 81.93473114 -9.00153046 81.94499329 -10.29077148 81.95556641 C-11.94265724 81.96530991 -11.94265724 81.96530991 -13.62791443 81.97525024 C-16.08601514 82.09419421 -18.13680332 82.40117443 -20.48046875 83.11328125 C-21.49586987 87.2155171 -21.49586987 87.2155171 -20.48046875 91.11328125 C-18.45721807 91.65186666 -18.45721807 91.65186666 -16.10546875 91.98828125 C-13.13955365 92.60224457 -11.72455244 92.91227115 -9.35546875 94.86328125 C-8.14798691 97.96823455 -8.58497317 99.94460458 -9.48046875 103.11328125 C-12.72648511 106.35929761 -17.07264103 105.84042134 -21.51171875 106.2578125 C-24.66272126 106.79747726 -24.66272126 106.79747726 -25.88671875 109.5 C-26.5912478 112.15420751 -26.5912478 112.15420751 -26.48046875 115.11328125 C-23.63213953 115.92125404 -21.0838545 116.24524585 -18.12670898 116.27099609 C-17.27580185 116.28125824 -16.42489471 116.29152039 -15.54820251 116.30209351 C-14.63768631 116.30939484 -13.7271701 116.31669617 -12.7890625 116.32421875 C-10.85611109 116.35227134 -8.92316848 116.38093567 -6.99023438 116.41015625 C-3.94637145 116.4515191 -0.90267574 116.48841305 2.14135742 116.51464844 C5.0815603 116.54217798 8.02101928 116.58802882 10.9609375 116.63671875 C12.32974815 116.64159805 12.32974815 116.64159805 13.72621155 116.64657593 C14.57396652 116.6631424 15.4217215 116.67970886 16.29516602 116.69677734 C17.41291161 116.70890762 17.41291161 116.70890762 18.55323792 116.72128296 C21.08069201 117.2251537 21.97916786 118.07485187 23.51953125 120.11328125 C23.94431711 124.1912255 23.83235712 125.64404244 21.51953125 129.11328125 C19.51425934 129.49080467 19.51425934 129.49080467 17.00256348 129.49423218 C16.05190506 129.50269165 15.10124664 129.51115112 14.1217804 129.51986694 C12.55232918 129.5107579 12.55232918 129.5107579 10.95117188 129.50146484 C9.30232246 129.50935028 9.30232246 129.50935028 7.62016296 129.51739502 C3.9718929 129.53064268 0.32405606 129.52183983 -3.32421875 129.51171875 C-5.85005782 129.51373811 -8.37589633 129.51664838 -10.9017334 129.52041626 C-16.20131506 129.52484609 -21.50074019 129.51867169 -26.80029297 129.50439453 C-32.93179095 129.48806709 -39.06298969 129.49335532 -45.19448042 129.50987375 C-51.08702055 129.5251145 -56.97946749 129.52351867 -62.87202454 129.51472855 C-65.38235007 129.51272159 -67.8926832 129.51520306 -70.40299988 129.52216721 C-73.90624473 129.52975214 -77.40890804 129.51821851 -80.91210938 129.50146484 C-81.95841019 129.50753754 -83.004711 129.51361023 -84.0827179 129.51986694 C-85.50870552 129.50717773 -85.50870552 129.50717773 -86.96350098 129.49423218 C-87.79236061 129.4931011 -88.62122025 129.49197002 -89.47519684 129.49080467 C-90.13693657 129.36622194 -90.7986763 129.24163921 -91.48046875 129.11328125 C-93.79329462 125.64404244 -93.90525461 124.1912255 -93.48046875 120.11328125 C-92.35327148 118.45336914 -92.35327148 118.45336914 -90.48046875 117.11328125 C-87.63305664 116.71264648 -87.63305664 116.71264648 -84.203125 116.671875 C-82.34977539 116.63223633 -82.34977539 116.63223633 -80.45898438 116.59179688 C-79.16669922 116.57826172 -77.87441406 116.56472656 -76.54296875 116.55078125 C-73.99205829 116.51632673 -71.44124145 116.47371139 -68.890625 116.421875 C-67.75761963 116.40954834 -66.62461426 116.39722168 -65.45727539 116.38452148 C-62.58484772 116.12279204 -60.91320252 115.60500642 -58.48046875 114.11328125 C-58.48046875 112.13328125 -58.48046875 110.15328125 -58.48046875 108.11328125 C-61.33154751 106.50262671 -63.39875417 105.85956756 -66.66650391 105.82617188 C-67.48059723 105.81275757 -68.29469055 105.79934326 -69.13345337 105.78552246 C-70.00335907 105.78024536 -70.87326477 105.77496826 -71.76953125 105.76953125 C-72.66916595 105.75490845 -73.56880066 105.74028564 -74.49569702 105.72521973 C-78.34106457 105.66297494 -82.18659013 105.62324573 -86.03222656 105.58154297 C-88.84066876 105.54789474 -91.64876433 105.50277455 -94.45703125 105.45703125 C-95.33098541 105.45175415 -96.20493958 105.44647705 -97.1053772 105.44104004 C-103.25482899 105.33892101 -103.25482899 105.33892101 -105.48046875 103.11328125 C-105.74609375 101.23828125 -105.74609375 101.23828125 -105.73046875 99.11328125 C-105.735625 98.41203125 -105.74078125 97.71078125 -105.74609375 96.98828125 C-105.48046875 95.11328125 -105.48046875 95.11328125 -103.48046875 93.11328125 C-101.31640625 92.48046875 -101.31640625 92.48046875 -98.85546875 91.98828125 C-98.03820312 91.82070312 -97.2209375 91.653125 -96.37890625 91.48046875 C-95.75242187 91.35929687 -95.1259375 91.238125 -94.48046875 91.11328125 C-93.74712446 87.13573997 -93.74712446 87.13573997 -93.48046875 83.11328125 C-94.62261841 83.08355225 -94.62261841 83.08355225 -95.7878418 83.05322266 C-99.24822347 82.95778203 -102.7080173 82.84817913 -106.16796875 82.73828125 C-107.36615234 82.70734375 -108.56433594 82.67640625 -109.79882812 82.64453125 C-110.95576172 82.60585937 -112.11269531 82.5671875 -113.3046875 82.52734375 C-114.8992981 82.4802124 -114.8992981 82.4802124 -116.52612305 82.43212891 C-120.68153259 81.98365648 -123.50919636 81.08455364 -126.48046875 78.11328125 C-127.02813609 72.96520823 -127.02813609 72.96520823 -125.35546875 70.36328125 C-122.88780161 68.71816982 -120.29375309 68.01292231 -117.48046875 67.11328125 C-117.50367188 66.33726563 -117.526875 65.56125 -117.55078125 64.76171875 C-117.91749772 42.81111846 -112.4282287 23.55049771 -97.48046875 7.11328125 C-71.52789989 -19.17964917 -29.55074882 -22.97430106 0 0 Z " fill="#E66C4A" transform="translate(138.48046875,40.88671875)"/>
</svg>
