<svg version="1.1" id="Layer_1" xmlns="http://www.w3.org/2000/svg" xmlns:xlink="http://www.w3.org/1999/xlink" x="0px" y="0px"
	 width="100%" viewBox="0 0 225 225" enable-background="new 0 0 225 225" xml:space="preserve" fill="#3B82F6">
<path fill="#FFFFFF" opacity="1.000000" stroke="none" 
	d="
M157.000000,226.000000 
	C104.666672,226.000000 52.833340,226.000000 1.000007,226.000000 
	C1.000005,151.000000 1.000005,76.000015 1.000002,1.000017 
	C75.999992,1.000011 150.999985,1.000011 225.999969,1.000006 
	C225.999985,75.999985 225.999985,150.999969 226.000000,225.999969 
	C203.166672,226.000000 180.333328,226.000000 157.000000,226.000000 
M130.338989,47.390625 
	C115.735771,47.915611 100.986382,47.326080 86.562408,49.217789 
	C62.885406,52.323036 50.862507,64.248009 46.233978,87.078934 
	C42.184391,107.054108 42.606224,127.036560 46.567680,147.065567 
	C50.644348,167.677094 63.000565,179.275955 83.356018,183.228928 
	C102.891884,187.022736 122.332787,187.052017 141.858719,183.199524 
	C164.528305,178.726822 175.946426,167.091553 180.178101,144.382309 
	C183.039322,129.027496 183.719940,113.667778 182.182495,97.544052 
	C197.520676,80.469154 194.506302,55.282665 175.646774,43.044476 
	C165.253448,36.300125 146.984283,33.451153 130.338989,47.390625 
z"/>
<path fill="#F6B802" opacity="1.000000" stroke="none" 
	d="
M181.878540,98.177322 
	C183.719940,113.667778 183.039322,129.027496 180.178101,144.382309 
	C175.946426,167.091553 164.528305,178.726822 141.858719,183.199524 
	C122.332787,187.052017 102.891884,187.022736 83.356018,183.228928 
	C63.000565,179.275955 50.644348,167.677094 46.567680,147.065567 
	C42.606224,127.036560 42.184391,107.054108 46.233978,87.078934 
	C50.862507,64.248009 62.885406,52.323036 86.562408,49.217789 
	C100.986382,47.326080 115.735771,47.915611 130.548904,47.896332 
	C119.169098,61.427334 117.717140,78.592445 126.736961,92.547791 
	C137.392700,109.034203 162.725098,115.853477 181.878540,98.177322 
z"/>
<path fill="#075DE7" opacity="1.000000" stroke="none" 
	d="
M182.030518,97.860687 
	C162.725098,115.853477 137.392700,109.034203 126.736961,92.547791 
	C117.717140,78.592445 119.169098,61.427334 130.916931,48.087574 
	C146.984283,33.451153 165.253448,36.300125 175.646774,43.044476 
	C194.506302,55.282665 197.520676,80.469154 182.030518,97.860687 
z"/>
</svg>