<svg version="1.1" id="Layer_1" xmlns="http://www.w3.org/2000/svg" xmlns:xlink="http://www.w3.org/1999/xlink" x="0px" y="0px"
	 width="100%" viewBox="0 0 225 225" enable-background="new 0 0 225 225" xml:space="preserve" fill="#3B82F6">
<path fill="#FDB71C" opacity="1.000000" stroke="none" 
	d="
M108.000000,226.000000 
	C72.000000,226.000000 36.500004,226.000000 1.000005,226.000000 
	C1.000003,151.000000 1.000003,76.000015 1.000002,1.000015 
	C75.999992,1.000010 150.999985,1.000010 225.999969,1.000005 
	C225.999985,75.999985 225.999985,150.999969 226.000000,225.999969 
	C186.833328,226.000000 147.666672,226.000000 108.000000,226.000000 
M126.806709,142.441238 
	C126.775772,133.164230 127.847313,123.517891 118.133232,117.568367 
	C119.383904,116.250664 120.456581,115.205276 121.434052,114.077377 
	C130.180344,103.985184 129.807999,88.566727 120.509232,79.106377 
	C119.407143,77.985138 117.860847,76.676453 116.452530,76.592361 
	C111.376930,76.289322 106.272240,76.473274 99.885674,76.473274 
	C107.050133,82.604469 111.531784,88.872963 111.364326,97.574730 
	C111.196602,106.290535 106.271507,112.262955 99.730751,117.795868 
	C114.961441,125.120323 108.668221,139.317810 110.724327,150.626862 
	C116.177193,150.626862 121.254868,150.626862 126.806625,150.626862 
	C126.806625,147.994949 126.806625,145.699783 126.806709,142.441238 
M146.677200,96.547592 
	C146.729721,105.597122 141.982956,112.102066 134.925766,117.725380 
	C149.919159,125.114708 144.364044,139.075668 146.067291,150.963074 
	C148.693817,150.963074 151.172104,150.963074 153.650391,150.963074 
	C156.258392,150.963074 158.866394,150.963074 161.426758,150.963074 
	C162.824890,129.375549 162.385345,124.138222 152.914246,117.131607 
	C154.159729,116.137260 155.487701,115.352325 156.464050,114.254623 
	C165.305771,104.313858 165.087891,88.779167 155.917679,79.316162 
	C154.721237,78.081528 153.001770,76.699066 151.441742,76.592010 
	C146.398697,76.245934 141.316986,76.462875 134.778122,76.462875 
	C141.938599,82.017853 145.956039,87.895981 146.677200,96.547592 
M70.015495,76.435684 
	C68.711922,76.586151 67.408356,76.736626 65.275337,76.982834 
	C72.247429,83.047806 76.404114,89.300476 76.143387,97.920280 
	C75.884293,106.486115 70.916489,112.241608 64.601265,117.816177 
	C79.770035,125.171844 73.460693,139.353348 75.538750,150.793884 
	C80.895119,150.793884 85.865807,150.793884 91.511162,150.793884 
	C90.279243,139.155350 95.524529,126.348587 83.027763,117.524071 
	C92.167358,108.781929 94.998756,98.491013 90.293724,86.655426 
	C87.588036,79.849236 83.315010,74.909538 74.881180,76.402802 
	C73.589294,76.631538 72.222160,76.435234 70.015495,76.435684 
z"/>
<path fill="#54303B" opacity="1.000000" stroke="none" 
	d="
M126.806671,142.922928 
	C126.806625,145.699783 126.806625,147.994949 126.806625,150.626862 
	C121.254868,150.626862 116.177193,150.626862 110.724327,150.626862 
	C108.668221,139.317810 114.961441,125.120323 99.730751,117.795868 
	C106.271507,112.262955 111.196602,106.290535 111.364326,97.574730 
	C111.531784,88.872963 107.050133,82.604469 99.885674,76.473274 
	C106.272240,76.473274 111.376930,76.289322 116.452530,76.592361 
	C117.860847,76.676453 119.407143,77.985138 120.509232,79.106377 
	C129.807999,88.566727 130.180344,103.985184 121.434052,114.077377 
	C120.456581,115.205276 119.383904,116.250664 118.133232,117.568367 
	C127.847313,123.517891 126.775772,133.164230 126.806671,142.922928 
z"/>
<path fill="#522F3C" opacity="1.000000" stroke="none" 
	d="
M146.664703,96.088928 
	C145.956039,87.895981 141.938599,82.017853 134.778122,76.462875 
	C141.316986,76.462875 146.398697,76.245934 151.441742,76.592010 
	C153.001770,76.699066 154.721237,78.081528 155.917679,79.316162 
	C165.087891,88.779167 165.305771,104.313858 156.464050,114.254623 
	C155.487701,115.352325 154.159729,116.137260 152.914246,117.131607 
	C162.385345,124.138222 162.824890,129.375549 161.426758,150.963074 
	C158.866394,150.963074 156.258392,150.963074 153.650391,150.963074 
	C151.172104,150.963074 148.693817,150.963074 146.067291,150.963074 
	C144.364044,139.075668 149.919159,125.114708 134.925766,117.725380 
	C141.982956,112.102066 146.729721,105.597122 146.664703,96.088928 
z"/>
<path fill="#522F3C" opacity="1.000000" stroke="none" 
	d="
M70.452660,76.435593 
	C72.222160,76.435234 73.589294,76.631538 74.881180,76.402802 
	C83.315010,74.909538 87.588036,79.849236 90.293724,86.655426 
	C94.998756,98.491013 92.167358,108.781929 83.027763,117.524071 
	C95.524529,126.348587 90.279243,139.155350 91.511162,150.793884 
	C85.865807,150.793884 80.895119,150.793884 75.538750,150.793884 
	C73.460693,139.353348 79.770035,125.171844 64.601265,117.816177 
	C70.916489,112.241608 75.884293,106.486115 76.143387,97.920280 
	C76.404114,89.300476 72.247429,83.047806 65.275337,76.982834 
	C67.408356,76.736626 68.711922,76.586151 70.452660,76.435593 
z"/>
</svg>