<svg version="1.1" id="Layer_1" xmlns="http://www.w3.org/2000/svg" xmlns:xlink="http://www.w3.org/1999/xlink" x="0px" y="0px"
	 width="100%" viewBox="0 0 225 225" enable-background="new 0 0 225 225" xml:space="preserve" fill="#3B82F6">
<path fill="#FEFEFF" opacity="1.000000" stroke="none" 
	d="
M126.000000,226.000000 
	C84.000000,226.000000 42.500004,226.000000 1.000005,226.000000 
	C1.000004,151.000000 1.000004,76.000015 1.000002,1.000016 
	C75.999992,1.000010 150.999985,1.000010 225.999969,1.000005 
	C225.999985,75.999985 225.999985,150.999969 226.000000,225.999969 
	C192.833328,226.000000 159.666672,226.000000 126.000000,226.000000 
M27.283997,91.057770 
	C27.180050,91.707901 27.076103,92.358040 26.761238,93.924538 
	C26.747234,101.878685 26.682878,109.833138 26.730507,117.786911 
	C26.810812,131.197723 26.962126,144.608109 27.004257,158.500443 
	C27.004257,158.500443 27.181860,158.955261 27.145334,159.673569 
	C28.623215,165.176102 32.300880,168.761627 37.092117,171.566605 
	C59.189926,184.503357 81.296951,197.426514 103.272224,210.569290 
	C110.794304,215.068039 117.786041,215.032822 125.281830,210.552185 
	C147.257477,197.416199 169.322693,184.428085 191.448547,171.546478 
	C198.637985,167.360809 202.002167,161.483322 201.960022,153.161011 
	C201.825058,126.505386 201.835083,99.848267 201.968231,73.192619 
	C201.997818,67.269295 200.647934,62.260910 195.320694,59.113144 
	C189.865143,55.889545 184.676819,56.857136 179.356018,60.026730 
	C159.072754,72.109398 138.636688,83.935455 118.347542,96.008347 
	C115.454834,97.729614 113.365311,97.975166 110.315475,96.109512 
	C96.417160,87.607559 82.317657,79.434654 68.300407,71.126709 
	C67.086548,70.407265 65.945160,69.565559 64.424408,68.549728 
	C80.211800,59.187370 95.558609,50.190544 110.768867,40.968502 
	C113.454712,39.340057 115.312614,39.517796 117.887970,41.084869 
	C128.255493,47.393372 138.755402,53.485638 149.255447,59.573200 
	C150.445053,60.262890 152.365112,61.181000 153.234650,60.701740 
	C161.002258,56.420452 168.609955,51.849045 176.888306,46.997612 
	C159.168289,36.561142 142.204636,26.759993 125.448357,16.616301 
	C117.769814,11.967971 110.707542,12.023663 103.016617,16.632292 
	C80.340981,30.220194 57.706390,43.905167 34.605091,56.741108 
	C24.278467,62.478962 24.611221,74.825539 34.530926,80.332664 
	C57.637535,93.160767 80.266876,106.856667 102.954514,120.426811 
	C110.616745,125.009834 117.722176,125.151184 125.405899,120.513199 
	C141.063416,111.062126 156.912430,101.927757 172.714645,92.717987 
	C174.045395,91.942413 175.617645,91.581223 176.993286,91.957581 
	C176.972122,111.634033 176.950958,131.310486 176.302231,151.256119 
	C156.861496,162.728470 137.385574,174.142075 118.019394,185.738922 
	C115.235146,187.406174 113.235992,187.388565 110.452385,185.725586 
	C90.930862,174.062943 71.297058,162.588257 51.575073,150.115845 
	C51.567894,143.651749 51.624702,137.186798 51.537766,130.723770 
	C51.422409,122.147644 51.194836,113.573029 50.804569,104.337196 
	C43.196209,99.943810 35.587849,95.550415 27.283997,91.057770 
z"/>
<path fill="#185EFF" opacity="1.000000" stroke="none" 
	d="
M51.699169,151.053452 
	C71.297058,162.588257 90.930862,174.062943 110.452385,185.725586 
	C113.235992,187.388565 115.235146,187.406174 118.019394,185.738922 
	C137.385574,174.142075 156.861496,162.728470 176.930832,150.844421 
	C177.703522,149.794510 177.972580,149.156479 177.973480,148.518036 
	C177.998978,130.423950 178.013107,112.329781 177.960831,94.235825 
	C177.957733,93.165550 177.385239,92.096924 177.077698,91.027527 
	C175.617645,91.581223 174.045395,91.942413 172.714645,92.717987 
	C156.912430,101.927757 141.063416,111.062126 125.405899,120.513199 
	C117.722176,125.151184 110.616745,125.009834 102.954514,120.426811 
	C80.266876,106.856667 57.637535,93.160767 34.530926,80.332664 
	C24.611221,74.825539 24.278467,62.478962 34.605091,56.741108 
	C57.706390,43.905167 80.340981,30.220194 103.016617,16.632292 
	C110.707542,12.023663 117.769814,11.967971 125.448357,16.616301 
	C142.204636,26.759993 159.168289,36.561142 176.888306,46.997612 
	C168.609955,51.849045 161.002258,56.420452 153.234650,60.701740 
	C152.365112,61.181000 150.445053,60.262890 149.255447,59.573200 
	C138.755402,53.485638 128.255493,47.393372 117.887970,41.084869 
	C115.312614,39.517796 113.454712,39.340057 110.768867,40.968502 
	C95.558609,50.190544 80.211800,59.187370 64.424408,68.549728 
	C65.945160,69.565559 67.086548,70.407265 68.300407,71.126709 
	C82.317657,79.434654 96.417160,87.607559 110.315475,96.109512 
	C113.365311,97.975166 115.454834,97.729614 118.347542,96.008347 
	C138.636688,83.935455 159.072754,72.109398 179.356018,60.026730 
	C184.676819,56.857136 189.865143,55.889545 195.320694,59.113144 
	C200.647934,62.260910 201.997818,67.269295 201.968231,73.192619 
	C201.835083,99.848267 201.825058,126.505386 201.960022,153.161011 
	C202.002167,161.483322 198.637985,167.360809 191.448547,171.546478 
	C169.322693,184.428085 147.257477,197.416199 125.281830,210.552185 
	C117.786041,215.032822 110.794304,215.068039 103.272224,210.569290 
	C81.296951,197.426514 59.189926,184.503357 37.092117,171.566605 
	C32.300880,168.761627 28.623215,165.176102 27.303797,159.216217 
	C27.336031,158.512131 27.209803,158.265396 27.083576,158.018677 
	C26.962126,144.608109 26.810812,131.197723 26.730507,117.786911 
	C26.682878,109.833138 26.747234,101.878685 27.108959,93.322388 
	C27.630951,92.199173 27.805222,91.678093 27.979492,91.157021 
	C35.587849,95.550415 43.196209,99.943810 50.608147,104.957703 
	C50.282341,120.018654 50.128738,134.459030 50.095634,148.899704 
	C50.093994,149.616394 51.140640,150.335480 51.699169,151.053452 
z"/>
<path fill="#0056FF" opacity="1.000000" stroke="none" 
	d="
M51.637123,150.584656 
	C51.140640,150.335480 50.093994,149.616394 50.095634,148.899704 
	C50.128738,134.459030 50.282341,120.018654 50.713608,105.287994 
	C51.194836,113.573029 51.422409,122.147644 51.537766,130.723770 
	C51.624702,137.186798 51.567894,143.651749 51.637123,150.584656 
z"/>
<path fill="#0056FF" opacity="1.000000" stroke="none" 
	d="
M177.035492,91.492554 
	C177.385239,92.096924 177.957733,93.165550 177.960831,94.235825 
	C178.013107,112.329781 177.998978,130.423950 177.973480,148.518036 
	C177.972580,149.156479 177.703522,149.794510 177.244614,150.709839 
	C176.950958,131.310486 176.972122,111.634033 177.035492,91.492554 
z"/>
<path fill="#0053FF" opacity="1.000000" stroke="none" 
	d="
M27.631744,91.107391 
	C27.805222,91.678093 27.630951,92.199173 27.214418,92.864212 
	C27.076103,92.358040 27.180050,91.707901 27.631744,91.107391 
z"/>
<path fill="#0053FF" opacity="1.000000" stroke="none" 
	d="
M27.043915,158.259552 
	C27.209803,158.265396 27.336031,158.512131 27.322060,158.857056 
	C27.181860,158.955261 27.004257,158.500443 27.043915,158.259552 
z"/>
</svg>