<svg version="1.1" id="Layer_1" xmlns="http://www.w3.org/2000/svg" xmlns:xlink="http://www.w3.org/1999/xlink" x="0px" y="0px"
	 width="100%" viewBox="0 0 1000 1000" enable-background="new 0 0 1000 1000" xml:space="preserve" fill="#3B82F6">
<path fill="#FFFFFF" opacity="1.000000" stroke="none" 
	d="
M570.000000,1001.000000 
	C380.000000,1001.000000 190.500000,1001.000000 1.000000,1001.000000 
	C1.000000,667.666687 1.000000,334.333344 1.000000,1.000000 
	C334.333344,1.000000 667.666687,1.000000 1001.000000,1.000000 
	C1001.000000,334.333344 1001.000000,667.666687 1001.000000,1001.000000 
	C857.500000,1001.000000 714.000000,1001.000000 570.000000,1001.000000 
M517.500000,23.967953 
	C491.167389,23.967955 464.834747,23.967953 438.502136,23.967955 
	C428.249512,23.967955 428.249695,23.967987 426.575836,33.693199 
	C426.547699,33.856766 426.477203,34.013218 426.450958,34.176914 
	C424.318390,47.464287 422.065765,60.733818 420.084900,74.043785 
	C416.516632,98.019653 413.063354,122.013039 409.699249,146.018341 
	C409.283997,148.981415 407.794312,150.125626 405.179321,150.955856 
	C393.824829,154.560730 382.209076,157.591263 371.277191,162.221100 
	C354.559479,169.301346 338.361542,177.603088 321.836578,185.153473 
	C320.137177,185.929947 317.116394,185.947205 315.717529,184.929794 
	C293.515839,168.781555 271.478485,152.407318 249.404755,136.083191 
	C238.404617,127.948280 227.406845,119.810150 216.707794,111.895256 
	C182.414429,146.074417 148.522812,179.853165 114.367592,213.894638 
	C117.394028,217.899292 120.432198,221.825241 123.370941,225.824249 
	C136.880188,244.207474 150.346451,262.622314 163.858963,281.003143 
	C171.793472,291.796295 179.844177,302.504944 187.669312,313.376343 
	C188.531448,314.574097 188.983887,316.955780 188.382980,318.176147 
	C183.785324,327.513336 178.238754,336.428986 174.212112,345.991516 
	C167.344345,362.301208 160.621429,378.753906 155.364594,395.622375 
	C153.037140,403.090851 150.607101,407.760864 142.421219,407.734253 
	C141.761902,407.732117 141.101059,407.897766 140.442520,407.996155 
	C110.886826,412.409943 81.330742,416.821259 51.776115,421.242279 
	C43.305428,422.509399 34.839024,423.805084 26.376753,425.086761 
	C26.376753,473.462708 26.376753,521.075378 26.376753,569.301697 
	C33.376064,570.357544 40.257751,571.361511 47.127861,572.439270 
	C60.909821,574.601257 74.673012,576.886047 88.466644,578.969788 
	C108.489502,581.994446 128.521759,584.962952 148.578186,587.752808 
	C151.639267,588.178589 152.773499,589.635132 153.561584,592.296387 
	C155.957123,600.385864 157.939117,608.670532 161.173248,616.424133 
	C168.552338,634.115051 176.006119,651.824402 184.619766,668.926880 
	C188.213272,676.061707 189.958405,681.297424 183.309753,687.011169 
	C181.601761,688.478882 180.475891,690.631409 179.111664,692.490601 
	C165.703232,710.763916 152.306183,729.045654 138.894928,747.316956 
	C130.770981,758.384949 122.627670,769.438843 114.482491,780.513367 
	C115.305428,781.736877 115.815269,782.825562 116.611938,783.630310 
	C130.644791,797.805176 144.636765,812.021912 158.792450,826.073547 
	C175.667755,842.824951 192.755890,859.362061 209.620117,876.124573 
	C217.943832,884.398010 214.575150,884.073975 223.946365,877.336670 
	C244.498062,862.561340 264.618896,847.186951 284.926910,832.072266 
	C294.997894,824.576782 305.124542,817.155640 315.158081,809.610474 
	C317.854401,807.582825 319.960785,808.126648 322.824219,809.640198 
	C334.109100,815.605347 345.354004,821.764771 357.089325,826.727539 
	C370.325867,832.325256 383.820740,837.692200 397.689362,841.281067 
	C406.886658,843.661133 410.366882,847.506348 410.915833,856.901123 
	C411.580780,868.281494 414.370148,879.528259 416.051300,890.860901 
	C418.803986,909.416687 421.351044,928.002869 424.093323,946.560242 
	C425.276855,954.569336 426.731049,962.538391 428.077301,970.615601 
	C475.797363,970.615601 523.244873,970.615601 571.014709,970.615601 
	C573.351624,956.018555 575.759827,941.611328 577.948120,927.170837 
	C581.977295,900.581421 585.847412,873.967773 589.924927,847.385925 
	C590.116455,846.137085 591.455505,844.500000 592.635193,844.067871 
	C596.979248,842.476807 601.481628,841.318298 605.923889,839.995422 
	C630.773804,832.595398 654.439331,822.479675 676.893066,809.470764 
	C678.545776,808.513245 681.908142,808.647156 683.480225,809.725159 
	C691.121521,814.964905 698.395203,820.737732 705.851135,826.251404 
	C725.664185,840.902893 745.490479,855.536560 765.341675,870.136414 
	C771.147888,874.406799 777.054932,878.540161 782.513916,882.448486 
	C816.896301,848.044312 850.738525,814.180664 884.635254,780.262512 
	C875.153320,767.464294 865.578735,754.601685 856.069031,741.691223 
	C841.255310,721.580078 826.552368,701.386597 811.608093,681.373230 
	C809.849426,679.018005 810.129211,677.840210 811.365112,675.395142 
	C818.149170,661.973389 825.186646,648.621765 830.920349,634.743408 
	C836.662659,620.844177 841.067078,606.384827 845.832031,592.095642 
	C846.748535,589.347290 847.939209,588.049194 850.869873,587.653259 
	C864.689270,585.786377 878.488220,583.760681 892.277527,581.679565 
	C911.485901,578.780701 930.679688,575.785645 949.878540,572.824524 
	C957.540100,571.642883 965.198730,570.441772 972.679138,569.277405 
	C972.679138,520.773499 972.679138,473.026947 972.679138,425.010986 
	C959.566833,423.075592 946.752197,421.228333 933.952637,419.282776 
	C920.488281,417.236328 907.041077,415.076752 893.581055,413.001678 
	C879.147095,410.776428 864.690491,408.688873 850.292480,406.253113 
	C848.697937,405.983368 846.684326,404.087311 846.125061,402.501190 
	C843.483643,395.009521 841.467102,387.299164 838.885315,379.784454 
	C832.033020,359.839874 823.872375,340.415070 812.850586,322.417816 
	C809.362427,316.722107 811.183533,313.371002 814.469788,309.081604 
	C822.204712,298.985535 829.654968,288.671417 837.225586,278.449371 
	C847.165222,265.028473 857.137512,251.631561 867.042297,238.184967 
	C873.076538,229.992981 879.010254,221.726974 884.260498,214.497498 
	C850.121033,180.029877 816.428528,146.013519 782.488403,111.747124 
	C772.533752,119.197868 762.649231,126.676407 752.680603,134.041168 
	C729.534363,151.141495 706.373840,168.223114 683.105042,185.155472 
	C681.842346,186.074326 679.297607,186.172546 677.766235,185.578644 
	C674.873779,184.456879 672.321472,182.485168 669.563538,180.984818 
	C646.182312,168.264786 621.618652,158.388626 595.951538,151.462738 
	C591.124023,150.160126 589.694275,147.985764 589.091125,143.658188 
	C586.501648,125.079582 583.745972,106.523888 580.993835,87.968300 
	C579.312988,76.635445 577.549194,65.314720 575.783997,53.994572 
	C574.232178,44.042404 572.626526,34.098618 571.015503,23.967936 
	C553.133667,23.967936 535.816833,23.967936 517.500000,23.967953 
z"/>
<path fill="#6CBE45" opacity="1.000000" stroke="none" 
	d="
M518.000000,23.967945 
	C535.816833,23.967936 553.133667,23.967936 571.015503,23.967936 
	C572.626526,34.098618 574.232178,44.042404 575.783997,53.994572 
	C577.549194,65.314720 579.312988,76.635445 580.993835,87.968300 
	C583.745972,106.523888 586.501648,125.079582 589.091125,143.658188 
	C589.694275,147.985764 591.124023,150.160126 595.951538,151.462738 
	C621.618652,158.388626 646.182312,168.264786 669.563538,180.984818 
	C672.321472,182.485168 674.873779,184.456879 677.766235,185.578644 
	C679.297607,186.172546 681.842346,186.074326 683.105042,185.155472 
	C706.373840,168.223114 729.534363,151.141495 752.680603,134.041168 
	C762.649231,126.676407 772.533752,119.197868 782.488403,111.747124 
	C816.428528,146.013519 850.121033,180.029877 884.260498,214.497498 
	C879.010254,221.726974 873.076538,229.992981 867.042297,238.184967 
	C857.137512,251.631561 847.165222,265.028473 837.225586,278.449371 
	C829.654968,288.671417 822.204712,298.985535 814.469788,309.081604 
	C811.183533,313.371002 809.362427,316.722107 812.850586,322.417816 
	C823.872375,340.415070 832.033020,359.839874 838.885315,379.784454 
	C841.467102,387.299164 843.483643,395.009521 846.125061,402.501190 
	C846.684326,404.087311 848.697937,405.983368 850.292480,406.253113 
	C864.690491,408.688873 879.147095,410.776428 893.581055,413.001678 
	C907.041077,415.076752 920.488281,417.236328 933.952637,419.282776 
	C946.752197,421.228333 959.566833,423.075592 972.679138,425.010986 
	C972.679138,473.026947 972.679138,520.773499 972.679138,569.277405 
	C965.198730,570.441772 957.540100,571.642883 949.878540,572.824524 
	C930.679688,575.785645 911.485901,578.780701 892.277527,581.679565 
	C878.488220,583.760681 864.689270,585.786377 850.869873,587.653259 
	C847.939209,588.049194 846.748535,589.347290 845.832031,592.095642 
	C841.067078,606.384827 836.662659,620.844177 830.920349,634.743408 
	C825.186646,648.621765 818.149170,661.973389 811.365112,675.395142 
	C810.129211,677.840210 809.849426,679.018005 811.608093,681.373230 
	C826.552368,701.386597 841.255310,721.580078 856.069031,741.691223 
	C865.578735,754.601685 875.153320,767.464294 884.635254,780.262512 
	C850.738525,814.180664 816.896301,848.044312 782.513916,882.448486 
	C777.054932,878.540161 771.147888,874.406799 765.341675,870.136414 
	C745.490479,855.536560 725.664185,840.902893 705.851135,826.251404 
	C698.395203,820.737732 691.121521,814.964905 683.480225,809.725159 
	C681.908142,808.647156 678.545776,808.513245 676.893066,809.470764 
	C654.439331,822.479675 630.773804,832.595398 605.923889,839.995422 
	C601.481628,841.318298 596.979248,842.476807 592.635193,844.067871 
	C591.455505,844.500000 590.116455,846.137085 589.924927,847.385925 
	C585.847412,873.967773 581.977295,900.581421 577.948120,927.170837 
	C575.759827,941.611328 573.351624,956.018555 571.014709,970.615601 
	C523.244873,970.615601 475.797363,970.615601 428.077301,970.615601 
	C426.731049,962.538391 425.276855,954.569336 424.093323,946.560242 
	C421.351044,928.002869 418.803986,909.416687 416.051300,890.860901 
	C414.370148,879.528259 411.580780,868.281494 410.915833,856.901123 
	C410.366882,847.506348 406.886658,843.661133 397.689362,841.281067 
	C383.820740,837.692200 370.325867,832.325256 357.089325,826.727539 
	C345.354004,821.764771 334.109100,815.605347 322.824219,809.640198 
	C319.960785,808.126648 317.854401,807.582825 315.158081,809.610474 
	C305.124542,817.155640 294.997894,824.576782 284.926910,832.072266 
	C264.618896,847.186951 244.498062,862.561340 223.946365,877.336670 
	C214.575150,884.073975 217.943832,884.398010 209.620117,876.124573 
	C192.755890,859.362061 175.667755,842.824951 158.792450,826.073547 
	C144.636765,812.021912 130.644791,797.805176 116.611938,783.630310 
	C115.815269,782.825562 115.305428,781.736877 114.482491,780.513367 
	C122.627670,769.438843 130.770981,758.384949 138.894928,747.316956 
	C152.306183,729.045654 165.703232,710.763916 179.111664,692.490601 
	C180.475891,690.631409 181.601761,688.478882 183.309753,687.011169 
	C189.958405,681.297424 188.213272,676.061707 184.619766,668.926880 
	C176.006119,651.824402 168.552338,634.115051 161.173248,616.424133 
	C157.939117,608.670532 155.957123,600.385864 153.561584,592.296387 
	C152.773499,589.635132 151.639267,588.178589 148.578186,587.752808 
	C128.521759,584.962952 108.489502,581.994446 88.466644,578.969788 
	C74.673012,576.886047 60.909821,574.601257 47.127861,572.439270 
	C40.257751,571.361511 33.376064,570.357544 26.376753,569.301697 
	C26.376753,521.075378 26.376753,473.462708 26.376753,425.086761 
	C34.839024,423.805084 43.305428,422.509399 51.776115,421.242279 
	C81.330742,416.821259 110.886826,412.409943 140.442520,407.996155 
	C141.101059,407.897766 141.761902,407.732117 142.421219,407.734253 
	C150.607101,407.760864 153.037140,403.090851 155.364594,395.622375 
	C160.621429,378.753906 167.344345,362.301208 174.212112,345.991516 
	C178.238754,336.428986 183.785324,327.513336 188.382980,318.176147 
	C188.983887,316.955780 188.531448,314.574097 187.669312,313.376343 
	C179.844177,302.504944 171.793472,291.796295 163.858963,281.003143 
	C150.346451,262.622314 136.880188,244.207474 123.370941,225.824249 
	C120.432198,221.825241 117.394028,217.899292 114.367592,213.894638 
	C148.522812,179.853165 182.414429,146.074417 216.707794,111.895256 
	C227.406845,119.810150 238.404617,127.948280 249.404755,136.083191 
	C271.478485,152.407318 293.515839,168.781555 315.717529,184.929794 
	C317.116394,185.947205 320.137177,185.929947 321.836578,185.153473 
	C338.361542,177.603088 354.559479,169.301346 371.277191,162.221100 
	C382.209076,157.591263 393.824829,154.560730 405.179321,150.955856 
	C407.794312,150.125626 409.283997,148.981415 409.699249,146.018341 
	C413.063354,122.013039 416.516632,98.019653 420.084900,74.043785 
	C422.065765,60.733818 424.318390,47.464287 426.450958,34.176914 
	C426.477203,34.013218 426.547699,33.856766 426.575836,33.693199 
	C428.249695,23.967987 428.249512,23.967955 438.502136,23.967955 
	C464.834747,23.967953 491.167389,23.967955 518.000000,23.967945 
M407.378387,625.104004 
	C419.712006,634.255005 433.188934,641.141785 447.656860,646.337708 
	C475.296753,656.264282 503.507965,657.951294 532.041626,651.956726 
	C551.795776,647.806519 570.014709,639.792236 586.946045,628.416321 
	C608.570435,613.887268 625.678223,595.432556 638.031311,572.727478 
	C648.163757,554.104065 654.344055,534.212097 656.327271,512.819763 
	C659.350647,480.207031 653.431946,449.558136 637.767883,421.047485 
	C625.494812,398.708771 608.428223,380.490082 587.128357,366.109741 
	C562.988098,349.811707 536.458130,340.900604 507.605072,339.238922 
	C481.106689,337.712830 455.775635,343.111084 431.790436,354.599579 
	C414.134766,363.056366 398.595764,374.505981 385.154327,388.629608 
	C372.878601,401.528442 362.536194,415.959076 355.995575,432.630554 
	C351.780792,443.373627 348.004486,454.395294 345.288757,465.596863 
	C340.282562,486.246185 340.793549,507.086090 344.898987,527.948914 
	C348.458771,546.038757 354.960632,562.980713 364.371918,578.684082 
	C375.287292,596.897217 389.666351,612.159058 407.378387,625.104004 
z"/>
<path fill="#FFFFFF" opacity="1.000000" stroke="none" 
	d="
M407.035675,624.995117 
	C389.666351,612.159058 375.287292,596.897217 364.371918,578.684082 
	C354.960632,562.980713 348.458771,546.038757 344.898987,527.948914 
	C340.793549,507.086090 340.282562,486.246185 345.288757,465.596863 
	C348.004486,454.395294 351.780792,443.373627 355.995575,432.630554 
	C362.536194,415.959076 372.878601,401.528442 385.154327,388.629608 
	C398.595764,374.505981 414.134766,363.056366 431.790436,354.599579 
	C455.775635,343.111084 481.106689,337.712830 507.605072,339.238922 
	C536.458130,340.900604 562.988098,349.811707 587.128357,366.109741 
	C608.428223,380.490082 625.494812,398.708771 637.767883,421.047485 
	C653.431946,449.558136 659.350647,480.207031 656.327271,512.819763 
	C654.344055,534.212097 648.163757,554.104065 638.031311,572.727478 
	C625.678223,595.432556 608.570435,613.887268 586.946045,628.416321 
	C570.014709,639.792236 551.795776,647.806519 532.041626,651.956726 
	C503.507965,657.951294 475.296753,656.264282 447.656860,646.337708 
	C433.188934,641.141785 419.712006,634.255005 407.035675,624.995117 
z"/>
</svg>