<svg version="1.1" id="Layer_1" xmlns="http://www.w3.org/2000/svg" xmlns:xlink="http://www.w3.org/1999/xlink" x="0px" y="0px"
	 width="100%" viewBox="0 0 225 225" enable-background="new 0 0 225 225" xml:space="preserve" fill="#3B82F6">
<path fill="#FFFFFF" opacity="1.000000" stroke="none" 
	d="
M156.000000,226.000000 
	C104.000000,226.000000 52.500008,226.000000 1.000007,226.000000 
	C1.000005,151.000000 1.000005,76.000015 1.000002,1.000017 
	C75.999992,1.000011 150.999985,1.000011 225.999969,1.000006 
	C225.999985,75.999985 225.999985,150.999969 226.000000,225.999969 
	C202.833328,226.000000 179.666672,226.000000 156.000000,226.000000 
M104.395164,19.150019 
	C101.104790,19.585588 97.769295,19.806871 94.530792,20.488806 
	C44.347786,31.055901 13.085831,74.963173 19.923456,125.851311 
	C26.492897,174.743515 74.020798,215.119095 130.867050,203.373291 
	C181.521408,192.906906 212.456589,146.237289 203.961105,95.125816 
	C197.626968,57.017723 164.114182,24.597004 125.825706,19.952808 
	C119.019417,19.127243 112.044357,19.693018 104.395164,19.150019 
z"/>
<path fill="#6F59F1" opacity="1.000000" stroke="none" 
	d="
M104.771194,19.383173 
	C112.044357,19.693018 119.019417,19.127243 125.825706,19.952808 
	C164.114182,24.597004 197.626968,57.017723 203.961105,95.125816 
	C212.456589,146.237289 181.521408,192.906906 130.867050,203.373291 
	C74.020798,215.119095 26.492897,174.743515 19.923456,125.851311 
	C13.085831,74.963173 44.347786,31.055901 94.530792,20.488806 
	C97.769295,19.806871 101.104790,19.585588 104.771194,19.383173 
M116.697174,100.721169 
	C118.075485,101.746475 119.453796,102.771790 120.832123,103.797104 
	C119.514008,104.863777 118.341522,106.248550 116.848076,106.932266 
	C113.525055,108.453575 109.860245,109.301102 106.699905,111.074135 
	C105.124443,111.958015 103.474480,114.260498 103.448013,115.946259 
	C103.417534,117.886650 104.634232,120.834641 106.192970,121.644791 
	C113.866493,125.633133 121.772507,129.198456 129.723297,132.618195 
	C133.393433,134.196777 136.116135,132.374695 136.149963,128.337311 
	C136.285294,112.182030 136.290741,96.024277 136.154953,79.869034 
	C136.118515,75.534782 133.436935,73.875229 129.381989,75.591377 
	C121.718056,78.834930 114.057007,82.134430 106.667076,85.939560 
	C104.954559,86.821350 103.459877,89.839798 103.482346,91.857063 
	C103.501709,93.596970 105.485046,95.866913 107.202850,96.908241 
	C109.862625,98.520607 113.035454,99.286629 116.697174,100.721169 
M84.639496,119.045830 
	C95.689972,122.732071 99.687149,119.961617 99.691711,108.611023 
	C99.693382,104.458939 99.775322,100.304733 99.671204,96.155251 
	C99.498810,89.284302 95.706284,86.242180 88.937813,87.408600 
	C82.127617,88.582207 76.656693,93.733360 75.260971,100.286072 
	C73.684669,107.686470 76.628624,113.937973 84.639496,119.045830 
M91.401779,140.991501 
	C91.933327,146.817383 93.874748,149.216263 98.028526,149.179779 
	C102.122383,149.143814 104.361824,146.372116 104.543869,140.818298 
	C104.669189,136.994965 104.495346,133.162369 104.590233,129.337265 
	C104.669655,126.135712 103.290833,124.745468 100.072212,125.055878 
	C98.588341,125.198982 97.069321,125.189224 95.583504,125.056084 
	C92.550735,124.784317 91.332039,126.172874 91.390137,129.110840 
	C91.462509,132.770416 91.402771,136.432587 91.401779,140.991501 
M141.350647,96.990547 
	C140.747147,103.824669 140.143646,110.658783 139.526627,117.646042 
	C146.492630,117.201569 150.222855,113.815964 150.729736,108.551247 
	C151.281998,102.815216 148.291077,98.755302 141.350647,96.990547 
z"/>
<path fill="#FCFCFF" opacity="1.000000" stroke="none" 
	d="
M116.343964,100.566345 
	C113.035454,99.286629 109.862625,98.520607 107.202850,96.908241 
	C105.485046,95.866913 103.501709,93.596970 103.482346,91.857063 
	C103.459877,89.839798 104.954559,86.821350 106.667076,85.939560 
	C114.057007,82.134430 121.718056,78.834930 129.381989,75.591377 
	C133.436935,73.875229 136.118515,75.534782 136.154953,79.869034 
	C136.290741,96.024277 136.285294,112.182030 136.149963,128.337311 
	C136.116135,132.374695 133.393433,134.196777 129.723297,132.618195 
	C121.772507,129.198456 113.866493,125.633133 106.192970,121.644791 
	C104.634232,120.834641 103.417534,117.886650 103.448013,115.946259 
	C103.474480,114.260498 105.124443,111.958015 106.699905,111.074135 
	C109.860245,109.301102 113.525055,108.453575 116.848076,106.932266 
	C118.341522,106.248550 119.514008,104.863777 120.832123,103.797104 
	C119.453796,102.771790 118.075485,101.746475 116.343964,100.566345 
z"/>
<path fill="#FAF9FE" opacity="1.000000" stroke="none" 
	d="
M84.295883,118.893974 
	C76.628624,113.937973 73.684669,107.686470 75.260971,100.286072 
	C76.656693,93.733360 82.127617,88.582207 88.937813,87.408600 
	C95.706284,86.242180 99.498810,89.284302 99.671204,96.155251 
	C99.775322,100.304733 99.693382,104.458939 99.691711,108.611023 
	C99.687149,119.961617 95.689972,122.732071 84.295883,118.893974 
z"/>
<path fill="#FBFAFF" opacity="1.000000" stroke="none" 
	d="
M91.400932,140.542572 
	C91.402771,136.432587 91.462509,132.770416 91.390137,129.110840 
	C91.332039,126.172874 92.550735,124.784317 95.583504,125.056084 
	C97.069321,125.189224 98.588341,125.198982 100.072212,125.055878 
	C103.290833,124.745468 104.669655,126.135712 104.590233,129.337265 
	C104.495346,133.162369 104.669189,136.994965 104.543869,140.818298 
	C104.361824,146.372116 102.122383,149.143814 98.028526,149.179779 
	C93.874748,149.216263 91.933327,146.817383 91.400932,140.542572 
z"/>
<path fill="#F7F6FE" opacity="1.000000" stroke="none" 
	d="
M141.768600,96.972565 
	C148.291077,98.755302 151.281998,102.815216 150.729736,108.551247 
	C150.222855,113.815964 146.492630,117.201569 139.526627,117.646042 
	C140.143646,110.658783 140.747147,103.824669 141.768600,96.972565 
z"/>
</svg>