<svg version="1.1" id="Layer_1" xmlns="http://www.w3.org/2000/svg" xmlns:xlink="http://www.w3.org/1999/xlink" x="0px" y="0px"
	 width="100%" viewBox="0 0 225 225" enable-background="new 0 0 225 225" xml:space="preserve" fill="#3B82F6">
<path fill="#FDFEFF" opacity="1.000000" stroke="none" 
	d="
M226.000000,87.000000 
	C226.000000,133.666672 226.000000,179.833328 226.000000,226.000000 
	C151.000000,226.000000 76.000000,226.000000 1.000000,226.000000 
	C1.000000,151.000000 1.000000,76.000000 1.000000,1.000000 
	C76.000000,1.000000 151.000000,1.000000 226.000000,1.000000 
	C226.000000,29.500000 226.000000,58.000000 226.000000,87.000000 
M163.610168,127.143929 
	C176.785324,110.655830 193.757095,99.955879 214.583481,94.443016 
	C212.357361,86.923256 210.268005,79.865448 208.188477,72.840889 
	C137.506989,91.640450 110.008408,163.824158 126.572914,215.638702 
	C133.193817,214.094376 139.881042,212.534607 146.713852,210.940857 
	C139.313004,180.168365 144.559708,152.577271 163.610168,127.143929 
M85.945686,122.607887 
	C69.819542,97.791054 47.719723,81.184303 18.438639,73.029060 
	C16.344912,80.600479 14.422743,87.551506 12.404892,94.848541 
	C37.779713,102.011925 56.829899,116.486855 69.627602,138.698318 
	C82.510368,161.057388 85.030075,185.006653 78.889305,210.486786 
	C85.944519,212.211212 92.641083,213.847977 99.718712,215.577881 
	C107.713234,182.427078 103.729034,151.868790 85.945686,122.607887 
M103.681343,83.048317 
	C139.041550,85.415413 169.143402,74.091896 194.523071,48.674652 
	C189.384064,43.254467 184.722214,38.337555 179.943283,33.297150 
	C161.177689,52.260242 139.174744,62.322250 113.030037,62.312695 
	C86.982277,62.303173 64.977013,52.293575 46.444561,33.577454 
	C41.481495,39.007153 36.917953,43.999763 32.192883,49.169094 
	C52.079250,69.114632 75.400414,80.245811 103.681343,83.048317 
M77.986259,28.570633 
	C106.826424,46.098652 142.196213,37.958340 159.385315,19.137369 
	C152.176926,16.650118 145.399216,14.168578 138.507843,12.058207 
	C137.182693,11.652393 135.299973,12.460693 133.863205,13.120124 
	C120.065552,19.452820 106.304512,19.577560 92.490913,13.187892 
	C91.185280,12.583953 89.490326,11.711564 88.332047,12.080688 
	C81.208366,14.350871 74.187042,16.942263 65.923126,19.852362 
	C70.689781,23.296829 74.041962,25.719175 77.986259,28.570633 
M197.654922,155.215607 
	C200.092758,152.713577 202.452393,150.128448 204.994003,147.736694 
	C206.908829,145.934799 210.268219,144.737289 210.882141,142.651825 
	C213.038330,135.327255 214.285858,127.735199 216.020432,119.576096 
	C179.484589,129.554855 160.864441,169.676743 169.066101,199.953812 
	C174.166412,195.731659 179.199341,191.956696 183.712952,187.638855 
	C185.554489,185.877213 187.008713,183.043060 187.365555,180.516937 
	C188.651337,171.414383 191.753021,163.159790 197.654922,155.215607 
M41.601910,139.929626 
	C33.531422,130.797958 23.964201,123.907997 11.075056,119.630005 
	C12.394640,126.604767 13.647909,132.727951 14.682608,138.887833 
	C15.293294,142.523453 17.033859,145.062103 19.980116,147.397964 
	C30.513550,155.749146 36.324577,166.855789 37.977718,180.178802 
	C38.114437,181.280640 38.262691,182.694595 38.971764,183.362228 
	C44.605568,188.666840 50.376446,193.825867 57.002415,199.844513 
	C60.617870,176.771225 56.004387,157.432846 41.601910,139.929626 
z"/>
<path fill="#0373F6" opacity="1.000000" stroke="none" 
	d="
M163.378296,127.417603 
	C144.559708,152.577271 139.313004,180.168365 146.713852,210.940857 
	C139.881042,212.534607 133.193817,214.094376 126.572914,215.638702 
	C110.008408,163.824158 137.506989,91.640450 208.188477,72.840889 
	C210.268005,79.865448 212.357361,86.923256 214.583481,94.443016 
	C193.757095,99.955879 176.785324,110.655830 163.378296,127.417603 
z"/>
<path fill="#0473F6" opacity="1.000000" stroke="none" 
	d="
M86.102051,122.936302 
	C103.729034,151.868790 107.713234,182.427078 99.718712,215.577881 
	C92.641083,213.847977 85.944519,212.211212 78.889305,210.486786 
	C85.030075,185.006653 82.510368,161.057388 69.627602,138.698318 
	C56.829899,116.486855 37.779713,102.011925 12.404892,94.848541 
	C14.422743,87.551506 16.344912,80.600479 18.438639,73.029060 
	C47.719723,81.184303 69.819542,97.791054 86.102051,122.936302 
z"/>
<path fill="#0473F6" opacity="1.000000" stroke="none" 
	d="
M103.206718,83.040421 
	C75.400414,80.245811 52.079250,69.114632 32.192883,49.169094 
	C36.917953,43.999763 41.481495,39.007153 46.444561,33.577454 
	C64.977013,52.293575 86.982277,62.303173 113.030037,62.312695 
	C139.174744,62.322250 161.177689,52.260242 179.943283,33.297150 
	C184.722214,38.337555 189.384064,43.254467 194.523071,48.674652 
	C169.143402,74.091896 139.041550,85.415413 103.206718,83.040421 
z"/>
<path fill="#0473F6" opacity="1.000000" stroke="none" 
	d="
M77.690201,28.356077 
	C74.041962,25.719175 70.689781,23.296829 65.923126,19.852362 
	C74.187042,16.942263 81.208366,14.350871 88.332047,12.080688 
	C89.490326,11.711564 91.185280,12.583953 92.490913,13.187892 
	C106.304512,19.577560 120.065552,19.452820 133.863205,13.120124 
	C135.299973,12.460693 137.182693,11.652393 138.507843,12.058207 
	C145.399216,14.168578 152.176926,16.650118 159.385315,19.137369 
	C142.196213,37.958340 106.826424,46.098652 77.690201,28.356077 
z"/>
<path fill="#0473F6" opacity="1.000000" stroke="none" 
	d="
M197.430038,155.495438 
	C191.753021,163.159790 188.651337,171.414383 187.365555,180.516937 
	C187.008713,183.043060 185.554489,185.877213 183.712952,187.638855 
	C179.199341,191.956696 174.166412,195.731659 169.066101,199.953812 
	C160.864441,169.676743 179.484589,129.554855 216.020432,119.576096 
	C214.285858,127.735199 213.038330,135.327255 210.882141,142.651825 
	C210.268219,144.737289 206.908829,145.934799 204.994003,147.736694 
	C202.452393,150.128448 200.092758,152.713577 197.430038,155.495438 
z"/>
<path fill="#0473F6" opacity="1.000000" stroke="none" 
	d="
M41.832203,140.200287 
	C56.004387,157.432846 60.617870,176.771225 57.002415,199.844513 
	C50.376446,193.825867 44.605568,188.666840 38.971764,183.362228 
	C38.262691,182.694595 38.114437,181.280640 37.977718,180.178802 
	C36.324577,166.855789 30.513550,155.749146 19.980116,147.397964 
	C17.033859,145.062103 15.293294,142.523453 14.682608,138.887833 
	C13.647909,132.727951 12.394640,126.604767 11.075056,119.630005 
	C23.964201,123.907997 33.531422,130.797958 41.832203,140.200287 
z"/>
</svg>