<?xml version="1.0" standalone="no"?>
<!DOCTYPE svg PUBLIC "-//W3C//DTD SVG 20010904//EN"
 "http://www.w3.org/TR/2001/REC-SVG-20010904/DTD/svg10.dtd">
<svg version="1.0" xmlns="http://www.w3.org/2000/svg"
 width="225.000000pt" height="225.000000pt" viewBox="0 0 225.000000 225.000000"
 preserveAspectRatio="xMidYMid meet" fill="#3B82F6">

<g transform="translate(0.000000,225.000000) scale(0.100000,-0.100000)"
fill="#000000" stroke="none">
<path d="M1087 1685 c-27 -7 -67 -26 -89 -42 -184 -127 -166 -389 45 -670 l39
-52 40 46 c65 75 67 84 26 145 -41 63 -78 167 -78 220 0 51 33 114 70 133 38
20 100 19 129 -1 29 -21 60 -88 61 -131 1 -111 -115 -320 -242 -438 -253 -234
-513 -180 -661 137 -58 124 -108 346 -123 541 l-7 97 -128 0 -129 0 0 -79 c0
-316 132 -695 308 -884 229 -245 510 -236 809 25 91 80 137 132 208 239 111
166 171 326 162 436 -7 91 -53 181 -116 227 -82 61 -214 81 -324 51z"/>
<path d="M2036 1348 c-2 -7 -9 -46 -15 -87 -14 -91 -70 -239 -117 -308 -112
-163 -257 -218 -408 -154 l-46 21 -61 -61 c-33 -33 -59 -62 -57 -63 83 -61
220 -90 343 -74 238 31 463 280 525 583 29 143 30 141 -32 149 -82 9 -128 7
-132 -6z"/>
</g>
</svg>
