<svg version="1.1" id="Layer_1" xmlns="http://www.w3.org/2000/svg" xmlns:xlink="http://www.w3.org/1999/xlink" x="0px" y="0px"
	 width="100%" viewBox="0 0 1034 780" enable-background="new 0 0 1034 780" xml:space="preserve" fill="#3B82F6">
<path fill="#000000" opacity="1.000000" stroke="none" 
	d="
M521.000000,781.000000 
	C347.333344,781.000000 174.166672,781.000000 1.000000,781.000000 
	C1.000000,521.000000 1.000000,261.000000 1.000000,1.000000 
	C345.666656,1.000000 690.333313,1.000000 1035.000000,1.000000 
	C1035.000000,261.000000 1035.000000,521.000000 1035.000000,781.000000 
	C863.833313,781.000000 692.666687,781.000000 521.000000,781.000000 
M520.313354,164.000092 
	C506.946442,163.661865 495.043182,168.201492 483.717957,174.827850 
	C468.127930,183.949539 452.477814,192.968475 436.850159,202.025803 
	C421.501251,210.921600 406.138733,219.794022 390.799683,228.706787 
	C375.168976,237.789032 359.608276,246.992752 343.928345,255.988876 
	C325.092987,266.795410 314.368256,283.028931 314.171600,304.616882 
	C313.660034,360.778656 313.976166,416.948151 314.043030,473.114471 
	C314.048492,477.705811 314.279236,482.365448 315.076599,486.874634 
	C317.640991,501.377228 324.850708,513.182922 337.082275,521.478760 
	C344.338837,526.400330 352.044525,530.670593 359.627655,535.097656 
	C377.327057,545.430725 395.074646,555.681335 412.802277,565.966003 
	C428.414551,575.023438 443.979187,584.164246 459.653290,593.113403 
	C472.072601,600.204163 484.274506,607.817383 497.211670,613.822571 
	C512.250488,620.803406 528.172241,619.949402 542.673523,612.347473 
	C563.286865,601.541565 583.247620,589.484497 603.422119,577.849304 
	C629.112915,563.032776 654.779236,548.172852 680.373169,533.190063 
	C691.027466,526.953003 702.497864,521.860352 710.184692,511.404297 
	C717.003235,502.129456 721.910950,492.134491 721.937866,480.499390 
	C722.072998,422.000000 722.017273,363.500061 721.957520,305.000397 
	C721.953857,301.413055 721.641907,297.767822 720.959534,294.249176 
	C717.761902,277.760651 708.618164,265.448700 694.166992,257.038574 
	C680.243225,248.935349 666.278564,240.902313 652.331177,232.839554 
	C636.839417,223.883987 621.334412,214.951202 605.858459,205.968353 
	C591.936279,197.887390 578.127319,189.607590 564.117676,181.682007 
	C550.577698,174.022171 537.519165,165.063538 520.313354,164.000092 
z"/>
<path fill="#FE7139" opacity="1.000000" stroke="none" 
	d="
M520.775330,164.000580 
	C537.519165,165.063538 550.577698,174.022171 564.117676,181.682007 
	C578.127319,189.607590 591.936279,197.887390 605.858459,205.968353 
	C621.334412,214.951202 636.839417,223.883987 652.331177,232.839554 
	C666.278564,240.902313 680.243225,248.935349 694.166992,257.038574 
	C708.618164,265.448700 717.761902,277.760651 720.959534,294.249176 
	C721.641907,297.767822 721.953857,301.413055 721.957520,305.000397 
	C722.017273,363.500061 722.072998,422.000000 721.937866,480.499390 
	C721.910950,492.134491 717.003235,502.129456 710.184692,511.404297 
	C702.497864,521.860352 691.027466,526.953003 680.373169,533.190063 
	C654.779236,548.172852 629.112915,563.032776 603.422119,577.849304 
	C583.247620,589.484497 563.286865,601.541565 542.673523,612.347473 
	C528.172241,619.949402 512.250488,620.803406 497.211670,613.822571 
	C484.274506,607.817383 472.072601,600.204163 459.653290,593.113403 
	C443.979187,584.164246 428.414551,575.023438 412.802277,565.966003 
	C395.074646,555.681335 377.327057,545.430725 359.627655,535.097656 
	C352.044525,530.670593 344.338837,526.400330 337.082275,521.478760 
	C324.850708,513.182922 317.640991,501.377228 315.076599,486.874634 
	C314.279236,482.365448 314.048492,477.705811 314.043030,473.114471 
	C313.976166,416.948151 313.660034,360.778656 314.171600,304.616882 
	C314.368256,283.028931 325.092987,266.795410 343.928345,255.988876 
	C359.608276,246.992752 375.168976,237.789032 390.799683,228.706787 
	C406.138733,219.794022 421.501251,210.921600 436.850159,202.025803 
	C452.477814,192.968475 468.127930,183.949539 483.717957,174.827850 
	C495.043182,168.201492 506.946442,163.661865 520.775330,164.000580 
M526.925232,374.565704 
	C526.567566,374.548492 526.209961,374.531250 525.734253,375.506470 
	C525.734253,418.950562 525.734253,462.394684 525.734253,506.932709 
	C561.439941,489.563995 596.317139,472.598267 631.622009,455.424530 
	C593.683594,393.896118 556.076599,332.905090 517.998047,271.149353 
	C479.869934,332.990875 442.213684,394.066986 404.377899,455.434326 
	C439.883179,472.700745 474.663208,489.614502 509.759857,506.682220 
	C510.037537,505.225800 510.264160,504.592804 510.263763,503.959930 
	C510.236145,460.810303 510.190338,417.660645 509.815765,374.222717 
	C509.544098,374.482178 509.272430,374.741608 508.743896,375.640320 
	C497.536255,395.229492 486.328644,414.818634 475.062439,434.510162 
	C481.756226,437.970795 488.423187,441.351318 495.008728,444.883636 
	C496.185516,445.514893 497.824188,446.727142 497.885193,447.752258 
	C498.183685,452.771454 498.020477,457.818146 498.020477,463.620117 
	C482.084808,456.214569 467.091461,449.246918 451.867920,442.172302 
	C473.868042,406.311859 495.733124,370.671478 517.750916,334.782257 
	C518.557556,335.675385 518.940063,335.987518 519.184021,336.384735 
	C540.086609,370.420868 560.957703,404.476349 581.907837,438.483185 
	C583.713440,441.414124 583.003662,442.761383 580.029175,444.113861 
	C566.856873,450.103241 553.770203,456.280731 540.639526,462.362000 
	C539.943848,462.684265 539.129089,462.749451 538.334717,462.942780 
	C536.497742,447.057404 536.497375,447.056671 549.804138,440.225555 
	C551.876038,439.161926 553.871216,437.880554 556.045288,437.098633 
	C560.419128,435.525574 560.361084,433.340637 558.190491,429.609802 
	C547.649048,411.490936 537.370728,393.218903 526.925232,374.565704 
z"/>
<path fill="#FFFEFE" opacity="1.000000" stroke="none" 
	d="
M510.146088,374.511017 
	C510.190338,417.660645 510.236145,460.810303 510.263763,503.959930 
	C510.264160,504.592804 510.037537,505.225800 509.759857,506.682220 
	C474.663208,489.614502 439.883179,472.700745 404.377899,455.434326 
	C442.213684,394.066986 479.869934,332.990875 517.998047,271.149353 
	C556.076599,332.905090 593.683594,393.896118 631.622009,455.424530 
	C596.317139,472.598267 561.439941,489.563995 525.734253,506.932709 
	C525.734253,462.394684 525.734253,418.950562 526.079956,375.132874 
	C526.616882,374.839874 526.808044,374.920502 526.999268,375.001129 
	C537.370728,393.218903 547.649048,411.490936 558.190491,429.609802 
	C560.361084,433.340637 560.419128,435.525574 556.045288,437.098633 
	C553.871216,437.880554 551.876038,439.161926 549.804138,440.225555 
	C536.497375,447.056671 536.497742,447.057404 538.334717,462.942780 
	C539.129089,462.749451 539.943848,462.684265 540.639526,462.362000 
	C553.770203,456.280731 566.856873,450.103241 580.029175,444.113861 
	C583.003662,442.761383 583.713440,441.414124 581.907837,438.483185 
	C560.957703,404.476349 540.086609,370.420868 519.184021,336.384735 
	C518.940063,335.987518 518.557556,335.675385 517.750916,334.782257 
	C495.733124,370.671478 473.868042,406.311859 451.867920,442.172302 
	C467.091461,449.246918 482.084808,456.214569 498.020477,463.620117 
	C498.020477,457.818146 498.183685,452.771454 497.885193,447.752258 
	C497.824188,446.727142 496.185516,445.514893 495.008728,444.883636 
	C488.423187,441.351318 481.756226,437.970795 475.062439,434.510162 
	C486.328644,414.818634 497.536255,395.229492 509.158783,375.198456 
	C509.764465,374.674744 509.955261,374.592896 510.146088,374.511017 
z"/>
<path fill="#FEA685" opacity="1.000000" stroke="none" 
	d="
M509.980927,374.366882 
	C509.955261,374.592896 509.764465,374.674744 509.287231,374.878845 
	C509.272430,374.741608 509.544098,374.482178 509.980927,374.366882 
z"/>
<path fill="#FEA685" opacity="1.000000" stroke="none" 
	d="
M526.962280,374.783417 
	C526.808044,374.920502 526.616882,374.839874 526.139038,374.636658 
	C526.209961,374.531250 526.567566,374.548492 526.962280,374.783417 
z"/>
</svg>