<svg width="1200" height="800" viewBox="0 0 1200 800" fill="none" xmlns="http://www.w3.org/2000/svg">
  <defs>
    <linearGradient id="bg" x1="0" y1="0" x2="1200" y2="800" gradientUnits="userSpaceOnUse">
      <stop offset="0" stop-color="#090D1C"/>
      <stop offset="1" stop-color="#05070F"/>
    </linearGradient>
    <linearGradient id="word" x1="260" y1="220" x2="940" y2="410" gradientUnits="userSpaceOnUse">
      <stop offset="0" stop-color="#1CEBFF"/>
      <stop offset="1" stop-color="#30DFFF"/>
    </linearGradient>
    <filter id="wordGlow" x="-25%" y="-25%" width="150%" height="150%">
      <feGaussianBlur stdDeviation="12" result="blur"/>
      <feMerge>
        <feMergeNode in="blur"/>
        <feMergeNode in="SourceGraphic"/>
      </feMerge>
    </filter>
    <linearGradient id="line" x1="120" y1="0" x2="1080" y2="0" gradientUnits="userSpaceOnUse">
      <stop offset="0" stop-color="#243B62" stop-opacity="0"/>
      <stop offset="0.5" stop-color="#3C6EAC" stop-opacity="0.9"/>
      <stop offset="1" stop-color="#243B62" stop-opacity="0"/>
    </linearGradient>
  </defs>

  <rect width="1200" height="800" fill="url(#bg)"/>

  <g filter="url(#wordGlow)">
    <rect x="198" y="220" width="20" height="20" fill="url(#word)"/><rect x="220" y="220" width="20" height="20" fill="url(#word)"/><rect x="242" y="220" width="20" height="20" fill="url(#word)"/><rect x="264" y="220" width="20" height="20" fill="url(#word)"/><rect x="176" y="242" width="20" height="20" fill="url(#word)"/><rect x="198" y="242" width="20" height="20" fill="url(#word)"/><rect x="264" y="242" width="20" height="20" fill="url(#word)"/><rect x="286" y="242" width="20" height="20" fill="url(#word)"/><rect x="176" y="264" width="20" height="20" fill="url(#word)"/><rect x="198" y="264" width="20" height="20" fill="url(#word)"/><rect x="264" y="264" width="20" height="20" fill="url(#word)"/><rect x="286" y="264" width="20" height="20" fill="url(#word)"/><rect x="176" y="286" width="20" height="20" fill="url(#word)"/><rect x="198" y="286" width="20" height="20" fill="url(#word)"/><rect x="220" y="286" width="20" height="20" fill="url(#word)"/><rect x="242" y="286" width="20" height="20" fill="url(#word)"/><rect x="264" y="286" width="20" height="20" fill="url(#word)"/><rect x="286" y="286" width="20" height="20" fill="url(#word)"/><rect x="176" y="308" width="20" height="20" fill="url(#word)"/><rect x="198" y="308" width="20" height="20" fill="url(#word)"/><rect x="264" y="308" width="20" height="20" fill="url(#word)"/><rect x="286" y="308" width="20" height="20" fill="url(#word)"/><rect x="176" y="330" width="20" height="20" fill="url(#word)"/><rect x="198" y="330" width="20" height="20" fill="url(#word)"/><rect x="264" y="330" width="20" height="20" fill="url(#word)"/><rect x="286" y="330" width="20" height="20" fill="url(#word)"/><rect x="176" y="352" width="20" height="20" fill="url(#word)"/><rect x="198" y="352" width="20" height="20" fill="url(#word)"/><rect x="264" y="352" width="20" height="20" fill="url(#word)"/><rect x="286" y="352" width="20" height="20" fill="url(#word)"/><rect x="352" y="220" width="20" height="20" fill="url(#word)"/><rect x="374" y="220" width="20" height="20" fill="url(#word)"/><rect x="440" y="220" width="20" height="20" fill="url(#word)"/><rect x="462" y="220" width="20" height="20" fill="url(#word)"/><rect x="352" y="242" width="20" height="20" fill="url(#word)"/><rect x="374" y="242" width="20" height="20" fill="url(#word)"/><rect x="396" y="242" width="20" height="20" fill="url(#word)"/><rect x="440" y="242" width="20" height="20" fill="url(#word)"/><rect x="462" y="242" width="20" height="20" fill="url(#word)"/><rect x="352" y="264" width="20" height="20" fill="url(#word)"/><rect x="374" y="264" width="20" height="20" fill="url(#word)"/><rect x="396" y="264" width="20" height="20" fill="url(#word)"/><rect x="440" y="264" width="20" height="20" fill="url(#word)"/><rect x="462" y="264" width="20" height="20" fill="url(#word)"/><rect x="352" y="286" width="20" height="20" fill="url(#word)"/><rect x="374" y="286" width="20" height="20" fill="url(#word)"/><rect x="418" y="286" width="20" height="20" fill="url(#word)"/><rect x="440" y="286" width="20" height="20" fill="url(#word)"/><rect x="462" y="286" width="20" height="20" fill="url(#word)"/><rect x="352" y="308" width="20" height="20" fill="url(#word)"/><rect x="374" y="308" width="20" height="20" fill="url(#word)"/><rect x="418" y="308" width="20" height="20" fill="url(#word)"/><rect x="440" y="308" width="20" height="20" fill="url(#word)"/><rect x="462" y="308" width="20" height="20" fill="url(#word)"/><rect x="352" y="330" width="20" height="20" fill="url(#word)"/><rect x="374" y="330" width="20" height="20" fill="url(#word)"/><rect x="440" y="330" width="20" height="20" fill="url(#word)"/><rect x="462" y="330" width="20" height="20" fill="url(#word)"/><rect x="352" y="352" width="20" height="20" fill="url(#word)"/><rect x="374" y="352" width="20" height="20" fill="url(#word)"/><rect x="440" y="352" width="20" height="20" fill="url(#word)"/><rect x="462" y="352" width="20" height="20" fill="url(#word)"/><rect x="528" y="220" width="20" height="20" fill="url(#word)"/><rect x="550" y="220" width="20" height="20" fill="url(#word)"/><rect x="572" y="220" width="20" height="20" fill="url(#word)"/><rect x="594" y="220" width="20" height="20" fill="url(#word)"/><rect x="616" y="220" width="20" height="20" fill="url(#word)"/><rect x="638" y="220" width="20" height="20" fill="url(#word)"/><rect x="572" y="242" width="20" height="20" fill="url(#word)"/><rect x="594" y="242" width="20" height="20" fill="url(#word)"/><rect x="572" y="264" width="20" height="20" fill="url(#word)"/><rect x="594" y="264" width="20" height="20" fill="url(#word)"/><rect x="572" y="286" width="20" height="20" fill="url(#word)"/><rect x="594" y="286" width="20" height="20" fill="url(#word)"/><rect x="572" y="308" width="20" height="20" fill="url(#word)"/><rect x="594" y="308" width="20" height="20" fill="url(#word)"/><rect x="572" y="330" width="20" height="20" fill="url(#word)"/><rect x="594" y="330" width="20" height="20" fill="url(#word)"/><rect x="572" y="352" width="20" height="20" fill="url(#word)"/><rect x="594" y="352" width="20" height="20" fill="url(#word)"/><rect x="726" y="220" width="20" height="20" fill="url(#word)"/><rect x="748" y="220" width="20" height="20" fill="url(#word)"/><rect x="770" y="220" width="20" height="20" fill="url(#word)"/><rect x="792" y="220" width="20" height="20" fill="url(#word)"/><rect x="704" y="242" width="20" height="20" fill="url(#word)"/><rect x="726" y="242" width="20" height="20" fill="url(#word)"/><rect x="792" y="242" width="20" height="20" fill="url(#word)"/><rect x="814" y="242" width="20" height="20" fill="url(#word)"/><rect x="704" y="264" width="20" height="20" fill="url(#word)"/><rect x="726" y="264" width="20" height="20" fill="url(#word)"/><rect x="792" y="264" width="20" height="20" fill="url(#word)"/><rect x="814" y="264" width="20" height="20" fill="url(#word)"/><rect x="704" y="286" width="20" height="20" fill="url(#word)"/><rect x="726" y="286" width="20" height="20" fill="url(#word)"/><rect x="792" y="286" width="20" height="20" fill="url(#word)"/><rect x="814" y="286" width="20" height="20" fill="url(#word)"/><rect x="704" y="308" width="20" height="20" fill="url(#word)"/><rect x="726" y="308" width="20" height="20" fill="url(#word)"/><rect x="792" y="308" width="20" height="20" fill="url(#word)"/><rect x="814" y="308" width="20" height="20" fill="url(#word)"/><rect x="704" y="330" width="20" height="20" fill="url(#word)"/><rect x="726" y="330" width="20" height="20" fill="url(#word)"/><rect x="792" y="330" width="20" height="20" fill="url(#word)"/><rect x="814" y="330" width="20" height="20" fill="url(#word)"/><rect x="726" y="352" width="20" height="20" fill="url(#word)"/><rect x="748" y="352" width="20" height="20" fill="url(#word)"/><rect x="770" y="352" width="20" height="20" fill="url(#word)"/><rect x="792" y="352" width="20" height="20" fill="url(#word)"/><rect x="880" y="220" width="20" height="20" fill="url(#word)"/><rect x="902" y="220" width="20" height="20" fill="url(#word)"/><rect x="968" y="220" width="20" height="20" fill="url(#word)"/><rect x="990" y="220" width="20" height="20" fill="url(#word)"/><rect x="880" y="242" width="20" height="20" fill="url(#word)"/><rect x="902" y="242" width="20" height="20" fill="url(#word)"/><rect x="924" y="242" width="20" height="20" fill="url(#word)"/><rect x="968" y="242" width="20" height="20" fill="url(#word)"/><rect x="990" y="242" width="20" height="20" fill="url(#word)"/><rect x="880" y="264" width="20" height="20" fill="url(#word)"/><rect x="902" y="264" width="20" height="20" fill="url(#word)"/><rect x="924" y="264" width="20" height="20" fill="url(#word)"/><rect x="968" y="264" width="20" height="20" fill="url(#word)"/><rect x="990" y="264" width="20" height="20" fill="url(#word)"/><rect x="880" y="286" width="20" height="20" fill="url(#word)"/><rect x="902" y="286" width="20" height="20" fill="url(#word)"/><rect x="946" y="286" width="20" height="20" fill="url(#word)"/><rect x="968" y="286" width="20" height="20" fill="url(#word)"/><rect x="990" y="286" width="20" height="20" fill="url(#word)"/><rect x="880" y="308" width="20" height="20" fill="url(#word)"/><rect x="902" y="308" width="20" height="20" fill="url(#word)"/><rect x="946" y="308" width="20" height="20" fill="url(#word)"/><rect x="968" y="308" width="20" height="20" fill="url(#word)"/><rect x="990" y="308" width="20" height="20" fill="url(#word)"/><rect x="880" y="330" width="20" height="20" fill="url(#word)"/><rect x="902" y="330" width="20" height="20" fill="url(#word)"/><rect x="968" y="330" width="20" height="20" fill="url(#word)"/><rect x="990" y="330" width="20" height="20" fill="url(#word)"/><rect x="880" y="352" width="20" height="20" fill="url(#word)"/><rect x="902" y="352" width="20" height="20" fill="url(#word)"/><rect x="968" y="352" width="20" height="20" fill="url(#word)"/><rect x="990" y="352" width="20" height="20" fill="url(#word)"/>
  </g>

  <rect x="120" y="395" width="960" height="2" fill="url(#line)"/>
</svg>
