<?xml version="1.0" encoding="UTF-8"?>
<svg xmlns="http://www.w3.org/2000/svg" viewBox="0 0 1024 1024" width="1024" height="1024">
  <rect width="1024" height="1024" fill="#08131d"/>

  <g fill="#eef2f6">
    <rect x="240" y="176" width="144" height="144"/>
    <rect x="400" y="176" width="144" height="144"/>
    <rect x="560" y="176" width="144" height="144"/>

    <rect x="80" y="336" width="144" height="144"/>
    <rect x="240" y="336" width="144" height="144"/>
    <rect x="560" y="336" width="144" height="144"/>
    <rect x="720" y="176" width="144" height="304"/>

    <rect x="80" y="560" width="144" height="144"/>
    <rect x="240" y="560" width="144" height="144"/>
    <rect x="400" y="560" width="144" height="144"/>
    <rect x="560" y="560" width="144" height="144"/>
    <rect x="720" y="560" width="144" height="144"/>

    <rect x="80" y="720" width="144" height="144"/>
    <rect x="720" y="720" width="144" height="144"/>
  </g>
</svg>
